%FSLAX45Y45*%
G04 Gerber Fmt 4.5, Leading zero omitted, Abs format (unit mm)*
G04 Created by KiCad (PCBNEW (5.1.4-0-10_14)) date 2019-11-24 21:13:47*
%MOMM*%
%LPD*%
G04 APERTURE LIST*
%ADD10C,0.050000*%
%ADD11C,0.200000*%
%ADD12C,0.300000*%
G04 APERTURE END LIST*
D10*
X20672300Y-5796100D02*
G75*
G02X20926300Y-6050100I0J-254000D01*
G01*
X20926300Y-11975720D02*
G75*
G02X20672300Y-12229720I-254000J0D01*
G01*
X10937240Y-12229720D02*
G75*
G02X10683240Y-11975720I0J254000D01*
G01*
X10682300Y-6050100D02*
G75*
G02X10936300Y-5796100I254000J0D01*
G01*
X20672300Y-5796100D02*
X10936300Y-5796100D01*
X20926300Y-11975720D02*
X20926300Y-6050100D01*
X10937240Y-12229720D02*
X20672300Y-12229720D01*
X10682300Y-6050100D02*
X10683240Y-11975720D01*
D11*
X10734800Y-7345560D02*
X10774800Y-7385560D01*
X10774800Y-7345560D02*
X10734800Y-7385560D01*
X10734800Y-7437000D02*
X10774800Y-7477000D01*
X10774800Y-7437000D02*
X10734800Y-7477000D01*
X10734800Y-7528440D02*
X10774800Y-7568440D01*
X10774800Y-7528440D02*
X10734800Y-7568440D01*
X10734800Y-7619880D02*
X10774800Y-7659880D01*
X10774800Y-7619880D02*
X10734800Y-7659880D01*
X10734800Y-7711320D02*
X10774800Y-7751320D01*
X10774800Y-7711320D02*
X10734800Y-7751320D01*
X10734800Y-7802760D02*
X10774800Y-7842760D01*
X10774800Y-7802760D02*
X10734800Y-7842760D01*
X10826200Y-7345560D02*
X10866200Y-7385560D01*
X10866200Y-7345560D02*
X10826200Y-7385560D01*
X10826200Y-7437000D02*
X10866200Y-7477000D01*
X10866200Y-7437000D02*
X10826200Y-7477000D01*
X10826200Y-7528440D02*
X10866200Y-7568440D01*
X10866200Y-7528440D02*
X10826200Y-7568440D01*
X10826200Y-7619880D02*
X10866200Y-7659880D01*
X10866200Y-7619880D02*
X10826200Y-7659880D01*
X10826200Y-7711320D02*
X10866200Y-7751320D01*
X10866200Y-7711320D02*
X10826200Y-7751320D01*
X10826200Y-7802760D02*
X10866200Y-7842760D01*
X10866200Y-7802760D02*
X10826200Y-7842760D01*
X12235500Y-10259400D02*
X12275500Y-10299400D01*
X12275500Y-10259400D02*
X12235500Y-10299400D01*
X12304100Y-11123000D02*
X12344100Y-11163000D01*
X12344100Y-11123000D02*
X12304100Y-11163000D01*
X12309200Y-10823300D02*
X12349200Y-10863300D01*
X12349200Y-10823300D02*
X12309200Y-10863300D01*
X12311700Y-10208600D02*
X12351700Y-10248600D01*
X12351700Y-10208600D02*
X12311700Y-10248600D01*
X12311700Y-10297500D02*
X12351700Y-10337500D01*
X12351700Y-10297500D02*
X12311700Y-10337500D01*
X12329500Y-11374400D02*
X12369500Y-11414400D01*
X12369500Y-11374400D02*
X12329500Y-11414400D01*
X12329500Y-11460800D02*
X12369500Y-11500800D01*
X12369500Y-11460800D02*
X12329500Y-11500800D01*
X12329500Y-11547200D02*
X12369500Y-11587200D01*
X12369500Y-11547200D02*
X12329500Y-11587200D01*
X12362500Y-10589600D02*
X12402500Y-10629600D01*
X12402500Y-10589600D02*
X12362500Y-10629600D01*
X12380300Y-11072200D02*
X12420300Y-11112200D01*
X12420300Y-11072200D02*
X12380300Y-11112200D01*
X12380300Y-11161100D02*
X12420300Y-11201100D01*
X12420300Y-11161100D02*
X12380300Y-11201100D01*
X12385400Y-10785200D02*
X12425400Y-10825200D01*
X12425400Y-10785200D02*
X12385400Y-10825200D01*
X12385400Y-10874100D02*
X12425400Y-10914100D01*
X12425400Y-10874100D02*
X12385400Y-10914100D01*
X12387900Y-10259400D02*
X12427900Y-10299400D01*
X12427900Y-10259400D02*
X12387900Y-10299400D01*
X12438700Y-10538800D02*
X12478700Y-10578800D01*
X12478700Y-10538800D02*
X12438700Y-10578800D01*
X12438700Y-10627700D02*
X12478700Y-10667700D01*
X12478700Y-10627700D02*
X12438700Y-10667700D01*
X12456500Y-11123000D02*
X12496500Y-11163000D01*
X12496500Y-11123000D02*
X12456500Y-11163000D01*
X12461600Y-10823300D02*
X12501600Y-10863300D01*
X12501600Y-10823300D02*
X12461600Y-10863300D01*
X12514900Y-10589600D02*
X12554900Y-10629600D01*
X12554900Y-10589600D02*
X12514900Y-10629600D01*
X13076200Y-11369400D02*
X13116200Y-11409400D01*
X13116200Y-11369400D02*
X13076200Y-11409400D01*
X13076200Y-11455700D02*
X13116200Y-11495700D01*
X13116200Y-11455700D02*
X13076200Y-11495700D01*
X13076200Y-11542100D02*
X13116200Y-11582100D01*
X13116200Y-11542100D02*
X13076200Y-11582100D01*
X13161940Y-10244350D02*
X13201940Y-10284350D01*
X13201940Y-10244350D02*
X13161940Y-10284350D01*
X13177160Y-11735610D02*
X13217160Y-11775610D01*
X13217160Y-11735610D02*
X13177160Y-11775610D01*
X13307400Y-9167180D02*
X13347400Y-9207180D01*
X13347400Y-9167180D02*
X13307400Y-9207180D01*
X13315000Y-9855520D02*
X13355000Y-9895520D01*
X13355000Y-9855520D02*
X13315000Y-9895520D01*
X13383600Y-9116380D02*
X13423600Y-9156380D01*
X13423600Y-9116380D02*
X13383600Y-9156380D01*
X13383600Y-9205280D02*
X13423600Y-9245280D01*
X13423600Y-9205280D02*
X13383600Y-9245280D01*
X13391200Y-9804720D02*
X13431200Y-9844720D01*
X13431200Y-9804720D02*
X13391200Y-9844720D01*
X13391200Y-9893620D02*
X13431200Y-9933620D01*
X13431200Y-9893620D02*
X13391200Y-9933620D01*
X13459800Y-9167180D02*
X13499800Y-9207180D01*
X13499800Y-9167180D02*
X13459800Y-9207180D01*
X13467400Y-9855520D02*
X13507400Y-9895520D01*
X13507400Y-9855520D02*
X13467400Y-9895520D01*
X13521470Y-10408450D02*
X13561470Y-10448450D01*
X13561470Y-10408450D02*
X13521470Y-10448450D01*
X13645200Y-8247700D02*
X13685200Y-8287700D01*
X13685200Y-8247700D02*
X13645200Y-8287700D01*
X13721400Y-8209600D02*
X13761400Y-8249600D01*
X13761400Y-8209600D02*
X13721400Y-8249600D01*
X13721400Y-8298500D02*
X13761400Y-8338500D01*
X13761400Y-8298500D02*
X13721400Y-8338500D01*
X13797600Y-8247700D02*
X13837600Y-8287700D01*
X13837600Y-8247700D02*
X13797600Y-8287700D01*
X13878900Y-11354100D02*
X13918900Y-11394100D01*
X13918900Y-11354100D02*
X13878900Y-11394100D01*
X13878900Y-11440500D02*
X13918900Y-11480500D01*
X13918900Y-11440500D02*
X13878900Y-11480500D01*
X13878900Y-11526800D02*
X13918900Y-11566800D01*
X13918900Y-11526800D02*
X13878900Y-11566800D01*
X13924600Y-8801420D02*
X13964600Y-8841420D01*
X13964600Y-8801420D02*
X13924600Y-8841420D01*
X14000800Y-8750620D02*
X14040800Y-8790620D01*
X14040800Y-8750620D02*
X14000800Y-8790620D01*
X14000800Y-8839520D02*
X14040800Y-8879520D01*
X14040800Y-8839520D02*
X14000800Y-8879520D01*
X14077000Y-8801420D02*
X14117000Y-8841420D01*
X14117000Y-8801420D02*
X14077000Y-8841420D01*
X14097420Y-10839620D02*
X14137420Y-10879620D01*
X14137420Y-10839620D02*
X14097420Y-10879620D01*
X14343700Y-6449380D02*
X14383700Y-6489380D01*
X14383700Y-6449380D02*
X14343700Y-6489380D01*
X14381800Y-6373180D02*
X14421800Y-6413180D01*
X14421800Y-6373180D02*
X14381800Y-6413180D01*
X14381800Y-6525580D02*
X14421800Y-6565580D01*
X14421800Y-6525580D02*
X14381800Y-6565580D01*
X14432600Y-6449380D02*
X14472600Y-6489380D01*
X14472600Y-6449380D02*
X14432600Y-6489380D01*
X14443540Y-8180150D02*
X14483540Y-8220150D01*
X14483540Y-8180150D02*
X14443540Y-8220150D01*
X14500940Y-11357470D02*
X14540940Y-11397470D01*
X14540940Y-11357470D02*
X14500940Y-11397470D01*
X14573430Y-10129890D02*
X14613430Y-10169890D01*
X14613430Y-10129890D02*
X14573430Y-10169890D01*
X14856900Y-11514050D02*
X14896900Y-11554050D01*
X14896900Y-11514050D02*
X14856900Y-11554050D01*
X15256520Y-9220450D02*
X15296520Y-9260450D01*
X15296520Y-9220450D02*
X15256520Y-9260450D01*
X15375090Y-10454890D02*
X15415090Y-10494890D01*
X15415090Y-10454890D02*
X15375090Y-10494890D01*
X15376690Y-11297490D02*
X15416690Y-11337490D01*
X15416690Y-11297490D02*
X15376690Y-11337490D01*
X15493390Y-11263690D02*
X15533390Y-11303690D01*
X15533390Y-11263690D02*
X15493390Y-11303690D01*
X15573030Y-11017110D02*
X15613030Y-11057110D01*
X15613030Y-11017110D02*
X15573030Y-11057110D01*
X15651530Y-11102480D02*
X15691530Y-11142480D01*
X15691530Y-11102480D02*
X15651530Y-11142480D01*
X15672330Y-10760160D02*
X15712330Y-10800160D01*
X15712330Y-10760160D02*
X15672330Y-10800160D01*
X15732970Y-10538420D02*
X15772970Y-10578420D01*
X15772970Y-10538420D02*
X15732970Y-10578420D01*
X15751310Y-10975890D02*
X15791310Y-11015890D01*
X15791310Y-10975890D02*
X15751310Y-11015890D01*
X16021190Y-11065470D02*
X16061190Y-11105470D01*
X16061190Y-11065470D02*
X16021190Y-11105470D01*
X16071200Y-10899000D02*
X16111200Y-10939000D01*
X16111200Y-10899000D02*
X16071200Y-10939000D01*
X16178940Y-10704000D02*
X16218940Y-10744000D01*
X16218940Y-10704000D02*
X16178940Y-10744000D01*
X16245260Y-10991110D02*
X16285260Y-11031110D01*
X16285260Y-10991110D02*
X16245260Y-11031110D01*
X16338070Y-10814510D02*
X16378070Y-10854510D01*
X16378070Y-10814510D02*
X16338070Y-10854510D01*
X16571300Y-6680520D02*
X16611300Y-6720520D01*
X16611300Y-6680520D02*
X16571300Y-6720520D01*
X16583440Y-10610320D02*
X16623440Y-10650320D01*
X16623440Y-10610320D02*
X16583440Y-10650320D01*
X16613500Y-10910560D02*
X16653500Y-10950560D01*
X16653500Y-10910560D02*
X16613500Y-10950560D01*
X16657600Y-6680520D02*
X16697600Y-6720520D01*
X16697600Y-6680520D02*
X16657600Y-6720520D01*
X16664960Y-11171970D02*
X16704960Y-11211970D01*
X16704960Y-11171970D02*
X16664960Y-11211970D01*
X16667800Y-8204520D02*
X16707800Y-8244520D01*
X16707800Y-8204520D02*
X16667800Y-8244520D01*
X16744000Y-6680520D02*
X16784000Y-6720520D01*
X16784000Y-6680520D02*
X16744000Y-6720520D01*
X16744000Y-8163880D02*
X16784000Y-8203880D01*
X16784000Y-8163880D02*
X16744000Y-8203880D01*
X16744000Y-8250240D02*
X16784000Y-8290240D01*
X16784000Y-8250240D02*
X16744000Y-8290240D01*
X16825300Y-8204520D02*
X16865300Y-8244520D01*
X16865300Y-8204520D02*
X16825300Y-8244520D01*
X16852780Y-10251890D02*
X16892780Y-10291890D01*
X16892780Y-10251890D02*
X16852780Y-10291890D01*
X17037320Y-11585210D02*
X17077320Y-11625210D01*
X17077320Y-11585210D02*
X17037320Y-11625210D01*
X17196660Y-11628910D02*
X17236660Y-11668910D01*
X17236660Y-11628910D02*
X17196660Y-11668910D01*
X17271000Y-8088950D02*
X17311000Y-8128950D01*
X17311000Y-8088950D02*
X17271000Y-8128950D01*
X17272300Y-7988620D02*
X17312300Y-8028620D01*
X17312300Y-7988620D02*
X17272300Y-8028620D01*
X17272300Y-8185470D02*
X17312300Y-8225470D01*
X17312300Y-8185470D02*
X17272300Y-8225470D01*
X17273600Y-7799390D02*
X17313600Y-7839390D01*
X17313600Y-7799390D02*
X17273600Y-7839390D01*
X17273600Y-7892100D02*
X17313600Y-7932100D01*
X17313600Y-7892100D02*
X17273600Y-7932100D01*
X17274900Y-8283260D02*
X17314900Y-8323260D01*
X17314900Y-8283260D02*
X17274900Y-8323260D01*
X17367600Y-8088950D02*
X17407600Y-8128950D01*
X17407600Y-8088950D02*
X17367600Y-8128950D01*
X17368800Y-7988620D02*
X17408800Y-8028620D01*
X17408800Y-7988620D02*
X17368800Y-8028620D01*
X17368800Y-8185470D02*
X17408800Y-8225470D01*
X17408800Y-8185470D02*
X17368800Y-8225470D01*
X17370100Y-7799390D02*
X17410100Y-7839390D01*
X17410100Y-7799390D02*
X17370100Y-7839390D01*
X17370100Y-7892100D02*
X17410100Y-7932100D01*
X17410100Y-7892100D02*
X17370100Y-7932100D01*
X17371400Y-8283260D02*
X17411400Y-8323260D01*
X17411400Y-8283260D02*
X17371400Y-8323260D01*
X17438940Y-11724560D02*
X17478940Y-11764560D01*
X17478940Y-11724560D02*
X17438940Y-11764560D01*
X17466600Y-8087680D02*
X17506600Y-8127680D01*
X17506600Y-8087680D02*
X17466600Y-8127680D01*
X17467900Y-7987350D02*
X17507900Y-8027350D01*
X17507900Y-7987350D02*
X17467900Y-8027350D01*
X17467900Y-8184200D02*
X17507900Y-8224200D01*
X17507900Y-8184200D02*
X17467900Y-8224200D01*
X17469200Y-7798120D02*
X17509200Y-7838120D01*
X17509200Y-7798120D02*
X17469200Y-7838120D01*
X17469200Y-7890830D02*
X17509200Y-7930830D01*
X17509200Y-7890830D02*
X17469200Y-7930830D01*
X17470400Y-8281990D02*
X17510400Y-8321990D01*
X17510400Y-8281990D02*
X17470400Y-8321990D01*
X17564400Y-8087680D02*
X17604400Y-8127680D01*
X17604400Y-8087680D02*
X17564400Y-8127680D01*
X17565700Y-7987350D02*
X17605700Y-8027350D01*
X17605700Y-7987350D02*
X17565700Y-8027350D01*
X17565700Y-8184200D02*
X17605700Y-8224200D01*
X17605700Y-8184200D02*
X17565700Y-8224200D01*
X17567000Y-7798120D02*
X17607000Y-7838120D01*
X17607000Y-7798120D02*
X17567000Y-7838120D01*
X17567000Y-7890830D02*
X17607000Y-7930830D01*
X17607000Y-7890830D02*
X17567000Y-7930830D01*
X17568200Y-8281990D02*
X17608200Y-8321990D01*
X17608200Y-8281990D02*
X17568200Y-8321990D01*
X17622800Y-10429600D02*
X17662800Y-10469600D01*
X17662800Y-10429600D02*
X17622800Y-10469600D01*
X17664800Y-8087680D02*
X17704800Y-8127680D01*
X17704800Y-8087680D02*
X17664800Y-8127680D01*
X17666000Y-7987350D02*
X17706000Y-8027350D01*
X17706000Y-7987350D02*
X17666000Y-8027350D01*
X17666000Y-8184200D02*
X17706000Y-8224200D01*
X17706000Y-8184200D02*
X17666000Y-8224200D01*
X17667300Y-7798120D02*
X17707300Y-7838120D01*
X17707300Y-7798120D02*
X17667300Y-7838120D01*
X17667300Y-7890830D02*
X17707300Y-7930830D01*
X17707300Y-7890830D02*
X17667300Y-7930830D01*
X17668600Y-8281990D02*
X17708600Y-8321990D01*
X17708600Y-8281990D02*
X17668600Y-8321990D01*
X17714300Y-10429600D02*
X17754300Y-10469600D01*
X17754300Y-10429600D02*
X17714300Y-10469600D01*
X17765100Y-8087680D02*
X17805100Y-8127680D01*
X17805100Y-8087680D02*
X17765100Y-8127680D01*
X17766400Y-7987350D02*
X17806400Y-8027350D01*
X17806400Y-7987350D02*
X17766400Y-8027350D01*
X17766400Y-8184200D02*
X17806400Y-8224200D01*
X17806400Y-8184200D02*
X17766400Y-8224200D01*
X17767600Y-7798120D02*
X17807600Y-7838120D01*
X17807600Y-7798120D02*
X17767600Y-7838120D01*
X17767600Y-7890830D02*
X17807600Y-7930830D01*
X17807600Y-7890830D02*
X17767600Y-7930830D01*
X17768900Y-8281990D02*
X17808900Y-8321990D01*
X17808900Y-8281990D02*
X17768900Y-8321990D01*
X17810800Y-10429600D02*
X17850800Y-10469600D01*
X17850800Y-10429600D02*
X17810800Y-10469600D01*
X17874240Y-11663660D02*
X17914240Y-11703660D01*
X17914240Y-11663660D02*
X17874240Y-11703660D01*
X17917500Y-11267800D02*
X17957500Y-11307800D01*
X17957500Y-11267800D02*
X17917500Y-11307800D01*
X17917500Y-11364300D02*
X17957500Y-11404300D01*
X17957500Y-11364300D02*
X17917500Y-11404300D01*
X17917500Y-11455700D02*
X17957500Y-11495700D01*
X17957500Y-11455700D02*
X17917500Y-11495700D01*
X18147400Y-11086200D02*
X18187400Y-11126200D01*
X18187400Y-11086200D02*
X18147400Y-11126200D01*
X18189850Y-11927900D02*
X18229850Y-11967900D01*
X18229850Y-11927900D02*
X18189850Y-11967900D01*
X18242600Y-11086200D02*
X18282600Y-11126200D01*
X18282600Y-11086200D02*
X18242600Y-11126200D01*
X18337800Y-11086200D02*
X18377800Y-11126200D01*
X18377800Y-11086200D02*
X18337800Y-11126200D01*
X18811600Y-10561600D02*
X18851600Y-10601600D01*
X18851600Y-10561600D02*
X18811600Y-10601600D01*
X18811600Y-10658200D02*
X18851600Y-10698200D01*
X18851600Y-10658200D02*
X18811600Y-10698200D01*
X18811600Y-10749600D02*
X18851600Y-10789600D01*
X18851600Y-10749600D02*
X18811600Y-10789600D01*
X19271870Y-11972750D02*
X19311870Y-12012750D01*
X19311870Y-11972750D02*
X19271870Y-12012750D01*
X19289250Y-11577760D02*
X19329250Y-11617760D01*
X19329250Y-11577760D02*
X19289250Y-11617760D01*
X19334800Y-10178100D02*
X19374800Y-10218100D01*
X19374800Y-10178100D02*
X19334800Y-10218100D01*
X19334800Y-10279700D02*
X19374800Y-10319700D01*
X19374800Y-10279700D02*
X19334800Y-10319700D01*
X19334800Y-10381300D02*
X19374800Y-10421300D01*
X19374800Y-10381300D02*
X19334800Y-10421300D01*
X19436400Y-10178100D02*
X19476400Y-10218100D01*
X19476400Y-10178100D02*
X19436400Y-10218100D01*
X19436400Y-10279700D02*
X19476400Y-10319700D01*
X19476400Y-10279700D02*
X19436400Y-10319700D01*
X19436400Y-10381300D02*
X19476400Y-10421300D01*
X19476400Y-10381300D02*
X19436400Y-10421300D01*
X19538000Y-10178100D02*
X19578000Y-10218100D01*
X19578000Y-10178100D02*
X19538000Y-10218100D01*
X19538000Y-10279700D02*
X19578000Y-10319700D01*
X19578000Y-10279700D02*
X19538000Y-10319700D01*
X19538000Y-10381300D02*
X19578000Y-10421300D01*
X19578000Y-10381300D02*
X19538000Y-10421300D01*
X20363500Y-11346500D02*
X20403500Y-11386500D01*
X20403500Y-11346500D02*
X20363500Y-11386500D01*
X20458800Y-11346500D02*
X20498800Y-11386500D01*
X20498800Y-11346500D02*
X20458800Y-11386500D01*
X20554000Y-11346500D02*
X20594000Y-11386500D01*
X20594000Y-11346500D02*
X20554000Y-11386500D01*
X12412500Y-6972300D02*
G75*
G03X12412500Y-6972300I-30000J0D01*
G01*
X12514100Y-6972300D02*
G75*
G03X12514100Y-6972300I-30000J0D01*
G01*
X12615700Y-6972300D02*
G75*
G03X12615700Y-6972300I-30000J0D01*
G01*
X13071100Y-9019780D02*
G75*
G03X13071100Y-9019780I-30000J0D01*
G01*
X13288800Y-8267700D02*
G75*
G03X13288800Y-8267700I-30000J0D01*
G01*
X13365000Y-8229600D02*
G75*
G03X13365000Y-8229600I-30000J0D01*
G01*
X13365000Y-8318500D02*
G75*
G03X13365000Y-8318500I-30000J0D01*
G01*
X13370100Y-7884160D02*
G75*
G03X13370100Y-7884160I-30000J0D01*
G01*
X13441200Y-8267700D02*
G75*
G03X13441200Y-8267700I-30000J0D01*
G01*
X13456400Y-7884160D02*
G75*
G03X13456400Y-7884160I-30000J0D01*
G01*
X13542800Y-7884160D02*
G75*
G03X13542800Y-7884160I-30000J0D01*
G01*
X13580900Y-6083300D02*
G75*
G03X13580900Y-6083300I-30000J0D01*
G01*
X13585700Y-6180140D02*
G75*
G03X13585700Y-6180140I-30000J0D01*
G01*
X13585700Y-6273800D02*
G75*
G03X13585700Y-6273800I-30000J0D01*
G01*
X13585700Y-7023100D02*
G75*
G03X13585700Y-7023100I-30000J0D01*
G01*
X13585700Y-7132640D02*
G75*
G03X13585700Y-7132640I-30000J0D01*
G01*
X13585700Y-7239000D02*
G75*
G03X13585700Y-7239000I-30000J0D01*
G01*
X13587900Y-6540500D02*
G75*
G03X13587900Y-6540500I-30000J0D01*
G01*
X13587900Y-6635140D02*
G75*
G03X13587900Y-6635140I-30000J0D01*
G01*
X13587900Y-6731000D02*
G75*
G03X13587900Y-6731000I-30000J0D01*
G01*
X13587900Y-7480300D02*
G75*
G03X13587900Y-7480300I-30000J0D01*
G01*
X13587900Y-7587640D02*
G75*
G03X13587900Y-7587640I-30000J0D01*
G01*
X13587900Y-7696200D02*
G75*
G03X13587900Y-7696200I-30000J0D01*
G01*
X13710130Y-9006590D02*
G75*
G03X13710130Y-9006590I-30000J0D01*
G01*
X14509960Y-10295310D02*
G75*
G03X14509960Y-10295310I-30000J0D01*
G01*
X16189500Y-9240520D02*
G75*
G03X16189500Y-9240520I-30000J0D01*
G01*
X16278400Y-9240520D02*
G75*
G03X16278400Y-9240520I-30000J0D01*
G01*
X16367300Y-9240520D02*
G75*
G03X16367300Y-9240520I-30000J0D01*
G01*
X18177000Y-7569200D02*
G75*
G03X18177000Y-7569200I-30000J0D01*
G01*
X18279900Y-7569200D02*
G75*
G03X18279900Y-7569200I-30000J0D01*
G01*
X18387800Y-7569200D02*
G75*
G03X18387800Y-7569200I-30000J0D01*
G01*
X18580900Y-8760460D02*
G75*
G03X18580900Y-8760460I-30000J0D01*
G01*
X18657100Y-8722360D02*
G75*
G03X18657100Y-8722360I-30000J0D01*
G01*
X18657100Y-8811260D02*
G75*
G03X18657100Y-8811260I-30000J0D01*
G01*
X18733300Y-8760460D02*
G75*
G03X18733300Y-8760460I-30000J0D01*
G01*
X18773900Y-6449060D02*
G75*
G03X18773900Y-6449060I-30000J0D01*
G01*
X18831100Y-8284210D02*
G75*
G03X18831100Y-8284210I-30000J0D01*
G01*
X18907300Y-8246110D02*
G75*
G03X18907300Y-8246110I-30000J0D01*
G01*
X18907300Y-8335010D02*
G75*
G03X18907300Y-8335010I-30000J0D01*
G01*
X18922500Y-6168390D02*
G75*
G03X18922500Y-6168390I-30000J0D01*
G01*
X18922500Y-6306820D02*
G75*
G03X18922500Y-6306820I-30000J0D01*
G01*
X18925100Y-6038850D02*
G75*
G03X18925100Y-6038850I-30000J0D01*
G01*
X18983500Y-8284210D02*
G75*
G03X18983500Y-8284210I-30000J0D01*
G01*
X19080000Y-6446520D02*
G75*
G03X19080000Y-6446520I-30000J0D01*
G01*
X19019500Y-10864200D02*
X19019500Y-10944200D01*
X18979500Y-10904200D02*
X19059500Y-10904200D01*
X19019500Y-11118200D02*
X19019500Y-11198200D01*
X18979500Y-11158200D02*
X19059500Y-11158200D01*
X19781500Y-10864200D02*
X19781500Y-10944200D01*
X19741500Y-10904200D02*
X19821500Y-10904200D01*
X19781500Y-11118200D02*
X19781500Y-11198200D01*
X19741500Y-11158200D02*
X19821500Y-11158200D01*
X18522400Y-9371720D02*
X18522400Y-9451720D01*
X18482400Y-9411720D02*
X18562400Y-9411720D01*
X19022400Y-9371720D02*
X19022400Y-9451720D01*
X18982400Y-9411720D02*
X19062400Y-9411720D01*
X16338800Y-9414900D02*
X16338800Y-9494900D01*
X16298800Y-9454900D02*
X16378800Y-9454900D01*
X16588800Y-9414900D02*
X16588800Y-9494900D01*
X16548800Y-9454900D02*
X16628800Y-9454900D01*
X14302700Y-8382640D02*
X14302700Y-8462640D01*
X14262700Y-8422640D02*
X14342700Y-8422640D01*
X14302700Y-8636640D02*
X14302700Y-8716640D01*
X14262700Y-8676640D02*
X14342700Y-8676640D01*
X14302700Y-8890640D02*
X14302700Y-8970640D01*
X14262700Y-8930640D02*
X14342700Y-8930640D01*
X19243400Y-6991990D02*
X19243400Y-7071990D01*
X19203400Y-7031990D02*
X19283400Y-7031990D01*
X19743400Y-6991990D02*
X19743400Y-7071990D01*
X19703400Y-7031990D02*
X19783400Y-7031990D01*
X11795800Y-9515480D02*
X11795800Y-9595480D01*
X11755800Y-9555480D02*
X11835800Y-9555480D01*
X12049800Y-9515480D02*
X12049800Y-9595480D01*
X12009800Y-9555480D02*
X12089800Y-9555480D01*
X12303800Y-9515480D02*
X12303800Y-9595480D01*
X12263800Y-9555480D02*
X12343800Y-9555480D01*
X17426000Y-9367140D02*
X17426000Y-9447140D01*
X17386000Y-9407140D02*
X17466000Y-9407140D01*
X15543300Y-6666620D02*
X15543300Y-6746620D01*
X15503300Y-6706620D02*
X15583300Y-6706620D01*
X15543300Y-6920620D02*
X15543300Y-7000620D01*
X15503300Y-6960620D02*
X15583300Y-6960620D01*
X17691100Y-6984370D02*
X17691100Y-7064370D01*
X17651100Y-7024370D02*
X17731100Y-7024370D01*
X18191100Y-6984370D02*
X18191100Y-7064370D01*
X18151100Y-7024370D02*
X18231100Y-7024370D01*
X17926000Y-9367140D02*
X17926000Y-9447140D01*
X17886000Y-9407140D02*
X17966000Y-9407140D01*
X15543300Y-7174620D02*
X15543300Y-7254620D01*
X15503300Y-7214620D02*
X15583300Y-7214620D01*
X14204756Y-11965756D02*
X14204756Y-11895044D01*
X14134044Y-11895044D01*
X14134044Y-11965756D01*
X14204756Y-11965756D01*
X14458756Y-11965756D02*
X14458756Y-11895044D01*
X14388044Y-11895044D01*
X14388044Y-11965756D01*
X14458756Y-11965756D01*
X14712756Y-11965756D02*
X14712756Y-11895044D01*
X14642044Y-11895044D01*
X14642044Y-11965756D01*
X14712756Y-11965756D01*
X14966756Y-11965756D02*
X14966756Y-11895044D01*
X14896044Y-11895044D01*
X14896044Y-11965756D01*
X14966756Y-11965756D01*
X20712256Y-7285786D02*
X20712256Y-7215074D01*
X20641544Y-7215074D01*
X20641544Y-7285786D01*
X20712256Y-7285786D01*
X20712256Y-7539786D02*
X20712256Y-7469074D01*
X20641544Y-7469074D01*
X20641544Y-7539786D01*
X20712256Y-7539786D01*
X17279256Y-6179366D02*
X17279256Y-6108654D01*
X17208544Y-6108654D01*
X17208544Y-6179366D01*
X17279256Y-6179366D01*
X15010836Y-7943516D02*
X15010836Y-7872804D01*
X14940124Y-7872804D01*
X14940124Y-7943516D01*
X15010836Y-7943516D01*
X15331256Y-7944916D02*
X15331256Y-7874204D01*
X15260544Y-7874204D01*
X15260544Y-7944916D01*
X15331256Y-7944916D01*
X14813056Y-6182156D02*
X14813056Y-6111444D01*
X14742344Y-6111444D01*
X14742344Y-6182156D01*
X14813056Y-6182156D01*
X15067056Y-6182156D02*
X15067056Y-6111444D01*
X14996344Y-6111444D01*
X14996344Y-6182156D01*
X15067056Y-6182156D01*
X15321056Y-6182156D02*
X15321056Y-6111444D01*
X15250344Y-6111444D01*
X15250344Y-6182156D01*
X15321056Y-6182156D01*
X15575056Y-6182156D02*
X15575056Y-6111444D01*
X15504344Y-6111444D01*
X15504344Y-6182156D01*
X15575056Y-6182156D01*
X15829056Y-6182156D02*
X15829056Y-6111444D01*
X15758344Y-6111444D01*
X15758344Y-6182156D01*
X15829056Y-6182156D01*
X16083056Y-6182156D02*
X16083056Y-6111444D01*
X16012344Y-6111444D01*
X16012344Y-6182156D01*
X16083056Y-6182156D01*
X16337056Y-6182156D02*
X16337056Y-6111444D01*
X16266344Y-6111444D01*
X16266344Y-6182156D01*
X16337056Y-6182156D01*
X15013376Y-8187356D02*
X15013376Y-8116644D01*
X14942664Y-8116644D01*
X14942664Y-8187356D01*
X15013376Y-8187356D01*
X15773756Y-8187486D02*
X15773756Y-8116774D01*
X15703044Y-8116774D01*
X15703044Y-8187486D01*
X15773756Y-8187486D01*
X11939356Y-6166916D02*
X11939356Y-6096204D01*
X11868644Y-6096204D01*
X11868644Y-6166916D01*
X11939356Y-6166916D01*
X11939356Y-6420916D02*
X11939356Y-6350204D01*
X11868644Y-6350204D01*
X11868644Y-6420916D01*
X11939356Y-6420916D01*
X12193356Y-6166916D02*
X12193356Y-6096204D01*
X12122644Y-6096204D01*
X12122644Y-6166916D01*
X12193356Y-6166916D01*
X12193356Y-6420916D02*
X12193356Y-6350204D01*
X12122644Y-6350204D01*
X12122644Y-6420916D01*
X12193356Y-6420916D01*
X12447356Y-6166916D02*
X12447356Y-6096204D01*
X12376644Y-6096204D01*
X12376644Y-6166916D01*
X12447356Y-6166916D01*
X12447356Y-6420916D02*
X12447356Y-6350204D01*
X12376644Y-6350204D01*
X12376644Y-6420916D01*
X12447356Y-6420916D01*
X15013389Y-8417696D02*
X15013389Y-8346984D01*
X14942677Y-8346984D01*
X14942677Y-8417696D01*
X15013389Y-8417696D01*
X15514056Y-8187526D02*
X15514056Y-8116814D01*
X15443344Y-8116814D01*
X15443344Y-8187526D01*
X15514056Y-8187526D01*
X15453156Y-11973356D02*
X15453156Y-11902644D01*
X15382444Y-11902644D01*
X15382444Y-11973356D01*
X15453156Y-11973356D01*
X15707156Y-11973356D02*
X15707156Y-11902644D01*
X15636444Y-11902644D01*
X15636444Y-11973356D01*
X15707156Y-11973356D01*
X15961156Y-11973356D02*
X15961156Y-11902644D01*
X15890444Y-11902644D01*
X15890444Y-11973356D01*
X15961156Y-11973356D01*
X16215156Y-11973356D02*
X16215156Y-11902644D01*
X16144444Y-11902644D01*
X16144444Y-11973356D01*
X16215156Y-11973356D01*
X16469156Y-11973356D02*
X16469156Y-11902644D01*
X16398444Y-11902644D01*
X16398444Y-11973356D01*
X16469156Y-11973356D01*
X16723156Y-11973356D02*
X16723156Y-11902644D01*
X16652444Y-11902644D01*
X16652444Y-11973356D01*
X16723156Y-11973356D01*
X16977156Y-11973356D02*
X16977156Y-11902644D01*
X16906444Y-11902644D01*
X16906444Y-11973356D01*
X16977156Y-11973356D01*
X20260100Y-8806160D02*
X20325100Y-8741160D01*
X20260100Y-8676160D01*
X20195100Y-8741160D01*
X20260100Y-8806160D01*
X20260100Y-9306160D02*
X20325100Y-9241160D01*
X20260100Y-9176160D01*
X20195100Y-9241160D01*
X20260100Y-9306160D01*
X17427900Y-6074010D02*
X17567900Y-6214010D01*
X17567900Y-6074010D02*
X17427900Y-6214010D01*
X17567900Y-6144010D02*
G75*
G03X17567900Y-6144010I-70000J0D01*
G01*
X17681900Y-6074010D02*
X17821900Y-6214010D01*
X17821900Y-6074010D02*
X17681900Y-6214010D01*
X17821900Y-6144010D02*
G75*
G03X17821900Y-6144010I-70000J0D01*
G01*
X10827200Y-6758160D02*
X11047200Y-6978160D01*
X11047200Y-6758160D02*
X10827200Y-6978160D01*
X10937200Y-6758160D02*
X10937200Y-6978160D01*
X10827200Y-6868160D02*
X11047200Y-6868160D01*
X10837200Y-6788160D02*
X10837200Y-6948160D01*
X11037200Y-6788160D02*
X11037200Y-6948160D01*
X10837200Y-6948160D02*
G75*
G03X11037200Y-6948160I100000J0D01*
G01*
X11037200Y-6788160D02*
G75*
G03X10837200Y-6788160I-100000J0D01*
G01*
X10835500Y-11753900D02*
X11135500Y-12053900D01*
X11135500Y-11753900D02*
X10835500Y-12053900D01*
X11091567Y-12009967D02*
X11091567Y-11797833D01*
X10879433Y-11797833D01*
X10879433Y-12009967D01*
X11091567Y-12009967D01*
X10835500Y-5974700D02*
X11135500Y-6274700D01*
X11135500Y-5974700D02*
X10835500Y-6274700D01*
X11091567Y-6230767D02*
X11091567Y-6018633D01*
X10879433Y-6018633D01*
X10879433Y-6230767D01*
X11091567Y-6230767D01*
X20420700Y-11753900D02*
X20720700Y-12053900D01*
X20720700Y-11753900D02*
X20420700Y-12053900D01*
X20676767Y-12009967D02*
X20676767Y-11797833D01*
X20464633Y-11797833D01*
X20464633Y-12009967D01*
X20676767Y-12009967D01*
X20420700Y-5974700D02*
X20720700Y-6274700D01*
X20720700Y-5974700D02*
X20420700Y-6274700D01*
X20676767Y-6230767D02*
X20676767Y-6018633D01*
X20464633Y-6018633D01*
X20464633Y-6230767D01*
X20676767Y-6230767D01*
D12*
X10966228Y-12697934D02*
X10966228Y-12397934D01*
X11037657Y-12397934D01*
X11080514Y-12412220D01*
X11109086Y-12440791D01*
X11123371Y-12469363D01*
X11137657Y-12526506D01*
X11137657Y-12569363D01*
X11123371Y-12626506D01*
X11109086Y-12655077D01*
X11080514Y-12683649D01*
X11037657Y-12697934D01*
X10966228Y-12697934D01*
X11266228Y-12697934D02*
X11266228Y-12497934D01*
X11266228Y-12555077D02*
X11280514Y-12526506D01*
X11294800Y-12512220D01*
X11323371Y-12497934D01*
X11351943Y-12497934D01*
X11451943Y-12697934D02*
X11451943Y-12497934D01*
X11451943Y-12397934D02*
X11437657Y-12412220D01*
X11451943Y-12426506D01*
X11466228Y-12412220D01*
X11451943Y-12397934D01*
X11451943Y-12426506D01*
X11637657Y-12697934D02*
X11609086Y-12683649D01*
X11594800Y-12655077D01*
X11594800Y-12397934D01*
X11794800Y-12697934D02*
X11766228Y-12683649D01*
X11751943Y-12655077D01*
X11751943Y-12397934D01*
X12137657Y-12697934D02*
X12137657Y-12397934D01*
X12237657Y-12612220D01*
X12337657Y-12397934D01*
X12337657Y-12697934D01*
X12609086Y-12697934D02*
X12609086Y-12540791D01*
X12594800Y-12512220D01*
X12566228Y-12497934D01*
X12509086Y-12497934D01*
X12480514Y-12512220D01*
X12609086Y-12683649D02*
X12580514Y-12697934D01*
X12509086Y-12697934D01*
X12480514Y-12683649D01*
X12466228Y-12655077D01*
X12466228Y-12626506D01*
X12480514Y-12597934D01*
X12509086Y-12583649D01*
X12580514Y-12583649D01*
X12609086Y-12569363D01*
X12751943Y-12497934D02*
X12751943Y-12797934D01*
X12751943Y-12512220D02*
X12780514Y-12497934D01*
X12837657Y-12497934D01*
X12866228Y-12512220D01*
X12880514Y-12526506D01*
X12894800Y-12555077D01*
X12894800Y-12640791D01*
X12880514Y-12669363D01*
X12866228Y-12683649D01*
X12837657Y-12697934D01*
X12780514Y-12697934D01*
X12751943Y-12683649D01*
X13023371Y-12669363D02*
X13037657Y-12683649D01*
X13023371Y-12697934D01*
X13009086Y-12683649D01*
X13023371Y-12669363D01*
X13023371Y-12697934D01*
X13023371Y-12512220D02*
X13037657Y-12526506D01*
X13023371Y-12540791D01*
X13009086Y-12526506D01*
X13023371Y-12512220D01*
X13023371Y-12540791D01*
X10639800Y-13172220D02*
X10679800Y-13212220D01*
X10679800Y-13172220D02*
X10639800Y-13212220D01*
X11023371Y-13027934D02*
X11051943Y-13027934D01*
X11080514Y-13042220D01*
X11094800Y-13056506D01*
X11109086Y-13085077D01*
X11123371Y-13142220D01*
X11123371Y-13213649D01*
X11109086Y-13270791D01*
X11094800Y-13299363D01*
X11080514Y-13313649D01*
X11051943Y-13327934D01*
X11023371Y-13327934D01*
X10994800Y-13313649D01*
X10980514Y-13299363D01*
X10966228Y-13270791D01*
X10951943Y-13213649D01*
X10951943Y-13142220D01*
X10966228Y-13085077D01*
X10980514Y-13056506D01*
X10994800Y-13042220D01*
X11023371Y-13027934D01*
X11251943Y-13299363D02*
X11266228Y-13313649D01*
X11251943Y-13327934D01*
X11237657Y-13313649D01*
X11251943Y-13299363D01*
X11251943Y-13327934D01*
X11523371Y-13127934D02*
X11523371Y-13327934D01*
X11451943Y-13013649D02*
X11380514Y-13227934D01*
X11566228Y-13227934D01*
X11737657Y-13027934D02*
X11766228Y-13027934D01*
X11794800Y-13042220D01*
X11809086Y-13056506D01*
X11823371Y-13085077D01*
X11837657Y-13142220D01*
X11837657Y-13213649D01*
X11823371Y-13270791D01*
X11809086Y-13299363D01*
X11794800Y-13313649D01*
X11766228Y-13327934D01*
X11737657Y-13327934D01*
X11709086Y-13313649D01*
X11694800Y-13299363D01*
X11680514Y-13270791D01*
X11666228Y-13213649D01*
X11666228Y-13142220D01*
X11680514Y-13085077D01*
X11694800Y-13056506D01*
X11709086Y-13042220D01*
X11737657Y-13027934D01*
X11966228Y-13327934D02*
X11966228Y-13127934D01*
X11966228Y-13156506D02*
X11980514Y-13142220D01*
X12009086Y-13127934D01*
X12051943Y-13127934D01*
X12080514Y-13142220D01*
X12094800Y-13170791D01*
X12094800Y-13327934D01*
X12094800Y-13170791D02*
X12109086Y-13142220D01*
X12137657Y-13127934D01*
X12180514Y-13127934D01*
X12209086Y-13142220D01*
X12223371Y-13170791D01*
X12223371Y-13327934D01*
X12366228Y-13327934D02*
X12366228Y-13127934D01*
X12366228Y-13156506D02*
X12380514Y-13142220D01*
X12409086Y-13127934D01*
X12451943Y-13127934D01*
X12480514Y-13142220D01*
X12494800Y-13170791D01*
X12494800Y-13327934D01*
X12494800Y-13170791D02*
X12509086Y-13142220D01*
X12537657Y-13127934D01*
X12580514Y-13127934D01*
X12609086Y-13142220D01*
X12623371Y-13170791D01*
X12623371Y-13327934D01*
X13209086Y-13013649D02*
X12951943Y-13399363D01*
X13594800Y-13027934D02*
X13623371Y-13027934D01*
X13651943Y-13042220D01*
X13666228Y-13056506D01*
X13680514Y-13085077D01*
X13694800Y-13142220D01*
X13694800Y-13213649D01*
X13680514Y-13270791D01*
X13666228Y-13299363D01*
X13651943Y-13313649D01*
X13623371Y-13327934D01*
X13594800Y-13327934D01*
X13566228Y-13313649D01*
X13551943Y-13299363D01*
X13537657Y-13270791D01*
X13523371Y-13213649D01*
X13523371Y-13142220D01*
X13537657Y-13085077D01*
X13551943Y-13056506D01*
X13566228Y-13042220D01*
X13594800Y-13027934D01*
X13823371Y-13299363D02*
X13837657Y-13313649D01*
X13823371Y-13327934D01*
X13809086Y-13313649D01*
X13823371Y-13299363D01*
X13823371Y-13327934D01*
X14023371Y-13027934D02*
X14051943Y-13027934D01*
X14080514Y-13042220D01*
X14094800Y-13056506D01*
X14109086Y-13085077D01*
X14123371Y-13142220D01*
X14123371Y-13213649D01*
X14109086Y-13270791D01*
X14094800Y-13299363D01*
X14080514Y-13313649D01*
X14051943Y-13327934D01*
X14023371Y-13327934D01*
X13994800Y-13313649D01*
X13980514Y-13299363D01*
X13966228Y-13270791D01*
X13951943Y-13213649D01*
X13951943Y-13142220D01*
X13966228Y-13085077D01*
X13980514Y-13056506D01*
X13994800Y-13042220D01*
X14023371Y-13027934D01*
X14409086Y-13327934D02*
X14237657Y-13327934D01*
X14323371Y-13327934D02*
X14323371Y-13027934D01*
X14294800Y-13070791D01*
X14266228Y-13099363D01*
X14237657Y-13113649D01*
X14666228Y-13027934D02*
X14609086Y-13027934D01*
X14580514Y-13042220D01*
X14566228Y-13056506D01*
X14537657Y-13099363D01*
X14523371Y-13156506D01*
X14523371Y-13270791D01*
X14537657Y-13299363D01*
X14551943Y-13313649D01*
X14580514Y-13327934D01*
X14637657Y-13327934D01*
X14666228Y-13313649D01*
X14680514Y-13299363D01*
X14694800Y-13270791D01*
X14694800Y-13199363D01*
X14680514Y-13170791D01*
X14666228Y-13156506D01*
X14637657Y-13142220D01*
X14580514Y-13142220D01*
X14551943Y-13156506D01*
X14537657Y-13170791D01*
X14523371Y-13199363D01*
X14809086Y-13027934D02*
X14809086Y-13085077D01*
X14923371Y-13027934D02*
X14923371Y-13085077D01*
X15366228Y-13442220D02*
X15351943Y-13427934D01*
X15323371Y-13385077D01*
X15309086Y-13356506D01*
X15294800Y-13313649D01*
X15280514Y-13242220D01*
X15280514Y-13185077D01*
X15294800Y-13113649D01*
X15309086Y-13070791D01*
X15323371Y-13042220D01*
X15351943Y-12999363D01*
X15366228Y-12985077D01*
X15637657Y-13327934D02*
X15466228Y-13327934D01*
X15551943Y-13327934D02*
X15551943Y-13027934D01*
X15523371Y-13070791D01*
X15494800Y-13099363D01*
X15466228Y-13113649D01*
X15909086Y-13027934D02*
X15766228Y-13027934D01*
X15751943Y-13170791D01*
X15766228Y-13156506D01*
X15794800Y-13142220D01*
X15866228Y-13142220D01*
X15894800Y-13156506D01*
X15909086Y-13170791D01*
X15923371Y-13199363D01*
X15923371Y-13270791D01*
X15909086Y-13299363D01*
X15894800Y-13313649D01*
X15866228Y-13327934D01*
X15794800Y-13327934D01*
X15766228Y-13313649D01*
X15751943Y-13299363D01*
X16023371Y-13027934D02*
X16223371Y-13027934D01*
X16094800Y-13327934D01*
X16566228Y-13327934D02*
X16566228Y-13027934D01*
X16694800Y-13327934D02*
X16694800Y-13170791D01*
X16680514Y-13142220D01*
X16651943Y-13127934D01*
X16609086Y-13127934D01*
X16580514Y-13142220D01*
X16566228Y-13156506D01*
X16880514Y-13327934D02*
X16851943Y-13313649D01*
X16837657Y-13299363D01*
X16823371Y-13270791D01*
X16823371Y-13185077D01*
X16837657Y-13156506D01*
X16851943Y-13142220D01*
X16880514Y-13127934D01*
X16923371Y-13127934D01*
X16951943Y-13142220D01*
X16966228Y-13156506D01*
X16980514Y-13185077D01*
X16980514Y-13270791D01*
X16966228Y-13299363D01*
X16951943Y-13313649D01*
X16923371Y-13327934D01*
X16880514Y-13327934D01*
X17151943Y-13327934D02*
X17123371Y-13313649D01*
X17109086Y-13285077D01*
X17109086Y-13027934D01*
X17380514Y-13313649D02*
X17351943Y-13327934D01*
X17294800Y-13327934D01*
X17266228Y-13313649D01*
X17251943Y-13285077D01*
X17251943Y-13170791D01*
X17266228Y-13142220D01*
X17294800Y-13127934D01*
X17351943Y-13127934D01*
X17380514Y-13142220D01*
X17394800Y-13170791D01*
X17394800Y-13199363D01*
X17251943Y-13227934D01*
X17509086Y-13313649D02*
X17537657Y-13327934D01*
X17594800Y-13327934D01*
X17623371Y-13313649D01*
X17637657Y-13285077D01*
X17637657Y-13270791D01*
X17623371Y-13242220D01*
X17594800Y-13227934D01*
X17551943Y-13227934D01*
X17523371Y-13213649D01*
X17509086Y-13185077D01*
X17509086Y-13170791D01*
X17523371Y-13142220D01*
X17551943Y-13127934D01*
X17594800Y-13127934D01*
X17623371Y-13142220D01*
X17737657Y-13442220D02*
X17751943Y-13427934D01*
X17780514Y-13385077D01*
X17794800Y-13356506D01*
X17809086Y-13313649D01*
X17823371Y-13242220D01*
X17823371Y-13185077D01*
X17809086Y-13113649D01*
X17794800Y-13070791D01*
X17780514Y-13042220D01*
X17751943Y-12999363D01*
X17737657Y-12985077D01*
X10679800Y-13588220D02*
G75*
G03X10679800Y-13588220I-30000J0D01*
G01*
X11023371Y-13423934D02*
X11051943Y-13423934D01*
X11080514Y-13438220D01*
X11094800Y-13452506D01*
X11109086Y-13481077D01*
X11123371Y-13538220D01*
X11123371Y-13609649D01*
X11109086Y-13666791D01*
X11094800Y-13695363D01*
X11080514Y-13709649D01*
X11051943Y-13723934D01*
X11023371Y-13723934D01*
X10994800Y-13709649D01*
X10980514Y-13695363D01*
X10966228Y-13666791D01*
X10951943Y-13609649D01*
X10951943Y-13538220D01*
X10966228Y-13481077D01*
X10980514Y-13452506D01*
X10994800Y-13438220D01*
X11023371Y-13423934D01*
X11251943Y-13695363D02*
X11266228Y-13709649D01*
X11251943Y-13723934D01*
X11237657Y-13709649D01*
X11251943Y-13695363D01*
X11251943Y-13723934D01*
X11523371Y-13423934D02*
X11466228Y-13423934D01*
X11437657Y-13438220D01*
X11423371Y-13452506D01*
X11394800Y-13495363D01*
X11380514Y-13552506D01*
X11380514Y-13666791D01*
X11394800Y-13695363D01*
X11409086Y-13709649D01*
X11437657Y-13723934D01*
X11494800Y-13723934D01*
X11523371Y-13709649D01*
X11537657Y-13695363D01*
X11551943Y-13666791D01*
X11551943Y-13595363D01*
X11537657Y-13566791D01*
X11523371Y-13552506D01*
X11494800Y-13538220D01*
X11437657Y-13538220D01*
X11409086Y-13552506D01*
X11394800Y-13566791D01*
X11380514Y-13595363D01*
X11737657Y-13423934D02*
X11766228Y-13423934D01*
X11794800Y-13438220D01*
X11809086Y-13452506D01*
X11823371Y-13481077D01*
X11837657Y-13538220D01*
X11837657Y-13609649D01*
X11823371Y-13666791D01*
X11809086Y-13695363D01*
X11794800Y-13709649D01*
X11766228Y-13723934D01*
X11737657Y-13723934D01*
X11709086Y-13709649D01*
X11694800Y-13695363D01*
X11680514Y-13666791D01*
X11666228Y-13609649D01*
X11666228Y-13538220D01*
X11680514Y-13481077D01*
X11694800Y-13452506D01*
X11709086Y-13438220D01*
X11737657Y-13423934D01*
X11966228Y-13723934D02*
X11966228Y-13523934D01*
X11966228Y-13552506D02*
X11980514Y-13538220D01*
X12009086Y-13523934D01*
X12051943Y-13523934D01*
X12080514Y-13538220D01*
X12094800Y-13566791D01*
X12094800Y-13723934D01*
X12094800Y-13566791D02*
X12109086Y-13538220D01*
X12137657Y-13523934D01*
X12180514Y-13523934D01*
X12209086Y-13538220D01*
X12223371Y-13566791D01*
X12223371Y-13723934D01*
X12366228Y-13723934D02*
X12366228Y-13523934D01*
X12366228Y-13552506D02*
X12380514Y-13538220D01*
X12409086Y-13523934D01*
X12451943Y-13523934D01*
X12480514Y-13538220D01*
X12494800Y-13566791D01*
X12494800Y-13723934D01*
X12494800Y-13566791D02*
X12509086Y-13538220D01*
X12537657Y-13523934D01*
X12580514Y-13523934D01*
X12609086Y-13538220D01*
X12623371Y-13566791D01*
X12623371Y-13723934D01*
X13209086Y-13409649D02*
X12951943Y-13795363D01*
X13594800Y-13423934D02*
X13623371Y-13423934D01*
X13651943Y-13438220D01*
X13666228Y-13452506D01*
X13680514Y-13481077D01*
X13694800Y-13538220D01*
X13694800Y-13609649D01*
X13680514Y-13666791D01*
X13666228Y-13695363D01*
X13651943Y-13709649D01*
X13623371Y-13723934D01*
X13594800Y-13723934D01*
X13566228Y-13709649D01*
X13551943Y-13695363D01*
X13537657Y-13666791D01*
X13523371Y-13609649D01*
X13523371Y-13538220D01*
X13537657Y-13481077D01*
X13551943Y-13452506D01*
X13566228Y-13438220D01*
X13594800Y-13423934D01*
X13823371Y-13695363D02*
X13837657Y-13709649D01*
X13823371Y-13723934D01*
X13809086Y-13709649D01*
X13823371Y-13695363D01*
X13823371Y-13723934D01*
X14023371Y-13423934D02*
X14051943Y-13423934D01*
X14080514Y-13438220D01*
X14094800Y-13452506D01*
X14109086Y-13481077D01*
X14123371Y-13538220D01*
X14123371Y-13609649D01*
X14109086Y-13666791D01*
X14094800Y-13695363D01*
X14080514Y-13709649D01*
X14051943Y-13723934D01*
X14023371Y-13723934D01*
X13994800Y-13709649D01*
X13980514Y-13695363D01*
X13966228Y-13666791D01*
X13951943Y-13609649D01*
X13951943Y-13538220D01*
X13966228Y-13481077D01*
X13980514Y-13452506D01*
X13994800Y-13438220D01*
X14023371Y-13423934D01*
X14237657Y-13452506D02*
X14251943Y-13438220D01*
X14280514Y-13423934D01*
X14351943Y-13423934D01*
X14380514Y-13438220D01*
X14394800Y-13452506D01*
X14409086Y-13481077D01*
X14409086Y-13509649D01*
X14394800Y-13552506D01*
X14223371Y-13723934D01*
X14409086Y-13723934D01*
X14666228Y-13523934D02*
X14666228Y-13723934D01*
X14594800Y-13409649D02*
X14523371Y-13623934D01*
X14709086Y-13623934D01*
X14809086Y-13423934D02*
X14809086Y-13481077D01*
X14923371Y-13423934D02*
X14923371Y-13481077D01*
X15366228Y-13838220D02*
X15351943Y-13823934D01*
X15323371Y-13781077D01*
X15309086Y-13752506D01*
X15294800Y-13709649D01*
X15280514Y-13638220D01*
X15280514Y-13581077D01*
X15294800Y-13509649D01*
X15309086Y-13466791D01*
X15323371Y-13438220D01*
X15351943Y-13395363D01*
X15366228Y-13381077D01*
X15609086Y-13523934D02*
X15609086Y-13723934D01*
X15537657Y-13409649D02*
X15466228Y-13623934D01*
X15651943Y-13623934D01*
X15894800Y-13523934D02*
X15894800Y-13723934D01*
X15823371Y-13409649D02*
X15751943Y-13623934D01*
X15937657Y-13623934D01*
X16280514Y-13723934D02*
X16280514Y-13423934D01*
X16409086Y-13723934D02*
X16409086Y-13566791D01*
X16394800Y-13538220D01*
X16366228Y-13523934D01*
X16323371Y-13523934D01*
X16294800Y-13538220D01*
X16280514Y-13552506D01*
X16594800Y-13723934D02*
X16566228Y-13709649D01*
X16551943Y-13695363D01*
X16537657Y-13666791D01*
X16537657Y-13581077D01*
X16551943Y-13552506D01*
X16566228Y-13538220D01*
X16594800Y-13523934D01*
X16637657Y-13523934D01*
X16666228Y-13538220D01*
X16680514Y-13552506D01*
X16694800Y-13581077D01*
X16694800Y-13666791D01*
X16680514Y-13695363D01*
X16666228Y-13709649D01*
X16637657Y-13723934D01*
X16594800Y-13723934D01*
X16866228Y-13723934D02*
X16837657Y-13709649D01*
X16823371Y-13681077D01*
X16823371Y-13423934D01*
X17094800Y-13709649D02*
X17066228Y-13723934D01*
X17009086Y-13723934D01*
X16980514Y-13709649D01*
X16966228Y-13681077D01*
X16966228Y-13566791D01*
X16980514Y-13538220D01*
X17009086Y-13523934D01*
X17066228Y-13523934D01*
X17094800Y-13538220D01*
X17109086Y-13566791D01*
X17109086Y-13595363D01*
X16966228Y-13623934D01*
X17223371Y-13709649D02*
X17251943Y-13723934D01*
X17309086Y-13723934D01*
X17337657Y-13709649D01*
X17351943Y-13681077D01*
X17351943Y-13666791D01*
X17337657Y-13638220D01*
X17309086Y-13623934D01*
X17266228Y-13623934D01*
X17237657Y-13609649D01*
X17223371Y-13581077D01*
X17223371Y-13566791D01*
X17237657Y-13538220D01*
X17266228Y-13523934D01*
X17309086Y-13523934D01*
X17337657Y-13538220D01*
X17451943Y-13838220D02*
X17466228Y-13823934D01*
X17494800Y-13781077D01*
X17509086Y-13752506D01*
X17523371Y-13709649D01*
X17537657Y-13638220D01*
X17537657Y-13581077D01*
X17523371Y-13509649D01*
X17509086Y-13466791D01*
X17494800Y-13438220D01*
X17466228Y-13395363D01*
X17451943Y-13381077D01*
X10639800Y-13944220D02*
X10639800Y-14024220D01*
X10599800Y-13984220D02*
X10679800Y-13984220D01*
X11023371Y-13819934D02*
X11051943Y-13819934D01*
X11080514Y-13834220D01*
X11094800Y-13848506D01*
X11109086Y-13877077D01*
X11123371Y-13934220D01*
X11123371Y-14005649D01*
X11109086Y-14062791D01*
X11094800Y-14091363D01*
X11080514Y-14105649D01*
X11051943Y-14119934D01*
X11023371Y-14119934D01*
X10994800Y-14105649D01*
X10980514Y-14091363D01*
X10966228Y-14062791D01*
X10951943Y-14005649D01*
X10951943Y-13934220D01*
X10966228Y-13877077D01*
X10980514Y-13848506D01*
X10994800Y-13834220D01*
X11023371Y-13819934D01*
X11251943Y-14091363D02*
X11266228Y-14105649D01*
X11251943Y-14119934D01*
X11237657Y-14105649D01*
X11251943Y-14091363D01*
X11251943Y-14119934D01*
X11437657Y-13948506D02*
X11409086Y-13934220D01*
X11394800Y-13919934D01*
X11380514Y-13891363D01*
X11380514Y-13877077D01*
X11394800Y-13848506D01*
X11409086Y-13834220D01*
X11437657Y-13819934D01*
X11494800Y-13819934D01*
X11523371Y-13834220D01*
X11537657Y-13848506D01*
X11551943Y-13877077D01*
X11551943Y-13891363D01*
X11537657Y-13919934D01*
X11523371Y-13934220D01*
X11494800Y-13948506D01*
X11437657Y-13948506D01*
X11409086Y-13962791D01*
X11394800Y-13977077D01*
X11380514Y-14005649D01*
X11380514Y-14062791D01*
X11394800Y-14091363D01*
X11409086Y-14105649D01*
X11437657Y-14119934D01*
X11494800Y-14119934D01*
X11523371Y-14105649D01*
X11537657Y-14091363D01*
X11551943Y-14062791D01*
X11551943Y-14005649D01*
X11537657Y-13977077D01*
X11523371Y-13962791D01*
X11494800Y-13948506D01*
X11737657Y-13819934D02*
X11766228Y-13819934D01*
X11794800Y-13834220D01*
X11809086Y-13848506D01*
X11823371Y-13877077D01*
X11837657Y-13934220D01*
X11837657Y-14005649D01*
X11823371Y-14062791D01*
X11809086Y-14091363D01*
X11794800Y-14105649D01*
X11766228Y-14119934D01*
X11737657Y-14119934D01*
X11709086Y-14105649D01*
X11694800Y-14091363D01*
X11680514Y-14062791D01*
X11666228Y-14005649D01*
X11666228Y-13934220D01*
X11680514Y-13877077D01*
X11694800Y-13848506D01*
X11709086Y-13834220D01*
X11737657Y-13819934D01*
X11966228Y-14119934D02*
X11966228Y-13919934D01*
X11966228Y-13948506D02*
X11980514Y-13934220D01*
X12009086Y-13919934D01*
X12051943Y-13919934D01*
X12080514Y-13934220D01*
X12094800Y-13962791D01*
X12094800Y-14119934D01*
X12094800Y-13962791D02*
X12109086Y-13934220D01*
X12137657Y-13919934D01*
X12180514Y-13919934D01*
X12209086Y-13934220D01*
X12223371Y-13962791D01*
X12223371Y-14119934D01*
X12366228Y-14119934D02*
X12366228Y-13919934D01*
X12366228Y-13948506D02*
X12380514Y-13934220D01*
X12409086Y-13919934D01*
X12451943Y-13919934D01*
X12480514Y-13934220D01*
X12494800Y-13962791D01*
X12494800Y-14119934D01*
X12494800Y-13962791D02*
X12509086Y-13934220D01*
X12537657Y-13919934D01*
X12580514Y-13919934D01*
X12609086Y-13934220D01*
X12623371Y-13962791D01*
X12623371Y-14119934D01*
X13209086Y-13805649D02*
X12951943Y-14191363D01*
X13594800Y-13819934D02*
X13623371Y-13819934D01*
X13651943Y-13834220D01*
X13666228Y-13848506D01*
X13680514Y-13877077D01*
X13694800Y-13934220D01*
X13694800Y-14005649D01*
X13680514Y-14062791D01*
X13666228Y-14091363D01*
X13651943Y-14105649D01*
X13623371Y-14119934D01*
X13594800Y-14119934D01*
X13566228Y-14105649D01*
X13551943Y-14091363D01*
X13537657Y-14062791D01*
X13523371Y-14005649D01*
X13523371Y-13934220D01*
X13537657Y-13877077D01*
X13551943Y-13848506D01*
X13566228Y-13834220D01*
X13594800Y-13819934D01*
X13823371Y-14091363D02*
X13837657Y-14105649D01*
X13823371Y-14119934D01*
X13809086Y-14105649D01*
X13823371Y-14091363D01*
X13823371Y-14119934D01*
X14023371Y-13819934D02*
X14051943Y-13819934D01*
X14080514Y-13834220D01*
X14094800Y-13848506D01*
X14109086Y-13877077D01*
X14123371Y-13934220D01*
X14123371Y-14005649D01*
X14109086Y-14062791D01*
X14094800Y-14091363D01*
X14080514Y-14105649D01*
X14051943Y-14119934D01*
X14023371Y-14119934D01*
X13994800Y-14105649D01*
X13980514Y-14091363D01*
X13966228Y-14062791D01*
X13951943Y-14005649D01*
X13951943Y-13934220D01*
X13966228Y-13877077D01*
X13980514Y-13848506D01*
X13994800Y-13834220D01*
X14023371Y-13819934D01*
X14223371Y-13819934D02*
X14409086Y-13819934D01*
X14309086Y-13934220D01*
X14351943Y-13934220D01*
X14380514Y-13948506D01*
X14394800Y-13962791D01*
X14409086Y-13991363D01*
X14409086Y-14062791D01*
X14394800Y-14091363D01*
X14380514Y-14105649D01*
X14351943Y-14119934D01*
X14266228Y-14119934D01*
X14237657Y-14105649D01*
X14223371Y-14091363D01*
X14694800Y-14119934D02*
X14523371Y-14119934D01*
X14609086Y-14119934D02*
X14609086Y-13819934D01*
X14580514Y-13862791D01*
X14551943Y-13891363D01*
X14523371Y-13905649D01*
X14809086Y-13819934D02*
X14809086Y-13877077D01*
X14923371Y-13819934D02*
X14923371Y-13877077D01*
X15366228Y-14234220D02*
X15351943Y-14219934D01*
X15323371Y-14177077D01*
X15309086Y-14148506D01*
X15294800Y-14105649D01*
X15280514Y-14034220D01*
X15280514Y-13977077D01*
X15294800Y-13905649D01*
X15309086Y-13862791D01*
X15323371Y-13834220D01*
X15351943Y-13791363D01*
X15366228Y-13777077D01*
X15466228Y-13848506D02*
X15480514Y-13834220D01*
X15509086Y-13819934D01*
X15580514Y-13819934D01*
X15609086Y-13834220D01*
X15623371Y-13848506D01*
X15637657Y-13877077D01*
X15637657Y-13905649D01*
X15623371Y-13948506D01*
X15451943Y-14119934D01*
X15637657Y-14119934D01*
X15737657Y-13819934D02*
X15923371Y-13819934D01*
X15823371Y-13934220D01*
X15866228Y-13934220D01*
X15894800Y-13948506D01*
X15909086Y-13962791D01*
X15923371Y-13991363D01*
X15923371Y-14062791D01*
X15909086Y-14091363D01*
X15894800Y-14105649D01*
X15866228Y-14119934D01*
X15780514Y-14119934D01*
X15751943Y-14105649D01*
X15737657Y-14091363D01*
X16280514Y-14119934D02*
X16280514Y-13819934D01*
X16409086Y-14119934D02*
X16409086Y-13962791D01*
X16394800Y-13934220D01*
X16366228Y-13919934D01*
X16323371Y-13919934D01*
X16294800Y-13934220D01*
X16280514Y-13948506D01*
X16594800Y-14119934D02*
X16566228Y-14105649D01*
X16551943Y-14091363D01*
X16537657Y-14062791D01*
X16537657Y-13977077D01*
X16551943Y-13948506D01*
X16566228Y-13934220D01*
X16594800Y-13919934D01*
X16637657Y-13919934D01*
X16666228Y-13934220D01*
X16680514Y-13948506D01*
X16694800Y-13977077D01*
X16694800Y-14062791D01*
X16680514Y-14091363D01*
X16666228Y-14105649D01*
X16637657Y-14119934D01*
X16594800Y-14119934D01*
X16866228Y-14119934D02*
X16837657Y-14105649D01*
X16823371Y-14077077D01*
X16823371Y-13819934D01*
X17094800Y-14105649D02*
X17066228Y-14119934D01*
X17009086Y-14119934D01*
X16980514Y-14105649D01*
X16966228Y-14077077D01*
X16966228Y-13962791D01*
X16980514Y-13934220D01*
X17009086Y-13919934D01*
X17066228Y-13919934D01*
X17094800Y-13934220D01*
X17109086Y-13962791D01*
X17109086Y-13991363D01*
X16966228Y-14019934D01*
X17223371Y-14105649D02*
X17251943Y-14119934D01*
X17309086Y-14119934D01*
X17337657Y-14105649D01*
X17351943Y-14077077D01*
X17351943Y-14062791D01*
X17337657Y-14034220D01*
X17309086Y-14019934D01*
X17266228Y-14019934D01*
X17237657Y-14005649D01*
X17223371Y-13977077D01*
X17223371Y-13962791D01*
X17237657Y-13934220D01*
X17266228Y-13919934D01*
X17309086Y-13919934D01*
X17337657Y-13934220D01*
X17451943Y-14234220D02*
X17466228Y-14219934D01*
X17494800Y-14177077D01*
X17509086Y-14148506D01*
X17523371Y-14105649D01*
X17537657Y-14034220D01*
X17537657Y-13977077D01*
X17523371Y-13905649D01*
X17509086Y-13862791D01*
X17494800Y-13834220D01*
X17466228Y-13791363D01*
X17451943Y-13777077D01*
X10665156Y-14415576D02*
X10665156Y-14344864D01*
X10594444Y-14344864D01*
X10594444Y-14415576D01*
X10665156Y-14415576D01*
X11123371Y-14515934D02*
X10951943Y-14515934D01*
X11037657Y-14515934D02*
X11037657Y-14215934D01*
X11009086Y-14258791D01*
X10980514Y-14287363D01*
X10951943Y-14301649D01*
X11251943Y-14487363D02*
X11266228Y-14501649D01*
X11251943Y-14515934D01*
X11237657Y-14501649D01*
X11251943Y-14487363D01*
X11251943Y-14515934D01*
X11451943Y-14215934D02*
X11480514Y-14215934D01*
X11509086Y-14230220D01*
X11523371Y-14244506D01*
X11537657Y-14273077D01*
X11551943Y-14330220D01*
X11551943Y-14401649D01*
X11537657Y-14458791D01*
X11523371Y-14487363D01*
X11509086Y-14501649D01*
X11480514Y-14515934D01*
X11451943Y-14515934D01*
X11423371Y-14501649D01*
X11409086Y-14487363D01*
X11394800Y-14458791D01*
X11380514Y-14401649D01*
X11380514Y-14330220D01*
X11394800Y-14273077D01*
X11409086Y-14244506D01*
X11423371Y-14230220D01*
X11451943Y-14215934D01*
X11737657Y-14215934D02*
X11766228Y-14215934D01*
X11794800Y-14230220D01*
X11809086Y-14244506D01*
X11823371Y-14273077D01*
X11837657Y-14330220D01*
X11837657Y-14401649D01*
X11823371Y-14458791D01*
X11809086Y-14487363D01*
X11794800Y-14501649D01*
X11766228Y-14515934D01*
X11737657Y-14515934D01*
X11709086Y-14501649D01*
X11694800Y-14487363D01*
X11680514Y-14458791D01*
X11666228Y-14401649D01*
X11666228Y-14330220D01*
X11680514Y-14273077D01*
X11694800Y-14244506D01*
X11709086Y-14230220D01*
X11737657Y-14215934D01*
X11966228Y-14515934D02*
X11966228Y-14315934D01*
X11966228Y-14344506D02*
X11980514Y-14330220D01*
X12009086Y-14315934D01*
X12051943Y-14315934D01*
X12080514Y-14330220D01*
X12094800Y-14358791D01*
X12094800Y-14515934D01*
X12094800Y-14358791D02*
X12109086Y-14330220D01*
X12137657Y-14315934D01*
X12180514Y-14315934D01*
X12209086Y-14330220D01*
X12223371Y-14358791D01*
X12223371Y-14515934D01*
X12366228Y-14515934D02*
X12366228Y-14315934D01*
X12366228Y-14344506D02*
X12380514Y-14330220D01*
X12409086Y-14315934D01*
X12451943Y-14315934D01*
X12480514Y-14330220D01*
X12494800Y-14358791D01*
X12494800Y-14515934D01*
X12494800Y-14358791D02*
X12509086Y-14330220D01*
X12537657Y-14315934D01*
X12580514Y-14315934D01*
X12609086Y-14330220D01*
X12623371Y-14358791D01*
X12623371Y-14515934D01*
X13209086Y-14201649D02*
X12951943Y-14587363D01*
X13594800Y-14215934D02*
X13623371Y-14215934D01*
X13651943Y-14230220D01*
X13666228Y-14244506D01*
X13680514Y-14273077D01*
X13694800Y-14330220D01*
X13694800Y-14401649D01*
X13680514Y-14458791D01*
X13666228Y-14487363D01*
X13651943Y-14501649D01*
X13623371Y-14515934D01*
X13594800Y-14515934D01*
X13566228Y-14501649D01*
X13551943Y-14487363D01*
X13537657Y-14458791D01*
X13523371Y-14401649D01*
X13523371Y-14330220D01*
X13537657Y-14273077D01*
X13551943Y-14244506D01*
X13566228Y-14230220D01*
X13594800Y-14215934D01*
X13823371Y-14487363D02*
X13837657Y-14501649D01*
X13823371Y-14515934D01*
X13809086Y-14501649D01*
X13823371Y-14487363D01*
X13823371Y-14515934D01*
X14023371Y-14215934D02*
X14051943Y-14215934D01*
X14080514Y-14230220D01*
X14094800Y-14244506D01*
X14109086Y-14273077D01*
X14123371Y-14330220D01*
X14123371Y-14401649D01*
X14109086Y-14458791D01*
X14094800Y-14487363D01*
X14080514Y-14501649D01*
X14051943Y-14515934D01*
X14023371Y-14515934D01*
X13994800Y-14501649D01*
X13980514Y-14487363D01*
X13966228Y-14458791D01*
X13951943Y-14401649D01*
X13951943Y-14330220D01*
X13966228Y-14273077D01*
X13980514Y-14244506D01*
X13994800Y-14230220D01*
X14023371Y-14215934D01*
X14223371Y-14215934D02*
X14409086Y-14215934D01*
X14309086Y-14330220D01*
X14351943Y-14330220D01*
X14380514Y-14344506D01*
X14394800Y-14358791D01*
X14409086Y-14387363D01*
X14409086Y-14458791D01*
X14394800Y-14487363D01*
X14380514Y-14501649D01*
X14351943Y-14515934D01*
X14266228Y-14515934D01*
X14237657Y-14501649D01*
X14223371Y-14487363D01*
X14551943Y-14515934D02*
X14609086Y-14515934D01*
X14637657Y-14501649D01*
X14651943Y-14487363D01*
X14680514Y-14444506D01*
X14694800Y-14387363D01*
X14694800Y-14273077D01*
X14680514Y-14244506D01*
X14666228Y-14230220D01*
X14637657Y-14215934D01*
X14580514Y-14215934D01*
X14551943Y-14230220D01*
X14537657Y-14244506D01*
X14523371Y-14273077D01*
X14523371Y-14344506D01*
X14537657Y-14373077D01*
X14551943Y-14387363D01*
X14580514Y-14401649D01*
X14637657Y-14401649D01*
X14666228Y-14387363D01*
X14680514Y-14373077D01*
X14694800Y-14344506D01*
X14809086Y-14215934D02*
X14809086Y-14273077D01*
X14923371Y-14215934D02*
X14923371Y-14273077D01*
X15366228Y-14630220D02*
X15351943Y-14615934D01*
X15323371Y-14573077D01*
X15309086Y-14544506D01*
X15294800Y-14501649D01*
X15280514Y-14430220D01*
X15280514Y-14373077D01*
X15294800Y-14301649D01*
X15309086Y-14258791D01*
X15323371Y-14230220D01*
X15351943Y-14187363D01*
X15366228Y-14173077D01*
X15451943Y-14215934D02*
X15637657Y-14215934D01*
X15537657Y-14330220D01*
X15580514Y-14330220D01*
X15609086Y-14344506D01*
X15623371Y-14358791D01*
X15637657Y-14387363D01*
X15637657Y-14458791D01*
X15623371Y-14487363D01*
X15609086Y-14501649D01*
X15580514Y-14515934D01*
X15494800Y-14515934D01*
X15466228Y-14501649D01*
X15451943Y-14487363D01*
X15737657Y-14215934D02*
X15923371Y-14215934D01*
X15823371Y-14330220D01*
X15866228Y-14330220D01*
X15894800Y-14344506D01*
X15909086Y-14358791D01*
X15923371Y-14387363D01*
X15923371Y-14458791D01*
X15909086Y-14487363D01*
X15894800Y-14501649D01*
X15866228Y-14515934D01*
X15780514Y-14515934D01*
X15751943Y-14501649D01*
X15737657Y-14487363D01*
X16280514Y-14515934D02*
X16280514Y-14215934D01*
X16409086Y-14515934D02*
X16409086Y-14358791D01*
X16394800Y-14330220D01*
X16366228Y-14315934D01*
X16323371Y-14315934D01*
X16294800Y-14330220D01*
X16280514Y-14344506D01*
X16594800Y-14515934D02*
X16566228Y-14501649D01*
X16551943Y-14487363D01*
X16537657Y-14458791D01*
X16537657Y-14373077D01*
X16551943Y-14344506D01*
X16566228Y-14330220D01*
X16594800Y-14315934D01*
X16637657Y-14315934D01*
X16666228Y-14330220D01*
X16680514Y-14344506D01*
X16694800Y-14373077D01*
X16694800Y-14458791D01*
X16680514Y-14487363D01*
X16666228Y-14501649D01*
X16637657Y-14515934D01*
X16594800Y-14515934D01*
X16866228Y-14515934D02*
X16837657Y-14501649D01*
X16823371Y-14473077D01*
X16823371Y-14215934D01*
X17094800Y-14501649D02*
X17066228Y-14515934D01*
X17009086Y-14515934D01*
X16980514Y-14501649D01*
X16966228Y-14473077D01*
X16966228Y-14358791D01*
X16980514Y-14330220D01*
X17009086Y-14315934D01*
X17066228Y-14315934D01*
X17094800Y-14330220D01*
X17109086Y-14358791D01*
X17109086Y-14387363D01*
X16966228Y-14415934D01*
X17223371Y-14501649D02*
X17251943Y-14515934D01*
X17309086Y-14515934D01*
X17337657Y-14501649D01*
X17351943Y-14473077D01*
X17351943Y-14458791D01*
X17337657Y-14430220D01*
X17309086Y-14415934D01*
X17266228Y-14415934D01*
X17237657Y-14401649D01*
X17223371Y-14373077D01*
X17223371Y-14358791D01*
X17237657Y-14330220D01*
X17266228Y-14315934D01*
X17309086Y-14315934D01*
X17337657Y-14330220D01*
X17451943Y-14630220D02*
X17466228Y-14615934D01*
X17494800Y-14573077D01*
X17509086Y-14544506D01*
X17523371Y-14501649D01*
X17537657Y-14430220D01*
X17537657Y-14373077D01*
X17523371Y-14301649D01*
X17509086Y-14258791D01*
X17494800Y-14230220D01*
X17466228Y-14187363D01*
X17451943Y-14173077D01*
X10614800Y-14841220D02*
X10679800Y-14776220D01*
X10614800Y-14711220D01*
X10549800Y-14776220D01*
X10614800Y-14841220D01*
X11123371Y-14911934D02*
X10951943Y-14911934D01*
X11037657Y-14911934D02*
X11037657Y-14611934D01*
X11009086Y-14654791D01*
X10980514Y-14683363D01*
X10951943Y-14697649D01*
X11251943Y-14883363D02*
X11266228Y-14897649D01*
X11251943Y-14911934D01*
X11237657Y-14897649D01*
X11251943Y-14883363D01*
X11251943Y-14911934D01*
X11366228Y-14611934D02*
X11551943Y-14611934D01*
X11451943Y-14726220D01*
X11494800Y-14726220D01*
X11523371Y-14740506D01*
X11537657Y-14754791D01*
X11551943Y-14783363D01*
X11551943Y-14854791D01*
X11537657Y-14883363D01*
X11523371Y-14897649D01*
X11494800Y-14911934D01*
X11409086Y-14911934D01*
X11380514Y-14897649D01*
X11366228Y-14883363D01*
X11737657Y-14611934D02*
X11766228Y-14611934D01*
X11794800Y-14626220D01*
X11809086Y-14640506D01*
X11823371Y-14669077D01*
X11837657Y-14726220D01*
X11837657Y-14797649D01*
X11823371Y-14854791D01*
X11809086Y-14883363D01*
X11794800Y-14897649D01*
X11766228Y-14911934D01*
X11737657Y-14911934D01*
X11709086Y-14897649D01*
X11694800Y-14883363D01*
X11680514Y-14854791D01*
X11666228Y-14797649D01*
X11666228Y-14726220D01*
X11680514Y-14669077D01*
X11694800Y-14640506D01*
X11709086Y-14626220D01*
X11737657Y-14611934D01*
X11966228Y-14911934D02*
X11966228Y-14711934D01*
X11966228Y-14740506D02*
X11980514Y-14726220D01*
X12009086Y-14711934D01*
X12051943Y-14711934D01*
X12080514Y-14726220D01*
X12094800Y-14754791D01*
X12094800Y-14911934D01*
X12094800Y-14754791D02*
X12109086Y-14726220D01*
X12137657Y-14711934D01*
X12180514Y-14711934D01*
X12209086Y-14726220D01*
X12223371Y-14754791D01*
X12223371Y-14911934D01*
X12366228Y-14911934D02*
X12366228Y-14711934D01*
X12366228Y-14740506D02*
X12380514Y-14726220D01*
X12409086Y-14711934D01*
X12451943Y-14711934D01*
X12480514Y-14726220D01*
X12494800Y-14754791D01*
X12494800Y-14911934D01*
X12494800Y-14754791D02*
X12509086Y-14726220D01*
X12537657Y-14711934D01*
X12580514Y-14711934D01*
X12609086Y-14726220D01*
X12623371Y-14754791D01*
X12623371Y-14911934D01*
X13209086Y-14597649D02*
X12951943Y-14983363D01*
X13594800Y-14611934D02*
X13623371Y-14611934D01*
X13651943Y-14626220D01*
X13666228Y-14640506D01*
X13680514Y-14669077D01*
X13694800Y-14726220D01*
X13694800Y-14797649D01*
X13680514Y-14854791D01*
X13666228Y-14883363D01*
X13651943Y-14897649D01*
X13623371Y-14911934D01*
X13594800Y-14911934D01*
X13566228Y-14897649D01*
X13551943Y-14883363D01*
X13537657Y-14854791D01*
X13523371Y-14797649D01*
X13523371Y-14726220D01*
X13537657Y-14669077D01*
X13551943Y-14640506D01*
X13566228Y-14626220D01*
X13594800Y-14611934D01*
X13823371Y-14883363D02*
X13837657Y-14897649D01*
X13823371Y-14911934D01*
X13809086Y-14897649D01*
X13823371Y-14883363D01*
X13823371Y-14911934D01*
X14023371Y-14611934D02*
X14051943Y-14611934D01*
X14080514Y-14626220D01*
X14094800Y-14640506D01*
X14109086Y-14669077D01*
X14123371Y-14726220D01*
X14123371Y-14797649D01*
X14109086Y-14854791D01*
X14094800Y-14883363D01*
X14080514Y-14897649D01*
X14051943Y-14911934D01*
X14023371Y-14911934D01*
X13994800Y-14897649D01*
X13980514Y-14883363D01*
X13966228Y-14854791D01*
X13951943Y-14797649D01*
X13951943Y-14726220D01*
X13966228Y-14669077D01*
X13980514Y-14640506D01*
X13994800Y-14626220D01*
X14023371Y-14611934D01*
X14394800Y-14611934D02*
X14251943Y-14611934D01*
X14237657Y-14754791D01*
X14251943Y-14740506D01*
X14280514Y-14726220D01*
X14351943Y-14726220D01*
X14380514Y-14740506D01*
X14394800Y-14754791D01*
X14409086Y-14783363D01*
X14409086Y-14854791D01*
X14394800Y-14883363D01*
X14380514Y-14897649D01*
X14351943Y-14911934D01*
X14280514Y-14911934D01*
X14251943Y-14897649D01*
X14237657Y-14883363D01*
X14694800Y-14911934D02*
X14523371Y-14911934D01*
X14609086Y-14911934D02*
X14609086Y-14611934D01*
X14580514Y-14654791D01*
X14551943Y-14683363D01*
X14523371Y-14697649D01*
X14809086Y-14611934D02*
X14809086Y-14669077D01*
X14923371Y-14611934D02*
X14923371Y-14669077D01*
X15366228Y-15026220D02*
X15351943Y-15011934D01*
X15323371Y-14969077D01*
X15309086Y-14940506D01*
X15294800Y-14897649D01*
X15280514Y-14826220D01*
X15280514Y-14769077D01*
X15294800Y-14697649D01*
X15309086Y-14654791D01*
X15323371Y-14626220D01*
X15351943Y-14583363D01*
X15366228Y-14569077D01*
X15466228Y-14640506D02*
X15480514Y-14626220D01*
X15509086Y-14611934D01*
X15580514Y-14611934D01*
X15609086Y-14626220D01*
X15623371Y-14640506D01*
X15637657Y-14669077D01*
X15637657Y-14697649D01*
X15623371Y-14740506D01*
X15451943Y-14911934D01*
X15637657Y-14911934D01*
X15994800Y-14911934D02*
X15994800Y-14611934D01*
X16123371Y-14911934D02*
X16123371Y-14754791D01*
X16109086Y-14726220D01*
X16080514Y-14711934D01*
X16037657Y-14711934D01*
X16009086Y-14726220D01*
X15994800Y-14740506D01*
X16309086Y-14911934D02*
X16280514Y-14897649D01*
X16266228Y-14883363D01*
X16251943Y-14854791D01*
X16251943Y-14769077D01*
X16266228Y-14740506D01*
X16280514Y-14726220D01*
X16309086Y-14711934D01*
X16351943Y-14711934D01*
X16380514Y-14726220D01*
X16394800Y-14740506D01*
X16409086Y-14769077D01*
X16409086Y-14854791D01*
X16394800Y-14883363D01*
X16380514Y-14897649D01*
X16351943Y-14911934D01*
X16309086Y-14911934D01*
X16580514Y-14911934D02*
X16551943Y-14897649D01*
X16537657Y-14869077D01*
X16537657Y-14611934D01*
X16809086Y-14897649D02*
X16780514Y-14911934D01*
X16723371Y-14911934D01*
X16694800Y-14897649D01*
X16680514Y-14869077D01*
X16680514Y-14754791D01*
X16694800Y-14726220D01*
X16723371Y-14711934D01*
X16780514Y-14711934D01*
X16809086Y-14726220D01*
X16823371Y-14754791D01*
X16823371Y-14783363D01*
X16680514Y-14811934D01*
X16937657Y-14897649D02*
X16966228Y-14911934D01*
X17023371Y-14911934D01*
X17051943Y-14897649D01*
X17066228Y-14869077D01*
X17066228Y-14854791D01*
X17051943Y-14826220D01*
X17023371Y-14811934D01*
X16980514Y-14811934D01*
X16951943Y-14797649D01*
X16937657Y-14769077D01*
X16937657Y-14754791D01*
X16951943Y-14726220D01*
X16980514Y-14711934D01*
X17023371Y-14711934D01*
X17051943Y-14726220D01*
X17166228Y-15026220D02*
X17180514Y-15011934D01*
X17209086Y-14969077D01*
X17223371Y-14940506D01*
X17237657Y-14897649D01*
X17251943Y-14826220D01*
X17251943Y-14769077D01*
X17237657Y-14697649D01*
X17223371Y-14654791D01*
X17209086Y-14626220D01*
X17180514Y-14583363D01*
X17166228Y-14569077D01*
X10539800Y-15102220D02*
X10679800Y-15242220D01*
X10679800Y-15102220D02*
X10539800Y-15242220D01*
X10679800Y-15172220D02*
G75*
G03X10679800Y-15172220I-70000J0D01*
G01*
X11123371Y-15307934D02*
X10951943Y-15307934D01*
X11037657Y-15307934D02*
X11037657Y-15007934D01*
X11009086Y-15050791D01*
X10980514Y-15079363D01*
X10951943Y-15093649D01*
X11251943Y-15279363D02*
X11266228Y-15293649D01*
X11251943Y-15307934D01*
X11237657Y-15293649D01*
X11251943Y-15279363D01*
X11251943Y-15307934D01*
X11523371Y-15107934D02*
X11523371Y-15307934D01*
X11451943Y-14993649D02*
X11380514Y-15207934D01*
X11566228Y-15207934D01*
X11737657Y-15007934D02*
X11766228Y-15007934D01*
X11794800Y-15022220D01*
X11809086Y-15036506D01*
X11823371Y-15065077D01*
X11837657Y-15122220D01*
X11837657Y-15193649D01*
X11823371Y-15250791D01*
X11809086Y-15279363D01*
X11794800Y-15293649D01*
X11766228Y-15307934D01*
X11737657Y-15307934D01*
X11709086Y-15293649D01*
X11694800Y-15279363D01*
X11680514Y-15250791D01*
X11666228Y-15193649D01*
X11666228Y-15122220D01*
X11680514Y-15065077D01*
X11694800Y-15036506D01*
X11709086Y-15022220D01*
X11737657Y-15007934D01*
X11966228Y-15307934D02*
X11966228Y-15107934D01*
X11966228Y-15136506D02*
X11980514Y-15122220D01*
X12009086Y-15107934D01*
X12051943Y-15107934D01*
X12080514Y-15122220D01*
X12094800Y-15150791D01*
X12094800Y-15307934D01*
X12094800Y-15150791D02*
X12109086Y-15122220D01*
X12137657Y-15107934D01*
X12180514Y-15107934D01*
X12209086Y-15122220D01*
X12223371Y-15150791D01*
X12223371Y-15307934D01*
X12366228Y-15307934D02*
X12366228Y-15107934D01*
X12366228Y-15136506D02*
X12380514Y-15122220D01*
X12409086Y-15107934D01*
X12451943Y-15107934D01*
X12480514Y-15122220D01*
X12494800Y-15150791D01*
X12494800Y-15307934D01*
X12494800Y-15150791D02*
X12509086Y-15122220D01*
X12537657Y-15107934D01*
X12580514Y-15107934D01*
X12609086Y-15122220D01*
X12623371Y-15150791D01*
X12623371Y-15307934D01*
X13209086Y-14993649D02*
X12951943Y-15379363D01*
X13594800Y-15007934D02*
X13623371Y-15007934D01*
X13651943Y-15022220D01*
X13666228Y-15036506D01*
X13680514Y-15065077D01*
X13694800Y-15122220D01*
X13694800Y-15193649D01*
X13680514Y-15250791D01*
X13666228Y-15279363D01*
X13651943Y-15293649D01*
X13623371Y-15307934D01*
X13594800Y-15307934D01*
X13566228Y-15293649D01*
X13551943Y-15279363D01*
X13537657Y-15250791D01*
X13523371Y-15193649D01*
X13523371Y-15122220D01*
X13537657Y-15065077D01*
X13551943Y-15036506D01*
X13566228Y-15022220D01*
X13594800Y-15007934D01*
X13823371Y-15279363D02*
X13837657Y-15293649D01*
X13823371Y-15307934D01*
X13809086Y-15293649D01*
X13823371Y-15279363D01*
X13823371Y-15307934D01*
X14023371Y-15007934D02*
X14051943Y-15007934D01*
X14080514Y-15022220D01*
X14094800Y-15036506D01*
X14109086Y-15065077D01*
X14123371Y-15122220D01*
X14123371Y-15193649D01*
X14109086Y-15250791D01*
X14094800Y-15279363D01*
X14080514Y-15293649D01*
X14051943Y-15307934D01*
X14023371Y-15307934D01*
X13994800Y-15293649D01*
X13980514Y-15279363D01*
X13966228Y-15250791D01*
X13951943Y-15193649D01*
X13951943Y-15122220D01*
X13966228Y-15065077D01*
X13980514Y-15036506D01*
X13994800Y-15022220D01*
X14023371Y-15007934D01*
X14394800Y-15007934D02*
X14251943Y-15007934D01*
X14237657Y-15150791D01*
X14251943Y-15136506D01*
X14280514Y-15122220D01*
X14351943Y-15122220D01*
X14380514Y-15136506D01*
X14394800Y-15150791D01*
X14409086Y-15179363D01*
X14409086Y-15250791D01*
X14394800Y-15279363D01*
X14380514Y-15293649D01*
X14351943Y-15307934D01*
X14280514Y-15307934D01*
X14251943Y-15293649D01*
X14237657Y-15279363D01*
X14680514Y-15007934D02*
X14537657Y-15007934D01*
X14523371Y-15150791D01*
X14537657Y-15136506D01*
X14566228Y-15122220D01*
X14637657Y-15122220D01*
X14666228Y-15136506D01*
X14680514Y-15150791D01*
X14694800Y-15179363D01*
X14694800Y-15250791D01*
X14680514Y-15279363D01*
X14666228Y-15293649D01*
X14637657Y-15307934D01*
X14566228Y-15307934D01*
X14537657Y-15293649D01*
X14523371Y-15279363D01*
X14809086Y-15007934D02*
X14809086Y-15065077D01*
X14923371Y-15007934D02*
X14923371Y-15065077D01*
X15366228Y-15422220D02*
X15351943Y-15407934D01*
X15323371Y-15365077D01*
X15309086Y-15336506D01*
X15294800Y-15293649D01*
X15280514Y-15222220D01*
X15280514Y-15165077D01*
X15294800Y-15093649D01*
X15309086Y-15050791D01*
X15323371Y-15022220D01*
X15351943Y-14979363D01*
X15366228Y-14965077D01*
X15466228Y-15036506D02*
X15480514Y-15022220D01*
X15509086Y-15007934D01*
X15580514Y-15007934D01*
X15609086Y-15022220D01*
X15623371Y-15036506D01*
X15637657Y-15065077D01*
X15637657Y-15093649D01*
X15623371Y-15136506D01*
X15451943Y-15307934D01*
X15637657Y-15307934D01*
X15994800Y-15307934D02*
X15994800Y-15007934D01*
X16123371Y-15307934D02*
X16123371Y-15150791D01*
X16109086Y-15122220D01*
X16080514Y-15107934D01*
X16037657Y-15107934D01*
X16009086Y-15122220D01*
X15994800Y-15136506D01*
X16309086Y-15307934D02*
X16280514Y-15293649D01*
X16266228Y-15279363D01*
X16251943Y-15250791D01*
X16251943Y-15165077D01*
X16266228Y-15136506D01*
X16280514Y-15122220D01*
X16309086Y-15107934D01*
X16351943Y-15107934D01*
X16380514Y-15122220D01*
X16394800Y-15136506D01*
X16409086Y-15165077D01*
X16409086Y-15250791D01*
X16394800Y-15279363D01*
X16380514Y-15293649D01*
X16351943Y-15307934D01*
X16309086Y-15307934D01*
X16580514Y-15307934D02*
X16551943Y-15293649D01*
X16537657Y-15265077D01*
X16537657Y-15007934D01*
X16809086Y-15293649D02*
X16780514Y-15307934D01*
X16723371Y-15307934D01*
X16694800Y-15293649D01*
X16680514Y-15265077D01*
X16680514Y-15150791D01*
X16694800Y-15122220D01*
X16723371Y-15107934D01*
X16780514Y-15107934D01*
X16809086Y-15122220D01*
X16823371Y-15150791D01*
X16823371Y-15179363D01*
X16680514Y-15207934D01*
X16937657Y-15293649D02*
X16966228Y-15307934D01*
X17023371Y-15307934D01*
X17051943Y-15293649D01*
X17066228Y-15265077D01*
X17066228Y-15250791D01*
X17051943Y-15222220D01*
X17023371Y-15207934D01*
X16980514Y-15207934D01*
X16951943Y-15193649D01*
X16937657Y-15165077D01*
X16937657Y-15150791D01*
X16951943Y-15122220D01*
X16980514Y-15107934D01*
X17023371Y-15107934D01*
X17051943Y-15122220D01*
X17166228Y-15422220D02*
X17180514Y-15407934D01*
X17209086Y-15365077D01*
X17223371Y-15336506D01*
X17237657Y-15293649D01*
X17251943Y-15222220D01*
X17251943Y-15165077D01*
X17237657Y-15093649D01*
X17223371Y-15050791D01*
X17209086Y-15022220D01*
X17180514Y-14979363D01*
X17166228Y-14965077D01*
X10459800Y-15458220D02*
X10679800Y-15678220D01*
X10679800Y-15458220D02*
X10459800Y-15678220D01*
X10569800Y-15458220D02*
X10569800Y-15678220D01*
X10459800Y-15568220D02*
X10679800Y-15568220D01*
X10951943Y-15432506D02*
X10966228Y-15418220D01*
X10994800Y-15403934D01*
X11066228Y-15403934D01*
X11094800Y-15418220D01*
X11109086Y-15432506D01*
X11123371Y-15461077D01*
X11123371Y-15489649D01*
X11109086Y-15532506D01*
X10937657Y-15703934D01*
X11123371Y-15703934D01*
X11251943Y-15675363D02*
X11266228Y-15689649D01*
X11251943Y-15703934D01*
X11237657Y-15689649D01*
X11251943Y-15675363D01*
X11251943Y-15703934D01*
X11380514Y-15432506D02*
X11394800Y-15418220D01*
X11423371Y-15403934D01*
X11494800Y-15403934D01*
X11523371Y-15418220D01*
X11537657Y-15432506D01*
X11551943Y-15461077D01*
X11551943Y-15489649D01*
X11537657Y-15532506D01*
X11366228Y-15703934D01*
X11551943Y-15703934D01*
X11737657Y-15403934D02*
X11766228Y-15403934D01*
X11794800Y-15418220D01*
X11809086Y-15432506D01*
X11823371Y-15461077D01*
X11837657Y-15518220D01*
X11837657Y-15589649D01*
X11823371Y-15646791D01*
X11809086Y-15675363D01*
X11794800Y-15689649D01*
X11766228Y-15703934D01*
X11737657Y-15703934D01*
X11709086Y-15689649D01*
X11694800Y-15675363D01*
X11680514Y-15646791D01*
X11666228Y-15589649D01*
X11666228Y-15518220D01*
X11680514Y-15461077D01*
X11694800Y-15432506D01*
X11709086Y-15418220D01*
X11737657Y-15403934D01*
X11966228Y-15703934D02*
X11966228Y-15503934D01*
X11966228Y-15532506D02*
X11980514Y-15518220D01*
X12009086Y-15503934D01*
X12051943Y-15503934D01*
X12080514Y-15518220D01*
X12094800Y-15546791D01*
X12094800Y-15703934D01*
X12094800Y-15546791D02*
X12109086Y-15518220D01*
X12137657Y-15503934D01*
X12180514Y-15503934D01*
X12209086Y-15518220D01*
X12223371Y-15546791D01*
X12223371Y-15703934D01*
X12366228Y-15703934D02*
X12366228Y-15503934D01*
X12366228Y-15532506D02*
X12380514Y-15518220D01*
X12409086Y-15503934D01*
X12451943Y-15503934D01*
X12480514Y-15518220D01*
X12494800Y-15546791D01*
X12494800Y-15703934D01*
X12494800Y-15546791D02*
X12509086Y-15518220D01*
X12537657Y-15503934D01*
X12580514Y-15503934D01*
X12609086Y-15518220D01*
X12623371Y-15546791D01*
X12623371Y-15703934D01*
X13209086Y-15389649D02*
X12951943Y-15775363D01*
X13594800Y-15403934D02*
X13623371Y-15403934D01*
X13651943Y-15418220D01*
X13666228Y-15432506D01*
X13680514Y-15461077D01*
X13694800Y-15518220D01*
X13694800Y-15589649D01*
X13680514Y-15646791D01*
X13666228Y-15675363D01*
X13651943Y-15689649D01*
X13623371Y-15703934D01*
X13594800Y-15703934D01*
X13566228Y-15689649D01*
X13551943Y-15675363D01*
X13537657Y-15646791D01*
X13523371Y-15589649D01*
X13523371Y-15518220D01*
X13537657Y-15461077D01*
X13551943Y-15432506D01*
X13566228Y-15418220D01*
X13594800Y-15403934D01*
X13823371Y-15675363D02*
X13837657Y-15689649D01*
X13823371Y-15703934D01*
X13809086Y-15689649D01*
X13823371Y-15675363D01*
X13823371Y-15703934D01*
X14023371Y-15403934D02*
X14051943Y-15403934D01*
X14080514Y-15418220D01*
X14094800Y-15432506D01*
X14109086Y-15461077D01*
X14123371Y-15518220D01*
X14123371Y-15589649D01*
X14109086Y-15646791D01*
X14094800Y-15675363D01*
X14080514Y-15689649D01*
X14051943Y-15703934D01*
X14023371Y-15703934D01*
X13994800Y-15689649D01*
X13980514Y-15675363D01*
X13966228Y-15646791D01*
X13951943Y-15589649D01*
X13951943Y-15518220D01*
X13966228Y-15461077D01*
X13980514Y-15432506D01*
X13994800Y-15418220D01*
X14023371Y-15403934D01*
X14294800Y-15532506D02*
X14266228Y-15518220D01*
X14251943Y-15503934D01*
X14237657Y-15475363D01*
X14237657Y-15461077D01*
X14251943Y-15432506D01*
X14266228Y-15418220D01*
X14294800Y-15403934D01*
X14351943Y-15403934D01*
X14380514Y-15418220D01*
X14394800Y-15432506D01*
X14409086Y-15461077D01*
X14409086Y-15475363D01*
X14394800Y-15503934D01*
X14380514Y-15518220D01*
X14351943Y-15532506D01*
X14294800Y-15532506D01*
X14266228Y-15546791D01*
X14251943Y-15561077D01*
X14237657Y-15589649D01*
X14237657Y-15646791D01*
X14251943Y-15675363D01*
X14266228Y-15689649D01*
X14294800Y-15703934D01*
X14351943Y-15703934D01*
X14380514Y-15689649D01*
X14394800Y-15675363D01*
X14409086Y-15646791D01*
X14409086Y-15589649D01*
X14394800Y-15561077D01*
X14380514Y-15546791D01*
X14351943Y-15532506D01*
X14509086Y-15403934D02*
X14709086Y-15403934D01*
X14580514Y-15703934D01*
X14809086Y-15403934D02*
X14809086Y-15461077D01*
X14923371Y-15403934D02*
X14923371Y-15461077D01*
X15366228Y-15818220D02*
X15351943Y-15803934D01*
X15323371Y-15761077D01*
X15309086Y-15732506D01*
X15294800Y-15689649D01*
X15280514Y-15618220D01*
X15280514Y-15561077D01*
X15294800Y-15489649D01*
X15309086Y-15446791D01*
X15323371Y-15418220D01*
X15351943Y-15375363D01*
X15366228Y-15361077D01*
X15637657Y-15703934D02*
X15466228Y-15703934D01*
X15551943Y-15703934D02*
X15551943Y-15403934D01*
X15523371Y-15446791D01*
X15494800Y-15475363D01*
X15466228Y-15489649D01*
X15980514Y-15689649D02*
X16009086Y-15703934D01*
X16066228Y-15703934D01*
X16094800Y-15689649D01*
X16109086Y-15661077D01*
X16109086Y-15646791D01*
X16094800Y-15618220D01*
X16066228Y-15603934D01*
X16023371Y-15603934D01*
X15994800Y-15589649D01*
X15980514Y-15561077D01*
X15980514Y-15546791D01*
X15994800Y-15518220D01*
X16023371Y-15503934D01*
X16066228Y-15503934D01*
X16094800Y-15518220D01*
X16280514Y-15703934D02*
X16251943Y-15689649D01*
X16237657Y-15661077D01*
X16237657Y-15403934D01*
X16437657Y-15703934D02*
X16409086Y-15689649D01*
X16394800Y-15675363D01*
X16380514Y-15646791D01*
X16380514Y-15561077D01*
X16394800Y-15532506D01*
X16409086Y-15518220D01*
X16437657Y-15503934D01*
X16480514Y-15503934D01*
X16509086Y-15518220D01*
X16523371Y-15532506D01*
X16537657Y-15561077D01*
X16537657Y-15646791D01*
X16523371Y-15675363D01*
X16509086Y-15689649D01*
X16480514Y-15703934D01*
X16437657Y-15703934D01*
X16623371Y-15503934D02*
X16737657Y-15503934D01*
X16666228Y-15403934D02*
X16666228Y-15661077D01*
X16680514Y-15689649D01*
X16709086Y-15703934D01*
X16737657Y-15703934D01*
X16809086Y-15818220D02*
X16823371Y-15803934D01*
X16851943Y-15761077D01*
X16866228Y-15732506D01*
X16880514Y-15689649D01*
X16894800Y-15618220D01*
X16894800Y-15561077D01*
X16880514Y-15489649D01*
X16866228Y-15446791D01*
X16851943Y-15418220D01*
X16823371Y-15375363D01*
X16809086Y-15361077D01*
X10379800Y-15814220D02*
X10679800Y-16114220D01*
X10679800Y-15814220D02*
X10379800Y-16114220D01*
X10635867Y-16070287D02*
X10635867Y-15858153D01*
X10423733Y-15858153D01*
X10423733Y-16070287D01*
X10635867Y-16070287D01*
X10937657Y-15799934D02*
X11123371Y-15799934D01*
X11023371Y-15914220D01*
X11066228Y-15914220D01*
X11094800Y-15928506D01*
X11109086Y-15942791D01*
X11123371Y-15971363D01*
X11123371Y-16042791D01*
X11109086Y-16071363D01*
X11094800Y-16085649D01*
X11066228Y-16099934D01*
X10980514Y-16099934D01*
X10951943Y-16085649D01*
X10937657Y-16071363D01*
X11251943Y-16071363D02*
X11266228Y-16085649D01*
X11251943Y-16099934D01*
X11237657Y-16085649D01*
X11251943Y-16071363D01*
X11251943Y-16099934D01*
X11451943Y-15799934D02*
X11480514Y-15799934D01*
X11509086Y-15814220D01*
X11523371Y-15828506D01*
X11537657Y-15857077D01*
X11551943Y-15914220D01*
X11551943Y-15985649D01*
X11537657Y-16042791D01*
X11523371Y-16071363D01*
X11509086Y-16085649D01*
X11480514Y-16099934D01*
X11451943Y-16099934D01*
X11423371Y-16085649D01*
X11409086Y-16071363D01*
X11394800Y-16042791D01*
X11380514Y-15985649D01*
X11380514Y-15914220D01*
X11394800Y-15857077D01*
X11409086Y-15828506D01*
X11423371Y-15814220D01*
X11451943Y-15799934D01*
X11737657Y-15799934D02*
X11766228Y-15799934D01*
X11794800Y-15814220D01*
X11809086Y-15828506D01*
X11823371Y-15857077D01*
X11837657Y-15914220D01*
X11837657Y-15985649D01*
X11823371Y-16042791D01*
X11809086Y-16071363D01*
X11794800Y-16085649D01*
X11766228Y-16099934D01*
X11737657Y-16099934D01*
X11709086Y-16085649D01*
X11694800Y-16071363D01*
X11680514Y-16042791D01*
X11666228Y-15985649D01*
X11666228Y-15914220D01*
X11680514Y-15857077D01*
X11694800Y-15828506D01*
X11709086Y-15814220D01*
X11737657Y-15799934D01*
X11966228Y-16099934D02*
X11966228Y-15899934D01*
X11966228Y-15928506D02*
X11980514Y-15914220D01*
X12009086Y-15899934D01*
X12051943Y-15899934D01*
X12080514Y-15914220D01*
X12094800Y-15942791D01*
X12094800Y-16099934D01*
X12094800Y-15942791D02*
X12109086Y-15914220D01*
X12137657Y-15899934D01*
X12180514Y-15899934D01*
X12209086Y-15914220D01*
X12223371Y-15942791D01*
X12223371Y-16099934D01*
X12366228Y-16099934D02*
X12366228Y-15899934D01*
X12366228Y-15928506D02*
X12380514Y-15914220D01*
X12409086Y-15899934D01*
X12451943Y-15899934D01*
X12480514Y-15914220D01*
X12494800Y-15942791D01*
X12494800Y-16099934D01*
X12494800Y-15942791D02*
X12509086Y-15914220D01*
X12537657Y-15899934D01*
X12580514Y-15899934D01*
X12609086Y-15914220D01*
X12623371Y-15942791D01*
X12623371Y-16099934D01*
X13209086Y-15785649D02*
X12951943Y-16171363D01*
X13594800Y-15799934D02*
X13623371Y-15799934D01*
X13651943Y-15814220D01*
X13666228Y-15828506D01*
X13680514Y-15857077D01*
X13694800Y-15914220D01*
X13694800Y-15985649D01*
X13680514Y-16042791D01*
X13666228Y-16071363D01*
X13651943Y-16085649D01*
X13623371Y-16099934D01*
X13594800Y-16099934D01*
X13566228Y-16085649D01*
X13551943Y-16071363D01*
X13537657Y-16042791D01*
X13523371Y-15985649D01*
X13523371Y-15914220D01*
X13537657Y-15857077D01*
X13551943Y-15828506D01*
X13566228Y-15814220D01*
X13594800Y-15799934D01*
X13823371Y-16071363D02*
X13837657Y-16085649D01*
X13823371Y-16099934D01*
X13809086Y-16085649D01*
X13823371Y-16071363D01*
X13823371Y-16099934D01*
X14123371Y-16099934D02*
X13951943Y-16099934D01*
X14037657Y-16099934D02*
X14037657Y-15799934D01*
X14009086Y-15842791D01*
X13980514Y-15871363D01*
X13951943Y-15885649D01*
X14409086Y-16099934D02*
X14237657Y-16099934D01*
X14323371Y-16099934D02*
X14323371Y-15799934D01*
X14294800Y-15842791D01*
X14266228Y-15871363D01*
X14237657Y-15885649D01*
X14580514Y-15928506D02*
X14551943Y-15914220D01*
X14537657Y-15899934D01*
X14523371Y-15871363D01*
X14523371Y-15857077D01*
X14537657Y-15828506D01*
X14551943Y-15814220D01*
X14580514Y-15799934D01*
X14637657Y-15799934D01*
X14666228Y-15814220D01*
X14680514Y-15828506D01*
X14694800Y-15857077D01*
X14694800Y-15871363D01*
X14680514Y-15899934D01*
X14666228Y-15914220D01*
X14637657Y-15928506D01*
X14580514Y-15928506D01*
X14551943Y-15942791D01*
X14537657Y-15957077D01*
X14523371Y-15985649D01*
X14523371Y-16042791D01*
X14537657Y-16071363D01*
X14551943Y-16085649D01*
X14580514Y-16099934D01*
X14637657Y-16099934D01*
X14666228Y-16085649D01*
X14680514Y-16071363D01*
X14694800Y-16042791D01*
X14694800Y-15985649D01*
X14680514Y-15957077D01*
X14666228Y-15942791D01*
X14637657Y-15928506D01*
X14809086Y-15799934D02*
X14809086Y-15857077D01*
X14923371Y-15799934D02*
X14923371Y-15857077D01*
X15366228Y-16214220D02*
X15351943Y-16199934D01*
X15323371Y-16157077D01*
X15309086Y-16128506D01*
X15294800Y-16085649D01*
X15280514Y-16014220D01*
X15280514Y-15957077D01*
X15294800Y-15885649D01*
X15309086Y-15842791D01*
X15323371Y-15814220D01*
X15351943Y-15771363D01*
X15366228Y-15757077D01*
X15609086Y-15899934D02*
X15609086Y-16099934D01*
X15537657Y-15785649D02*
X15466228Y-15999934D01*
X15651943Y-15999934D01*
X15994800Y-16099934D02*
X15994800Y-15799934D01*
X16123371Y-16099934D02*
X16123371Y-15942791D01*
X16109086Y-15914220D01*
X16080514Y-15899934D01*
X16037657Y-15899934D01*
X16009086Y-15914220D01*
X15994800Y-15928506D01*
X16309086Y-16099934D02*
X16280514Y-16085649D01*
X16266228Y-16071363D01*
X16251943Y-16042791D01*
X16251943Y-15957077D01*
X16266228Y-15928506D01*
X16280514Y-15914220D01*
X16309086Y-15899934D01*
X16351943Y-15899934D01*
X16380514Y-15914220D01*
X16394800Y-15928506D01*
X16409086Y-15957077D01*
X16409086Y-16042791D01*
X16394800Y-16071363D01*
X16380514Y-16085649D01*
X16351943Y-16099934D01*
X16309086Y-16099934D01*
X16580514Y-16099934D02*
X16551943Y-16085649D01*
X16537657Y-16057077D01*
X16537657Y-15799934D01*
X16809086Y-16085649D02*
X16780514Y-16099934D01*
X16723371Y-16099934D01*
X16694800Y-16085649D01*
X16680514Y-16057077D01*
X16680514Y-15942791D01*
X16694800Y-15914220D01*
X16723371Y-15899934D01*
X16780514Y-15899934D01*
X16809086Y-15914220D01*
X16823371Y-15942791D01*
X16823371Y-15971363D01*
X16680514Y-15999934D01*
X16937657Y-16085649D02*
X16966228Y-16099934D01*
X17023371Y-16099934D01*
X17051943Y-16085649D01*
X17066228Y-16057077D01*
X17066228Y-16042791D01*
X17051943Y-16014220D01*
X17023371Y-15999934D01*
X16980514Y-15999934D01*
X16951943Y-15985649D01*
X16937657Y-15957077D01*
X16937657Y-15942791D01*
X16951943Y-15914220D01*
X16980514Y-15899934D01*
X17023371Y-15899934D01*
X17051943Y-15914220D01*
X17166228Y-16214220D02*
X17180514Y-16199934D01*
X17209086Y-16157077D01*
X17223371Y-16128506D01*
X17237657Y-16085649D01*
X17251943Y-16014220D01*
X17251943Y-15957077D01*
X17237657Y-15885649D01*
X17223371Y-15842791D01*
X17209086Y-15814220D01*
X17180514Y-15771363D01*
X17166228Y-15757077D01*
M02*
