%FSLAX45Y45*%
G04 Gerber Fmt 4.5, Leading zero omitted, Abs format (unit mm)*
G04 Created by KiCad (PCBNEW (5.1.4-0-10_14)) date 2019-11-24 21:13:47*
%MOMM*%
%LPD*%
G04 APERTURE LIST*
%ADD10C,0.050000*%
%ADD11C,0.200000*%
%ADD12C,0.300000*%
G04 APERTURE END LIST*
D10*
X20672300Y-5796100D02*
G75*
G02X20926300Y-6050100I0J-254000D01*
G01*
X20926300Y-11975720D02*
G75*
G02X20672300Y-12229720I-254000J0D01*
G01*
X10937240Y-12229720D02*
G75*
G02X10683240Y-11975720I0J254000D01*
G01*
X10682300Y-6050100D02*
G75*
G02X10936300Y-5796100I254000J0D01*
G01*
X20672300Y-5796100D02*
X10936300Y-5796100D01*
X20926300Y-11975720D02*
X20926300Y-6050100D01*
X10937240Y-12229720D02*
X20672300Y-12229720D01*
X10682300Y-6050100D02*
X10683240Y-11975720D01*
D11*
D12*
X10966228Y-12697934D02*
X10966228Y-12397934D01*
X11037657Y-12397934D01*
X11080514Y-12412220D01*
X11109086Y-12440791D01*
X11123371Y-12469363D01*
X11137657Y-12526506D01*
X11137657Y-12569363D01*
X11123371Y-12626506D01*
X11109086Y-12655077D01*
X11080514Y-12683649D01*
X11037657Y-12697934D01*
X10966228Y-12697934D01*
X11266228Y-12697934D02*
X11266228Y-12497934D01*
X11266228Y-12555077D02*
X11280514Y-12526506D01*
X11294800Y-12512220D01*
X11323371Y-12497934D01*
X11351943Y-12497934D01*
X11451943Y-12697934D02*
X11451943Y-12497934D01*
X11451943Y-12397934D02*
X11437657Y-12412220D01*
X11451943Y-12426506D01*
X11466228Y-12412220D01*
X11451943Y-12397934D01*
X11451943Y-12426506D01*
X11637657Y-12697934D02*
X11609086Y-12683649D01*
X11594800Y-12655077D01*
X11594800Y-12397934D01*
X11794800Y-12697934D02*
X11766228Y-12683649D01*
X11751943Y-12655077D01*
X11751943Y-12397934D01*
X12137657Y-12697934D02*
X12137657Y-12397934D01*
X12237657Y-12612220D01*
X12337657Y-12397934D01*
X12337657Y-12697934D01*
X12609086Y-12697934D02*
X12609086Y-12540791D01*
X12594800Y-12512220D01*
X12566228Y-12497934D01*
X12509086Y-12497934D01*
X12480514Y-12512220D01*
X12609086Y-12683649D02*
X12580514Y-12697934D01*
X12509086Y-12697934D01*
X12480514Y-12683649D01*
X12466228Y-12655077D01*
X12466228Y-12626506D01*
X12480514Y-12597934D01*
X12509086Y-12583649D01*
X12580514Y-12583649D01*
X12609086Y-12569363D01*
X12751943Y-12497934D02*
X12751943Y-12797934D01*
X12751943Y-12512220D02*
X12780514Y-12497934D01*
X12837657Y-12497934D01*
X12866228Y-12512220D01*
X12880514Y-12526506D01*
X12894800Y-12555077D01*
X12894800Y-12640791D01*
X12880514Y-12669363D01*
X12866228Y-12683649D01*
X12837657Y-12697934D01*
X12780514Y-12697934D01*
X12751943Y-12683649D01*
X13023371Y-12669363D02*
X13037657Y-12683649D01*
X13023371Y-12697934D01*
X13009086Y-12683649D01*
X13023371Y-12669363D01*
X13023371Y-12697934D01*
X13023371Y-12512220D02*
X13037657Y-12526506D01*
X13023371Y-12540791D01*
X13009086Y-12526506D01*
X13023371Y-12512220D01*
X13023371Y-12540791D01*
M02*
