%TF.GenerationSoftware,KiCad,Pcbnew,(5.1.4-0-10_14)*%
%TF.CreationDate,2019-11-24T21:13:54+02:00*%
%TF.ProjectId,READY,52454144-592e-46b6-9963-61645f706362,3.0*%
%TF.SameCoordinates,Original*%
%TF.FileFunction,Soldermask,Bot*%
%TF.FilePolarity,Negative*%
%FSLAX46Y46*%
G04 Gerber Fmt 4.6, Leading zero omitted, Abs format (unit mm)*
G04 Created by KiCad (PCBNEW (5.1.4-0-10_14)) date 2019-11-24 21:13:54*
%MOMM*%
%LPD*%
G04 APERTURE LIST*
%ADD10C,0.100000*%
%ADD11C,0.150000*%
G04 APERTURE END LIST*
D10*
G36*
X180111400Y-83286600D02*
G01*
X170611800Y-83261200D01*
X170599100Y-77863700D01*
X180111400Y-77825600D01*
X180111400Y-83286600D01*
G37*
X180111400Y-83286600D02*
X170611800Y-83261200D01*
X170599100Y-77863700D01*
X180111400Y-77825600D01*
X180111400Y-83286600D01*
G36*
X108864400Y-78638400D02*
G01*
X107137200Y-78638400D01*
X107137200Y-73253600D01*
X108864400Y-73253600D01*
X108864400Y-78638400D01*
G37*
X108864400Y-78638400D02*
X107137200Y-78638400D01*
X107137200Y-73253600D01*
X108864400Y-73253600D01*
X108864400Y-78638400D01*
G36*
X179082700Y-85039200D02*
G01*
X171691300Y-85039200D01*
X171691300Y-76174600D01*
X179082700Y-76174600D01*
X179082700Y-85039200D01*
G37*
X179082700Y-85039200D02*
X171691300Y-85039200D01*
X171691300Y-76174600D01*
X179082700Y-76174600D01*
X179082700Y-85039200D01*
D11*
G36*
X206451098Y-116586033D02*
G01*
X206915350Y-116778332D01*
X206915352Y-116778333D01*
X207333168Y-117057509D01*
X207688491Y-117412832D01*
X207967667Y-117830648D01*
X207967668Y-117830650D01*
X208159967Y-118294902D01*
X208258000Y-118787747D01*
X208258000Y-119290253D01*
X208159967Y-119783098D01*
X208011950Y-120140443D01*
X207967667Y-120247352D01*
X207688491Y-120665168D01*
X207333168Y-121020491D01*
X206915352Y-121299667D01*
X206915351Y-121299668D01*
X206915350Y-121299668D01*
X206451098Y-121491967D01*
X205958253Y-121590000D01*
X205455747Y-121590000D01*
X204962902Y-121491967D01*
X204498650Y-121299668D01*
X204498649Y-121299668D01*
X204498648Y-121299667D01*
X204080832Y-121020491D01*
X203725509Y-120665168D01*
X203446333Y-120247352D01*
X203402050Y-120140443D01*
X203254033Y-119783098D01*
X203156000Y-119290253D01*
X203156000Y-118787747D01*
X203254033Y-118294902D01*
X203446332Y-117830650D01*
X203446333Y-117830648D01*
X203725509Y-117412832D01*
X204080832Y-117057509D01*
X204498648Y-116778333D01*
X204498650Y-116778332D01*
X204962902Y-116586033D01*
X205455747Y-116488000D01*
X205958253Y-116488000D01*
X206451098Y-116586033D01*
X206451098Y-116586033D01*
G37*
G36*
X110599098Y-116586033D02*
G01*
X111063350Y-116778332D01*
X111063352Y-116778333D01*
X111481168Y-117057509D01*
X111836491Y-117412832D01*
X112115667Y-117830648D01*
X112115668Y-117830650D01*
X112307967Y-118294902D01*
X112406000Y-118787747D01*
X112406000Y-119290253D01*
X112307967Y-119783098D01*
X112159950Y-120140443D01*
X112115667Y-120247352D01*
X111836491Y-120665168D01*
X111481168Y-121020491D01*
X111063352Y-121299667D01*
X111063351Y-121299668D01*
X111063350Y-121299668D01*
X110599098Y-121491967D01*
X110106253Y-121590000D01*
X109603747Y-121590000D01*
X109110902Y-121491967D01*
X108646650Y-121299668D01*
X108646649Y-121299668D01*
X108646648Y-121299667D01*
X108228832Y-121020491D01*
X107873509Y-120665168D01*
X107594333Y-120247352D01*
X107550050Y-120140443D01*
X107402033Y-119783098D01*
X107304000Y-119290253D01*
X107304000Y-118787747D01*
X107402033Y-118294902D01*
X107594332Y-117830650D01*
X107594333Y-117830648D01*
X107873509Y-117412832D01*
X108228832Y-117057509D01*
X108646648Y-116778333D01*
X108646650Y-116778332D01*
X109110902Y-116586033D01*
X109603747Y-116488000D01*
X110106253Y-116488000D01*
X110599098Y-116586033D01*
X110599098Y-116586033D01*
G37*
G36*
X164448442Y-118485518D02*
G01*
X164514627Y-118492037D01*
X164684466Y-118543557D01*
X164840991Y-118627222D01*
X164876729Y-118656552D01*
X164978186Y-118739814D01*
X165028408Y-118801011D01*
X165090778Y-118877009D01*
X165174443Y-119033534D01*
X165225963Y-119203373D01*
X165243359Y-119380000D01*
X165225963Y-119556627D01*
X165174443Y-119726466D01*
X165090778Y-119882991D01*
X165061448Y-119918729D01*
X164978186Y-120020186D01*
X164876729Y-120103448D01*
X164840991Y-120132778D01*
X164684466Y-120216443D01*
X164514627Y-120267963D01*
X164448442Y-120274482D01*
X164382260Y-120281000D01*
X164293740Y-120281000D01*
X164227558Y-120274482D01*
X164161373Y-120267963D01*
X163991534Y-120216443D01*
X163835009Y-120132778D01*
X163799271Y-120103448D01*
X163697814Y-120020186D01*
X163614552Y-119918729D01*
X163585222Y-119882991D01*
X163501557Y-119726466D01*
X163450037Y-119556627D01*
X163432641Y-119380000D01*
X163450037Y-119203373D01*
X163501557Y-119033534D01*
X163585222Y-118877009D01*
X163647592Y-118801011D01*
X163697814Y-118739814D01*
X163799271Y-118656552D01*
X163835009Y-118627222D01*
X163991534Y-118543557D01*
X164161373Y-118492037D01*
X164227558Y-118485518D01*
X164293740Y-118479000D01*
X164382260Y-118479000D01*
X164448442Y-118485518D01*
X164448442Y-118485518D01*
G37*
G36*
X161908442Y-118485518D02*
G01*
X161974627Y-118492037D01*
X162144466Y-118543557D01*
X162300991Y-118627222D01*
X162336729Y-118656552D01*
X162438186Y-118739814D01*
X162488408Y-118801011D01*
X162550778Y-118877009D01*
X162634443Y-119033534D01*
X162685963Y-119203373D01*
X162703359Y-119380000D01*
X162685963Y-119556627D01*
X162634443Y-119726466D01*
X162550778Y-119882991D01*
X162521448Y-119918729D01*
X162438186Y-120020186D01*
X162336729Y-120103448D01*
X162300991Y-120132778D01*
X162144466Y-120216443D01*
X161974627Y-120267963D01*
X161908442Y-120274482D01*
X161842260Y-120281000D01*
X161753740Y-120281000D01*
X161687558Y-120274482D01*
X161621373Y-120267963D01*
X161451534Y-120216443D01*
X161295009Y-120132778D01*
X161259271Y-120103448D01*
X161157814Y-120020186D01*
X161074552Y-119918729D01*
X161045222Y-119882991D01*
X160961557Y-119726466D01*
X160910037Y-119556627D01*
X160892641Y-119380000D01*
X160910037Y-119203373D01*
X160961557Y-119033534D01*
X161045222Y-118877009D01*
X161107592Y-118801011D01*
X161157814Y-118739814D01*
X161259271Y-118656552D01*
X161295009Y-118627222D01*
X161451534Y-118543557D01*
X161621373Y-118492037D01*
X161687558Y-118485518D01*
X161753740Y-118479000D01*
X161842260Y-118479000D01*
X161908442Y-118485518D01*
X161908442Y-118485518D01*
G37*
G36*
X159368442Y-118485518D02*
G01*
X159434627Y-118492037D01*
X159604466Y-118543557D01*
X159760991Y-118627222D01*
X159796729Y-118656552D01*
X159898186Y-118739814D01*
X159948408Y-118801011D01*
X160010778Y-118877009D01*
X160094443Y-119033534D01*
X160145963Y-119203373D01*
X160163359Y-119380000D01*
X160145963Y-119556627D01*
X160094443Y-119726466D01*
X160010778Y-119882991D01*
X159981448Y-119918729D01*
X159898186Y-120020186D01*
X159796729Y-120103448D01*
X159760991Y-120132778D01*
X159604466Y-120216443D01*
X159434627Y-120267963D01*
X159368442Y-120274482D01*
X159302260Y-120281000D01*
X159213740Y-120281000D01*
X159147558Y-120274482D01*
X159081373Y-120267963D01*
X158911534Y-120216443D01*
X158755009Y-120132778D01*
X158719271Y-120103448D01*
X158617814Y-120020186D01*
X158534552Y-119918729D01*
X158505222Y-119882991D01*
X158421557Y-119726466D01*
X158370037Y-119556627D01*
X158352641Y-119380000D01*
X158370037Y-119203373D01*
X158421557Y-119033534D01*
X158505222Y-118877009D01*
X158567592Y-118801011D01*
X158617814Y-118739814D01*
X158719271Y-118656552D01*
X158755009Y-118627222D01*
X158911534Y-118543557D01*
X159081373Y-118492037D01*
X159147558Y-118485518D01*
X159213740Y-118479000D01*
X159302260Y-118479000D01*
X159368442Y-118485518D01*
X159368442Y-118485518D01*
G37*
G36*
X156828442Y-118485518D02*
G01*
X156894627Y-118492037D01*
X157064466Y-118543557D01*
X157220991Y-118627222D01*
X157256729Y-118656552D01*
X157358186Y-118739814D01*
X157408408Y-118801011D01*
X157470778Y-118877009D01*
X157554443Y-119033534D01*
X157605963Y-119203373D01*
X157623359Y-119380000D01*
X157605963Y-119556627D01*
X157554443Y-119726466D01*
X157470778Y-119882991D01*
X157441448Y-119918729D01*
X157358186Y-120020186D01*
X157256729Y-120103448D01*
X157220991Y-120132778D01*
X157064466Y-120216443D01*
X156894627Y-120267963D01*
X156828442Y-120274482D01*
X156762260Y-120281000D01*
X156673740Y-120281000D01*
X156607558Y-120274482D01*
X156541373Y-120267963D01*
X156371534Y-120216443D01*
X156215009Y-120132778D01*
X156179271Y-120103448D01*
X156077814Y-120020186D01*
X155994552Y-119918729D01*
X155965222Y-119882991D01*
X155881557Y-119726466D01*
X155830037Y-119556627D01*
X155812641Y-119380000D01*
X155830037Y-119203373D01*
X155881557Y-119033534D01*
X155965222Y-118877009D01*
X156027592Y-118801011D01*
X156077814Y-118739814D01*
X156179271Y-118656552D01*
X156215009Y-118627222D01*
X156371534Y-118543557D01*
X156541373Y-118492037D01*
X156607558Y-118485518D01*
X156673740Y-118479000D01*
X156762260Y-118479000D01*
X156828442Y-118485518D01*
X156828442Y-118485518D01*
G37*
G36*
X154288442Y-118485518D02*
G01*
X154354627Y-118492037D01*
X154524466Y-118543557D01*
X154680991Y-118627222D01*
X154716729Y-118656552D01*
X154818186Y-118739814D01*
X154868408Y-118801011D01*
X154930778Y-118877009D01*
X155014443Y-119033534D01*
X155065963Y-119203373D01*
X155083359Y-119380000D01*
X155065963Y-119556627D01*
X155014443Y-119726466D01*
X154930778Y-119882991D01*
X154901448Y-119918729D01*
X154818186Y-120020186D01*
X154716729Y-120103448D01*
X154680991Y-120132778D01*
X154524466Y-120216443D01*
X154354627Y-120267963D01*
X154288442Y-120274482D01*
X154222260Y-120281000D01*
X154133740Y-120281000D01*
X154067558Y-120274482D01*
X154001373Y-120267963D01*
X153831534Y-120216443D01*
X153675009Y-120132778D01*
X153639271Y-120103448D01*
X153537814Y-120020186D01*
X153454552Y-119918729D01*
X153425222Y-119882991D01*
X153341557Y-119726466D01*
X153290037Y-119556627D01*
X153272641Y-119380000D01*
X153290037Y-119203373D01*
X153341557Y-119033534D01*
X153425222Y-118877009D01*
X153487592Y-118801011D01*
X153537814Y-118739814D01*
X153639271Y-118656552D01*
X153675009Y-118627222D01*
X153831534Y-118543557D01*
X154001373Y-118492037D01*
X154067558Y-118485518D01*
X154133740Y-118479000D01*
X154222260Y-118479000D01*
X154288442Y-118485518D01*
X154288442Y-118485518D01*
G37*
G36*
X166988442Y-118485518D02*
G01*
X167054627Y-118492037D01*
X167224466Y-118543557D01*
X167380991Y-118627222D01*
X167416729Y-118656552D01*
X167518186Y-118739814D01*
X167568408Y-118801011D01*
X167630778Y-118877009D01*
X167714443Y-119033534D01*
X167765963Y-119203373D01*
X167783359Y-119380000D01*
X167765963Y-119556627D01*
X167714443Y-119726466D01*
X167630778Y-119882991D01*
X167601448Y-119918729D01*
X167518186Y-120020186D01*
X167416729Y-120103448D01*
X167380991Y-120132778D01*
X167224466Y-120216443D01*
X167054627Y-120267963D01*
X166988442Y-120274482D01*
X166922260Y-120281000D01*
X166833740Y-120281000D01*
X166767558Y-120274482D01*
X166701373Y-120267963D01*
X166531534Y-120216443D01*
X166375009Y-120132778D01*
X166339271Y-120103448D01*
X166237814Y-120020186D01*
X166154552Y-119918729D01*
X166125222Y-119882991D01*
X166041557Y-119726466D01*
X165990037Y-119556627D01*
X165972641Y-119380000D01*
X165990037Y-119203373D01*
X166041557Y-119033534D01*
X166125222Y-118877009D01*
X166187592Y-118801011D01*
X166237814Y-118739814D01*
X166339271Y-118656552D01*
X166375009Y-118627222D01*
X166531534Y-118543557D01*
X166701373Y-118492037D01*
X166767558Y-118485518D01*
X166833740Y-118479000D01*
X166922260Y-118479000D01*
X166988442Y-118485518D01*
X166988442Y-118485518D01*
G37*
G36*
X170319000Y-120281000D02*
G01*
X168517000Y-120281000D01*
X168517000Y-118479000D01*
X170319000Y-118479000D01*
X170319000Y-120281000D01*
X170319000Y-120281000D01*
G37*
G36*
X150215000Y-120205000D02*
G01*
X148413000Y-120205000D01*
X148413000Y-118403000D01*
X150215000Y-118403000D01*
X150215000Y-120205000D01*
X150215000Y-120205000D01*
G37*
G36*
X146884442Y-118409518D02*
G01*
X146950627Y-118416037D01*
X147120466Y-118467557D01*
X147276991Y-118551222D01*
X147312729Y-118580552D01*
X147414186Y-118663814D01*
X147476557Y-118739815D01*
X147526778Y-118801009D01*
X147610443Y-118957534D01*
X147661963Y-119127373D01*
X147679359Y-119304000D01*
X147661963Y-119480627D01*
X147610443Y-119650466D01*
X147526778Y-119806991D01*
X147497448Y-119842729D01*
X147414186Y-119944186D01*
X147321578Y-120020186D01*
X147276991Y-120056778D01*
X147120466Y-120140443D01*
X146950627Y-120191963D01*
X146884442Y-120198482D01*
X146818260Y-120205000D01*
X146729740Y-120205000D01*
X146663558Y-120198482D01*
X146597373Y-120191963D01*
X146427534Y-120140443D01*
X146271009Y-120056778D01*
X146226422Y-120020186D01*
X146133814Y-119944186D01*
X146050552Y-119842729D01*
X146021222Y-119806991D01*
X145937557Y-119650466D01*
X145886037Y-119480627D01*
X145868641Y-119304000D01*
X145886037Y-119127373D01*
X145937557Y-118957534D01*
X146021222Y-118801009D01*
X146071443Y-118739815D01*
X146133814Y-118663814D01*
X146235271Y-118580552D01*
X146271009Y-118551222D01*
X146427534Y-118467557D01*
X146597373Y-118416037D01*
X146663558Y-118409518D01*
X146729740Y-118403000D01*
X146818260Y-118403000D01*
X146884442Y-118409518D01*
X146884442Y-118409518D01*
G37*
G36*
X144344442Y-118409518D02*
G01*
X144410627Y-118416037D01*
X144580466Y-118467557D01*
X144736991Y-118551222D01*
X144772729Y-118580552D01*
X144874186Y-118663814D01*
X144936557Y-118739815D01*
X144986778Y-118801009D01*
X145070443Y-118957534D01*
X145121963Y-119127373D01*
X145139359Y-119304000D01*
X145121963Y-119480627D01*
X145070443Y-119650466D01*
X144986778Y-119806991D01*
X144957448Y-119842729D01*
X144874186Y-119944186D01*
X144781578Y-120020186D01*
X144736991Y-120056778D01*
X144580466Y-120140443D01*
X144410627Y-120191963D01*
X144344442Y-120198482D01*
X144278260Y-120205000D01*
X144189740Y-120205000D01*
X144123558Y-120198482D01*
X144057373Y-120191963D01*
X143887534Y-120140443D01*
X143731009Y-120056778D01*
X143686422Y-120020186D01*
X143593814Y-119944186D01*
X143510552Y-119842729D01*
X143481222Y-119806991D01*
X143397557Y-119650466D01*
X143346037Y-119480627D01*
X143328641Y-119304000D01*
X143346037Y-119127373D01*
X143397557Y-118957534D01*
X143481222Y-118801009D01*
X143531443Y-118739815D01*
X143593814Y-118663814D01*
X143695271Y-118580552D01*
X143731009Y-118551222D01*
X143887534Y-118467557D01*
X144057373Y-118416037D01*
X144123558Y-118409518D01*
X144189740Y-118403000D01*
X144278260Y-118403000D01*
X144344442Y-118409518D01*
X144344442Y-118409518D01*
G37*
G36*
X141804442Y-118409518D02*
G01*
X141870627Y-118416037D01*
X142040466Y-118467557D01*
X142196991Y-118551222D01*
X142232729Y-118580552D01*
X142334186Y-118663814D01*
X142396557Y-118739815D01*
X142446778Y-118801009D01*
X142530443Y-118957534D01*
X142581963Y-119127373D01*
X142599359Y-119304000D01*
X142581963Y-119480627D01*
X142530443Y-119650466D01*
X142446778Y-119806991D01*
X142417448Y-119842729D01*
X142334186Y-119944186D01*
X142241578Y-120020186D01*
X142196991Y-120056778D01*
X142040466Y-120140443D01*
X141870627Y-120191963D01*
X141804442Y-120198482D01*
X141738260Y-120205000D01*
X141649740Y-120205000D01*
X141583558Y-120198482D01*
X141517373Y-120191963D01*
X141347534Y-120140443D01*
X141191009Y-120056778D01*
X141146422Y-120020186D01*
X141053814Y-119944186D01*
X140970552Y-119842729D01*
X140941222Y-119806991D01*
X140857557Y-119650466D01*
X140806037Y-119480627D01*
X140788641Y-119304000D01*
X140806037Y-119127373D01*
X140857557Y-118957534D01*
X140941222Y-118801009D01*
X140991443Y-118739815D01*
X141053814Y-118663814D01*
X141155271Y-118580552D01*
X141191009Y-118551222D01*
X141347534Y-118467557D01*
X141517373Y-118416037D01*
X141583558Y-118409518D01*
X141649740Y-118403000D01*
X141738260Y-118403000D01*
X141804442Y-118409518D01*
X141804442Y-118409518D01*
G37*
G36*
X190361823Y-110743313D02*
G01*
X190522242Y-110791976D01*
X190654906Y-110862886D01*
X190670078Y-110870996D01*
X190799659Y-110977341D01*
X190906004Y-111106922D01*
X190906005Y-111106924D01*
X190985024Y-111254758D01*
X191033687Y-111415177D01*
X191050117Y-111582000D01*
X191033687Y-111748823D01*
X190985024Y-111909242D01*
X190914114Y-112041906D01*
X190906004Y-112057078D01*
X190799659Y-112186659D01*
X190670078Y-112293004D01*
X190670076Y-112293005D01*
X190522242Y-112372024D01*
X190361823Y-112420687D01*
X190236804Y-112433000D01*
X190153196Y-112433000D01*
X190028177Y-112420687D01*
X189867758Y-112372024D01*
X189719924Y-112293005D01*
X189719922Y-112293004D01*
X189590341Y-112186659D01*
X189483996Y-112057078D01*
X189475886Y-112041906D01*
X189404976Y-111909242D01*
X189356313Y-111748823D01*
X189339883Y-111582000D01*
X189356313Y-111415177D01*
X189404976Y-111254758D01*
X189483995Y-111106924D01*
X189483996Y-111106922D01*
X189590341Y-110977341D01*
X189719922Y-110870996D01*
X189735094Y-110862886D01*
X189867758Y-110791976D01*
X190028177Y-110743313D01*
X190153196Y-110731000D01*
X190236804Y-110731000D01*
X190361823Y-110743313D01*
X190361823Y-110743313D01*
G37*
G36*
X198666000Y-112433000D02*
G01*
X196964000Y-112433000D01*
X196964000Y-110731000D01*
X198666000Y-110731000D01*
X198666000Y-112433000D01*
X198666000Y-112433000D01*
G37*
G36*
X197981823Y-108203313D02*
G01*
X198142242Y-108251976D01*
X198274906Y-108322886D01*
X198290078Y-108330996D01*
X198419659Y-108437341D01*
X198526004Y-108566922D01*
X198526005Y-108566924D01*
X198605024Y-108714758D01*
X198653687Y-108875177D01*
X198670117Y-109042000D01*
X198653687Y-109208823D01*
X198605024Y-109369242D01*
X198534114Y-109501906D01*
X198526004Y-109517078D01*
X198419659Y-109646659D01*
X198290078Y-109753004D01*
X198290076Y-109753005D01*
X198142242Y-109832024D01*
X197981823Y-109880687D01*
X197856804Y-109893000D01*
X197773196Y-109893000D01*
X197648177Y-109880687D01*
X197487758Y-109832024D01*
X197339924Y-109753005D01*
X197339922Y-109753004D01*
X197210341Y-109646659D01*
X197103996Y-109517078D01*
X197095886Y-109501906D01*
X197024976Y-109369242D01*
X196976313Y-109208823D01*
X196959883Y-109042000D01*
X196976313Y-108875177D01*
X197024976Y-108714758D01*
X197103995Y-108566924D01*
X197103996Y-108566922D01*
X197210341Y-108437341D01*
X197339922Y-108330996D01*
X197355094Y-108322886D01*
X197487758Y-108251976D01*
X197648177Y-108203313D01*
X197773196Y-108191000D01*
X197856804Y-108191000D01*
X197981823Y-108203313D01*
X197981823Y-108203313D01*
G37*
G36*
X190361823Y-108203313D02*
G01*
X190522242Y-108251976D01*
X190654906Y-108322886D01*
X190670078Y-108330996D01*
X190799659Y-108437341D01*
X190906004Y-108566922D01*
X190906005Y-108566924D01*
X190985024Y-108714758D01*
X191033687Y-108875177D01*
X191050117Y-109042000D01*
X191033687Y-109208823D01*
X190985024Y-109369242D01*
X190914114Y-109501906D01*
X190906004Y-109517078D01*
X190799659Y-109646659D01*
X190670078Y-109753004D01*
X190670076Y-109753005D01*
X190522242Y-109832024D01*
X190361823Y-109880687D01*
X190236804Y-109893000D01*
X190153196Y-109893000D01*
X190028177Y-109880687D01*
X189867758Y-109832024D01*
X189719924Y-109753005D01*
X189719922Y-109753004D01*
X189590341Y-109646659D01*
X189483996Y-109517078D01*
X189475886Y-109501906D01*
X189404976Y-109369242D01*
X189356313Y-109208823D01*
X189339883Y-109042000D01*
X189356313Y-108875177D01*
X189404976Y-108714758D01*
X189483995Y-108566924D01*
X189483996Y-108566922D01*
X189590341Y-108437341D01*
X189719922Y-108330996D01*
X189735094Y-108322886D01*
X189867758Y-108251976D01*
X190028177Y-108203313D01*
X190153196Y-108191000D01*
X190236804Y-108191000D01*
X190361823Y-108203313D01*
X190361823Y-108203313D01*
G37*
G36*
X123163589Y-94793676D02*
G01*
X123262893Y-94813429D01*
X123403206Y-94871548D01*
X123529484Y-94955925D01*
X123636875Y-95063316D01*
X123721252Y-95189594D01*
X123779371Y-95329907D01*
X123809000Y-95478863D01*
X123809000Y-95630737D01*
X123779371Y-95779693D01*
X123721252Y-95920006D01*
X123636875Y-96046284D01*
X123529484Y-96153675D01*
X123403206Y-96238052D01*
X123262893Y-96296171D01*
X123163589Y-96315924D01*
X123113938Y-96325800D01*
X122962062Y-96325800D01*
X122912411Y-96315924D01*
X122813107Y-96296171D01*
X122672794Y-96238052D01*
X122546516Y-96153675D01*
X122439125Y-96046284D01*
X122354748Y-95920006D01*
X122296629Y-95779693D01*
X122267000Y-95630737D01*
X122267000Y-95478863D01*
X122296629Y-95329907D01*
X122354748Y-95189594D01*
X122439125Y-95063316D01*
X122546516Y-94955925D01*
X122672794Y-94871548D01*
X122813107Y-94813429D01*
X122912411Y-94793676D01*
X122962062Y-94783800D01*
X123113938Y-94783800D01*
X123163589Y-94793676D01*
X123163589Y-94793676D01*
G37*
G36*
X120623589Y-94793676D02*
G01*
X120722893Y-94813429D01*
X120863206Y-94871548D01*
X120989484Y-94955925D01*
X121096875Y-95063316D01*
X121181252Y-95189594D01*
X121239371Y-95329907D01*
X121269000Y-95478863D01*
X121269000Y-95630737D01*
X121239371Y-95779693D01*
X121181252Y-95920006D01*
X121096875Y-96046284D01*
X120989484Y-96153675D01*
X120863206Y-96238052D01*
X120722893Y-96296171D01*
X120623589Y-96315924D01*
X120573938Y-96325800D01*
X120422062Y-96325800D01*
X120372411Y-96315924D01*
X120273107Y-96296171D01*
X120132794Y-96238052D01*
X120006516Y-96153675D01*
X119899125Y-96046284D01*
X119814748Y-95920006D01*
X119756629Y-95779693D01*
X119727000Y-95630737D01*
X119727000Y-95478863D01*
X119756629Y-95329907D01*
X119814748Y-95189594D01*
X119899125Y-95063316D01*
X120006516Y-94955925D01*
X120132794Y-94871548D01*
X120273107Y-94813429D01*
X120372411Y-94793676D01*
X120422062Y-94783800D01*
X120573938Y-94783800D01*
X120623589Y-94793676D01*
X120623589Y-94793676D01*
G37*
G36*
X118083589Y-94793676D02*
G01*
X118182893Y-94813429D01*
X118323206Y-94871548D01*
X118449484Y-94955925D01*
X118556875Y-95063316D01*
X118641252Y-95189594D01*
X118699371Y-95329907D01*
X118729000Y-95478863D01*
X118729000Y-95630737D01*
X118699371Y-95779693D01*
X118641252Y-95920006D01*
X118556875Y-96046284D01*
X118449484Y-96153675D01*
X118323206Y-96238052D01*
X118182893Y-96296171D01*
X118083589Y-96315924D01*
X118033938Y-96325800D01*
X117882062Y-96325800D01*
X117832411Y-96315924D01*
X117733107Y-96296171D01*
X117592794Y-96238052D01*
X117466516Y-96153675D01*
X117359125Y-96046284D01*
X117274748Y-95920006D01*
X117216629Y-95779693D01*
X117187000Y-95630737D01*
X117187000Y-95478863D01*
X117216629Y-95329907D01*
X117274748Y-95189594D01*
X117359125Y-95063316D01*
X117466516Y-94955925D01*
X117592794Y-94871548D01*
X117733107Y-94813429D01*
X117832411Y-94793676D01*
X117882062Y-94783800D01*
X118033938Y-94783800D01*
X118083589Y-94793676D01*
X118083589Y-94793676D01*
G37*
G36*
X164239000Y-95400000D02*
G01*
X162537000Y-95400000D01*
X162537000Y-93698000D01*
X164239000Y-93698000D01*
X164239000Y-95400000D01*
X164239000Y-95400000D01*
G37*
G36*
X166136228Y-93730703D02*
G01*
X166291100Y-93794853D01*
X166430481Y-93887985D01*
X166549015Y-94006519D01*
X166642147Y-94145900D01*
X166706297Y-94300772D01*
X166739000Y-94465184D01*
X166739000Y-94632816D01*
X166706297Y-94797228D01*
X166642147Y-94952100D01*
X166549015Y-95091481D01*
X166430481Y-95210015D01*
X166291100Y-95303147D01*
X166136228Y-95367297D01*
X165971816Y-95400000D01*
X165804184Y-95400000D01*
X165639772Y-95367297D01*
X165484900Y-95303147D01*
X165345519Y-95210015D01*
X165226985Y-95091481D01*
X165133853Y-94952100D01*
X165069703Y-94797228D01*
X165037000Y-94632816D01*
X165037000Y-94465184D01*
X165069703Y-94300772D01*
X165133853Y-94145900D01*
X165226985Y-94006519D01*
X165345519Y-93887985D01*
X165484900Y-93794853D01*
X165639772Y-93730703D01*
X165804184Y-93698000D01*
X165971816Y-93698000D01*
X166136228Y-93730703D01*
X166136228Y-93730703D01*
G37*
G36*
X186075000Y-94968200D02*
G01*
X184373000Y-94968200D01*
X184373000Y-93266200D01*
X186075000Y-93266200D01*
X186075000Y-94968200D01*
X186075000Y-94968200D01*
G37*
G36*
X190472228Y-93298903D02*
G01*
X190627100Y-93363053D01*
X190766481Y-93456185D01*
X190885015Y-93574719D01*
X190978147Y-93714100D01*
X191042297Y-93868972D01*
X191075000Y-94033384D01*
X191075000Y-94201016D01*
X191042297Y-94365428D01*
X190978147Y-94520300D01*
X190885015Y-94659681D01*
X190766481Y-94778215D01*
X190627100Y-94871347D01*
X190472228Y-94935497D01*
X190307816Y-94968200D01*
X190140184Y-94968200D01*
X189975772Y-94935497D01*
X189820900Y-94871347D01*
X189681519Y-94778215D01*
X189562985Y-94659681D01*
X189469853Y-94520300D01*
X189405703Y-94365428D01*
X189373000Y-94201016D01*
X189373000Y-94033384D01*
X189405703Y-93868972D01*
X189469853Y-93714100D01*
X189562985Y-93574719D01*
X189681519Y-93456185D01*
X189820900Y-93363053D01*
X189975772Y-93298903D01*
X190140184Y-93266200D01*
X190307816Y-93266200D01*
X190472228Y-93298903D01*
X190472228Y-93298903D01*
G37*
G36*
X174508228Y-93253103D02*
G01*
X174663100Y-93317253D01*
X174802481Y-93410385D01*
X174921015Y-93528919D01*
X175014147Y-93668300D01*
X175078297Y-93823172D01*
X175111000Y-93987584D01*
X175111000Y-94155216D01*
X175078297Y-94319628D01*
X175014147Y-94474500D01*
X174921015Y-94613881D01*
X174802481Y-94732415D01*
X174663100Y-94825547D01*
X174508228Y-94889697D01*
X174343816Y-94922400D01*
X174176184Y-94922400D01*
X174011772Y-94889697D01*
X173856900Y-94825547D01*
X173717519Y-94732415D01*
X173598985Y-94613881D01*
X173505853Y-94474500D01*
X173441703Y-94319628D01*
X173409000Y-94155216D01*
X173409000Y-93987584D01*
X173441703Y-93823172D01*
X173505853Y-93668300D01*
X173598985Y-93528919D01*
X173717519Y-93410385D01*
X173856900Y-93317253D01*
X174011772Y-93253103D01*
X174176184Y-93220400D01*
X174343816Y-93220400D01*
X174508228Y-93253103D01*
X174508228Y-93253103D01*
G37*
G36*
X180111000Y-94922400D02*
G01*
X178409000Y-94922400D01*
X178409000Y-93220400D01*
X180111000Y-93220400D01*
X180111000Y-94922400D01*
X180111000Y-94922400D01*
G37*
G36*
X202995072Y-91112518D02*
G01*
X203240939Y-91214359D01*
X203352328Y-91288787D01*
X203462211Y-91362209D01*
X203650391Y-91550389D01*
X203798242Y-91771663D01*
X203900082Y-92017528D01*
X203952000Y-92278537D01*
X203952000Y-92544663D01*
X203900082Y-92805672D01*
X203798242Y-93051537D01*
X203663560Y-93253103D01*
X203650390Y-93272812D01*
X203462212Y-93460990D01*
X203240939Y-93608841D01*
X203240938Y-93608842D01*
X203240937Y-93608842D01*
X202995072Y-93710682D01*
X202734063Y-93762600D01*
X202467937Y-93762600D01*
X202206928Y-93710682D01*
X201961063Y-93608842D01*
X201961062Y-93608842D01*
X201961061Y-93608841D01*
X201739788Y-93460990D01*
X201551610Y-93272812D01*
X201538441Y-93253103D01*
X201403758Y-93051537D01*
X201301918Y-92805672D01*
X201250000Y-92544663D01*
X201250000Y-92278537D01*
X201301918Y-92017528D01*
X201403758Y-91771663D01*
X201551609Y-91550389D01*
X201739789Y-91362209D01*
X201849672Y-91288787D01*
X201961061Y-91214359D01*
X202206928Y-91112518D01*
X202467937Y-91060600D01*
X202734063Y-91060600D01*
X202995072Y-91112518D01*
X202995072Y-91112518D01*
G37*
G36*
X143152589Y-88545276D02*
G01*
X143251893Y-88565029D01*
X143392206Y-88623148D01*
X143518484Y-88707525D01*
X143625875Y-88814916D01*
X143710252Y-88941194D01*
X143768371Y-89081507D01*
X143798000Y-89230463D01*
X143798000Y-89382337D01*
X143768371Y-89531293D01*
X143710252Y-89671606D01*
X143625875Y-89797884D01*
X143518484Y-89905275D01*
X143392206Y-89989652D01*
X143251893Y-90047771D01*
X143152589Y-90067524D01*
X143102938Y-90077400D01*
X142951062Y-90077400D01*
X142901411Y-90067524D01*
X142802107Y-90047771D01*
X142661794Y-89989652D01*
X142535516Y-89905275D01*
X142428125Y-89797884D01*
X142343748Y-89671606D01*
X142285629Y-89531293D01*
X142256000Y-89382337D01*
X142256000Y-89230463D01*
X142285629Y-89081507D01*
X142343748Y-88941194D01*
X142428125Y-88814916D01*
X142535516Y-88707525D01*
X142661794Y-88623148D01*
X142802107Y-88565029D01*
X142901411Y-88545276D01*
X142951062Y-88535400D01*
X143102938Y-88535400D01*
X143152589Y-88545276D01*
X143152589Y-88545276D01*
G37*
G36*
X202847419Y-86083148D02*
G01*
X202995072Y-86112518D01*
X203240939Y-86214359D01*
X203331568Y-86274916D01*
X203462211Y-86362209D01*
X203650391Y-86550389D01*
X203798242Y-86771663D01*
X203900082Y-87017528D01*
X203947892Y-87257883D01*
X203952000Y-87278538D01*
X203952000Y-87544662D01*
X203900082Y-87805672D01*
X203798241Y-88051539D01*
X203650390Y-88272812D01*
X203462212Y-88460990D01*
X203240939Y-88608841D01*
X203240938Y-88608842D01*
X203240937Y-88608842D01*
X202995072Y-88710682D01*
X202734063Y-88762600D01*
X202467937Y-88762600D01*
X202206928Y-88710682D01*
X201961063Y-88608842D01*
X201961062Y-88608842D01*
X201961061Y-88608841D01*
X201739788Y-88460990D01*
X201551610Y-88272812D01*
X201403759Y-88051539D01*
X201301918Y-87805672D01*
X201250000Y-87544662D01*
X201250000Y-87278538D01*
X201254109Y-87257883D01*
X201301918Y-87017528D01*
X201403758Y-86771663D01*
X201551609Y-86550389D01*
X201739789Y-86362209D01*
X201870432Y-86274916D01*
X201961061Y-86214359D01*
X202206928Y-86112518D01*
X202354581Y-86083148D01*
X202467937Y-86060600D01*
X202734063Y-86060600D01*
X202847419Y-86083148D01*
X202847419Y-86083148D01*
G37*
G36*
X143152589Y-86005276D02*
G01*
X143251893Y-86025029D01*
X143392206Y-86083148D01*
X143518484Y-86167525D01*
X143625875Y-86274916D01*
X143710252Y-86401194D01*
X143768371Y-86541507D01*
X143798000Y-86690463D01*
X143798000Y-86842337D01*
X143768371Y-86991293D01*
X143710252Y-87131606D01*
X143625875Y-87257884D01*
X143518484Y-87365275D01*
X143392206Y-87449652D01*
X143251893Y-87507771D01*
X143152589Y-87527524D01*
X143102938Y-87537400D01*
X142951062Y-87537400D01*
X142901411Y-87527524D01*
X142802107Y-87507771D01*
X142661794Y-87449652D01*
X142535516Y-87365275D01*
X142428125Y-87257884D01*
X142343748Y-87131606D01*
X142285629Y-86991293D01*
X142256000Y-86842337D01*
X142256000Y-86690463D01*
X142285629Y-86541507D01*
X142343748Y-86401194D01*
X142428125Y-86274916D01*
X142535516Y-86167525D01*
X142661794Y-86083148D01*
X142802107Y-86025029D01*
X142901411Y-86005276D01*
X142951062Y-85995400D01*
X143102938Y-85995400D01*
X143152589Y-86005276D01*
X143152589Y-86005276D01*
G37*
G36*
X143152589Y-83465276D02*
G01*
X143251893Y-83485029D01*
X143392206Y-83543148D01*
X143518484Y-83627525D01*
X143625875Y-83734916D01*
X143710252Y-83861194D01*
X143768371Y-84001507D01*
X143798000Y-84150463D01*
X143798000Y-84302337D01*
X143768371Y-84451293D01*
X143710252Y-84591606D01*
X143625875Y-84717884D01*
X143518484Y-84825275D01*
X143392206Y-84909652D01*
X143251893Y-84967771D01*
X143152589Y-84987524D01*
X143102938Y-84997400D01*
X142951062Y-84997400D01*
X142901411Y-84987524D01*
X142802107Y-84967771D01*
X142661794Y-84909652D01*
X142535516Y-84825275D01*
X142428125Y-84717884D01*
X142343748Y-84591606D01*
X142285629Y-84451293D01*
X142256000Y-84302337D01*
X142256000Y-84150463D01*
X142285629Y-84001507D01*
X142343748Y-83861194D01*
X142428125Y-83734916D01*
X142535516Y-83627525D01*
X142661794Y-83543148D01*
X142802107Y-83485029D01*
X142901411Y-83465276D01*
X142951062Y-83455400D01*
X143102938Y-83455400D01*
X143152589Y-83465276D01*
X143152589Y-83465276D01*
G37*
G36*
X150086764Y-80509389D02*
G01*
X150278033Y-80588615D01*
X150278035Y-80588616D01*
X150450173Y-80703635D01*
X150596565Y-80850027D01*
X150711585Y-81022167D01*
X150790811Y-81213436D01*
X150831200Y-81416484D01*
X150831200Y-81623516D01*
X150790811Y-81826564D01*
X150711585Y-82017833D01*
X150711584Y-82017835D01*
X150596565Y-82189973D01*
X150450173Y-82336365D01*
X150278035Y-82451384D01*
X150278034Y-82451385D01*
X150278033Y-82451385D01*
X150086765Y-82530611D01*
X149993868Y-82549089D01*
X149970419Y-82556202D01*
X149948808Y-82567753D01*
X149929867Y-82583298D01*
X149914321Y-82602240D01*
X149902770Y-82623851D01*
X149895657Y-82647300D01*
X149893255Y-82671686D01*
X149895657Y-82696072D01*
X149902770Y-82719521D01*
X149914321Y-82741132D01*
X149929866Y-82760073D01*
X149948808Y-82775619D01*
X149970419Y-82787170D01*
X149993867Y-82794283D01*
X150086897Y-82812788D01*
X150278165Y-82892014D01*
X150278167Y-82892015D01*
X150450305Y-83007034D01*
X150596697Y-83153426D01*
X150711717Y-83325566D01*
X150790943Y-83516835D01*
X150831332Y-83719883D01*
X150831332Y-83926915D01*
X150790943Y-84129963D01*
X150719543Y-84302338D01*
X150711716Y-84321234D01*
X150596697Y-84493372D01*
X150450305Y-84639764D01*
X150278167Y-84754783D01*
X150278166Y-84754784D01*
X150278165Y-84754784D01*
X150086896Y-84834010D01*
X149883848Y-84874399D01*
X149676816Y-84874399D01*
X149473768Y-84834010D01*
X149282499Y-84754784D01*
X149282498Y-84754784D01*
X149282497Y-84754783D01*
X149110359Y-84639764D01*
X148963967Y-84493372D01*
X148848948Y-84321234D01*
X148841121Y-84302338D01*
X148769721Y-84129963D01*
X148729332Y-83926915D01*
X148729332Y-83719883D01*
X148769721Y-83516835D01*
X148848947Y-83325566D01*
X148963967Y-83153426D01*
X149110359Y-83007034D01*
X149282497Y-82892015D01*
X149282499Y-82892014D01*
X149473767Y-82812788D01*
X149566664Y-82794310D01*
X149590113Y-82787197D01*
X149611724Y-82775646D01*
X149630665Y-82760101D01*
X149646211Y-82741159D01*
X149657762Y-82719548D01*
X149664875Y-82696099D01*
X149667277Y-82671713D01*
X149664875Y-82647327D01*
X149657762Y-82623878D01*
X149646211Y-82602267D01*
X149630666Y-82583326D01*
X149611724Y-82567780D01*
X149590113Y-82556229D01*
X149566665Y-82549116D01*
X149473635Y-82530611D01*
X149282367Y-82451385D01*
X149282366Y-82451385D01*
X149282365Y-82451384D01*
X149110227Y-82336365D01*
X148963835Y-82189973D01*
X148848816Y-82017835D01*
X148848815Y-82017833D01*
X148769589Y-81826564D01*
X148729200Y-81623516D01*
X148729200Y-81416484D01*
X148769589Y-81213436D01*
X148848815Y-81022167D01*
X148963835Y-80850027D01*
X149110227Y-80703635D01*
X149282365Y-80588616D01*
X149282367Y-80588615D01*
X149473636Y-80509389D01*
X149676684Y-80469000D01*
X149883716Y-80469000D01*
X150086764Y-80509389D01*
X150086764Y-80509389D01*
G37*
G36*
X178938000Y-83621400D02*
G01*
X172436000Y-83621400D01*
X172436000Y-77719400D01*
X178938000Y-77719400D01*
X178938000Y-83621400D01*
X178938000Y-83621400D01*
G37*
G36*
X155838000Y-82572700D02*
G01*
X153736000Y-82572700D01*
X153736000Y-80470700D01*
X155838000Y-80470700D01*
X155838000Y-82572700D01*
X155838000Y-82572700D01*
G37*
G36*
X158435000Y-82572300D02*
G01*
X156333000Y-82572300D01*
X156333000Y-80470300D01*
X158435000Y-80470300D01*
X158435000Y-82572300D01*
X158435000Y-82572300D01*
G37*
G36*
X150061364Y-78070989D02*
G01*
X150252633Y-78150215D01*
X150252635Y-78150216D01*
X150424773Y-78265235D01*
X150571165Y-78411627D01*
X150686185Y-78583767D01*
X150765411Y-78775036D01*
X150805800Y-78978084D01*
X150805800Y-79185116D01*
X150765411Y-79388164D01*
X150686185Y-79579433D01*
X150686184Y-79579435D01*
X150571165Y-79751573D01*
X150424773Y-79897965D01*
X150252635Y-80012984D01*
X150252634Y-80012985D01*
X150252633Y-80012985D01*
X150061364Y-80092211D01*
X149858316Y-80132600D01*
X149651284Y-80132600D01*
X149448236Y-80092211D01*
X149256967Y-80012985D01*
X149256966Y-80012985D01*
X149256965Y-80012984D01*
X149084827Y-79897965D01*
X148938435Y-79751573D01*
X148823416Y-79579435D01*
X148823415Y-79579433D01*
X148744189Y-79388164D01*
X148703800Y-79185116D01*
X148703800Y-78978084D01*
X148744189Y-78775036D01*
X148823415Y-78583767D01*
X148938435Y-78411627D01*
X149084827Y-78265235D01*
X149256965Y-78150216D01*
X149256967Y-78150215D01*
X149448236Y-78070989D01*
X149651284Y-78030600D01*
X149858316Y-78030600D01*
X150061364Y-78070989D01*
X150061364Y-78070989D01*
G37*
G36*
X153810000Y-79946600D02*
G01*
X152108000Y-79946600D01*
X152108000Y-78244600D01*
X153810000Y-78244600D01*
X153810000Y-79946600D01*
X153810000Y-79946600D01*
G37*
G36*
X206879442Y-74149818D02*
G01*
X206945627Y-74156337D01*
X207115466Y-74207857D01*
X207271991Y-74291522D01*
X207307729Y-74320852D01*
X207409186Y-74404114D01*
X207492448Y-74505571D01*
X207521778Y-74541309D01*
X207605443Y-74697834D01*
X207656963Y-74867673D01*
X207674359Y-75044300D01*
X207656963Y-75220927D01*
X207605443Y-75390766D01*
X207521778Y-75547291D01*
X207492448Y-75583029D01*
X207409186Y-75684486D01*
X207307729Y-75767748D01*
X207271991Y-75797078D01*
X207115466Y-75880743D01*
X206945627Y-75932263D01*
X206879443Y-75938781D01*
X206813260Y-75945300D01*
X206724740Y-75945300D01*
X206658557Y-75938781D01*
X206592373Y-75932263D01*
X206422534Y-75880743D01*
X206266009Y-75797078D01*
X206230271Y-75767748D01*
X206128814Y-75684486D01*
X206045552Y-75583029D01*
X206016222Y-75547291D01*
X205932557Y-75390766D01*
X205881037Y-75220927D01*
X205863641Y-75044300D01*
X205881037Y-74867673D01*
X205932557Y-74697834D01*
X206016222Y-74541309D01*
X206045552Y-74505571D01*
X206128814Y-74404114D01*
X206230271Y-74320852D01*
X206266009Y-74291522D01*
X206422534Y-74207857D01*
X206592373Y-74156337D01*
X206658558Y-74149818D01*
X206724740Y-74143300D01*
X206813260Y-74143300D01*
X206879442Y-74149818D01*
X206879442Y-74149818D01*
G37*
G36*
X207670000Y-73405300D02*
G01*
X205868000Y-73405300D01*
X205868000Y-71603300D01*
X207670000Y-71603300D01*
X207670000Y-73405300D01*
X207670000Y-73405300D01*
G37*
G36*
X155558589Y-71385076D02*
G01*
X155657893Y-71404829D01*
X155798206Y-71462948D01*
X155924484Y-71547325D01*
X156031875Y-71654716D01*
X156116252Y-71780994D01*
X156174371Y-71921307D01*
X156204000Y-72070263D01*
X156204000Y-72222137D01*
X156174371Y-72371093D01*
X156116252Y-72511406D01*
X156031875Y-72637684D01*
X155924484Y-72745075D01*
X155798206Y-72829452D01*
X155657893Y-72887571D01*
X155558589Y-72907324D01*
X155508938Y-72917200D01*
X155357062Y-72917200D01*
X155307411Y-72907324D01*
X155208107Y-72887571D01*
X155067794Y-72829452D01*
X154941516Y-72745075D01*
X154834125Y-72637684D01*
X154749748Y-72511406D01*
X154691629Y-72371093D01*
X154662000Y-72222137D01*
X154662000Y-72070263D01*
X154691629Y-71921307D01*
X154749748Y-71780994D01*
X154834125Y-71654716D01*
X154941516Y-71547325D01*
X155067794Y-71462948D01*
X155208107Y-71404829D01*
X155307411Y-71385076D01*
X155357062Y-71375200D01*
X155508938Y-71375200D01*
X155558589Y-71385076D01*
X155558589Y-71385076D01*
G37*
G36*
X198285000Y-71170900D02*
G01*
X196583000Y-71170900D01*
X196583000Y-69468900D01*
X198285000Y-69468900D01*
X198285000Y-71170900D01*
X198285000Y-71170900D01*
G37*
G36*
X192682228Y-69501603D02*
G01*
X192837100Y-69565753D01*
X192976481Y-69658885D01*
X193095015Y-69777419D01*
X193188147Y-69916800D01*
X193252297Y-70071672D01*
X193285000Y-70236084D01*
X193285000Y-70403716D01*
X193252297Y-70568128D01*
X193188147Y-70723000D01*
X193095015Y-70862381D01*
X192976481Y-70980915D01*
X192837100Y-71074047D01*
X192682228Y-71138197D01*
X192517816Y-71170900D01*
X192350184Y-71170900D01*
X192185772Y-71138197D01*
X192030900Y-71074047D01*
X191891519Y-70980915D01*
X191772985Y-70862381D01*
X191679853Y-70723000D01*
X191615703Y-70568128D01*
X191583000Y-70403716D01*
X191583000Y-70236084D01*
X191615703Y-70071672D01*
X191679853Y-69916800D01*
X191772985Y-69777419D01*
X191891519Y-69658885D01*
X192030900Y-69565753D01*
X192185772Y-69501603D01*
X192350184Y-69468900D01*
X192517816Y-69468900D01*
X192682228Y-69501603D01*
X192682228Y-69501603D01*
G37*
G36*
X177762000Y-71094700D02*
G01*
X176060000Y-71094700D01*
X176060000Y-69392700D01*
X177762000Y-69392700D01*
X177762000Y-71094700D01*
X177762000Y-71094700D01*
G37*
G36*
X182159228Y-69425403D02*
G01*
X182314100Y-69489553D01*
X182453481Y-69582685D01*
X182572015Y-69701219D01*
X182665147Y-69840600D01*
X182729297Y-69995472D01*
X182762000Y-70159884D01*
X182762000Y-70327516D01*
X182729297Y-70491928D01*
X182665147Y-70646800D01*
X182572015Y-70786181D01*
X182453481Y-70904715D01*
X182314100Y-70997847D01*
X182159228Y-71061997D01*
X181994816Y-71094700D01*
X181827184Y-71094700D01*
X181662772Y-71061997D01*
X181507900Y-70997847D01*
X181368519Y-70904715D01*
X181249985Y-70786181D01*
X181156853Y-70646800D01*
X181092703Y-70491928D01*
X181060000Y-70327516D01*
X181060000Y-70159884D01*
X181092703Y-69995472D01*
X181156853Y-69840600D01*
X181249985Y-69701219D01*
X181368519Y-69582685D01*
X181507900Y-69489553D01*
X181662772Y-69425403D01*
X181827184Y-69392700D01*
X181994816Y-69392700D01*
X182159228Y-69425403D01*
X182159228Y-69425403D01*
G37*
G36*
X110587998Y-66348736D02*
G01*
X110759161Y-66400658D01*
X110916899Y-66484970D01*
X111055161Y-66598439D01*
X111168630Y-66736701D01*
X111252942Y-66894439D01*
X111304864Y-67065602D01*
X111323000Y-67249740D01*
X111323000Y-70113460D01*
X111304864Y-70297598D01*
X111252942Y-70468761D01*
X111168630Y-70626499D01*
X111055161Y-70764761D01*
X110916899Y-70878230D01*
X110759161Y-70962542D01*
X110587998Y-71014464D01*
X110403860Y-71032600D01*
X108340140Y-71032600D01*
X108156002Y-71014464D01*
X107984839Y-70962542D01*
X107827101Y-70878230D01*
X107688839Y-70764761D01*
X107575370Y-70626499D01*
X107491058Y-70468761D01*
X107439136Y-70297598D01*
X107421000Y-70113460D01*
X107421000Y-67249740D01*
X107439136Y-67065602D01*
X107491058Y-66894439D01*
X107575370Y-66736701D01*
X107688839Y-66598439D01*
X107827101Y-66484970D01*
X107984839Y-66400658D01*
X108156002Y-66348736D01*
X108340140Y-66330600D01*
X110403860Y-66330600D01*
X110587998Y-66348736D01*
X110587998Y-66348736D01*
G37*
G36*
X155558589Y-68845076D02*
G01*
X155657893Y-68864829D01*
X155798206Y-68922948D01*
X155924484Y-69007325D01*
X156031875Y-69114716D01*
X156116252Y-69240994D01*
X156174371Y-69381307D01*
X156191794Y-69468900D01*
X156204000Y-69530262D01*
X156204000Y-69682138D01*
X156200204Y-69701220D01*
X156174371Y-69831093D01*
X156116252Y-69971406D01*
X156031875Y-70097684D01*
X155924484Y-70205075D01*
X155798206Y-70289452D01*
X155657893Y-70347571D01*
X155558589Y-70367324D01*
X155508938Y-70377200D01*
X155357062Y-70377200D01*
X155307411Y-70367324D01*
X155208107Y-70347571D01*
X155067794Y-70289452D01*
X154941516Y-70205075D01*
X154834125Y-70097684D01*
X154749748Y-69971406D01*
X154691629Y-69831093D01*
X154665796Y-69701220D01*
X154662000Y-69682138D01*
X154662000Y-69530262D01*
X154674206Y-69468900D01*
X154691629Y-69381307D01*
X154749748Y-69240994D01*
X154834125Y-69114716D01*
X154941516Y-69007325D01*
X155067794Y-68922948D01*
X155208107Y-68864829D01*
X155307411Y-68845076D01*
X155357062Y-68835200D01*
X155508938Y-68835200D01*
X155558589Y-68845076D01*
X155558589Y-68845076D01*
G37*
G36*
X155558589Y-66305076D02*
G01*
X155657893Y-66324829D01*
X155798206Y-66382948D01*
X155924484Y-66467325D01*
X156031875Y-66574716D01*
X156116252Y-66700994D01*
X156174371Y-66841307D01*
X156204000Y-66990263D01*
X156204000Y-67142137D01*
X156174371Y-67291093D01*
X156116252Y-67431406D01*
X156031875Y-67557684D01*
X155924484Y-67665075D01*
X155798206Y-67749452D01*
X155657893Y-67807571D01*
X155558589Y-67827324D01*
X155508938Y-67837200D01*
X155357062Y-67837200D01*
X155307411Y-67827324D01*
X155208107Y-67807571D01*
X155067794Y-67749452D01*
X154941516Y-67665075D01*
X154834125Y-67557684D01*
X154749748Y-67431406D01*
X154691629Y-67291093D01*
X154662000Y-67142137D01*
X154662000Y-66990263D01*
X154691629Y-66841307D01*
X154749748Y-66700994D01*
X154834125Y-66574716D01*
X154941516Y-66467325D01*
X155067794Y-66382948D01*
X155208107Y-66324829D01*
X155307411Y-66305076D01*
X155357062Y-66295200D01*
X155508938Y-66295200D01*
X155558589Y-66305076D01*
X155558589Y-66305076D01*
G37*
G36*
X124230442Y-62961118D02*
G01*
X124296627Y-62967637D01*
X124466466Y-63019157D01*
X124622991Y-63102822D01*
X124658729Y-63132152D01*
X124760186Y-63215414D01*
X124843448Y-63316871D01*
X124872778Y-63352609D01*
X124956443Y-63509134D01*
X125007963Y-63678973D01*
X125025359Y-63855600D01*
X125007963Y-64032227D01*
X124956443Y-64202066D01*
X124872778Y-64358591D01*
X124843448Y-64394329D01*
X124760186Y-64495786D01*
X124658729Y-64579048D01*
X124622991Y-64608378D01*
X124466466Y-64692043D01*
X124296627Y-64743563D01*
X124230443Y-64750081D01*
X124164260Y-64756600D01*
X124075740Y-64756600D01*
X124009557Y-64750081D01*
X123943373Y-64743563D01*
X123773534Y-64692043D01*
X123617009Y-64608378D01*
X123581271Y-64579048D01*
X123479814Y-64495786D01*
X123396552Y-64394329D01*
X123367222Y-64358591D01*
X123283557Y-64202066D01*
X123232037Y-64032227D01*
X123214641Y-63855600D01*
X123232037Y-63678973D01*
X123283557Y-63509134D01*
X123367222Y-63352609D01*
X123396552Y-63316871D01*
X123479814Y-63215414D01*
X123581271Y-63132152D01*
X123617009Y-63102822D01*
X123773534Y-63019157D01*
X123943373Y-62967637D01*
X124009558Y-62961118D01*
X124075740Y-62954600D01*
X124164260Y-62954600D01*
X124230442Y-62961118D01*
X124230442Y-62961118D01*
G37*
G36*
X121690442Y-62961118D02*
G01*
X121756627Y-62967637D01*
X121926466Y-63019157D01*
X122082991Y-63102822D01*
X122118729Y-63132152D01*
X122220186Y-63215414D01*
X122303448Y-63316871D01*
X122332778Y-63352609D01*
X122416443Y-63509134D01*
X122467963Y-63678973D01*
X122485359Y-63855600D01*
X122467963Y-64032227D01*
X122416443Y-64202066D01*
X122332778Y-64358591D01*
X122303448Y-64394329D01*
X122220186Y-64495786D01*
X122118729Y-64579048D01*
X122082991Y-64608378D01*
X121926466Y-64692043D01*
X121756627Y-64743563D01*
X121690443Y-64750081D01*
X121624260Y-64756600D01*
X121535740Y-64756600D01*
X121469557Y-64750081D01*
X121403373Y-64743563D01*
X121233534Y-64692043D01*
X121077009Y-64608378D01*
X121041271Y-64579048D01*
X120939814Y-64495786D01*
X120856552Y-64394329D01*
X120827222Y-64358591D01*
X120743557Y-64202066D01*
X120692037Y-64032227D01*
X120674641Y-63855600D01*
X120692037Y-63678973D01*
X120743557Y-63509134D01*
X120827222Y-63352609D01*
X120856552Y-63316871D01*
X120939814Y-63215414D01*
X121041271Y-63132152D01*
X121077009Y-63102822D01*
X121233534Y-63019157D01*
X121403373Y-62967637D01*
X121469558Y-62961118D01*
X121535740Y-62954600D01*
X121624260Y-62954600D01*
X121690442Y-62961118D01*
X121690442Y-62961118D01*
G37*
G36*
X119941000Y-64756600D02*
G01*
X118139000Y-64756600D01*
X118139000Y-62954600D01*
X119941000Y-62954600D01*
X119941000Y-64756600D01*
X119941000Y-64756600D01*
G37*
G36*
X206451098Y-58794033D02*
G01*
X206915350Y-58986332D01*
X206915352Y-58986333D01*
X207333168Y-59265509D01*
X207688491Y-59620832D01*
X207895929Y-59931285D01*
X207967668Y-60038650D01*
X208159967Y-60502902D01*
X208258000Y-60995747D01*
X208258000Y-61498253D01*
X208159967Y-61991098D01*
X208008835Y-62355963D01*
X207967667Y-62455352D01*
X207688491Y-62873168D01*
X207333168Y-63228491D01*
X206915352Y-63507667D01*
X206915351Y-63507668D01*
X206915350Y-63507668D01*
X206451098Y-63699967D01*
X205958253Y-63798000D01*
X205455747Y-63798000D01*
X204962902Y-63699967D01*
X204498650Y-63507668D01*
X204498649Y-63507668D01*
X204498648Y-63507667D01*
X204080832Y-63228491D01*
X203725509Y-62873168D01*
X203446333Y-62455352D01*
X203405165Y-62355963D01*
X203254033Y-61991098D01*
X203156000Y-61498253D01*
X203156000Y-60995747D01*
X203254033Y-60502902D01*
X203446332Y-60038650D01*
X203518071Y-59931285D01*
X203725509Y-59620832D01*
X204080832Y-59265509D01*
X204498648Y-58986333D01*
X204498650Y-58986332D01*
X204962902Y-58794033D01*
X205455747Y-58696000D01*
X205958253Y-58696000D01*
X206451098Y-58794033D01*
X206451098Y-58794033D01*
G37*
G36*
X110599098Y-58794033D02*
G01*
X111063350Y-58986332D01*
X111063352Y-58986333D01*
X111481168Y-59265509D01*
X111836491Y-59620832D01*
X112043929Y-59931285D01*
X112115668Y-60038650D01*
X112307967Y-60502902D01*
X112406000Y-60995747D01*
X112406000Y-61498253D01*
X112307967Y-61991098D01*
X112156835Y-62355963D01*
X112115667Y-62455352D01*
X111836491Y-62873168D01*
X111481168Y-63228491D01*
X111063352Y-63507667D01*
X111063351Y-63507668D01*
X111063350Y-63507668D01*
X110599098Y-63699967D01*
X110106253Y-63798000D01*
X109603747Y-63798000D01*
X109110902Y-63699967D01*
X108646650Y-63507668D01*
X108646649Y-63507668D01*
X108646648Y-63507667D01*
X108228832Y-63228491D01*
X107873509Y-62873168D01*
X107594333Y-62455352D01*
X107553165Y-62355963D01*
X107402033Y-61991098D01*
X107304000Y-61498253D01*
X107304000Y-60995747D01*
X107402033Y-60502902D01*
X107594332Y-60038650D01*
X107666071Y-59931285D01*
X107873509Y-59620832D01*
X108228832Y-59265509D01*
X108646648Y-58986333D01*
X108646650Y-58986332D01*
X109110902Y-58794033D01*
X109603747Y-58696000D01*
X110106253Y-58696000D01*
X110599098Y-58794033D01*
X110599098Y-58794033D01*
G37*
G36*
X177715227Y-59503583D02*
G01*
X177903921Y-59560823D01*
X178077815Y-59653771D01*
X178230239Y-59778861D01*
X178355329Y-59931285D01*
X178448277Y-60105178D01*
X178505517Y-60293872D01*
X178520000Y-60440925D01*
X178520000Y-62439275D01*
X178505517Y-62586328D01*
X178448277Y-62775022D01*
X178355329Y-62948915D01*
X178230239Y-63101339D01*
X178077815Y-63226429D01*
X177903922Y-63319377D01*
X177715228Y-63376617D01*
X177519000Y-63395943D01*
X177322773Y-63376617D01*
X177134079Y-63319377D01*
X176960186Y-63226429D01*
X176807762Y-63101339D01*
X176682672Y-62948915D01*
X176589724Y-62775022D01*
X176532484Y-62586328D01*
X176518001Y-62439275D01*
X176518000Y-60440926D01*
X176532483Y-60293873D01*
X176589723Y-60105179D01*
X176682671Y-59931285D01*
X176807761Y-59778861D01*
X176960185Y-59653771D01*
X177134078Y-59560823D01*
X177322772Y-59503583D01*
X177519000Y-59484257D01*
X177715227Y-59503583D01*
X177715227Y-59503583D01*
G37*
G36*
X175175227Y-59503583D02*
G01*
X175363921Y-59560823D01*
X175537815Y-59653771D01*
X175690239Y-59778861D01*
X175815329Y-59931285D01*
X175908277Y-60105178D01*
X175965517Y-60293872D01*
X175980000Y-60440925D01*
X175980000Y-62439275D01*
X175965517Y-62586328D01*
X175908277Y-62775022D01*
X175815329Y-62948915D01*
X175690239Y-63101339D01*
X175537815Y-63226429D01*
X175363922Y-63319377D01*
X175175228Y-63376617D01*
X174979000Y-63395943D01*
X174782773Y-63376617D01*
X174594079Y-63319377D01*
X174420186Y-63226429D01*
X174267762Y-63101339D01*
X174142672Y-62948915D01*
X174049724Y-62775022D01*
X173992484Y-62586328D01*
X173978001Y-62439275D01*
X173978000Y-60440926D01*
X173992483Y-60293873D01*
X174049723Y-60105179D01*
X174142671Y-59931285D01*
X174267761Y-59778861D01*
X174420185Y-59653771D01*
X174594078Y-59560823D01*
X174782772Y-59503583D01*
X174979000Y-59484257D01*
X175175227Y-59503583D01*
X175175227Y-59503583D01*
G37*
G36*
X173440000Y-63391100D02*
G01*
X171438000Y-63391100D01*
X171438000Y-59489100D01*
X173440000Y-59489100D01*
X173440000Y-63391100D01*
X173440000Y-63391100D01*
G37*
G36*
X160587442Y-60573518D02*
G01*
X160653627Y-60580037D01*
X160823466Y-60631557D01*
X160979991Y-60715222D01*
X161015729Y-60744552D01*
X161117186Y-60827814D01*
X161200448Y-60929271D01*
X161229778Y-60965009D01*
X161313443Y-61121534D01*
X161364963Y-61291373D01*
X161382359Y-61468000D01*
X161364963Y-61644627D01*
X161313443Y-61814466D01*
X161229778Y-61970991D01*
X161200448Y-62006729D01*
X161117186Y-62108186D01*
X161015729Y-62191448D01*
X160979991Y-62220778D01*
X160823466Y-62304443D01*
X160653627Y-62355963D01*
X160587442Y-62362482D01*
X160521260Y-62369000D01*
X160432740Y-62369000D01*
X160366558Y-62362482D01*
X160300373Y-62355963D01*
X160130534Y-62304443D01*
X159974009Y-62220778D01*
X159938271Y-62191448D01*
X159836814Y-62108186D01*
X159753552Y-62006729D01*
X159724222Y-61970991D01*
X159640557Y-61814466D01*
X159589037Y-61644627D01*
X159571641Y-61468000D01*
X159589037Y-61291373D01*
X159640557Y-61121534D01*
X159724222Y-60965009D01*
X159753552Y-60929271D01*
X159836814Y-60827814D01*
X159938271Y-60744552D01*
X159974009Y-60715222D01*
X160130534Y-60631557D01*
X160300373Y-60580037D01*
X160366558Y-60573518D01*
X160432740Y-60567000D01*
X160521260Y-60567000D01*
X160587442Y-60573518D01*
X160587442Y-60573518D01*
G37*
G36*
X163127442Y-60573518D02*
G01*
X163193627Y-60580037D01*
X163363466Y-60631557D01*
X163519991Y-60715222D01*
X163555729Y-60744552D01*
X163657186Y-60827814D01*
X163740448Y-60929271D01*
X163769778Y-60965009D01*
X163853443Y-61121534D01*
X163904963Y-61291373D01*
X163922359Y-61468000D01*
X163904963Y-61644627D01*
X163853443Y-61814466D01*
X163769778Y-61970991D01*
X163740448Y-62006729D01*
X163657186Y-62108186D01*
X163555729Y-62191448D01*
X163519991Y-62220778D01*
X163363466Y-62304443D01*
X163193627Y-62355963D01*
X163127442Y-62362482D01*
X163061260Y-62369000D01*
X162972740Y-62369000D01*
X162906558Y-62362482D01*
X162840373Y-62355963D01*
X162670534Y-62304443D01*
X162514009Y-62220778D01*
X162478271Y-62191448D01*
X162376814Y-62108186D01*
X162293552Y-62006729D01*
X162264222Y-61970991D01*
X162180557Y-61814466D01*
X162129037Y-61644627D01*
X162111641Y-61468000D01*
X162129037Y-61291373D01*
X162180557Y-61121534D01*
X162264222Y-60965009D01*
X162293552Y-60929271D01*
X162376814Y-60827814D01*
X162478271Y-60744552D01*
X162514009Y-60715222D01*
X162670534Y-60631557D01*
X162840373Y-60580037D01*
X162906558Y-60573518D01*
X162972740Y-60567000D01*
X163061260Y-60567000D01*
X163127442Y-60573518D01*
X163127442Y-60573518D01*
G37*
G36*
X158047442Y-60573518D02*
G01*
X158113627Y-60580037D01*
X158283466Y-60631557D01*
X158439991Y-60715222D01*
X158475729Y-60744552D01*
X158577186Y-60827814D01*
X158660448Y-60929271D01*
X158689778Y-60965009D01*
X158773443Y-61121534D01*
X158824963Y-61291373D01*
X158842359Y-61468000D01*
X158824963Y-61644627D01*
X158773443Y-61814466D01*
X158689778Y-61970991D01*
X158660448Y-62006729D01*
X158577186Y-62108186D01*
X158475729Y-62191448D01*
X158439991Y-62220778D01*
X158283466Y-62304443D01*
X158113627Y-62355963D01*
X158047442Y-62362482D01*
X157981260Y-62369000D01*
X157892740Y-62369000D01*
X157826558Y-62362482D01*
X157760373Y-62355963D01*
X157590534Y-62304443D01*
X157434009Y-62220778D01*
X157398271Y-62191448D01*
X157296814Y-62108186D01*
X157213552Y-62006729D01*
X157184222Y-61970991D01*
X157100557Y-61814466D01*
X157049037Y-61644627D01*
X157031641Y-61468000D01*
X157049037Y-61291373D01*
X157100557Y-61121534D01*
X157184222Y-60965009D01*
X157213552Y-60929271D01*
X157296814Y-60827814D01*
X157398271Y-60744552D01*
X157434009Y-60715222D01*
X157590534Y-60631557D01*
X157760373Y-60580037D01*
X157826558Y-60573518D01*
X157892740Y-60567000D01*
X157981260Y-60567000D01*
X158047442Y-60573518D01*
X158047442Y-60573518D01*
G37*
G36*
X155507442Y-60573518D02*
G01*
X155573627Y-60580037D01*
X155743466Y-60631557D01*
X155899991Y-60715222D01*
X155935729Y-60744552D01*
X156037186Y-60827814D01*
X156120448Y-60929271D01*
X156149778Y-60965009D01*
X156233443Y-61121534D01*
X156284963Y-61291373D01*
X156302359Y-61468000D01*
X156284963Y-61644627D01*
X156233443Y-61814466D01*
X156149778Y-61970991D01*
X156120448Y-62006729D01*
X156037186Y-62108186D01*
X155935729Y-62191448D01*
X155899991Y-62220778D01*
X155743466Y-62304443D01*
X155573627Y-62355963D01*
X155507442Y-62362482D01*
X155441260Y-62369000D01*
X155352740Y-62369000D01*
X155286558Y-62362482D01*
X155220373Y-62355963D01*
X155050534Y-62304443D01*
X154894009Y-62220778D01*
X154858271Y-62191448D01*
X154756814Y-62108186D01*
X154673552Y-62006729D01*
X154644222Y-61970991D01*
X154560557Y-61814466D01*
X154509037Y-61644627D01*
X154491641Y-61468000D01*
X154509037Y-61291373D01*
X154560557Y-61121534D01*
X154644222Y-60965009D01*
X154673552Y-60929271D01*
X154756814Y-60827814D01*
X154858271Y-60744552D01*
X154894009Y-60715222D01*
X155050534Y-60631557D01*
X155220373Y-60580037D01*
X155286558Y-60573518D01*
X155352740Y-60567000D01*
X155441260Y-60567000D01*
X155507442Y-60573518D01*
X155507442Y-60573518D01*
G37*
G36*
X152967442Y-60573518D02*
G01*
X153033627Y-60580037D01*
X153203466Y-60631557D01*
X153359991Y-60715222D01*
X153395729Y-60744552D01*
X153497186Y-60827814D01*
X153580448Y-60929271D01*
X153609778Y-60965009D01*
X153693443Y-61121534D01*
X153744963Y-61291373D01*
X153762359Y-61468000D01*
X153744963Y-61644627D01*
X153693443Y-61814466D01*
X153609778Y-61970991D01*
X153580448Y-62006729D01*
X153497186Y-62108186D01*
X153395729Y-62191448D01*
X153359991Y-62220778D01*
X153203466Y-62304443D01*
X153033627Y-62355963D01*
X152967442Y-62362482D01*
X152901260Y-62369000D01*
X152812740Y-62369000D01*
X152746558Y-62362482D01*
X152680373Y-62355963D01*
X152510534Y-62304443D01*
X152354009Y-62220778D01*
X152318271Y-62191448D01*
X152216814Y-62108186D01*
X152133552Y-62006729D01*
X152104222Y-61970991D01*
X152020557Y-61814466D01*
X151969037Y-61644627D01*
X151951641Y-61468000D01*
X151969037Y-61291373D01*
X152020557Y-61121534D01*
X152104222Y-60965009D01*
X152133552Y-60929271D01*
X152216814Y-60827814D01*
X152318271Y-60744552D01*
X152354009Y-60715222D01*
X152510534Y-60631557D01*
X152680373Y-60580037D01*
X152746558Y-60573518D01*
X152812740Y-60567000D01*
X152901260Y-60567000D01*
X152967442Y-60573518D01*
X152967442Y-60573518D01*
G37*
G36*
X150427442Y-60573518D02*
G01*
X150493627Y-60580037D01*
X150663466Y-60631557D01*
X150819991Y-60715222D01*
X150855729Y-60744552D01*
X150957186Y-60827814D01*
X151040448Y-60929271D01*
X151069778Y-60965009D01*
X151153443Y-61121534D01*
X151204963Y-61291373D01*
X151222359Y-61468000D01*
X151204963Y-61644627D01*
X151153443Y-61814466D01*
X151069778Y-61970991D01*
X151040448Y-62006729D01*
X150957186Y-62108186D01*
X150855729Y-62191448D01*
X150819991Y-62220778D01*
X150663466Y-62304443D01*
X150493627Y-62355963D01*
X150427442Y-62362482D01*
X150361260Y-62369000D01*
X150272740Y-62369000D01*
X150206558Y-62362482D01*
X150140373Y-62355963D01*
X149970534Y-62304443D01*
X149814009Y-62220778D01*
X149778271Y-62191448D01*
X149676814Y-62108186D01*
X149593552Y-62006729D01*
X149564222Y-61970991D01*
X149480557Y-61814466D01*
X149429037Y-61644627D01*
X149411641Y-61468000D01*
X149429037Y-61291373D01*
X149480557Y-61121534D01*
X149564222Y-60965009D01*
X149593552Y-60929271D01*
X149676814Y-60827814D01*
X149778271Y-60744552D01*
X149814009Y-60715222D01*
X149970534Y-60631557D01*
X150140373Y-60580037D01*
X150206558Y-60573518D01*
X150272740Y-60567000D01*
X150361260Y-60567000D01*
X150427442Y-60573518D01*
X150427442Y-60573518D01*
G37*
G36*
X148678000Y-62369000D02*
G01*
X146876000Y-62369000D01*
X146876000Y-60567000D01*
X148678000Y-60567000D01*
X148678000Y-62369000D01*
X148678000Y-62369000D01*
G37*
G36*
X119150443Y-60421119D02*
G01*
X119216627Y-60427637D01*
X119386466Y-60479157D01*
X119542991Y-60562822D01*
X119563967Y-60580037D01*
X119680186Y-60675414D01*
X119763448Y-60776871D01*
X119792778Y-60812609D01*
X119876443Y-60969134D01*
X119927963Y-61138973D01*
X119945359Y-61315600D01*
X119927963Y-61492227D01*
X119876443Y-61662066D01*
X119792778Y-61818591D01*
X119763448Y-61854329D01*
X119680186Y-61955786D01*
X119578729Y-62039048D01*
X119542991Y-62068378D01*
X119386466Y-62152043D01*
X119216627Y-62203563D01*
X119150443Y-62210081D01*
X119084260Y-62216600D01*
X118995740Y-62216600D01*
X118929557Y-62210081D01*
X118863373Y-62203563D01*
X118693534Y-62152043D01*
X118537009Y-62068378D01*
X118501271Y-62039048D01*
X118399814Y-61955786D01*
X118316552Y-61854329D01*
X118287222Y-61818591D01*
X118203557Y-61662066D01*
X118152037Y-61492227D01*
X118134641Y-61315600D01*
X118152037Y-61138973D01*
X118203557Y-60969134D01*
X118287222Y-60812609D01*
X118316552Y-60776871D01*
X118399814Y-60675414D01*
X118516033Y-60580037D01*
X118537009Y-60562822D01*
X118693534Y-60479157D01*
X118863373Y-60427637D01*
X118929557Y-60421119D01*
X118995740Y-60414600D01*
X119084260Y-60414600D01*
X119150443Y-60421119D01*
X119150443Y-60421119D01*
G37*
G36*
X124230443Y-60421119D02*
G01*
X124296627Y-60427637D01*
X124466466Y-60479157D01*
X124622991Y-60562822D01*
X124643967Y-60580037D01*
X124760186Y-60675414D01*
X124843448Y-60776871D01*
X124872778Y-60812609D01*
X124956443Y-60969134D01*
X125007963Y-61138973D01*
X125025359Y-61315600D01*
X125007963Y-61492227D01*
X124956443Y-61662066D01*
X124872778Y-61818591D01*
X124843448Y-61854329D01*
X124760186Y-61955786D01*
X124658729Y-62039048D01*
X124622991Y-62068378D01*
X124466466Y-62152043D01*
X124296627Y-62203563D01*
X124230443Y-62210081D01*
X124164260Y-62216600D01*
X124075740Y-62216600D01*
X124009557Y-62210081D01*
X123943373Y-62203563D01*
X123773534Y-62152043D01*
X123617009Y-62068378D01*
X123581271Y-62039048D01*
X123479814Y-61955786D01*
X123396552Y-61854329D01*
X123367222Y-61818591D01*
X123283557Y-61662066D01*
X123232037Y-61492227D01*
X123214641Y-61315600D01*
X123232037Y-61138973D01*
X123283557Y-60969134D01*
X123367222Y-60812609D01*
X123396552Y-60776871D01*
X123479814Y-60675414D01*
X123596033Y-60580037D01*
X123617009Y-60562822D01*
X123773534Y-60479157D01*
X123943373Y-60427637D01*
X124009557Y-60421119D01*
X124075740Y-60414600D01*
X124164260Y-60414600D01*
X124230443Y-60421119D01*
X124230443Y-60421119D01*
G37*
G36*
X121690443Y-60421119D02*
G01*
X121756627Y-60427637D01*
X121926466Y-60479157D01*
X122082991Y-60562822D01*
X122103967Y-60580037D01*
X122220186Y-60675414D01*
X122303448Y-60776871D01*
X122332778Y-60812609D01*
X122416443Y-60969134D01*
X122467963Y-61138973D01*
X122485359Y-61315600D01*
X122467963Y-61492227D01*
X122416443Y-61662066D01*
X122332778Y-61818591D01*
X122303448Y-61854329D01*
X122220186Y-61955786D01*
X122118729Y-62039048D01*
X122082991Y-62068378D01*
X121926466Y-62152043D01*
X121756627Y-62203563D01*
X121690443Y-62210081D01*
X121624260Y-62216600D01*
X121535740Y-62216600D01*
X121469557Y-62210081D01*
X121403373Y-62203563D01*
X121233534Y-62152043D01*
X121077009Y-62068378D01*
X121041271Y-62039048D01*
X120939814Y-61955786D01*
X120856552Y-61854329D01*
X120827222Y-61818591D01*
X120743557Y-61662066D01*
X120692037Y-61492227D01*
X120674641Y-61315600D01*
X120692037Y-61138973D01*
X120743557Y-60969134D01*
X120827222Y-60812609D01*
X120856552Y-60776871D01*
X120939814Y-60675414D01*
X121056033Y-60580037D01*
X121077009Y-60562822D01*
X121233534Y-60479157D01*
X121403373Y-60427637D01*
X121469557Y-60421119D01*
X121535740Y-60414600D01*
X121624260Y-60414600D01*
X121690443Y-60421119D01*
X121690443Y-60421119D01*
G37*
M02*
