%TF.GenerationSoftware,KiCad,Pcbnew,(5.1.4-0-10_14)*%
%TF.CreationDate,2019-08-17T10:21:19+03:00*%
%TF.ProjectId,Cooler_routed,436f6f6c-6572-45f7-926f-757465642e6b,rev?*%
%TF.SameCoordinates,Original*%
%TF.FileFunction,Paste,Top*%
%TF.FilePolarity,Positive*%
%FSLAX46Y46*%
G04 Gerber Fmt 4.6, Leading zero omitted, Abs format (unit mm)*
G04 Created by KiCad (PCBNEW (5.1.4-0-10_14)) date 2019-08-17 10:21:19*
%MOMM*%
%LPD*%
G04 APERTURE LIST*
%ADD10R,0.900000X0.800000*%
%ADD11C,0.150000*%
%ADD12C,1.150000*%
%ADD13C,1.425000*%
%ADD14R,1.300000X1.700000*%
G04 APERTURE END LIST*
D10*
%TO.C,Q1*%
X220418000Y-107122000D03*
X220418000Y-105222000D03*
X218418000Y-106172000D03*
%TD*%
D11*
%TO.C,R4*%
G36*
X226813505Y-104772204D02*
G01*
X226837773Y-104775804D01*
X226861572Y-104781765D01*
X226884671Y-104790030D01*
X226906850Y-104800520D01*
X226927893Y-104813132D01*
X226947599Y-104827747D01*
X226965777Y-104844223D01*
X226982253Y-104862401D01*
X226996868Y-104882107D01*
X227009480Y-104903150D01*
X227019970Y-104925329D01*
X227028235Y-104948428D01*
X227034196Y-104972227D01*
X227037796Y-104996495D01*
X227039000Y-105020999D01*
X227039000Y-105671001D01*
X227037796Y-105695505D01*
X227034196Y-105719773D01*
X227028235Y-105743572D01*
X227019970Y-105766671D01*
X227009480Y-105788850D01*
X226996868Y-105809893D01*
X226982253Y-105829599D01*
X226965777Y-105847777D01*
X226947599Y-105864253D01*
X226927893Y-105878868D01*
X226906850Y-105891480D01*
X226884671Y-105901970D01*
X226861572Y-105910235D01*
X226837773Y-105916196D01*
X226813505Y-105919796D01*
X226789001Y-105921000D01*
X225888999Y-105921000D01*
X225864495Y-105919796D01*
X225840227Y-105916196D01*
X225816428Y-105910235D01*
X225793329Y-105901970D01*
X225771150Y-105891480D01*
X225750107Y-105878868D01*
X225730401Y-105864253D01*
X225712223Y-105847777D01*
X225695747Y-105829599D01*
X225681132Y-105809893D01*
X225668520Y-105788850D01*
X225658030Y-105766671D01*
X225649765Y-105743572D01*
X225643804Y-105719773D01*
X225640204Y-105695505D01*
X225639000Y-105671001D01*
X225639000Y-105020999D01*
X225640204Y-104996495D01*
X225643804Y-104972227D01*
X225649765Y-104948428D01*
X225658030Y-104925329D01*
X225668520Y-104903150D01*
X225681132Y-104882107D01*
X225695747Y-104862401D01*
X225712223Y-104844223D01*
X225730401Y-104827747D01*
X225750107Y-104813132D01*
X225771150Y-104800520D01*
X225793329Y-104790030D01*
X225816428Y-104781765D01*
X225840227Y-104775804D01*
X225864495Y-104772204D01*
X225888999Y-104771000D01*
X226789001Y-104771000D01*
X226813505Y-104772204D01*
X226813505Y-104772204D01*
G37*
D12*
X226339000Y-105346000D03*
D11*
G36*
X226813505Y-106822204D02*
G01*
X226837773Y-106825804D01*
X226861572Y-106831765D01*
X226884671Y-106840030D01*
X226906850Y-106850520D01*
X226927893Y-106863132D01*
X226947599Y-106877747D01*
X226965777Y-106894223D01*
X226982253Y-106912401D01*
X226996868Y-106932107D01*
X227009480Y-106953150D01*
X227019970Y-106975329D01*
X227028235Y-106998428D01*
X227034196Y-107022227D01*
X227037796Y-107046495D01*
X227039000Y-107070999D01*
X227039000Y-107721001D01*
X227037796Y-107745505D01*
X227034196Y-107769773D01*
X227028235Y-107793572D01*
X227019970Y-107816671D01*
X227009480Y-107838850D01*
X226996868Y-107859893D01*
X226982253Y-107879599D01*
X226965777Y-107897777D01*
X226947599Y-107914253D01*
X226927893Y-107928868D01*
X226906850Y-107941480D01*
X226884671Y-107951970D01*
X226861572Y-107960235D01*
X226837773Y-107966196D01*
X226813505Y-107969796D01*
X226789001Y-107971000D01*
X225888999Y-107971000D01*
X225864495Y-107969796D01*
X225840227Y-107966196D01*
X225816428Y-107960235D01*
X225793329Y-107951970D01*
X225771150Y-107941480D01*
X225750107Y-107928868D01*
X225730401Y-107914253D01*
X225712223Y-107897777D01*
X225695747Y-107879599D01*
X225681132Y-107859893D01*
X225668520Y-107838850D01*
X225658030Y-107816671D01*
X225649765Y-107793572D01*
X225643804Y-107769773D01*
X225640204Y-107745505D01*
X225639000Y-107721001D01*
X225639000Y-107070999D01*
X225640204Y-107046495D01*
X225643804Y-107022227D01*
X225649765Y-106998428D01*
X225658030Y-106975329D01*
X225668520Y-106953150D01*
X225681132Y-106932107D01*
X225695747Y-106912401D01*
X225712223Y-106894223D01*
X225730401Y-106877747D01*
X225750107Y-106863132D01*
X225771150Y-106850520D01*
X225793329Y-106840030D01*
X225816428Y-106831765D01*
X225840227Y-106825804D01*
X225864495Y-106822204D01*
X225888999Y-106821000D01*
X226789001Y-106821000D01*
X226813505Y-106822204D01*
X226813505Y-106822204D01*
G37*
D12*
X226339000Y-107396000D03*
%TD*%
D11*
%TO.C,R5*%
G36*
X223702505Y-104628204D02*
G01*
X223726773Y-104631804D01*
X223750572Y-104637765D01*
X223773671Y-104646030D01*
X223795850Y-104656520D01*
X223816893Y-104669132D01*
X223836599Y-104683747D01*
X223854777Y-104700223D01*
X223871253Y-104718401D01*
X223885868Y-104738107D01*
X223898480Y-104759150D01*
X223908970Y-104781329D01*
X223917235Y-104804428D01*
X223923196Y-104828227D01*
X223926796Y-104852495D01*
X223928000Y-104876999D01*
X223928000Y-105527001D01*
X223926796Y-105551505D01*
X223923196Y-105575773D01*
X223917235Y-105599572D01*
X223908970Y-105622671D01*
X223898480Y-105644850D01*
X223885868Y-105665893D01*
X223871253Y-105685599D01*
X223854777Y-105703777D01*
X223836599Y-105720253D01*
X223816893Y-105734868D01*
X223795850Y-105747480D01*
X223773671Y-105757970D01*
X223750572Y-105766235D01*
X223726773Y-105772196D01*
X223702505Y-105775796D01*
X223678001Y-105777000D01*
X222777999Y-105777000D01*
X222753495Y-105775796D01*
X222729227Y-105772196D01*
X222705428Y-105766235D01*
X222682329Y-105757970D01*
X222660150Y-105747480D01*
X222639107Y-105734868D01*
X222619401Y-105720253D01*
X222601223Y-105703777D01*
X222584747Y-105685599D01*
X222570132Y-105665893D01*
X222557520Y-105644850D01*
X222547030Y-105622671D01*
X222538765Y-105599572D01*
X222532804Y-105575773D01*
X222529204Y-105551505D01*
X222528000Y-105527001D01*
X222528000Y-104876999D01*
X222529204Y-104852495D01*
X222532804Y-104828227D01*
X222538765Y-104804428D01*
X222547030Y-104781329D01*
X222557520Y-104759150D01*
X222570132Y-104738107D01*
X222584747Y-104718401D01*
X222601223Y-104700223D01*
X222619401Y-104683747D01*
X222639107Y-104669132D01*
X222660150Y-104656520D01*
X222682329Y-104646030D01*
X222705428Y-104637765D01*
X222729227Y-104631804D01*
X222753495Y-104628204D01*
X222777999Y-104627000D01*
X223678001Y-104627000D01*
X223702505Y-104628204D01*
X223702505Y-104628204D01*
G37*
D12*
X223228000Y-105202000D03*
D11*
G36*
X223702505Y-106678204D02*
G01*
X223726773Y-106681804D01*
X223750572Y-106687765D01*
X223773671Y-106696030D01*
X223795850Y-106706520D01*
X223816893Y-106719132D01*
X223836599Y-106733747D01*
X223854777Y-106750223D01*
X223871253Y-106768401D01*
X223885868Y-106788107D01*
X223898480Y-106809150D01*
X223908970Y-106831329D01*
X223917235Y-106854428D01*
X223923196Y-106878227D01*
X223926796Y-106902495D01*
X223928000Y-106926999D01*
X223928000Y-107577001D01*
X223926796Y-107601505D01*
X223923196Y-107625773D01*
X223917235Y-107649572D01*
X223908970Y-107672671D01*
X223898480Y-107694850D01*
X223885868Y-107715893D01*
X223871253Y-107735599D01*
X223854777Y-107753777D01*
X223836599Y-107770253D01*
X223816893Y-107784868D01*
X223795850Y-107797480D01*
X223773671Y-107807970D01*
X223750572Y-107816235D01*
X223726773Y-107822196D01*
X223702505Y-107825796D01*
X223678001Y-107827000D01*
X222777999Y-107827000D01*
X222753495Y-107825796D01*
X222729227Y-107822196D01*
X222705428Y-107816235D01*
X222682329Y-107807970D01*
X222660150Y-107797480D01*
X222639107Y-107784868D01*
X222619401Y-107770253D01*
X222601223Y-107753777D01*
X222584747Y-107735599D01*
X222570132Y-107715893D01*
X222557520Y-107694850D01*
X222547030Y-107672671D01*
X222538765Y-107649572D01*
X222532804Y-107625773D01*
X222529204Y-107601505D01*
X222528000Y-107577001D01*
X222528000Y-106926999D01*
X222529204Y-106902495D01*
X222532804Y-106878227D01*
X222538765Y-106854428D01*
X222547030Y-106831329D01*
X222557520Y-106809150D01*
X222570132Y-106788107D01*
X222584747Y-106768401D01*
X222601223Y-106750223D01*
X222619401Y-106733747D01*
X222639107Y-106719132D01*
X222660150Y-106706520D01*
X222682329Y-106696030D01*
X222705428Y-106687765D01*
X222729227Y-106681804D01*
X222753495Y-106678204D01*
X222777999Y-106677000D01*
X223678001Y-106677000D01*
X223702505Y-106678204D01*
X223702505Y-106678204D01*
G37*
D12*
X223228000Y-107252000D03*
%TD*%
D11*
%TO.C,R6*%
G36*
X220890505Y-101485204D02*
G01*
X220914773Y-101488804D01*
X220938572Y-101494765D01*
X220961671Y-101503030D01*
X220983850Y-101513520D01*
X221004893Y-101526132D01*
X221024599Y-101540747D01*
X221042777Y-101557223D01*
X221059253Y-101575401D01*
X221073868Y-101595107D01*
X221086480Y-101616150D01*
X221096970Y-101638329D01*
X221105235Y-101661428D01*
X221111196Y-101685227D01*
X221114796Y-101709495D01*
X221116000Y-101733999D01*
X221116000Y-102634001D01*
X221114796Y-102658505D01*
X221111196Y-102682773D01*
X221105235Y-102706572D01*
X221096970Y-102729671D01*
X221086480Y-102751850D01*
X221073868Y-102772893D01*
X221059253Y-102792599D01*
X221042777Y-102810777D01*
X221024599Y-102827253D01*
X221004893Y-102841868D01*
X220983850Y-102854480D01*
X220961671Y-102864970D01*
X220938572Y-102873235D01*
X220914773Y-102879196D01*
X220890505Y-102882796D01*
X220866001Y-102884000D01*
X220215999Y-102884000D01*
X220191495Y-102882796D01*
X220167227Y-102879196D01*
X220143428Y-102873235D01*
X220120329Y-102864970D01*
X220098150Y-102854480D01*
X220077107Y-102841868D01*
X220057401Y-102827253D01*
X220039223Y-102810777D01*
X220022747Y-102792599D01*
X220008132Y-102772893D01*
X219995520Y-102751850D01*
X219985030Y-102729671D01*
X219976765Y-102706572D01*
X219970804Y-102682773D01*
X219967204Y-102658505D01*
X219966000Y-102634001D01*
X219966000Y-101733999D01*
X219967204Y-101709495D01*
X219970804Y-101685227D01*
X219976765Y-101661428D01*
X219985030Y-101638329D01*
X219995520Y-101616150D01*
X220008132Y-101595107D01*
X220022747Y-101575401D01*
X220039223Y-101557223D01*
X220057401Y-101540747D01*
X220077107Y-101526132D01*
X220098150Y-101513520D01*
X220120329Y-101503030D01*
X220143428Y-101494765D01*
X220167227Y-101488804D01*
X220191495Y-101485204D01*
X220215999Y-101484000D01*
X220866001Y-101484000D01*
X220890505Y-101485204D01*
X220890505Y-101485204D01*
G37*
D12*
X220541000Y-102184000D03*
D11*
G36*
X218840505Y-101485204D02*
G01*
X218864773Y-101488804D01*
X218888572Y-101494765D01*
X218911671Y-101503030D01*
X218933850Y-101513520D01*
X218954893Y-101526132D01*
X218974599Y-101540747D01*
X218992777Y-101557223D01*
X219009253Y-101575401D01*
X219023868Y-101595107D01*
X219036480Y-101616150D01*
X219046970Y-101638329D01*
X219055235Y-101661428D01*
X219061196Y-101685227D01*
X219064796Y-101709495D01*
X219066000Y-101733999D01*
X219066000Y-102634001D01*
X219064796Y-102658505D01*
X219061196Y-102682773D01*
X219055235Y-102706572D01*
X219046970Y-102729671D01*
X219036480Y-102751850D01*
X219023868Y-102772893D01*
X219009253Y-102792599D01*
X218992777Y-102810777D01*
X218974599Y-102827253D01*
X218954893Y-102841868D01*
X218933850Y-102854480D01*
X218911671Y-102864970D01*
X218888572Y-102873235D01*
X218864773Y-102879196D01*
X218840505Y-102882796D01*
X218816001Y-102884000D01*
X218165999Y-102884000D01*
X218141495Y-102882796D01*
X218117227Y-102879196D01*
X218093428Y-102873235D01*
X218070329Y-102864970D01*
X218048150Y-102854480D01*
X218027107Y-102841868D01*
X218007401Y-102827253D01*
X217989223Y-102810777D01*
X217972747Y-102792599D01*
X217958132Y-102772893D01*
X217945520Y-102751850D01*
X217935030Y-102729671D01*
X217926765Y-102706572D01*
X217920804Y-102682773D01*
X217917204Y-102658505D01*
X217916000Y-102634001D01*
X217916000Y-101733999D01*
X217917204Y-101709495D01*
X217920804Y-101685227D01*
X217926765Y-101661428D01*
X217935030Y-101638329D01*
X217945520Y-101616150D01*
X217958132Y-101595107D01*
X217972747Y-101575401D01*
X217989223Y-101557223D01*
X218007401Y-101540747D01*
X218027107Y-101526132D01*
X218048150Y-101513520D01*
X218070329Y-101503030D01*
X218093428Y-101494765D01*
X218117227Y-101488804D01*
X218141495Y-101485204D01*
X218165999Y-101484000D01*
X218816001Y-101484000D01*
X218840505Y-101485204D01*
X218840505Y-101485204D01*
G37*
D12*
X218491000Y-102184000D03*
%TD*%
D11*
%TO.C,C5*%
G36*
X208273504Y-100142204D02*
G01*
X208297773Y-100145804D01*
X208321571Y-100151765D01*
X208344671Y-100160030D01*
X208366849Y-100170520D01*
X208387893Y-100183133D01*
X208407598Y-100197747D01*
X208425777Y-100214223D01*
X208442253Y-100232402D01*
X208456867Y-100252107D01*
X208469480Y-100273151D01*
X208479970Y-100295329D01*
X208488235Y-100318429D01*
X208494196Y-100342227D01*
X208497796Y-100366496D01*
X208499000Y-100391000D01*
X208499000Y-101641000D01*
X208497796Y-101665504D01*
X208494196Y-101689773D01*
X208488235Y-101713571D01*
X208479970Y-101736671D01*
X208469480Y-101758849D01*
X208456867Y-101779893D01*
X208442253Y-101799598D01*
X208425777Y-101817777D01*
X208407598Y-101834253D01*
X208387893Y-101848867D01*
X208366849Y-101861480D01*
X208344671Y-101871970D01*
X208321571Y-101880235D01*
X208297773Y-101886196D01*
X208273504Y-101889796D01*
X208249000Y-101891000D01*
X207324000Y-101891000D01*
X207299496Y-101889796D01*
X207275227Y-101886196D01*
X207251429Y-101880235D01*
X207228329Y-101871970D01*
X207206151Y-101861480D01*
X207185107Y-101848867D01*
X207165402Y-101834253D01*
X207147223Y-101817777D01*
X207130747Y-101799598D01*
X207116133Y-101779893D01*
X207103520Y-101758849D01*
X207093030Y-101736671D01*
X207084765Y-101713571D01*
X207078804Y-101689773D01*
X207075204Y-101665504D01*
X207074000Y-101641000D01*
X207074000Y-100391000D01*
X207075204Y-100366496D01*
X207078804Y-100342227D01*
X207084765Y-100318429D01*
X207093030Y-100295329D01*
X207103520Y-100273151D01*
X207116133Y-100252107D01*
X207130747Y-100232402D01*
X207147223Y-100214223D01*
X207165402Y-100197747D01*
X207185107Y-100183133D01*
X207206151Y-100170520D01*
X207228329Y-100160030D01*
X207251429Y-100151765D01*
X207275227Y-100145804D01*
X207299496Y-100142204D01*
X207324000Y-100141000D01*
X208249000Y-100141000D01*
X208273504Y-100142204D01*
X208273504Y-100142204D01*
G37*
D13*
X207786500Y-101016000D03*
D11*
G36*
X205298504Y-100142204D02*
G01*
X205322773Y-100145804D01*
X205346571Y-100151765D01*
X205369671Y-100160030D01*
X205391849Y-100170520D01*
X205412893Y-100183133D01*
X205432598Y-100197747D01*
X205450777Y-100214223D01*
X205467253Y-100232402D01*
X205481867Y-100252107D01*
X205494480Y-100273151D01*
X205504970Y-100295329D01*
X205513235Y-100318429D01*
X205519196Y-100342227D01*
X205522796Y-100366496D01*
X205524000Y-100391000D01*
X205524000Y-101641000D01*
X205522796Y-101665504D01*
X205519196Y-101689773D01*
X205513235Y-101713571D01*
X205504970Y-101736671D01*
X205494480Y-101758849D01*
X205481867Y-101779893D01*
X205467253Y-101799598D01*
X205450777Y-101817777D01*
X205432598Y-101834253D01*
X205412893Y-101848867D01*
X205391849Y-101861480D01*
X205369671Y-101871970D01*
X205346571Y-101880235D01*
X205322773Y-101886196D01*
X205298504Y-101889796D01*
X205274000Y-101891000D01*
X204349000Y-101891000D01*
X204324496Y-101889796D01*
X204300227Y-101886196D01*
X204276429Y-101880235D01*
X204253329Y-101871970D01*
X204231151Y-101861480D01*
X204210107Y-101848867D01*
X204190402Y-101834253D01*
X204172223Y-101817777D01*
X204155747Y-101799598D01*
X204141133Y-101779893D01*
X204128520Y-101758849D01*
X204118030Y-101736671D01*
X204109765Y-101713571D01*
X204103804Y-101689773D01*
X204100204Y-101665504D01*
X204099000Y-101641000D01*
X204099000Y-100391000D01*
X204100204Y-100366496D01*
X204103804Y-100342227D01*
X204109765Y-100318429D01*
X204118030Y-100295329D01*
X204128520Y-100273151D01*
X204141133Y-100252107D01*
X204155747Y-100232402D01*
X204172223Y-100214223D01*
X204190402Y-100197747D01*
X204210107Y-100183133D01*
X204231151Y-100170520D01*
X204253329Y-100160030D01*
X204276429Y-100151765D01*
X204300227Y-100145804D01*
X204324496Y-100142204D01*
X204349000Y-100141000D01*
X205274000Y-100141000D01*
X205298504Y-100142204D01*
X205298504Y-100142204D01*
G37*
D13*
X204811500Y-101016000D03*
%TD*%
D11*
%TO.C,C7*%
G36*
X201197504Y-100142204D02*
G01*
X201221773Y-100145804D01*
X201245571Y-100151765D01*
X201268671Y-100160030D01*
X201290849Y-100170520D01*
X201311893Y-100183133D01*
X201331598Y-100197747D01*
X201349777Y-100214223D01*
X201366253Y-100232402D01*
X201380867Y-100252107D01*
X201393480Y-100273151D01*
X201403970Y-100295329D01*
X201412235Y-100318429D01*
X201418196Y-100342227D01*
X201421796Y-100366496D01*
X201423000Y-100391000D01*
X201423000Y-101641000D01*
X201421796Y-101665504D01*
X201418196Y-101689773D01*
X201412235Y-101713571D01*
X201403970Y-101736671D01*
X201393480Y-101758849D01*
X201380867Y-101779893D01*
X201366253Y-101799598D01*
X201349777Y-101817777D01*
X201331598Y-101834253D01*
X201311893Y-101848867D01*
X201290849Y-101861480D01*
X201268671Y-101871970D01*
X201245571Y-101880235D01*
X201221773Y-101886196D01*
X201197504Y-101889796D01*
X201173000Y-101891000D01*
X200248000Y-101891000D01*
X200223496Y-101889796D01*
X200199227Y-101886196D01*
X200175429Y-101880235D01*
X200152329Y-101871970D01*
X200130151Y-101861480D01*
X200109107Y-101848867D01*
X200089402Y-101834253D01*
X200071223Y-101817777D01*
X200054747Y-101799598D01*
X200040133Y-101779893D01*
X200027520Y-101758849D01*
X200017030Y-101736671D01*
X200008765Y-101713571D01*
X200002804Y-101689773D01*
X199999204Y-101665504D01*
X199998000Y-101641000D01*
X199998000Y-100391000D01*
X199999204Y-100366496D01*
X200002804Y-100342227D01*
X200008765Y-100318429D01*
X200017030Y-100295329D01*
X200027520Y-100273151D01*
X200040133Y-100252107D01*
X200054747Y-100232402D01*
X200071223Y-100214223D01*
X200089402Y-100197747D01*
X200109107Y-100183133D01*
X200130151Y-100170520D01*
X200152329Y-100160030D01*
X200175429Y-100151765D01*
X200199227Y-100145804D01*
X200223496Y-100142204D01*
X200248000Y-100141000D01*
X201173000Y-100141000D01*
X201197504Y-100142204D01*
X201197504Y-100142204D01*
G37*
D13*
X200710500Y-101016000D03*
D11*
G36*
X198222504Y-100142204D02*
G01*
X198246773Y-100145804D01*
X198270571Y-100151765D01*
X198293671Y-100160030D01*
X198315849Y-100170520D01*
X198336893Y-100183133D01*
X198356598Y-100197747D01*
X198374777Y-100214223D01*
X198391253Y-100232402D01*
X198405867Y-100252107D01*
X198418480Y-100273151D01*
X198428970Y-100295329D01*
X198437235Y-100318429D01*
X198443196Y-100342227D01*
X198446796Y-100366496D01*
X198448000Y-100391000D01*
X198448000Y-101641000D01*
X198446796Y-101665504D01*
X198443196Y-101689773D01*
X198437235Y-101713571D01*
X198428970Y-101736671D01*
X198418480Y-101758849D01*
X198405867Y-101779893D01*
X198391253Y-101799598D01*
X198374777Y-101817777D01*
X198356598Y-101834253D01*
X198336893Y-101848867D01*
X198315849Y-101861480D01*
X198293671Y-101871970D01*
X198270571Y-101880235D01*
X198246773Y-101886196D01*
X198222504Y-101889796D01*
X198198000Y-101891000D01*
X197273000Y-101891000D01*
X197248496Y-101889796D01*
X197224227Y-101886196D01*
X197200429Y-101880235D01*
X197177329Y-101871970D01*
X197155151Y-101861480D01*
X197134107Y-101848867D01*
X197114402Y-101834253D01*
X197096223Y-101817777D01*
X197079747Y-101799598D01*
X197065133Y-101779893D01*
X197052520Y-101758849D01*
X197042030Y-101736671D01*
X197033765Y-101713571D01*
X197027804Y-101689773D01*
X197024204Y-101665504D01*
X197023000Y-101641000D01*
X197023000Y-100391000D01*
X197024204Y-100366496D01*
X197027804Y-100342227D01*
X197033765Y-100318429D01*
X197042030Y-100295329D01*
X197052520Y-100273151D01*
X197065133Y-100252107D01*
X197079747Y-100232402D01*
X197096223Y-100214223D01*
X197114402Y-100197747D01*
X197134107Y-100183133D01*
X197155151Y-100170520D01*
X197177329Y-100160030D01*
X197200429Y-100151765D01*
X197224227Y-100145804D01*
X197248496Y-100142204D01*
X197273000Y-100141000D01*
X198198000Y-100141000D01*
X198222504Y-100142204D01*
X198222504Y-100142204D01*
G37*
D13*
X197735500Y-101016000D03*
%TD*%
D11*
%TO.C,C8*%
G36*
X215094504Y-100269204D02*
G01*
X215118773Y-100272804D01*
X215142571Y-100278765D01*
X215165671Y-100287030D01*
X215187849Y-100297520D01*
X215208893Y-100310133D01*
X215228598Y-100324747D01*
X215246777Y-100341223D01*
X215263253Y-100359402D01*
X215277867Y-100379107D01*
X215290480Y-100400151D01*
X215300970Y-100422329D01*
X215309235Y-100445429D01*
X215315196Y-100469227D01*
X215318796Y-100493496D01*
X215320000Y-100518000D01*
X215320000Y-101768000D01*
X215318796Y-101792504D01*
X215315196Y-101816773D01*
X215309235Y-101840571D01*
X215300970Y-101863671D01*
X215290480Y-101885849D01*
X215277867Y-101906893D01*
X215263253Y-101926598D01*
X215246777Y-101944777D01*
X215228598Y-101961253D01*
X215208893Y-101975867D01*
X215187849Y-101988480D01*
X215165671Y-101998970D01*
X215142571Y-102007235D01*
X215118773Y-102013196D01*
X215094504Y-102016796D01*
X215070000Y-102018000D01*
X214145000Y-102018000D01*
X214120496Y-102016796D01*
X214096227Y-102013196D01*
X214072429Y-102007235D01*
X214049329Y-101998970D01*
X214027151Y-101988480D01*
X214006107Y-101975867D01*
X213986402Y-101961253D01*
X213968223Y-101944777D01*
X213951747Y-101926598D01*
X213937133Y-101906893D01*
X213924520Y-101885849D01*
X213914030Y-101863671D01*
X213905765Y-101840571D01*
X213899804Y-101816773D01*
X213896204Y-101792504D01*
X213895000Y-101768000D01*
X213895000Y-100518000D01*
X213896204Y-100493496D01*
X213899804Y-100469227D01*
X213905765Y-100445429D01*
X213914030Y-100422329D01*
X213924520Y-100400151D01*
X213937133Y-100379107D01*
X213951747Y-100359402D01*
X213968223Y-100341223D01*
X213986402Y-100324747D01*
X214006107Y-100310133D01*
X214027151Y-100297520D01*
X214049329Y-100287030D01*
X214072429Y-100278765D01*
X214096227Y-100272804D01*
X214120496Y-100269204D01*
X214145000Y-100268000D01*
X215070000Y-100268000D01*
X215094504Y-100269204D01*
X215094504Y-100269204D01*
G37*
D13*
X214607500Y-101143000D03*
D11*
G36*
X212119504Y-100269204D02*
G01*
X212143773Y-100272804D01*
X212167571Y-100278765D01*
X212190671Y-100287030D01*
X212212849Y-100297520D01*
X212233893Y-100310133D01*
X212253598Y-100324747D01*
X212271777Y-100341223D01*
X212288253Y-100359402D01*
X212302867Y-100379107D01*
X212315480Y-100400151D01*
X212325970Y-100422329D01*
X212334235Y-100445429D01*
X212340196Y-100469227D01*
X212343796Y-100493496D01*
X212345000Y-100518000D01*
X212345000Y-101768000D01*
X212343796Y-101792504D01*
X212340196Y-101816773D01*
X212334235Y-101840571D01*
X212325970Y-101863671D01*
X212315480Y-101885849D01*
X212302867Y-101906893D01*
X212288253Y-101926598D01*
X212271777Y-101944777D01*
X212253598Y-101961253D01*
X212233893Y-101975867D01*
X212212849Y-101988480D01*
X212190671Y-101998970D01*
X212167571Y-102007235D01*
X212143773Y-102013196D01*
X212119504Y-102016796D01*
X212095000Y-102018000D01*
X211170000Y-102018000D01*
X211145496Y-102016796D01*
X211121227Y-102013196D01*
X211097429Y-102007235D01*
X211074329Y-101998970D01*
X211052151Y-101988480D01*
X211031107Y-101975867D01*
X211011402Y-101961253D01*
X210993223Y-101944777D01*
X210976747Y-101926598D01*
X210962133Y-101906893D01*
X210949520Y-101885849D01*
X210939030Y-101863671D01*
X210930765Y-101840571D01*
X210924804Y-101816773D01*
X210921204Y-101792504D01*
X210920000Y-101768000D01*
X210920000Y-100518000D01*
X210921204Y-100493496D01*
X210924804Y-100469227D01*
X210930765Y-100445429D01*
X210939030Y-100422329D01*
X210949520Y-100400151D01*
X210962133Y-100379107D01*
X210976747Y-100359402D01*
X210993223Y-100341223D01*
X211011402Y-100324747D01*
X211031107Y-100310133D01*
X211052151Y-100297520D01*
X211074329Y-100287030D01*
X211097429Y-100278765D01*
X211121227Y-100272804D01*
X211145496Y-100269204D01*
X211170000Y-100268000D01*
X212095000Y-100268000D01*
X212119504Y-100269204D01*
X212119504Y-100269204D01*
G37*
D13*
X211632500Y-101143000D03*
%TD*%
D14*
%TO.C,D2*%
X204831000Y-104826000D03*
X208331000Y-104826000D03*
%TD*%
%TO.C,D3*%
X197663000Y-104572000D03*
X201163000Y-104572000D03*
%TD*%
%TO.C,D4*%
X226438000Y-93726000D03*
X222938000Y-93726000D03*
%TD*%
%TO.C,D5*%
X211661000Y-104699000D03*
X215161000Y-104699000D03*
%TD*%
%TO.C,D6*%
X222865000Y-101981000D03*
X226365000Y-101981000D03*
%TD*%
D11*
%TO.C,D7*%
G36*
X193918504Y-103900204D02*
G01*
X193942773Y-103903804D01*
X193966571Y-103909765D01*
X193989671Y-103918030D01*
X194011849Y-103928520D01*
X194032893Y-103941133D01*
X194052598Y-103955747D01*
X194070777Y-103972223D01*
X194087253Y-103990402D01*
X194101867Y-104010107D01*
X194114480Y-104031151D01*
X194124970Y-104053329D01*
X194133235Y-104076429D01*
X194139196Y-104100227D01*
X194142796Y-104124496D01*
X194144000Y-104149000D01*
X194144000Y-105074000D01*
X194142796Y-105098504D01*
X194139196Y-105122773D01*
X194133235Y-105146571D01*
X194124970Y-105169671D01*
X194114480Y-105191849D01*
X194101867Y-105212893D01*
X194087253Y-105232598D01*
X194070777Y-105250777D01*
X194052598Y-105267253D01*
X194032893Y-105281867D01*
X194011849Y-105294480D01*
X193989671Y-105304970D01*
X193966571Y-105313235D01*
X193942773Y-105319196D01*
X193918504Y-105322796D01*
X193894000Y-105324000D01*
X192644000Y-105324000D01*
X192619496Y-105322796D01*
X192595227Y-105319196D01*
X192571429Y-105313235D01*
X192548329Y-105304970D01*
X192526151Y-105294480D01*
X192505107Y-105281867D01*
X192485402Y-105267253D01*
X192467223Y-105250777D01*
X192450747Y-105232598D01*
X192436133Y-105212893D01*
X192423520Y-105191849D01*
X192413030Y-105169671D01*
X192404765Y-105146571D01*
X192398804Y-105122773D01*
X192395204Y-105098504D01*
X192394000Y-105074000D01*
X192394000Y-104149000D01*
X192395204Y-104124496D01*
X192398804Y-104100227D01*
X192404765Y-104076429D01*
X192413030Y-104053329D01*
X192423520Y-104031151D01*
X192436133Y-104010107D01*
X192450747Y-103990402D01*
X192467223Y-103972223D01*
X192485402Y-103955747D01*
X192505107Y-103941133D01*
X192526151Y-103928520D01*
X192548329Y-103918030D01*
X192571429Y-103909765D01*
X192595227Y-103903804D01*
X192619496Y-103900204D01*
X192644000Y-103899000D01*
X193894000Y-103899000D01*
X193918504Y-103900204D01*
X193918504Y-103900204D01*
G37*
D13*
X193269000Y-104611500D03*
D11*
G36*
X193918504Y-100925204D02*
G01*
X193942773Y-100928804D01*
X193966571Y-100934765D01*
X193989671Y-100943030D01*
X194011849Y-100953520D01*
X194032893Y-100966133D01*
X194052598Y-100980747D01*
X194070777Y-100997223D01*
X194087253Y-101015402D01*
X194101867Y-101035107D01*
X194114480Y-101056151D01*
X194124970Y-101078329D01*
X194133235Y-101101429D01*
X194139196Y-101125227D01*
X194142796Y-101149496D01*
X194144000Y-101174000D01*
X194144000Y-102099000D01*
X194142796Y-102123504D01*
X194139196Y-102147773D01*
X194133235Y-102171571D01*
X194124970Y-102194671D01*
X194114480Y-102216849D01*
X194101867Y-102237893D01*
X194087253Y-102257598D01*
X194070777Y-102275777D01*
X194052598Y-102292253D01*
X194032893Y-102306867D01*
X194011849Y-102319480D01*
X193989671Y-102329970D01*
X193966571Y-102338235D01*
X193942773Y-102344196D01*
X193918504Y-102347796D01*
X193894000Y-102349000D01*
X192644000Y-102349000D01*
X192619496Y-102347796D01*
X192595227Y-102344196D01*
X192571429Y-102338235D01*
X192548329Y-102329970D01*
X192526151Y-102319480D01*
X192505107Y-102306867D01*
X192485402Y-102292253D01*
X192467223Y-102275777D01*
X192450747Y-102257598D01*
X192436133Y-102237893D01*
X192423520Y-102216849D01*
X192413030Y-102194671D01*
X192404765Y-102171571D01*
X192398804Y-102147773D01*
X192395204Y-102123504D01*
X192394000Y-102099000D01*
X192394000Y-101174000D01*
X192395204Y-101149496D01*
X192398804Y-101125227D01*
X192404765Y-101101429D01*
X192413030Y-101078329D01*
X192423520Y-101056151D01*
X192436133Y-101035107D01*
X192450747Y-101015402D01*
X192467223Y-100997223D01*
X192485402Y-100980747D01*
X192505107Y-100966133D01*
X192526151Y-100953520D01*
X192548329Y-100943030D01*
X192571429Y-100934765D01*
X192595227Y-100928804D01*
X192619496Y-100925204D01*
X192644000Y-100924000D01*
X193894000Y-100924000D01*
X193918504Y-100925204D01*
X193918504Y-100925204D01*
G37*
D13*
X193269000Y-101636500D03*
%TD*%
D11*
%TO.C,D8*%
G36*
X193918504Y-96635804D02*
G01*
X193942773Y-96639404D01*
X193966571Y-96645365D01*
X193989671Y-96653630D01*
X194011849Y-96664120D01*
X194032893Y-96676733D01*
X194052598Y-96691347D01*
X194070777Y-96707823D01*
X194087253Y-96726002D01*
X194101867Y-96745707D01*
X194114480Y-96766751D01*
X194124970Y-96788929D01*
X194133235Y-96812029D01*
X194139196Y-96835827D01*
X194142796Y-96860096D01*
X194144000Y-96884600D01*
X194144000Y-97809600D01*
X194142796Y-97834104D01*
X194139196Y-97858373D01*
X194133235Y-97882171D01*
X194124970Y-97905271D01*
X194114480Y-97927449D01*
X194101867Y-97948493D01*
X194087253Y-97968198D01*
X194070777Y-97986377D01*
X194052598Y-98002853D01*
X194032893Y-98017467D01*
X194011849Y-98030080D01*
X193989671Y-98040570D01*
X193966571Y-98048835D01*
X193942773Y-98054796D01*
X193918504Y-98058396D01*
X193894000Y-98059600D01*
X192644000Y-98059600D01*
X192619496Y-98058396D01*
X192595227Y-98054796D01*
X192571429Y-98048835D01*
X192548329Y-98040570D01*
X192526151Y-98030080D01*
X192505107Y-98017467D01*
X192485402Y-98002853D01*
X192467223Y-97986377D01*
X192450747Y-97968198D01*
X192436133Y-97948493D01*
X192423520Y-97927449D01*
X192413030Y-97905271D01*
X192404765Y-97882171D01*
X192398804Y-97858373D01*
X192395204Y-97834104D01*
X192394000Y-97809600D01*
X192394000Y-96884600D01*
X192395204Y-96860096D01*
X192398804Y-96835827D01*
X192404765Y-96812029D01*
X192413030Y-96788929D01*
X192423520Y-96766751D01*
X192436133Y-96745707D01*
X192450747Y-96726002D01*
X192467223Y-96707823D01*
X192485402Y-96691347D01*
X192505107Y-96676733D01*
X192526151Y-96664120D01*
X192548329Y-96653630D01*
X192571429Y-96645365D01*
X192595227Y-96639404D01*
X192619496Y-96635804D01*
X192644000Y-96634600D01*
X193894000Y-96634600D01*
X193918504Y-96635804D01*
X193918504Y-96635804D01*
G37*
D13*
X193269000Y-97347100D03*
D11*
G36*
X193918504Y-93660804D02*
G01*
X193942773Y-93664404D01*
X193966571Y-93670365D01*
X193989671Y-93678630D01*
X194011849Y-93689120D01*
X194032893Y-93701733D01*
X194052598Y-93716347D01*
X194070777Y-93732823D01*
X194087253Y-93751002D01*
X194101867Y-93770707D01*
X194114480Y-93791751D01*
X194124970Y-93813929D01*
X194133235Y-93837029D01*
X194139196Y-93860827D01*
X194142796Y-93885096D01*
X194144000Y-93909600D01*
X194144000Y-94834600D01*
X194142796Y-94859104D01*
X194139196Y-94883373D01*
X194133235Y-94907171D01*
X194124970Y-94930271D01*
X194114480Y-94952449D01*
X194101867Y-94973493D01*
X194087253Y-94993198D01*
X194070777Y-95011377D01*
X194052598Y-95027853D01*
X194032893Y-95042467D01*
X194011849Y-95055080D01*
X193989671Y-95065570D01*
X193966571Y-95073835D01*
X193942773Y-95079796D01*
X193918504Y-95083396D01*
X193894000Y-95084600D01*
X192644000Y-95084600D01*
X192619496Y-95083396D01*
X192595227Y-95079796D01*
X192571429Y-95073835D01*
X192548329Y-95065570D01*
X192526151Y-95055080D01*
X192505107Y-95042467D01*
X192485402Y-95027853D01*
X192467223Y-95011377D01*
X192450747Y-94993198D01*
X192436133Y-94973493D01*
X192423520Y-94952449D01*
X192413030Y-94930271D01*
X192404765Y-94907171D01*
X192398804Y-94883373D01*
X192395204Y-94859104D01*
X192394000Y-94834600D01*
X192394000Y-93909600D01*
X192395204Y-93885096D01*
X192398804Y-93860827D01*
X192404765Y-93837029D01*
X192413030Y-93813929D01*
X192423520Y-93791751D01*
X192436133Y-93770707D01*
X192450747Y-93751002D01*
X192467223Y-93732823D01*
X192485402Y-93716347D01*
X192505107Y-93701733D01*
X192526151Y-93689120D01*
X192548329Y-93678630D01*
X192571429Y-93670365D01*
X192595227Y-93664404D01*
X192619496Y-93660804D01*
X192644000Y-93659600D01*
X193894000Y-93659600D01*
X193918504Y-93660804D01*
X193918504Y-93660804D01*
G37*
D13*
X193269000Y-94372100D03*
%TD*%
D10*
%TO.C,Q2*%
X220253000Y-98892400D03*
X220253000Y-96992400D03*
X218253000Y-97942400D03*
%TD*%
D11*
%TO.C,R1*%
G36*
X205115505Y-97015004D02*
G01*
X205139773Y-97018604D01*
X205163572Y-97024565D01*
X205186671Y-97032830D01*
X205208850Y-97043320D01*
X205229893Y-97055932D01*
X205249599Y-97070547D01*
X205267777Y-97087023D01*
X205284253Y-97105201D01*
X205298868Y-97124907D01*
X205311480Y-97145950D01*
X205321970Y-97168129D01*
X205330235Y-97191228D01*
X205336196Y-97215027D01*
X205339796Y-97239295D01*
X205341000Y-97263799D01*
X205341000Y-98163801D01*
X205339796Y-98188305D01*
X205336196Y-98212573D01*
X205330235Y-98236372D01*
X205321970Y-98259471D01*
X205311480Y-98281650D01*
X205298868Y-98302693D01*
X205284253Y-98322399D01*
X205267777Y-98340577D01*
X205249599Y-98357053D01*
X205229893Y-98371668D01*
X205208850Y-98384280D01*
X205186671Y-98394770D01*
X205163572Y-98403035D01*
X205139773Y-98408996D01*
X205115505Y-98412596D01*
X205091001Y-98413800D01*
X204440999Y-98413800D01*
X204416495Y-98412596D01*
X204392227Y-98408996D01*
X204368428Y-98403035D01*
X204345329Y-98394770D01*
X204323150Y-98384280D01*
X204302107Y-98371668D01*
X204282401Y-98357053D01*
X204264223Y-98340577D01*
X204247747Y-98322399D01*
X204233132Y-98302693D01*
X204220520Y-98281650D01*
X204210030Y-98259471D01*
X204201765Y-98236372D01*
X204195804Y-98212573D01*
X204192204Y-98188305D01*
X204191000Y-98163801D01*
X204191000Y-97263799D01*
X204192204Y-97239295D01*
X204195804Y-97215027D01*
X204201765Y-97191228D01*
X204210030Y-97168129D01*
X204220520Y-97145950D01*
X204233132Y-97124907D01*
X204247747Y-97105201D01*
X204264223Y-97087023D01*
X204282401Y-97070547D01*
X204302107Y-97055932D01*
X204323150Y-97043320D01*
X204345329Y-97032830D01*
X204368428Y-97024565D01*
X204392227Y-97018604D01*
X204416495Y-97015004D01*
X204440999Y-97013800D01*
X205091001Y-97013800D01*
X205115505Y-97015004D01*
X205115505Y-97015004D01*
G37*
D12*
X204766000Y-97713800D03*
D11*
G36*
X207165505Y-97015004D02*
G01*
X207189773Y-97018604D01*
X207213572Y-97024565D01*
X207236671Y-97032830D01*
X207258850Y-97043320D01*
X207279893Y-97055932D01*
X207299599Y-97070547D01*
X207317777Y-97087023D01*
X207334253Y-97105201D01*
X207348868Y-97124907D01*
X207361480Y-97145950D01*
X207371970Y-97168129D01*
X207380235Y-97191228D01*
X207386196Y-97215027D01*
X207389796Y-97239295D01*
X207391000Y-97263799D01*
X207391000Y-98163801D01*
X207389796Y-98188305D01*
X207386196Y-98212573D01*
X207380235Y-98236372D01*
X207371970Y-98259471D01*
X207361480Y-98281650D01*
X207348868Y-98302693D01*
X207334253Y-98322399D01*
X207317777Y-98340577D01*
X207299599Y-98357053D01*
X207279893Y-98371668D01*
X207258850Y-98384280D01*
X207236671Y-98394770D01*
X207213572Y-98403035D01*
X207189773Y-98408996D01*
X207165505Y-98412596D01*
X207141001Y-98413800D01*
X206490999Y-98413800D01*
X206466495Y-98412596D01*
X206442227Y-98408996D01*
X206418428Y-98403035D01*
X206395329Y-98394770D01*
X206373150Y-98384280D01*
X206352107Y-98371668D01*
X206332401Y-98357053D01*
X206314223Y-98340577D01*
X206297747Y-98322399D01*
X206283132Y-98302693D01*
X206270520Y-98281650D01*
X206260030Y-98259471D01*
X206251765Y-98236372D01*
X206245804Y-98212573D01*
X206242204Y-98188305D01*
X206241000Y-98163801D01*
X206241000Y-97263799D01*
X206242204Y-97239295D01*
X206245804Y-97215027D01*
X206251765Y-97191228D01*
X206260030Y-97168129D01*
X206270520Y-97145950D01*
X206283132Y-97124907D01*
X206297747Y-97105201D01*
X206314223Y-97087023D01*
X206332401Y-97070547D01*
X206352107Y-97055932D01*
X206373150Y-97043320D01*
X206395329Y-97032830D01*
X206418428Y-97024565D01*
X206442227Y-97018604D01*
X206466495Y-97015004D01*
X206490999Y-97013800D01*
X207141001Y-97013800D01*
X207165505Y-97015004D01*
X207165505Y-97015004D01*
G37*
D12*
X206816000Y-97713800D03*
%TD*%
D11*
%TO.C,R3*%
G36*
X205106505Y-93713004D02*
G01*
X205130773Y-93716604D01*
X205154572Y-93722565D01*
X205177671Y-93730830D01*
X205199850Y-93741320D01*
X205220893Y-93753932D01*
X205240599Y-93768547D01*
X205258777Y-93785023D01*
X205275253Y-93803201D01*
X205289868Y-93822907D01*
X205302480Y-93843950D01*
X205312970Y-93866129D01*
X205321235Y-93889228D01*
X205327196Y-93913027D01*
X205330796Y-93937295D01*
X205332000Y-93961799D01*
X205332000Y-94861801D01*
X205330796Y-94886305D01*
X205327196Y-94910573D01*
X205321235Y-94934372D01*
X205312970Y-94957471D01*
X205302480Y-94979650D01*
X205289868Y-95000693D01*
X205275253Y-95020399D01*
X205258777Y-95038577D01*
X205240599Y-95055053D01*
X205220893Y-95069668D01*
X205199850Y-95082280D01*
X205177671Y-95092770D01*
X205154572Y-95101035D01*
X205130773Y-95106996D01*
X205106505Y-95110596D01*
X205082001Y-95111800D01*
X204431999Y-95111800D01*
X204407495Y-95110596D01*
X204383227Y-95106996D01*
X204359428Y-95101035D01*
X204336329Y-95092770D01*
X204314150Y-95082280D01*
X204293107Y-95069668D01*
X204273401Y-95055053D01*
X204255223Y-95038577D01*
X204238747Y-95020399D01*
X204224132Y-95000693D01*
X204211520Y-94979650D01*
X204201030Y-94957471D01*
X204192765Y-94934372D01*
X204186804Y-94910573D01*
X204183204Y-94886305D01*
X204182000Y-94861801D01*
X204182000Y-93961799D01*
X204183204Y-93937295D01*
X204186804Y-93913027D01*
X204192765Y-93889228D01*
X204201030Y-93866129D01*
X204211520Y-93843950D01*
X204224132Y-93822907D01*
X204238747Y-93803201D01*
X204255223Y-93785023D01*
X204273401Y-93768547D01*
X204293107Y-93753932D01*
X204314150Y-93741320D01*
X204336329Y-93730830D01*
X204359428Y-93722565D01*
X204383227Y-93716604D01*
X204407495Y-93713004D01*
X204431999Y-93711800D01*
X205082001Y-93711800D01*
X205106505Y-93713004D01*
X205106505Y-93713004D01*
G37*
D12*
X204757000Y-94411800D03*
D11*
G36*
X207156505Y-93713004D02*
G01*
X207180773Y-93716604D01*
X207204572Y-93722565D01*
X207227671Y-93730830D01*
X207249850Y-93741320D01*
X207270893Y-93753932D01*
X207290599Y-93768547D01*
X207308777Y-93785023D01*
X207325253Y-93803201D01*
X207339868Y-93822907D01*
X207352480Y-93843950D01*
X207362970Y-93866129D01*
X207371235Y-93889228D01*
X207377196Y-93913027D01*
X207380796Y-93937295D01*
X207382000Y-93961799D01*
X207382000Y-94861801D01*
X207380796Y-94886305D01*
X207377196Y-94910573D01*
X207371235Y-94934372D01*
X207362970Y-94957471D01*
X207352480Y-94979650D01*
X207339868Y-95000693D01*
X207325253Y-95020399D01*
X207308777Y-95038577D01*
X207290599Y-95055053D01*
X207270893Y-95069668D01*
X207249850Y-95082280D01*
X207227671Y-95092770D01*
X207204572Y-95101035D01*
X207180773Y-95106996D01*
X207156505Y-95110596D01*
X207132001Y-95111800D01*
X206481999Y-95111800D01*
X206457495Y-95110596D01*
X206433227Y-95106996D01*
X206409428Y-95101035D01*
X206386329Y-95092770D01*
X206364150Y-95082280D01*
X206343107Y-95069668D01*
X206323401Y-95055053D01*
X206305223Y-95038577D01*
X206288747Y-95020399D01*
X206274132Y-95000693D01*
X206261520Y-94979650D01*
X206251030Y-94957471D01*
X206242765Y-94934372D01*
X206236804Y-94910573D01*
X206233204Y-94886305D01*
X206232000Y-94861801D01*
X206232000Y-93961799D01*
X206233204Y-93937295D01*
X206236804Y-93913027D01*
X206242765Y-93889228D01*
X206251030Y-93866129D01*
X206261520Y-93843950D01*
X206274132Y-93822907D01*
X206288747Y-93803201D01*
X206305223Y-93785023D01*
X206323401Y-93768547D01*
X206343107Y-93753932D01*
X206364150Y-93741320D01*
X206386329Y-93730830D01*
X206409428Y-93722565D01*
X206433227Y-93716604D01*
X206457495Y-93713004D01*
X206481999Y-93711800D01*
X207132001Y-93711800D01*
X207156505Y-93713004D01*
X207156505Y-93713004D01*
G37*
D12*
X206807000Y-94411800D03*
%TD*%
D11*
%TO.C,R7*%
G36*
X201060505Y-93713004D02*
G01*
X201084773Y-93716604D01*
X201108572Y-93722565D01*
X201131671Y-93730830D01*
X201153850Y-93741320D01*
X201174893Y-93753932D01*
X201194599Y-93768547D01*
X201212777Y-93785023D01*
X201229253Y-93803201D01*
X201243868Y-93822907D01*
X201256480Y-93843950D01*
X201266970Y-93866129D01*
X201275235Y-93889228D01*
X201281196Y-93913027D01*
X201284796Y-93937295D01*
X201286000Y-93961799D01*
X201286000Y-94861801D01*
X201284796Y-94886305D01*
X201281196Y-94910573D01*
X201275235Y-94934372D01*
X201266970Y-94957471D01*
X201256480Y-94979650D01*
X201243868Y-95000693D01*
X201229253Y-95020399D01*
X201212777Y-95038577D01*
X201194599Y-95055053D01*
X201174893Y-95069668D01*
X201153850Y-95082280D01*
X201131671Y-95092770D01*
X201108572Y-95101035D01*
X201084773Y-95106996D01*
X201060505Y-95110596D01*
X201036001Y-95111800D01*
X200385999Y-95111800D01*
X200361495Y-95110596D01*
X200337227Y-95106996D01*
X200313428Y-95101035D01*
X200290329Y-95092770D01*
X200268150Y-95082280D01*
X200247107Y-95069668D01*
X200227401Y-95055053D01*
X200209223Y-95038577D01*
X200192747Y-95020399D01*
X200178132Y-95000693D01*
X200165520Y-94979650D01*
X200155030Y-94957471D01*
X200146765Y-94934372D01*
X200140804Y-94910573D01*
X200137204Y-94886305D01*
X200136000Y-94861801D01*
X200136000Y-93961799D01*
X200137204Y-93937295D01*
X200140804Y-93913027D01*
X200146765Y-93889228D01*
X200155030Y-93866129D01*
X200165520Y-93843950D01*
X200178132Y-93822907D01*
X200192747Y-93803201D01*
X200209223Y-93785023D01*
X200227401Y-93768547D01*
X200247107Y-93753932D01*
X200268150Y-93741320D01*
X200290329Y-93730830D01*
X200313428Y-93722565D01*
X200337227Y-93716604D01*
X200361495Y-93713004D01*
X200385999Y-93711800D01*
X201036001Y-93711800D01*
X201060505Y-93713004D01*
X201060505Y-93713004D01*
G37*
D12*
X200711000Y-94411800D03*
D11*
G36*
X199010505Y-93713004D02*
G01*
X199034773Y-93716604D01*
X199058572Y-93722565D01*
X199081671Y-93730830D01*
X199103850Y-93741320D01*
X199124893Y-93753932D01*
X199144599Y-93768547D01*
X199162777Y-93785023D01*
X199179253Y-93803201D01*
X199193868Y-93822907D01*
X199206480Y-93843950D01*
X199216970Y-93866129D01*
X199225235Y-93889228D01*
X199231196Y-93913027D01*
X199234796Y-93937295D01*
X199236000Y-93961799D01*
X199236000Y-94861801D01*
X199234796Y-94886305D01*
X199231196Y-94910573D01*
X199225235Y-94934372D01*
X199216970Y-94957471D01*
X199206480Y-94979650D01*
X199193868Y-95000693D01*
X199179253Y-95020399D01*
X199162777Y-95038577D01*
X199144599Y-95055053D01*
X199124893Y-95069668D01*
X199103850Y-95082280D01*
X199081671Y-95092770D01*
X199058572Y-95101035D01*
X199034773Y-95106996D01*
X199010505Y-95110596D01*
X198986001Y-95111800D01*
X198335999Y-95111800D01*
X198311495Y-95110596D01*
X198287227Y-95106996D01*
X198263428Y-95101035D01*
X198240329Y-95092770D01*
X198218150Y-95082280D01*
X198197107Y-95069668D01*
X198177401Y-95055053D01*
X198159223Y-95038577D01*
X198142747Y-95020399D01*
X198128132Y-95000693D01*
X198115520Y-94979650D01*
X198105030Y-94957471D01*
X198096765Y-94934372D01*
X198090804Y-94910573D01*
X198087204Y-94886305D01*
X198086000Y-94861801D01*
X198086000Y-93961799D01*
X198087204Y-93937295D01*
X198090804Y-93913027D01*
X198096765Y-93889228D01*
X198105030Y-93866129D01*
X198115520Y-93843950D01*
X198128132Y-93822907D01*
X198142747Y-93803201D01*
X198159223Y-93785023D01*
X198177401Y-93768547D01*
X198197107Y-93753932D01*
X198218150Y-93741320D01*
X198240329Y-93730830D01*
X198263428Y-93722565D01*
X198287227Y-93716604D01*
X198311495Y-93713004D01*
X198335999Y-93711800D01*
X198986001Y-93711800D01*
X199010505Y-93713004D01*
X199010505Y-93713004D01*
G37*
D12*
X198661000Y-94411800D03*
%TD*%
D11*
%TO.C,R8*%
G36*
X201069505Y-97015004D02*
G01*
X201093773Y-97018604D01*
X201117572Y-97024565D01*
X201140671Y-97032830D01*
X201162850Y-97043320D01*
X201183893Y-97055932D01*
X201203599Y-97070547D01*
X201221777Y-97087023D01*
X201238253Y-97105201D01*
X201252868Y-97124907D01*
X201265480Y-97145950D01*
X201275970Y-97168129D01*
X201284235Y-97191228D01*
X201290196Y-97215027D01*
X201293796Y-97239295D01*
X201295000Y-97263799D01*
X201295000Y-98163801D01*
X201293796Y-98188305D01*
X201290196Y-98212573D01*
X201284235Y-98236372D01*
X201275970Y-98259471D01*
X201265480Y-98281650D01*
X201252868Y-98302693D01*
X201238253Y-98322399D01*
X201221777Y-98340577D01*
X201203599Y-98357053D01*
X201183893Y-98371668D01*
X201162850Y-98384280D01*
X201140671Y-98394770D01*
X201117572Y-98403035D01*
X201093773Y-98408996D01*
X201069505Y-98412596D01*
X201045001Y-98413800D01*
X200394999Y-98413800D01*
X200370495Y-98412596D01*
X200346227Y-98408996D01*
X200322428Y-98403035D01*
X200299329Y-98394770D01*
X200277150Y-98384280D01*
X200256107Y-98371668D01*
X200236401Y-98357053D01*
X200218223Y-98340577D01*
X200201747Y-98322399D01*
X200187132Y-98302693D01*
X200174520Y-98281650D01*
X200164030Y-98259471D01*
X200155765Y-98236372D01*
X200149804Y-98212573D01*
X200146204Y-98188305D01*
X200145000Y-98163801D01*
X200145000Y-97263799D01*
X200146204Y-97239295D01*
X200149804Y-97215027D01*
X200155765Y-97191228D01*
X200164030Y-97168129D01*
X200174520Y-97145950D01*
X200187132Y-97124907D01*
X200201747Y-97105201D01*
X200218223Y-97087023D01*
X200236401Y-97070547D01*
X200256107Y-97055932D01*
X200277150Y-97043320D01*
X200299329Y-97032830D01*
X200322428Y-97024565D01*
X200346227Y-97018604D01*
X200370495Y-97015004D01*
X200394999Y-97013800D01*
X201045001Y-97013800D01*
X201069505Y-97015004D01*
X201069505Y-97015004D01*
G37*
D12*
X200720000Y-97713800D03*
D11*
G36*
X199019505Y-97015004D02*
G01*
X199043773Y-97018604D01*
X199067572Y-97024565D01*
X199090671Y-97032830D01*
X199112850Y-97043320D01*
X199133893Y-97055932D01*
X199153599Y-97070547D01*
X199171777Y-97087023D01*
X199188253Y-97105201D01*
X199202868Y-97124907D01*
X199215480Y-97145950D01*
X199225970Y-97168129D01*
X199234235Y-97191228D01*
X199240196Y-97215027D01*
X199243796Y-97239295D01*
X199245000Y-97263799D01*
X199245000Y-98163801D01*
X199243796Y-98188305D01*
X199240196Y-98212573D01*
X199234235Y-98236372D01*
X199225970Y-98259471D01*
X199215480Y-98281650D01*
X199202868Y-98302693D01*
X199188253Y-98322399D01*
X199171777Y-98340577D01*
X199153599Y-98357053D01*
X199133893Y-98371668D01*
X199112850Y-98384280D01*
X199090671Y-98394770D01*
X199067572Y-98403035D01*
X199043773Y-98408996D01*
X199019505Y-98412596D01*
X198995001Y-98413800D01*
X198344999Y-98413800D01*
X198320495Y-98412596D01*
X198296227Y-98408996D01*
X198272428Y-98403035D01*
X198249329Y-98394770D01*
X198227150Y-98384280D01*
X198206107Y-98371668D01*
X198186401Y-98357053D01*
X198168223Y-98340577D01*
X198151747Y-98322399D01*
X198137132Y-98302693D01*
X198124520Y-98281650D01*
X198114030Y-98259471D01*
X198105765Y-98236372D01*
X198099804Y-98212573D01*
X198096204Y-98188305D01*
X198095000Y-98163801D01*
X198095000Y-97263799D01*
X198096204Y-97239295D01*
X198099804Y-97215027D01*
X198105765Y-97191228D01*
X198114030Y-97168129D01*
X198124520Y-97145950D01*
X198137132Y-97124907D01*
X198151747Y-97105201D01*
X198168223Y-97087023D01*
X198186401Y-97070547D01*
X198206107Y-97055932D01*
X198227150Y-97043320D01*
X198249329Y-97032830D01*
X198272428Y-97024565D01*
X198296227Y-97018604D01*
X198320495Y-97015004D01*
X198344999Y-97013800D01*
X198995001Y-97013800D01*
X199019505Y-97015004D01*
X199019505Y-97015004D01*
G37*
D12*
X198670000Y-97713800D03*
%TD*%
D11*
%TO.C,R9*%
G36*
X192720505Y-107454204D02*
G01*
X192744773Y-107457804D01*
X192768572Y-107463765D01*
X192791671Y-107472030D01*
X192813850Y-107482520D01*
X192834893Y-107495132D01*
X192854599Y-107509747D01*
X192872777Y-107526223D01*
X192889253Y-107544401D01*
X192903868Y-107564107D01*
X192916480Y-107585150D01*
X192926970Y-107607329D01*
X192935235Y-107630428D01*
X192941196Y-107654227D01*
X192944796Y-107678495D01*
X192946000Y-107702999D01*
X192946000Y-108603001D01*
X192944796Y-108627505D01*
X192941196Y-108651773D01*
X192935235Y-108675572D01*
X192926970Y-108698671D01*
X192916480Y-108720850D01*
X192903868Y-108741893D01*
X192889253Y-108761599D01*
X192872777Y-108779777D01*
X192854599Y-108796253D01*
X192834893Y-108810868D01*
X192813850Y-108823480D01*
X192791671Y-108833970D01*
X192768572Y-108842235D01*
X192744773Y-108848196D01*
X192720505Y-108851796D01*
X192696001Y-108853000D01*
X192045999Y-108853000D01*
X192021495Y-108851796D01*
X191997227Y-108848196D01*
X191973428Y-108842235D01*
X191950329Y-108833970D01*
X191928150Y-108823480D01*
X191907107Y-108810868D01*
X191887401Y-108796253D01*
X191869223Y-108779777D01*
X191852747Y-108761599D01*
X191838132Y-108741893D01*
X191825520Y-108720850D01*
X191815030Y-108698671D01*
X191806765Y-108675572D01*
X191800804Y-108651773D01*
X191797204Y-108627505D01*
X191796000Y-108603001D01*
X191796000Y-107702999D01*
X191797204Y-107678495D01*
X191800804Y-107654227D01*
X191806765Y-107630428D01*
X191815030Y-107607329D01*
X191825520Y-107585150D01*
X191838132Y-107564107D01*
X191852747Y-107544401D01*
X191869223Y-107526223D01*
X191887401Y-107509747D01*
X191907107Y-107495132D01*
X191928150Y-107482520D01*
X191950329Y-107472030D01*
X191973428Y-107463765D01*
X191997227Y-107457804D01*
X192021495Y-107454204D01*
X192045999Y-107453000D01*
X192696001Y-107453000D01*
X192720505Y-107454204D01*
X192720505Y-107454204D01*
G37*
D12*
X192371000Y-108153000D03*
D11*
G36*
X194770505Y-107454204D02*
G01*
X194794773Y-107457804D01*
X194818572Y-107463765D01*
X194841671Y-107472030D01*
X194863850Y-107482520D01*
X194884893Y-107495132D01*
X194904599Y-107509747D01*
X194922777Y-107526223D01*
X194939253Y-107544401D01*
X194953868Y-107564107D01*
X194966480Y-107585150D01*
X194976970Y-107607329D01*
X194985235Y-107630428D01*
X194991196Y-107654227D01*
X194994796Y-107678495D01*
X194996000Y-107702999D01*
X194996000Y-108603001D01*
X194994796Y-108627505D01*
X194991196Y-108651773D01*
X194985235Y-108675572D01*
X194976970Y-108698671D01*
X194966480Y-108720850D01*
X194953868Y-108741893D01*
X194939253Y-108761599D01*
X194922777Y-108779777D01*
X194904599Y-108796253D01*
X194884893Y-108810868D01*
X194863850Y-108823480D01*
X194841671Y-108833970D01*
X194818572Y-108842235D01*
X194794773Y-108848196D01*
X194770505Y-108851796D01*
X194746001Y-108853000D01*
X194095999Y-108853000D01*
X194071495Y-108851796D01*
X194047227Y-108848196D01*
X194023428Y-108842235D01*
X194000329Y-108833970D01*
X193978150Y-108823480D01*
X193957107Y-108810868D01*
X193937401Y-108796253D01*
X193919223Y-108779777D01*
X193902747Y-108761599D01*
X193888132Y-108741893D01*
X193875520Y-108720850D01*
X193865030Y-108698671D01*
X193856765Y-108675572D01*
X193850804Y-108651773D01*
X193847204Y-108627505D01*
X193846000Y-108603001D01*
X193846000Y-107702999D01*
X193847204Y-107678495D01*
X193850804Y-107654227D01*
X193856765Y-107630428D01*
X193865030Y-107607329D01*
X193875520Y-107585150D01*
X193888132Y-107564107D01*
X193902747Y-107544401D01*
X193919223Y-107526223D01*
X193937401Y-107509747D01*
X193957107Y-107495132D01*
X193978150Y-107482520D01*
X194000329Y-107472030D01*
X194023428Y-107463765D01*
X194047227Y-107457804D01*
X194071495Y-107454204D01*
X194095999Y-107453000D01*
X194746001Y-107453000D01*
X194770505Y-107454204D01*
X194770505Y-107454204D01*
G37*
D12*
X194421000Y-108153000D03*
%TD*%
D11*
%TO.C,R10*%
G36*
X194871505Y-90182404D02*
G01*
X194895773Y-90186004D01*
X194919572Y-90191965D01*
X194942671Y-90200230D01*
X194964850Y-90210720D01*
X194985893Y-90223332D01*
X195005599Y-90237947D01*
X195023777Y-90254423D01*
X195040253Y-90272601D01*
X195054868Y-90292307D01*
X195067480Y-90313350D01*
X195077970Y-90335529D01*
X195086235Y-90358628D01*
X195092196Y-90382427D01*
X195095796Y-90406695D01*
X195097000Y-90431199D01*
X195097000Y-91331201D01*
X195095796Y-91355705D01*
X195092196Y-91379973D01*
X195086235Y-91403772D01*
X195077970Y-91426871D01*
X195067480Y-91449050D01*
X195054868Y-91470093D01*
X195040253Y-91489799D01*
X195023777Y-91507977D01*
X195005599Y-91524453D01*
X194985893Y-91539068D01*
X194964850Y-91551680D01*
X194942671Y-91562170D01*
X194919572Y-91570435D01*
X194895773Y-91576396D01*
X194871505Y-91579996D01*
X194847001Y-91581200D01*
X194196999Y-91581200D01*
X194172495Y-91579996D01*
X194148227Y-91576396D01*
X194124428Y-91570435D01*
X194101329Y-91562170D01*
X194079150Y-91551680D01*
X194058107Y-91539068D01*
X194038401Y-91524453D01*
X194020223Y-91507977D01*
X194003747Y-91489799D01*
X193989132Y-91470093D01*
X193976520Y-91449050D01*
X193966030Y-91426871D01*
X193957765Y-91403772D01*
X193951804Y-91379973D01*
X193948204Y-91355705D01*
X193947000Y-91331201D01*
X193947000Y-90431199D01*
X193948204Y-90406695D01*
X193951804Y-90382427D01*
X193957765Y-90358628D01*
X193966030Y-90335529D01*
X193976520Y-90313350D01*
X193989132Y-90292307D01*
X194003747Y-90272601D01*
X194020223Y-90254423D01*
X194038401Y-90237947D01*
X194058107Y-90223332D01*
X194079150Y-90210720D01*
X194101329Y-90200230D01*
X194124428Y-90191965D01*
X194148227Y-90186004D01*
X194172495Y-90182404D01*
X194196999Y-90181200D01*
X194847001Y-90181200D01*
X194871505Y-90182404D01*
X194871505Y-90182404D01*
G37*
D12*
X194522000Y-90881200D03*
D11*
G36*
X192821505Y-90182404D02*
G01*
X192845773Y-90186004D01*
X192869572Y-90191965D01*
X192892671Y-90200230D01*
X192914850Y-90210720D01*
X192935893Y-90223332D01*
X192955599Y-90237947D01*
X192973777Y-90254423D01*
X192990253Y-90272601D01*
X193004868Y-90292307D01*
X193017480Y-90313350D01*
X193027970Y-90335529D01*
X193036235Y-90358628D01*
X193042196Y-90382427D01*
X193045796Y-90406695D01*
X193047000Y-90431199D01*
X193047000Y-91331201D01*
X193045796Y-91355705D01*
X193042196Y-91379973D01*
X193036235Y-91403772D01*
X193027970Y-91426871D01*
X193017480Y-91449050D01*
X193004868Y-91470093D01*
X192990253Y-91489799D01*
X192973777Y-91507977D01*
X192955599Y-91524453D01*
X192935893Y-91539068D01*
X192914850Y-91551680D01*
X192892671Y-91562170D01*
X192869572Y-91570435D01*
X192845773Y-91576396D01*
X192821505Y-91579996D01*
X192797001Y-91581200D01*
X192146999Y-91581200D01*
X192122495Y-91579996D01*
X192098227Y-91576396D01*
X192074428Y-91570435D01*
X192051329Y-91562170D01*
X192029150Y-91551680D01*
X192008107Y-91539068D01*
X191988401Y-91524453D01*
X191970223Y-91507977D01*
X191953747Y-91489799D01*
X191939132Y-91470093D01*
X191926520Y-91449050D01*
X191916030Y-91426871D01*
X191907765Y-91403772D01*
X191901804Y-91379973D01*
X191898204Y-91355705D01*
X191897000Y-91331201D01*
X191897000Y-90431199D01*
X191898204Y-90406695D01*
X191901804Y-90382427D01*
X191907765Y-90358628D01*
X191916030Y-90335529D01*
X191926520Y-90313350D01*
X191939132Y-90292307D01*
X191953747Y-90272601D01*
X191970223Y-90254423D01*
X191988401Y-90237947D01*
X192008107Y-90223332D01*
X192029150Y-90210720D01*
X192051329Y-90200230D01*
X192074428Y-90191965D01*
X192098227Y-90186004D01*
X192122495Y-90182404D01*
X192146999Y-90181200D01*
X192797001Y-90181200D01*
X192821505Y-90182404D01*
X192821505Y-90182404D01*
G37*
D12*
X192472000Y-90881200D03*
%TD*%
D11*
%TO.C,R11*%
G36*
X211973505Y-96888004D02*
G01*
X211997773Y-96891604D01*
X212021572Y-96897565D01*
X212044671Y-96905830D01*
X212066850Y-96916320D01*
X212087893Y-96928932D01*
X212107599Y-96943547D01*
X212125777Y-96960023D01*
X212142253Y-96978201D01*
X212156868Y-96997907D01*
X212169480Y-97018950D01*
X212179970Y-97041129D01*
X212188235Y-97064228D01*
X212194196Y-97088027D01*
X212197796Y-97112295D01*
X212199000Y-97136799D01*
X212199000Y-98036801D01*
X212197796Y-98061305D01*
X212194196Y-98085573D01*
X212188235Y-98109372D01*
X212179970Y-98132471D01*
X212169480Y-98154650D01*
X212156868Y-98175693D01*
X212142253Y-98195399D01*
X212125777Y-98213577D01*
X212107599Y-98230053D01*
X212087893Y-98244668D01*
X212066850Y-98257280D01*
X212044671Y-98267770D01*
X212021572Y-98276035D01*
X211997773Y-98281996D01*
X211973505Y-98285596D01*
X211949001Y-98286800D01*
X211298999Y-98286800D01*
X211274495Y-98285596D01*
X211250227Y-98281996D01*
X211226428Y-98276035D01*
X211203329Y-98267770D01*
X211181150Y-98257280D01*
X211160107Y-98244668D01*
X211140401Y-98230053D01*
X211122223Y-98213577D01*
X211105747Y-98195399D01*
X211091132Y-98175693D01*
X211078520Y-98154650D01*
X211068030Y-98132471D01*
X211059765Y-98109372D01*
X211053804Y-98085573D01*
X211050204Y-98061305D01*
X211049000Y-98036801D01*
X211049000Y-97136799D01*
X211050204Y-97112295D01*
X211053804Y-97088027D01*
X211059765Y-97064228D01*
X211068030Y-97041129D01*
X211078520Y-97018950D01*
X211091132Y-96997907D01*
X211105747Y-96978201D01*
X211122223Y-96960023D01*
X211140401Y-96943547D01*
X211160107Y-96928932D01*
X211181150Y-96916320D01*
X211203329Y-96905830D01*
X211226428Y-96897565D01*
X211250227Y-96891604D01*
X211274495Y-96888004D01*
X211298999Y-96886800D01*
X211949001Y-96886800D01*
X211973505Y-96888004D01*
X211973505Y-96888004D01*
G37*
D12*
X211624000Y-97586800D03*
D11*
G36*
X214023505Y-96888004D02*
G01*
X214047773Y-96891604D01*
X214071572Y-96897565D01*
X214094671Y-96905830D01*
X214116850Y-96916320D01*
X214137893Y-96928932D01*
X214157599Y-96943547D01*
X214175777Y-96960023D01*
X214192253Y-96978201D01*
X214206868Y-96997907D01*
X214219480Y-97018950D01*
X214229970Y-97041129D01*
X214238235Y-97064228D01*
X214244196Y-97088027D01*
X214247796Y-97112295D01*
X214249000Y-97136799D01*
X214249000Y-98036801D01*
X214247796Y-98061305D01*
X214244196Y-98085573D01*
X214238235Y-98109372D01*
X214229970Y-98132471D01*
X214219480Y-98154650D01*
X214206868Y-98175693D01*
X214192253Y-98195399D01*
X214175777Y-98213577D01*
X214157599Y-98230053D01*
X214137893Y-98244668D01*
X214116850Y-98257280D01*
X214094671Y-98267770D01*
X214071572Y-98276035D01*
X214047773Y-98281996D01*
X214023505Y-98285596D01*
X213999001Y-98286800D01*
X213348999Y-98286800D01*
X213324495Y-98285596D01*
X213300227Y-98281996D01*
X213276428Y-98276035D01*
X213253329Y-98267770D01*
X213231150Y-98257280D01*
X213210107Y-98244668D01*
X213190401Y-98230053D01*
X213172223Y-98213577D01*
X213155747Y-98195399D01*
X213141132Y-98175693D01*
X213128520Y-98154650D01*
X213118030Y-98132471D01*
X213109765Y-98109372D01*
X213103804Y-98085573D01*
X213100204Y-98061305D01*
X213099000Y-98036801D01*
X213099000Y-97136799D01*
X213100204Y-97112295D01*
X213103804Y-97088027D01*
X213109765Y-97064228D01*
X213118030Y-97041129D01*
X213128520Y-97018950D01*
X213141132Y-96997907D01*
X213155747Y-96978201D01*
X213172223Y-96960023D01*
X213190401Y-96943547D01*
X213210107Y-96928932D01*
X213231150Y-96916320D01*
X213253329Y-96905830D01*
X213276428Y-96897565D01*
X213300227Y-96891604D01*
X213324495Y-96888004D01*
X213348999Y-96886800D01*
X213999001Y-96886800D01*
X214023505Y-96888004D01*
X214023505Y-96888004D01*
G37*
D12*
X213674000Y-97586800D03*
%TD*%
D11*
%TO.C,R12*%
G36*
X211982505Y-93586004D02*
G01*
X212006773Y-93589604D01*
X212030572Y-93595565D01*
X212053671Y-93603830D01*
X212075850Y-93614320D01*
X212096893Y-93626932D01*
X212116599Y-93641547D01*
X212134777Y-93658023D01*
X212151253Y-93676201D01*
X212165868Y-93695907D01*
X212178480Y-93716950D01*
X212188970Y-93739129D01*
X212197235Y-93762228D01*
X212203196Y-93786027D01*
X212206796Y-93810295D01*
X212208000Y-93834799D01*
X212208000Y-94734801D01*
X212206796Y-94759305D01*
X212203196Y-94783573D01*
X212197235Y-94807372D01*
X212188970Y-94830471D01*
X212178480Y-94852650D01*
X212165868Y-94873693D01*
X212151253Y-94893399D01*
X212134777Y-94911577D01*
X212116599Y-94928053D01*
X212096893Y-94942668D01*
X212075850Y-94955280D01*
X212053671Y-94965770D01*
X212030572Y-94974035D01*
X212006773Y-94979996D01*
X211982505Y-94983596D01*
X211958001Y-94984800D01*
X211307999Y-94984800D01*
X211283495Y-94983596D01*
X211259227Y-94979996D01*
X211235428Y-94974035D01*
X211212329Y-94965770D01*
X211190150Y-94955280D01*
X211169107Y-94942668D01*
X211149401Y-94928053D01*
X211131223Y-94911577D01*
X211114747Y-94893399D01*
X211100132Y-94873693D01*
X211087520Y-94852650D01*
X211077030Y-94830471D01*
X211068765Y-94807372D01*
X211062804Y-94783573D01*
X211059204Y-94759305D01*
X211058000Y-94734801D01*
X211058000Y-93834799D01*
X211059204Y-93810295D01*
X211062804Y-93786027D01*
X211068765Y-93762228D01*
X211077030Y-93739129D01*
X211087520Y-93716950D01*
X211100132Y-93695907D01*
X211114747Y-93676201D01*
X211131223Y-93658023D01*
X211149401Y-93641547D01*
X211169107Y-93626932D01*
X211190150Y-93614320D01*
X211212329Y-93603830D01*
X211235428Y-93595565D01*
X211259227Y-93589604D01*
X211283495Y-93586004D01*
X211307999Y-93584800D01*
X211958001Y-93584800D01*
X211982505Y-93586004D01*
X211982505Y-93586004D01*
G37*
D12*
X211633000Y-94284800D03*
D11*
G36*
X214032505Y-93586004D02*
G01*
X214056773Y-93589604D01*
X214080572Y-93595565D01*
X214103671Y-93603830D01*
X214125850Y-93614320D01*
X214146893Y-93626932D01*
X214166599Y-93641547D01*
X214184777Y-93658023D01*
X214201253Y-93676201D01*
X214215868Y-93695907D01*
X214228480Y-93716950D01*
X214238970Y-93739129D01*
X214247235Y-93762228D01*
X214253196Y-93786027D01*
X214256796Y-93810295D01*
X214258000Y-93834799D01*
X214258000Y-94734801D01*
X214256796Y-94759305D01*
X214253196Y-94783573D01*
X214247235Y-94807372D01*
X214238970Y-94830471D01*
X214228480Y-94852650D01*
X214215868Y-94873693D01*
X214201253Y-94893399D01*
X214184777Y-94911577D01*
X214166599Y-94928053D01*
X214146893Y-94942668D01*
X214125850Y-94955280D01*
X214103671Y-94965770D01*
X214080572Y-94974035D01*
X214056773Y-94979996D01*
X214032505Y-94983596D01*
X214008001Y-94984800D01*
X213357999Y-94984800D01*
X213333495Y-94983596D01*
X213309227Y-94979996D01*
X213285428Y-94974035D01*
X213262329Y-94965770D01*
X213240150Y-94955280D01*
X213219107Y-94942668D01*
X213199401Y-94928053D01*
X213181223Y-94911577D01*
X213164747Y-94893399D01*
X213150132Y-94873693D01*
X213137520Y-94852650D01*
X213127030Y-94830471D01*
X213118765Y-94807372D01*
X213112804Y-94783573D01*
X213109204Y-94759305D01*
X213108000Y-94734801D01*
X213108000Y-93834799D01*
X213109204Y-93810295D01*
X213112804Y-93786027D01*
X213118765Y-93762228D01*
X213127030Y-93739129D01*
X213137520Y-93716950D01*
X213150132Y-93695907D01*
X213164747Y-93676201D01*
X213181223Y-93658023D01*
X213199401Y-93641547D01*
X213219107Y-93626932D01*
X213240150Y-93614320D01*
X213262329Y-93603830D01*
X213285428Y-93595565D01*
X213309227Y-93589604D01*
X213333495Y-93586004D01*
X213357999Y-93584800D01*
X214008001Y-93584800D01*
X214032505Y-93586004D01*
X214032505Y-93586004D01*
G37*
D12*
X213683000Y-94284800D03*
%TD*%
D11*
%TO.C,R13*%
G36*
X226890505Y-98283004D02*
G01*
X226914773Y-98286604D01*
X226938572Y-98292565D01*
X226961671Y-98300830D01*
X226983850Y-98311320D01*
X227004893Y-98323932D01*
X227024599Y-98338547D01*
X227042777Y-98355023D01*
X227059253Y-98373201D01*
X227073868Y-98392907D01*
X227086480Y-98413950D01*
X227096970Y-98436129D01*
X227105235Y-98459228D01*
X227111196Y-98483027D01*
X227114796Y-98507295D01*
X227116000Y-98531799D01*
X227116000Y-99181801D01*
X227114796Y-99206305D01*
X227111196Y-99230573D01*
X227105235Y-99254372D01*
X227096970Y-99277471D01*
X227086480Y-99299650D01*
X227073868Y-99320693D01*
X227059253Y-99340399D01*
X227042777Y-99358577D01*
X227024599Y-99375053D01*
X227004893Y-99389668D01*
X226983850Y-99402280D01*
X226961671Y-99412770D01*
X226938572Y-99421035D01*
X226914773Y-99426996D01*
X226890505Y-99430596D01*
X226866001Y-99431800D01*
X225965999Y-99431800D01*
X225941495Y-99430596D01*
X225917227Y-99426996D01*
X225893428Y-99421035D01*
X225870329Y-99412770D01*
X225848150Y-99402280D01*
X225827107Y-99389668D01*
X225807401Y-99375053D01*
X225789223Y-99358577D01*
X225772747Y-99340399D01*
X225758132Y-99320693D01*
X225745520Y-99299650D01*
X225735030Y-99277471D01*
X225726765Y-99254372D01*
X225720804Y-99230573D01*
X225717204Y-99206305D01*
X225716000Y-99181801D01*
X225716000Y-98531799D01*
X225717204Y-98507295D01*
X225720804Y-98483027D01*
X225726765Y-98459228D01*
X225735030Y-98436129D01*
X225745520Y-98413950D01*
X225758132Y-98392907D01*
X225772747Y-98373201D01*
X225789223Y-98355023D01*
X225807401Y-98338547D01*
X225827107Y-98323932D01*
X225848150Y-98311320D01*
X225870329Y-98300830D01*
X225893428Y-98292565D01*
X225917227Y-98286604D01*
X225941495Y-98283004D01*
X225965999Y-98281800D01*
X226866001Y-98281800D01*
X226890505Y-98283004D01*
X226890505Y-98283004D01*
G37*
D12*
X226416000Y-98856800D03*
D11*
G36*
X226890505Y-96233004D02*
G01*
X226914773Y-96236604D01*
X226938572Y-96242565D01*
X226961671Y-96250830D01*
X226983850Y-96261320D01*
X227004893Y-96273932D01*
X227024599Y-96288547D01*
X227042777Y-96305023D01*
X227059253Y-96323201D01*
X227073868Y-96342907D01*
X227086480Y-96363950D01*
X227096970Y-96386129D01*
X227105235Y-96409228D01*
X227111196Y-96433027D01*
X227114796Y-96457295D01*
X227116000Y-96481799D01*
X227116000Y-97131801D01*
X227114796Y-97156305D01*
X227111196Y-97180573D01*
X227105235Y-97204372D01*
X227096970Y-97227471D01*
X227086480Y-97249650D01*
X227073868Y-97270693D01*
X227059253Y-97290399D01*
X227042777Y-97308577D01*
X227024599Y-97325053D01*
X227004893Y-97339668D01*
X226983850Y-97352280D01*
X226961671Y-97362770D01*
X226938572Y-97371035D01*
X226914773Y-97376996D01*
X226890505Y-97380596D01*
X226866001Y-97381800D01*
X225965999Y-97381800D01*
X225941495Y-97380596D01*
X225917227Y-97376996D01*
X225893428Y-97371035D01*
X225870329Y-97362770D01*
X225848150Y-97352280D01*
X225827107Y-97339668D01*
X225807401Y-97325053D01*
X225789223Y-97308577D01*
X225772747Y-97290399D01*
X225758132Y-97270693D01*
X225745520Y-97249650D01*
X225735030Y-97227471D01*
X225726765Y-97204372D01*
X225720804Y-97180573D01*
X225717204Y-97156305D01*
X225716000Y-97131801D01*
X225716000Y-96481799D01*
X225717204Y-96457295D01*
X225720804Y-96433027D01*
X225726765Y-96409228D01*
X225735030Y-96386129D01*
X225745520Y-96363950D01*
X225758132Y-96342907D01*
X225772747Y-96323201D01*
X225789223Y-96305023D01*
X225807401Y-96288547D01*
X225827107Y-96273932D01*
X225848150Y-96261320D01*
X225870329Y-96250830D01*
X225893428Y-96242565D01*
X225917227Y-96236604D01*
X225941495Y-96233004D01*
X225965999Y-96231800D01*
X226866001Y-96231800D01*
X226890505Y-96233004D01*
X226890505Y-96233004D01*
G37*
D12*
X226416000Y-96806800D03*
%TD*%
D11*
%TO.C,R14*%
G36*
X223638505Y-96334604D02*
G01*
X223662773Y-96338204D01*
X223686572Y-96344165D01*
X223709671Y-96352430D01*
X223731850Y-96362920D01*
X223752893Y-96375532D01*
X223772599Y-96390147D01*
X223790777Y-96406623D01*
X223807253Y-96424801D01*
X223821868Y-96444507D01*
X223834480Y-96465550D01*
X223844970Y-96487729D01*
X223853235Y-96510828D01*
X223859196Y-96534627D01*
X223862796Y-96558895D01*
X223864000Y-96583399D01*
X223864000Y-97233401D01*
X223862796Y-97257905D01*
X223859196Y-97282173D01*
X223853235Y-97305972D01*
X223844970Y-97329071D01*
X223834480Y-97351250D01*
X223821868Y-97372293D01*
X223807253Y-97391999D01*
X223790777Y-97410177D01*
X223772599Y-97426653D01*
X223752893Y-97441268D01*
X223731850Y-97453880D01*
X223709671Y-97464370D01*
X223686572Y-97472635D01*
X223662773Y-97478596D01*
X223638505Y-97482196D01*
X223614001Y-97483400D01*
X222713999Y-97483400D01*
X222689495Y-97482196D01*
X222665227Y-97478596D01*
X222641428Y-97472635D01*
X222618329Y-97464370D01*
X222596150Y-97453880D01*
X222575107Y-97441268D01*
X222555401Y-97426653D01*
X222537223Y-97410177D01*
X222520747Y-97391999D01*
X222506132Y-97372293D01*
X222493520Y-97351250D01*
X222483030Y-97329071D01*
X222474765Y-97305972D01*
X222468804Y-97282173D01*
X222465204Y-97257905D01*
X222464000Y-97233401D01*
X222464000Y-96583399D01*
X222465204Y-96558895D01*
X222468804Y-96534627D01*
X222474765Y-96510828D01*
X222483030Y-96487729D01*
X222493520Y-96465550D01*
X222506132Y-96444507D01*
X222520747Y-96424801D01*
X222537223Y-96406623D01*
X222555401Y-96390147D01*
X222575107Y-96375532D01*
X222596150Y-96362920D01*
X222618329Y-96352430D01*
X222641428Y-96344165D01*
X222665227Y-96338204D01*
X222689495Y-96334604D01*
X222713999Y-96333400D01*
X223614001Y-96333400D01*
X223638505Y-96334604D01*
X223638505Y-96334604D01*
G37*
D12*
X223164000Y-96908400D03*
D11*
G36*
X223638505Y-98384604D02*
G01*
X223662773Y-98388204D01*
X223686572Y-98394165D01*
X223709671Y-98402430D01*
X223731850Y-98412920D01*
X223752893Y-98425532D01*
X223772599Y-98440147D01*
X223790777Y-98456623D01*
X223807253Y-98474801D01*
X223821868Y-98494507D01*
X223834480Y-98515550D01*
X223844970Y-98537729D01*
X223853235Y-98560828D01*
X223859196Y-98584627D01*
X223862796Y-98608895D01*
X223864000Y-98633399D01*
X223864000Y-99283401D01*
X223862796Y-99307905D01*
X223859196Y-99332173D01*
X223853235Y-99355972D01*
X223844970Y-99379071D01*
X223834480Y-99401250D01*
X223821868Y-99422293D01*
X223807253Y-99441999D01*
X223790777Y-99460177D01*
X223772599Y-99476653D01*
X223752893Y-99491268D01*
X223731850Y-99503880D01*
X223709671Y-99514370D01*
X223686572Y-99522635D01*
X223662773Y-99528596D01*
X223638505Y-99532196D01*
X223614001Y-99533400D01*
X222713999Y-99533400D01*
X222689495Y-99532196D01*
X222665227Y-99528596D01*
X222641428Y-99522635D01*
X222618329Y-99514370D01*
X222596150Y-99503880D01*
X222575107Y-99491268D01*
X222555401Y-99476653D01*
X222537223Y-99460177D01*
X222520747Y-99441999D01*
X222506132Y-99422293D01*
X222493520Y-99401250D01*
X222483030Y-99379071D01*
X222474765Y-99355972D01*
X222468804Y-99332173D01*
X222465204Y-99307905D01*
X222464000Y-99283401D01*
X222464000Y-98633399D01*
X222465204Y-98608895D01*
X222468804Y-98584627D01*
X222474765Y-98560828D01*
X222483030Y-98537729D01*
X222493520Y-98515550D01*
X222506132Y-98494507D01*
X222520747Y-98474801D01*
X222537223Y-98456623D01*
X222555401Y-98440147D01*
X222575107Y-98425532D01*
X222596150Y-98412920D01*
X222618329Y-98402430D01*
X222641428Y-98394165D01*
X222665227Y-98388204D01*
X222689495Y-98384604D01*
X222713999Y-98383400D01*
X223614001Y-98383400D01*
X223638505Y-98384604D01*
X223638505Y-98384604D01*
G37*
D12*
X223164000Y-98958400D03*
%TD*%
D11*
%TO.C,R15*%
G36*
X220719505Y-93230404D02*
G01*
X220743773Y-93234004D01*
X220767572Y-93239965D01*
X220790671Y-93248230D01*
X220812850Y-93258720D01*
X220833893Y-93271332D01*
X220853599Y-93285947D01*
X220871777Y-93302423D01*
X220888253Y-93320601D01*
X220902868Y-93340307D01*
X220915480Y-93361350D01*
X220925970Y-93383529D01*
X220934235Y-93406628D01*
X220940196Y-93430427D01*
X220943796Y-93454695D01*
X220945000Y-93479199D01*
X220945000Y-94379201D01*
X220943796Y-94403705D01*
X220940196Y-94427973D01*
X220934235Y-94451772D01*
X220925970Y-94474871D01*
X220915480Y-94497050D01*
X220902868Y-94518093D01*
X220888253Y-94537799D01*
X220871777Y-94555977D01*
X220853599Y-94572453D01*
X220833893Y-94587068D01*
X220812850Y-94599680D01*
X220790671Y-94610170D01*
X220767572Y-94618435D01*
X220743773Y-94624396D01*
X220719505Y-94627996D01*
X220695001Y-94629200D01*
X220044999Y-94629200D01*
X220020495Y-94627996D01*
X219996227Y-94624396D01*
X219972428Y-94618435D01*
X219949329Y-94610170D01*
X219927150Y-94599680D01*
X219906107Y-94587068D01*
X219886401Y-94572453D01*
X219868223Y-94555977D01*
X219851747Y-94537799D01*
X219837132Y-94518093D01*
X219824520Y-94497050D01*
X219814030Y-94474871D01*
X219805765Y-94451772D01*
X219799804Y-94427973D01*
X219796204Y-94403705D01*
X219795000Y-94379201D01*
X219795000Y-93479199D01*
X219796204Y-93454695D01*
X219799804Y-93430427D01*
X219805765Y-93406628D01*
X219814030Y-93383529D01*
X219824520Y-93361350D01*
X219837132Y-93340307D01*
X219851747Y-93320601D01*
X219868223Y-93302423D01*
X219886401Y-93285947D01*
X219906107Y-93271332D01*
X219927150Y-93258720D01*
X219949329Y-93248230D01*
X219972428Y-93239965D01*
X219996227Y-93234004D01*
X220020495Y-93230404D01*
X220044999Y-93229200D01*
X220695001Y-93229200D01*
X220719505Y-93230404D01*
X220719505Y-93230404D01*
G37*
D12*
X220370000Y-93929200D03*
D11*
G36*
X218669505Y-93230404D02*
G01*
X218693773Y-93234004D01*
X218717572Y-93239965D01*
X218740671Y-93248230D01*
X218762850Y-93258720D01*
X218783893Y-93271332D01*
X218803599Y-93285947D01*
X218821777Y-93302423D01*
X218838253Y-93320601D01*
X218852868Y-93340307D01*
X218865480Y-93361350D01*
X218875970Y-93383529D01*
X218884235Y-93406628D01*
X218890196Y-93430427D01*
X218893796Y-93454695D01*
X218895000Y-93479199D01*
X218895000Y-94379201D01*
X218893796Y-94403705D01*
X218890196Y-94427973D01*
X218884235Y-94451772D01*
X218875970Y-94474871D01*
X218865480Y-94497050D01*
X218852868Y-94518093D01*
X218838253Y-94537799D01*
X218821777Y-94555977D01*
X218803599Y-94572453D01*
X218783893Y-94587068D01*
X218762850Y-94599680D01*
X218740671Y-94610170D01*
X218717572Y-94618435D01*
X218693773Y-94624396D01*
X218669505Y-94627996D01*
X218645001Y-94629200D01*
X217994999Y-94629200D01*
X217970495Y-94627996D01*
X217946227Y-94624396D01*
X217922428Y-94618435D01*
X217899329Y-94610170D01*
X217877150Y-94599680D01*
X217856107Y-94587068D01*
X217836401Y-94572453D01*
X217818223Y-94555977D01*
X217801747Y-94537799D01*
X217787132Y-94518093D01*
X217774520Y-94497050D01*
X217764030Y-94474871D01*
X217755765Y-94451772D01*
X217749804Y-94427973D01*
X217746204Y-94403705D01*
X217745000Y-94379201D01*
X217745000Y-93479199D01*
X217746204Y-93454695D01*
X217749804Y-93430427D01*
X217755765Y-93406628D01*
X217764030Y-93383529D01*
X217774520Y-93361350D01*
X217787132Y-93340307D01*
X217801747Y-93320601D01*
X217818223Y-93302423D01*
X217836401Y-93285947D01*
X217856107Y-93271332D01*
X217877150Y-93258720D01*
X217899329Y-93248230D01*
X217922428Y-93239965D01*
X217946227Y-93234004D01*
X217970495Y-93230404D01*
X217994999Y-93229200D01*
X218645001Y-93229200D01*
X218669505Y-93230404D01*
X218669505Y-93230404D01*
G37*
D12*
X218320000Y-93929200D03*
%TD*%
M02*
