%TF.GenerationSoftware,KiCad,Pcbnew,(5.1.4-0-10_14)*%
%TF.CreationDate,2019-08-17T10:21:19+03:00*%
%TF.ProjectId,Cooler_routed,436f6f6c-6572-45f7-926f-757465642e6b,rev?*%
%TF.SameCoordinates,Original*%
%TF.FileFunction,Copper,L2,Bot*%
%TF.FilePolarity,Positive*%
%FSLAX46Y46*%
G04 Gerber Fmt 4.6, Leading zero omitted, Abs format (unit mm)*
G04 Created by KiCad (PCBNEW (5.1.4-0-10_14)) date 2019-08-17 10:21:19*
%MOMM*%
%LPD*%
G04 APERTURE LIST*
%TA.AperFunction,Conductor*%
%ADD10C,0.150000*%
%TD*%
%TA.AperFunction,SMDPad,CuDef*%
%ADD11C,1.425000*%
%TD*%
%TA.AperFunction,SMDPad,CuDef*%
%ADD12R,2.500000X2.300000*%
%TD*%
%TA.AperFunction,SMDPad,CuDef*%
%ADD13C,0.850000*%
%TD*%
%TA.AperFunction,SMDPad,CuDef*%
%ADD14R,1.500000X1.000000*%
%TD*%
%TA.AperFunction,SMDPad,CuDef*%
%ADD15R,1.800000X1.000000*%
%TD*%
%TA.AperFunction,SMDPad,CuDef*%
%ADD16R,1.840000X2.200000*%
%TD*%
%TA.AperFunction,SMDPad,CuDef*%
%ADD17C,1.000000*%
%TD*%
%TA.AperFunction,ComponentPad*%
%ADD18R,1.700000X1.700000*%
%TD*%
%TA.AperFunction,ComponentPad*%
%ADD19O,1.700000X1.700000*%
%TD*%
%TA.AperFunction,SMDPad,CuDef*%
%ADD20R,0.450000X1.450000*%
%TD*%
%TA.AperFunction,SMDPad,CuDef*%
%ADD21C,1.150000*%
%TD*%
%TA.AperFunction,ComponentPad*%
%ADD22C,3.800000*%
%TD*%
%TA.AperFunction,SMDPad,CuDef*%
%ADD23R,1.700000X1.300000*%
%TD*%
%TA.AperFunction,ComponentPad*%
%ADD24C,1.440000*%
%TD*%
%TA.AperFunction,SMDPad,CuDef*%
%ADD25R,0.900000X0.800000*%
%TD*%
%TA.AperFunction,SMDPad,CuDef*%
%ADD26R,1.300000X1.700000*%
%TD*%
%TA.AperFunction,ViaPad*%
%ADD27C,0.800000*%
%TD*%
%TA.AperFunction,Conductor*%
%ADD28C,0.400000*%
%TD*%
%TA.AperFunction,Conductor*%
%ADD29C,0.800000*%
%TD*%
%TA.AperFunction,Conductor*%
%ADD30C,0.254000*%
%TD*%
G04 APERTURE END LIST*
D10*
%TO.N,GND*%
%TO.C,C1*%
G36*
X193625504Y-94706404D02*
G01*
X193649773Y-94710004D01*
X193673571Y-94715965D01*
X193696671Y-94724230D01*
X193718849Y-94734720D01*
X193739893Y-94747333D01*
X193759598Y-94761947D01*
X193777777Y-94778423D01*
X193794253Y-94796602D01*
X193808867Y-94816307D01*
X193821480Y-94837351D01*
X193831970Y-94859529D01*
X193840235Y-94882629D01*
X193846196Y-94906427D01*
X193849796Y-94930696D01*
X193851000Y-94955200D01*
X193851000Y-96205200D01*
X193849796Y-96229704D01*
X193846196Y-96253973D01*
X193840235Y-96277771D01*
X193831970Y-96300871D01*
X193821480Y-96323049D01*
X193808867Y-96344093D01*
X193794253Y-96363798D01*
X193777777Y-96381977D01*
X193759598Y-96398453D01*
X193739893Y-96413067D01*
X193718849Y-96425680D01*
X193696671Y-96436170D01*
X193673571Y-96444435D01*
X193649773Y-96450396D01*
X193625504Y-96453996D01*
X193601000Y-96455200D01*
X192676000Y-96455200D01*
X192651496Y-96453996D01*
X192627227Y-96450396D01*
X192603429Y-96444435D01*
X192580329Y-96436170D01*
X192558151Y-96425680D01*
X192537107Y-96413067D01*
X192517402Y-96398453D01*
X192499223Y-96381977D01*
X192482747Y-96363798D01*
X192468133Y-96344093D01*
X192455520Y-96323049D01*
X192445030Y-96300871D01*
X192436765Y-96277771D01*
X192430804Y-96253973D01*
X192427204Y-96229704D01*
X192426000Y-96205200D01*
X192426000Y-94955200D01*
X192427204Y-94930696D01*
X192430804Y-94906427D01*
X192436765Y-94882629D01*
X192445030Y-94859529D01*
X192455520Y-94837351D01*
X192468133Y-94816307D01*
X192482747Y-94796602D01*
X192499223Y-94778423D01*
X192517402Y-94761947D01*
X192537107Y-94747333D01*
X192558151Y-94734720D01*
X192580329Y-94724230D01*
X192603429Y-94715965D01*
X192627227Y-94710004D01*
X192651496Y-94706404D01*
X192676000Y-94705200D01*
X193601000Y-94705200D01*
X193625504Y-94706404D01*
X193625504Y-94706404D01*
G37*
D11*
%TD*%
%TO.P,C1,1*%
%TO.N,GND*%
X193138500Y-95580200D03*
D10*
%TO.N,+3V3*%
%TO.C,C1*%
G36*
X196600504Y-94706404D02*
G01*
X196624773Y-94710004D01*
X196648571Y-94715965D01*
X196671671Y-94724230D01*
X196693849Y-94734720D01*
X196714893Y-94747333D01*
X196734598Y-94761947D01*
X196752777Y-94778423D01*
X196769253Y-94796602D01*
X196783867Y-94816307D01*
X196796480Y-94837351D01*
X196806970Y-94859529D01*
X196815235Y-94882629D01*
X196821196Y-94906427D01*
X196824796Y-94930696D01*
X196826000Y-94955200D01*
X196826000Y-96205200D01*
X196824796Y-96229704D01*
X196821196Y-96253973D01*
X196815235Y-96277771D01*
X196806970Y-96300871D01*
X196796480Y-96323049D01*
X196783867Y-96344093D01*
X196769253Y-96363798D01*
X196752777Y-96381977D01*
X196734598Y-96398453D01*
X196714893Y-96413067D01*
X196693849Y-96425680D01*
X196671671Y-96436170D01*
X196648571Y-96444435D01*
X196624773Y-96450396D01*
X196600504Y-96453996D01*
X196576000Y-96455200D01*
X195651000Y-96455200D01*
X195626496Y-96453996D01*
X195602227Y-96450396D01*
X195578429Y-96444435D01*
X195555329Y-96436170D01*
X195533151Y-96425680D01*
X195512107Y-96413067D01*
X195492402Y-96398453D01*
X195474223Y-96381977D01*
X195457747Y-96363798D01*
X195443133Y-96344093D01*
X195430520Y-96323049D01*
X195420030Y-96300871D01*
X195411765Y-96277771D01*
X195405804Y-96253973D01*
X195402204Y-96229704D01*
X195401000Y-96205200D01*
X195401000Y-94955200D01*
X195402204Y-94930696D01*
X195405804Y-94906427D01*
X195411765Y-94882629D01*
X195420030Y-94859529D01*
X195430520Y-94837351D01*
X195443133Y-94816307D01*
X195457747Y-94796602D01*
X195474223Y-94778423D01*
X195492402Y-94761947D01*
X195512107Y-94747333D01*
X195533151Y-94734720D01*
X195555329Y-94724230D01*
X195578429Y-94715965D01*
X195602227Y-94710004D01*
X195626496Y-94706404D01*
X195651000Y-94705200D01*
X196576000Y-94705200D01*
X196600504Y-94706404D01*
X196600504Y-94706404D01*
G37*
D11*
%TD*%
%TO.P,C1,2*%
%TO.N,+3V3*%
X196113500Y-95580200D03*
D10*
%TO.N,Net-(C2-Pad2)*%
%TO.C,C2*%
G36*
X196651504Y-104815204D02*
G01*
X196675773Y-104818804D01*
X196699571Y-104824765D01*
X196722671Y-104833030D01*
X196744849Y-104843520D01*
X196765893Y-104856133D01*
X196785598Y-104870747D01*
X196803777Y-104887223D01*
X196820253Y-104905402D01*
X196834867Y-104925107D01*
X196847480Y-104946151D01*
X196857970Y-104968329D01*
X196866235Y-104991429D01*
X196872196Y-105015227D01*
X196875796Y-105039496D01*
X196877000Y-105064000D01*
X196877000Y-106314000D01*
X196875796Y-106338504D01*
X196872196Y-106362773D01*
X196866235Y-106386571D01*
X196857970Y-106409671D01*
X196847480Y-106431849D01*
X196834867Y-106452893D01*
X196820253Y-106472598D01*
X196803777Y-106490777D01*
X196785598Y-106507253D01*
X196765893Y-106521867D01*
X196744849Y-106534480D01*
X196722671Y-106544970D01*
X196699571Y-106553235D01*
X196675773Y-106559196D01*
X196651504Y-106562796D01*
X196627000Y-106564000D01*
X195702000Y-106564000D01*
X195677496Y-106562796D01*
X195653227Y-106559196D01*
X195629429Y-106553235D01*
X195606329Y-106544970D01*
X195584151Y-106534480D01*
X195563107Y-106521867D01*
X195543402Y-106507253D01*
X195525223Y-106490777D01*
X195508747Y-106472598D01*
X195494133Y-106452893D01*
X195481520Y-106431849D01*
X195471030Y-106409671D01*
X195462765Y-106386571D01*
X195456804Y-106362773D01*
X195453204Y-106338504D01*
X195452000Y-106314000D01*
X195452000Y-105064000D01*
X195453204Y-105039496D01*
X195456804Y-105015227D01*
X195462765Y-104991429D01*
X195471030Y-104968329D01*
X195481520Y-104946151D01*
X195494133Y-104925107D01*
X195508747Y-104905402D01*
X195525223Y-104887223D01*
X195543402Y-104870747D01*
X195563107Y-104856133D01*
X195584151Y-104843520D01*
X195606329Y-104833030D01*
X195629429Y-104824765D01*
X195653227Y-104818804D01*
X195677496Y-104815204D01*
X195702000Y-104814000D01*
X196627000Y-104814000D01*
X196651504Y-104815204D01*
X196651504Y-104815204D01*
G37*
D11*
%TD*%
%TO.P,C2,2*%
%TO.N,Net-(C2-Pad2)*%
X196164500Y-105689000D03*
D10*
%TO.N,GND*%
%TO.C,C2*%
G36*
X193676504Y-104815204D02*
G01*
X193700773Y-104818804D01*
X193724571Y-104824765D01*
X193747671Y-104833030D01*
X193769849Y-104843520D01*
X193790893Y-104856133D01*
X193810598Y-104870747D01*
X193828777Y-104887223D01*
X193845253Y-104905402D01*
X193859867Y-104925107D01*
X193872480Y-104946151D01*
X193882970Y-104968329D01*
X193891235Y-104991429D01*
X193897196Y-105015227D01*
X193900796Y-105039496D01*
X193902000Y-105064000D01*
X193902000Y-106314000D01*
X193900796Y-106338504D01*
X193897196Y-106362773D01*
X193891235Y-106386571D01*
X193882970Y-106409671D01*
X193872480Y-106431849D01*
X193859867Y-106452893D01*
X193845253Y-106472598D01*
X193828777Y-106490777D01*
X193810598Y-106507253D01*
X193790893Y-106521867D01*
X193769849Y-106534480D01*
X193747671Y-106544970D01*
X193724571Y-106553235D01*
X193700773Y-106559196D01*
X193676504Y-106562796D01*
X193652000Y-106564000D01*
X192727000Y-106564000D01*
X192702496Y-106562796D01*
X192678227Y-106559196D01*
X192654429Y-106553235D01*
X192631329Y-106544970D01*
X192609151Y-106534480D01*
X192588107Y-106521867D01*
X192568402Y-106507253D01*
X192550223Y-106490777D01*
X192533747Y-106472598D01*
X192519133Y-106452893D01*
X192506520Y-106431849D01*
X192496030Y-106409671D01*
X192487765Y-106386571D01*
X192481804Y-106362773D01*
X192478204Y-106338504D01*
X192477000Y-106314000D01*
X192477000Y-105064000D01*
X192478204Y-105039496D01*
X192481804Y-105015227D01*
X192487765Y-104991429D01*
X192496030Y-104968329D01*
X192506520Y-104946151D01*
X192519133Y-104925107D01*
X192533747Y-104905402D01*
X192550223Y-104887223D01*
X192568402Y-104870747D01*
X192588107Y-104856133D01*
X192609151Y-104843520D01*
X192631329Y-104833030D01*
X192654429Y-104824765D01*
X192678227Y-104818804D01*
X192702496Y-104815204D01*
X192727000Y-104814000D01*
X193652000Y-104814000D01*
X193676504Y-104815204D01*
X193676504Y-104815204D01*
G37*
D11*
%TD*%
%TO.P,C2,1*%
%TO.N,GND*%
X193189500Y-105689000D03*
D12*
%TO.P,D1,1*%
%TO.N,Net-(C2-Pad2)*%
X192922000Y-110744000D03*
%TO.P,D1,2*%
%TO.N,16V_DRV*%
X197222000Y-110744000D03*
%TD*%
D13*
%TO.P,U2,2*%
%TO.N,GND*%
X191999000Y-100559000D03*
D10*
%TD*%
%TO.N,GND*%
%TO.C,U2*%
G36*
X191574000Y-100059000D02*
G01*
X192424000Y-99459000D01*
X192424000Y-101659000D01*
X191574000Y-101059000D01*
X191574000Y-100059000D01*
X191574000Y-100059000D01*
G37*
D14*
%TO.P,U2,1*%
%TO.N,+3V3*%
X196146000Y-99059000D03*
D15*
%TO.P,U2,2*%
%TO.N,GND*%
X195999500Y-100559000D03*
D14*
%TO.P,U2,3*%
%TO.N,Net-(C2-Pad2)*%
X196146000Y-102059000D03*
D16*
%TO.P,U2,2*%
%TO.N,GND*%
X193332500Y-100559000D03*
D17*
X194742200Y-100559000D03*
D10*
%TD*%
%TO.N,GND*%
%TO.C,U2*%
G36*
X195242200Y-100959000D02*
G01*
X194242200Y-101659000D01*
X194242200Y-99459000D01*
X195242200Y-100159000D01*
X195242200Y-100959000D01*
X195242200Y-100959000D01*
G37*
D18*
%TO.P,J3,1*%
%TO.N,+3V3*%
X207518000Y-86233000D03*
D19*
%TO.P,J3,2*%
%TO.N,SWIM*%
X204978000Y-86233000D03*
%TO.P,J3,3*%
%TO.N,GND*%
X202438000Y-86233000D03*
%TO.P,J3,4*%
%TO.N,NRST*%
X199898000Y-86233000D03*
%TD*%
D20*
%TO.P,U3,1*%
%TO.N,CMD_COOLER1*%
X207641000Y-98603000D03*
%TO.P,U3,2*%
%TO.N,CMD_COOLER2*%
X208291000Y-98603000D03*
%TO.P,U3,3*%
%TO.N,SWIM*%
X208941000Y-98603000D03*
%TO.P,U3,4*%
%TO.N,NRST*%
X209591000Y-98603000D03*
%TO.P,U3,5*%
%TO.N,GND*%
X210241000Y-98603000D03*
%TO.P,U3,6*%
X210891000Y-98603000D03*
%TO.P,U3,7*%
X211541000Y-98603000D03*
%TO.P,U3,8*%
%TO.N,+3V3*%
X212191000Y-98603000D03*
%TO.P,U3,9*%
%TO.N,GND*%
X212841000Y-98603000D03*
%TO.P,U3,10*%
X213491000Y-98603000D03*
%TO.P,U3,11*%
%TO.N,CMD_COOLER0*%
X213491000Y-104503000D03*
%TO.P,U3,12*%
%TO.N,Sense2*%
X212841000Y-104503000D03*
%TO.P,U3,13*%
%TO.N,Sense1*%
X212191000Y-104503000D03*
%TO.P,U3,14*%
%TO.N,LED_TEMP*%
X211541000Y-104503000D03*
%TO.P,U3,15*%
%TO.N,LED_POWER*%
X210891000Y-104503000D03*
%TO.P,U3,16*%
%TO.N,Net-(C5-Pad2)*%
X210241000Y-104503000D03*
%TO.P,U3,17*%
%TO.N,Net-(C7-Pad2)*%
X209591000Y-104503000D03*
%TO.P,U3,18*%
%TO.N,N/C*%
X208941000Y-104503000D03*
%TO.P,U3,19*%
X208291000Y-104503000D03*
%TO.P,U3,20*%
%TO.N,Net-(C8-Pad2)*%
X207641000Y-104503000D03*
%TD*%
D10*
%TO.N,GND*%
%TO.C,C3*%
G36*
X200217504Y-102017204D02*
G01*
X200241773Y-102020804D01*
X200265571Y-102026765D01*
X200288671Y-102035030D01*
X200310849Y-102045520D01*
X200331893Y-102058133D01*
X200351598Y-102072747D01*
X200369777Y-102089223D01*
X200386253Y-102107402D01*
X200400867Y-102127107D01*
X200413480Y-102148151D01*
X200423970Y-102170329D01*
X200432235Y-102193429D01*
X200438196Y-102217227D01*
X200441796Y-102241496D01*
X200443000Y-102266000D01*
X200443000Y-103191000D01*
X200441796Y-103215504D01*
X200438196Y-103239773D01*
X200432235Y-103263571D01*
X200423970Y-103286671D01*
X200413480Y-103308849D01*
X200400867Y-103329893D01*
X200386253Y-103349598D01*
X200369777Y-103367777D01*
X200351598Y-103384253D01*
X200331893Y-103398867D01*
X200310849Y-103411480D01*
X200288671Y-103421970D01*
X200265571Y-103430235D01*
X200241773Y-103436196D01*
X200217504Y-103439796D01*
X200193000Y-103441000D01*
X198943000Y-103441000D01*
X198918496Y-103439796D01*
X198894227Y-103436196D01*
X198870429Y-103430235D01*
X198847329Y-103421970D01*
X198825151Y-103411480D01*
X198804107Y-103398867D01*
X198784402Y-103384253D01*
X198766223Y-103367777D01*
X198749747Y-103349598D01*
X198735133Y-103329893D01*
X198722520Y-103308849D01*
X198712030Y-103286671D01*
X198703765Y-103263571D01*
X198697804Y-103239773D01*
X198694204Y-103215504D01*
X198693000Y-103191000D01*
X198693000Y-102266000D01*
X198694204Y-102241496D01*
X198697804Y-102217227D01*
X198703765Y-102193429D01*
X198712030Y-102170329D01*
X198722520Y-102148151D01*
X198735133Y-102127107D01*
X198749747Y-102107402D01*
X198766223Y-102089223D01*
X198784402Y-102072747D01*
X198804107Y-102058133D01*
X198825151Y-102045520D01*
X198847329Y-102035030D01*
X198870429Y-102026765D01*
X198894227Y-102020804D01*
X198918496Y-102017204D01*
X198943000Y-102016000D01*
X200193000Y-102016000D01*
X200217504Y-102017204D01*
X200217504Y-102017204D01*
G37*
D11*
%TD*%
%TO.P,C3,1*%
%TO.N,GND*%
X199568000Y-102728500D03*
D10*
%TO.N,Net-(C2-Pad2)*%
%TO.C,C3*%
G36*
X200217504Y-104992204D02*
G01*
X200241773Y-104995804D01*
X200265571Y-105001765D01*
X200288671Y-105010030D01*
X200310849Y-105020520D01*
X200331893Y-105033133D01*
X200351598Y-105047747D01*
X200369777Y-105064223D01*
X200386253Y-105082402D01*
X200400867Y-105102107D01*
X200413480Y-105123151D01*
X200423970Y-105145329D01*
X200432235Y-105168429D01*
X200438196Y-105192227D01*
X200441796Y-105216496D01*
X200443000Y-105241000D01*
X200443000Y-106166000D01*
X200441796Y-106190504D01*
X200438196Y-106214773D01*
X200432235Y-106238571D01*
X200423970Y-106261671D01*
X200413480Y-106283849D01*
X200400867Y-106304893D01*
X200386253Y-106324598D01*
X200369777Y-106342777D01*
X200351598Y-106359253D01*
X200331893Y-106373867D01*
X200310849Y-106386480D01*
X200288671Y-106396970D01*
X200265571Y-106405235D01*
X200241773Y-106411196D01*
X200217504Y-106414796D01*
X200193000Y-106416000D01*
X198943000Y-106416000D01*
X198918496Y-106414796D01*
X198894227Y-106411196D01*
X198870429Y-106405235D01*
X198847329Y-106396970D01*
X198825151Y-106386480D01*
X198804107Y-106373867D01*
X198784402Y-106359253D01*
X198766223Y-106342777D01*
X198749747Y-106324598D01*
X198735133Y-106304893D01*
X198722520Y-106283849D01*
X198712030Y-106261671D01*
X198703765Y-106238571D01*
X198697804Y-106214773D01*
X198694204Y-106190504D01*
X198693000Y-106166000D01*
X198693000Y-105241000D01*
X198694204Y-105216496D01*
X198697804Y-105192227D01*
X198703765Y-105168429D01*
X198712030Y-105145329D01*
X198722520Y-105123151D01*
X198735133Y-105102107D01*
X198749747Y-105082402D01*
X198766223Y-105064223D01*
X198784402Y-105047747D01*
X198804107Y-105033133D01*
X198825151Y-105020520D01*
X198847329Y-105010030D01*
X198870429Y-105001765D01*
X198894227Y-104995804D01*
X198918496Y-104992204D01*
X198943000Y-104991000D01*
X200193000Y-104991000D01*
X200217504Y-104992204D01*
X200217504Y-104992204D01*
G37*
D11*
%TD*%
%TO.P,C3,2*%
%TO.N,Net-(C2-Pad2)*%
X199568000Y-105703500D03*
D10*
%TO.N,+3V3*%
%TO.C,C4*%
G36*
X208256504Y-90816004D02*
G01*
X208280773Y-90819604D01*
X208304571Y-90825565D01*
X208327671Y-90833830D01*
X208349849Y-90844320D01*
X208370893Y-90856933D01*
X208390598Y-90871547D01*
X208408777Y-90888023D01*
X208425253Y-90906202D01*
X208439867Y-90925907D01*
X208452480Y-90946951D01*
X208462970Y-90969129D01*
X208471235Y-90992229D01*
X208477196Y-91016027D01*
X208480796Y-91040296D01*
X208482000Y-91064800D01*
X208482000Y-91989800D01*
X208480796Y-92014304D01*
X208477196Y-92038573D01*
X208471235Y-92062371D01*
X208462970Y-92085471D01*
X208452480Y-92107649D01*
X208439867Y-92128693D01*
X208425253Y-92148398D01*
X208408777Y-92166577D01*
X208390598Y-92183053D01*
X208370893Y-92197667D01*
X208349849Y-92210280D01*
X208327671Y-92220770D01*
X208304571Y-92229035D01*
X208280773Y-92234996D01*
X208256504Y-92238596D01*
X208232000Y-92239800D01*
X206982000Y-92239800D01*
X206957496Y-92238596D01*
X206933227Y-92234996D01*
X206909429Y-92229035D01*
X206886329Y-92220770D01*
X206864151Y-92210280D01*
X206843107Y-92197667D01*
X206823402Y-92183053D01*
X206805223Y-92166577D01*
X206788747Y-92148398D01*
X206774133Y-92128693D01*
X206761520Y-92107649D01*
X206751030Y-92085471D01*
X206742765Y-92062371D01*
X206736804Y-92038573D01*
X206733204Y-92014304D01*
X206732000Y-91989800D01*
X206732000Y-91064800D01*
X206733204Y-91040296D01*
X206736804Y-91016027D01*
X206742765Y-90992229D01*
X206751030Y-90969129D01*
X206761520Y-90946951D01*
X206774133Y-90925907D01*
X206788747Y-90906202D01*
X206805223Y-90888023D01*
X206823402Y-90871547D01*
X206843107Y-90856933D01*
X206864151Y-90844320D01*
X206886329Y-90833830D01*
X206909429Y-90825565D01*
X206933227Y-90819604D01*
X206957496Y-90816004D01*
X206982000Y-90814800D01*
X208232000Y-90814800D01*
X208256504Y-90816004D01*
X208256504Y-90816004D01*
G37*
D11*
%TD*%
%TO.P,C4,2*%
%TO.N,+3V3*%
X207607000Y-91527300D03*
D10*
%TO.N,NRST*%
%TO.C,C4*%
G36*
X208256504Y-93791004D02*
G01*
X208280773Y-93794604D01*
X208304571Y-93800565D01*
X208327671Y-93808830D01*
X208349849Y-93819320D01*
X208370893Y-93831933D01*
X208390598Y-93846547D01*
X208408777Y-93863023D01*
X208425253Y-93881202D01*
X208439867Y-93900907D01*
X208452480Y-93921951D01*
X208462970Y-93944129D01*
X208471235Y-93967229D01*
X208477196Y-93991027D01*
X208480796Y-94015296D01*
X208482000Y-94039800D01*
X208482000Y-94964800D01*
X208480796Y-94989304D01*
X208477196Y-95013573D01*
X208471235Y-95037371D01*
X208462970Y-95060471D01*
X208452480Y-95082649D01*
X208439867Y-95103693D01*
X208425253Y-95123398D01*
X208408777Y-95141577D01*
X208390598Y-95158053D01*
X208370893Y-95172667D01*
X208349849Y-95185280D01*
X208327671Y-95195770D01*
X208304571Y-95204035D01*
X208280773Y-95209996D01*
X208256504Y-95213596D01*
X208232000Y-95214800D01*
X206982000Y-95214800D01*
X206957496Y-95213596D01*
X206933227Y-95209996D01*
X206909429Y-95204035D01*
X206886329Y-95195770D01*
X206864151Y-95185280D01*
X206843107Y-95172667D01*
X206823402Y-95158053D01*
X206805223Y-95141577D01*
X206788747Y-95123398D01*
X206774133Y-95103693D01*
X206761520Y-95082649D01*
X206751030Y-95060471D01*
X206742765Y-95037371D01*
X206736804Y-95013573D01*
X206733204Y-94989304D01*
X206732000Y-94964800D01*
X206732000Y-94039800D01*
X206733204Y-94015296D01*
X206736804Y-93991027D01*
X206742765Y-93967229D01*
X206751030Y-93944129D01*
X206761520Y-93921951D01*
X206774133Y-93900907D01*
X206788747Y-93881202D01*
X206805223Y-93863023D01*
X206823402Y-93846547D01*
X206843107Y-93831933D01*
X206864151Y-93819320D01*
X206886329Y-93808830D01*
X206909429Y-93800565D01*
X206933227Y-93794604D01*
X206957496Y-93791004D01*
X206982000Y-93789800D01*
X208232000Y-93789800D01*
X208256504Y-93791004D01*
X208256504Y-93791004D01*
G37*
D11*
%TD*%
%TO.P,C4,1*%
%TO.N,NRST*%
X207607000Y-94502300D03*
D10*
%TO.N,+3V3*%
%TO.C,C6*%
G36*
X200268504Y-94854604D02*
G01*
X200292773Y-94858204D01*
X200316571Y-94864165D01*
X200339671Y-94872430D01*
X200361849Y-94882920D01*
X200382893Y-94895533D01*
X200402598Y-94910147D01*
X200420777Y-94926623D01*
X200437253Y-94944802D01*
X200451867Y-94964507D01*
X200464480Y-94985551D01*
X200474970Y-95007729D01*
X200483235Y-95030829D01*
X200489196Y-95054627D01*
X200492796Y-95078896D01*
X200494000Y-95103400D01*
X200494000Y-96028400D01*
X200492796Y-96052904D01*
X200489196Y-96077173D01*
X200483235Y-96100971D01*
X200474970Y-96124071D01*
X200464480Y-96146249D01*
X200451867Y-96167293D01*
X200437253Y-96186998D01*
X200420777Y-96205177D01*
X200402598Y-96221653D01*
X200382893Y-96236267D01*
X200361849Y-96248880D01*
X200339671Y-96259370D01*
X200316571Y-96267635D01*
X200292773Y-96273596D01*
X200268504Y-96277196D01*
X200244000Y-96278400D01*
X198994000Y-96278400D01*
X198969496Y-96277196D01*
X198945227Y-96273596D01*
X198921429Y-96267635D01*
X198898329Y-96259370D01*
X198876151Y-96248880D01*
X198855107Y-96236267D01*
X198835402Y-96221653D01*
X198817223Y-96205177D01*
X198800747Y-96186998D01*
X198786133Y-96167293D01*
X198773520Y-96146249D01*
X198763030Y-96124071D01*
X198754765Y-96100971D01*
X198748804Y-96077173D01*
X198745204Y-96052904D01*
X198744000Y-96028400D01*
X198744000Y-95103400D01*
X198745204Y-95078896D01*
X198748804Y-95054627D01*
X198754765Y-95030829D01*
X198763030Y-95007729D01*
X198773520Y-94985551D01*
X198786133Y-94964507D01*
X198800747Y-94944802D01*
X198817223Y-94926623D01*
X198835402Y-94910147D01*
X198855107Y-94895533D01*
X198876151Y-94882920D01*
X198898329Y-94872430D01*
X198921429Y-94864165D01*
X198945227Y-94858204D01*
X198969496Y-94854604D01*
X198994000Y-94853400D01*
X200244000Y-94853400D01*
X200268504Y-94854604D01*
X200268504Y-94854604D01*
G37*
D11*
%TD*%
%TO.P,C6,2*%
%TO.N,+3V3*%
X199619000Y-95565900D03*
D10*
%TO.N,GND*%
%TO.C,C6*%
G36*
X200268504Y-97829604D02*
G01*
X200292773Y-97833204D01*
X200316571Y-97839165D01*
X200339671Y-97847430D01*
X200361849Y-97857920D01*
X200382893Y-97870533D01*
X200402598Y-97885147D01*
X200420777Y-97901623D01*
X200437253Y-97919802D01*
X200451867Y-97939507D01*
X200464480Y-97960551D01*
X200474970Y-97982729D01*
X200483235Y-98005829D01*
X200489196Y-98029627D01*
X200492796Y-98053896D01*
X200494000Y-98078400D01*
X200494000Y-99003400D01*
X200492796Y-99027904D01*
X200489196Y-99052173D01*
X200483235Y-99075971D01*
X200474970Y-99099071D01*
X200464480Y-99121249D01*
X200451867Y-99142293D01*
X200437253Y-99161998D01*
X200420777Y-99180177D01*
X200402598Y-99196653D01*
X200382893Y-99211267D01*
X200361849Y-99223880D01*
X200339671Y-99234370D01*
X200316571Y-99242635D01*
X200292773Y-99248596D01*
X200268504Y-99252196D01*
X200244000Y-99253400D01*
X198994000Y-99253400D01*
X198969496Y-99252196D01*
X198945227Y-99248596D01*
X198921429Y-99242635D01*
X198898329Y-99234370D01*
X198876151Y-99223880D01*
X198855107Y-99211267D01*
X198835402Y-99196653D01*
X198817223Y-99180177D01*
X198800747Y-99161998D01*
X198786133Y-99142293D01*
X198773520Y-99121249D01*
X198763030Y-99099071D01*
X198754765Y-99075971D01*
X198748804Y-99052173D01*
X198745204Y-99027904D01*
X198744000Y-99003400D01*
X198744000Y-98078400D01*
X198745204Y-98053896D01*
X198748804Y-98029627D01*
X198754765Y-98005829D01*
X198763030Y-97982729D01*
X198773520Y-97960551D01*
X198786133Y-97939507D01*
X198800747Y-97919802D01*
X198817223Y-97901623D01*
X198835402Y-97885147D01*
X198855107Y-97870533D01*
X198876151Y-97857920D01*
X198898329Y-97847430D01*
X198921429Y-97839165D01*
X198945227Y-97833204D01*
X198969496Y-97829604D01*
X198994000Y-97828400D01*
X200244000Y-97828400D01*
X200268504Y-97829604D01*
X200268504Y-97829604D01*
G37*
D11*
%TD*%
%TO.P,C6,1*%
%TO.N,GND*%
X199619000Y-98540900D03*
D10*
%TO.N,GND*%
%TO.C,R2*%
G36*
X204728505Y-91873204D02*
G01*
X204752773Y-91876804D01*
X204776572Y-91882765D01*
X204799671Y-91891030D01*
X204821850Y-91901520D01*
X204842893Y-91914132D01*
X204862599Y-91928747D01*
X204880777Y-91945223D01*
X204897253Y-91963401D01*
X204911868Y-91983107D01*
X204924480Y-92004150D01*
X204934970Y-92026329D01*
X204943235Y-92049428D01*
X204949196Y-92073227D01*
X204952796Y-92097495D01*
X204954000Y-92121999D01*
X204954000Y-92772001D01*
X204952796Y-92796505D01*
X204949196Y-92820773D01*
X204943235Y-92844572D01*
X204934970Y-92867671D01*
X204924480Y-92889850D01*
X204911868Y-92910893D01*
X204897253Y-92930599D01*
X204880777Y-92948777D01*
X204862599Y-92965253D01*
X204842893Y-92979868D01*
X204821850Y-92992480D01*
X204799671Y-93002970D01*
X204776572Y-93011235D01*
X204752773Y-93017196D01*
X204728505Y-93020796D01*
X204704001Y-93022000D01*
X203803999Y-93022000D01*
X203779495Y-93020796D01*
X203755227Y-93017196D01*
X203731428Y-93011235D01*
X203708329Y-93002970D01*
X203686150Y-92992480D01*
X203665107Y-92979868D01*
X203645401Y-92965253D01*
X203627223Y-92948777D01*
X203610747Y-92930599D01*
X203596132Y-92910893D01*
X203583520Y-92889850D01*
X203573030Y-92867671D01*
X203564765Y-92844572D01*
X203558804Y-92820773D01*
X203555204Y-92796505D01*
X203554000Y-92772001D01*
X203554000Y-92121999D01*
X203555204Y-92097495D01*
X203558804Y-92073227D01*
X203564765Y-92049428D01*
X203573030Y-92026329D01*
X203583520Y-92004150D01*
X203596132Y-91983107D01*
X203610747Y-91963401D01*
X203627223Y-91945223D01*
X203645401Y-91928747D01*
X203665107Y-91914132D01*
X203686150Y-91901520D01*
X203708329Y-91891030D01*
X203731428Y-91882765D01*
X203755227Y-91876804D01*
X203779495Y-91873204D01*
X203803999Y-91872000D01*
X204704001Y-91872000D01*
X204728505Y-91873204D01*
X204728505Y-91873204D01*
G37*
D21*
%TD*%
%TO.P,R2,2*%
%TO.N,GND*%
X204254000Y-92447000D03*
D10*
%TO.N,NRST*%
%TO.C,R2*%
G36*
X204728505Y-93923204D02*
G01*
X204752773Y-93926804D01*
X204776572Y-93932765D01*
X204799671Y-93941030D01*
X204821850Y-93951520D01*
X204842893Y-93964132D01*
X204862599Y-93978747D01*
X204880777Y-93995223D01*
X204897253Y-94013401D01*
X204911868Y-94033107D01*
X204924480Y-94054150D01*
X204934970Y-94076329D01*
X204943235Y-94099428D01*
X204949196Y-94123227D01*
X204952796Y-94147495D01*
X204954000Y-94171999D01*
X204954000Y-94822001D01*
X204952796Y-94846505D01*
X204949196Y-94870773D01*
X204943235Y-94894572D01*
X204934970Y-94917671D01*
X204924480Y-94939850D01*
X204911868Y-94960893D01*
X204897253Y-94980599D01*
X204880777Y-94998777D01*
X204862599Y-95015253D01*
X204842893Y-95029868D01*
X204821850Y-95042480D01*
X204799671Y-95052970D01*
X204776572Y-95061235D01*
X204752773Y-95067196D01*
X204728505Y-95070796D01*
X204704001Y-95072000D01*
X203803999Y-95072000D01*
X203779495Y-95070796D01*
X203755227Y-95067196D01*
X203731428Y-95061235D01*
X203708329Y-95052970D01*
X203686150Y-95042480D01*
X203665107Y-95029868D01*
X203645401Y-95015253D01*
X203627223Y-94998777D01*
X203610747Y-94980599D01*
X203596132Y-94960893D01*
X203583520Y-94939850D01*
X203573030Y-94917671D01*
X203564765Y-94894572D01*
X203558804Y-94870773D01*
X203555204Y-94846505D01*
X203554000Y-94822001D01*
X203554000Y-94171999D01*
X203555204Y-94147495D01*
X203558804Y-94123227D01*
X203564765Y-94099428D01*
X203573030Y-94076329D01*
X203583520Y-94054150D01*
X203596132Y-94033107D01*
X203610747Y-94013401D01*
X203627223Y-93995223D01*
X203645401Y-93978747D01*
X203665107Y-93964132D01*
X203686150Y-93951520D01*
X203708329Y-93941030D01*
X203731428Y-93932765D01*
X203755227Y-93926804D01*
X203779495Y-93923204D01*
X203803999Y-93922000D01*
X204704001Y-93922000D01*
X204728505Y-93923204D01*
X204728505Y-93923204D01*
G37*
D21*
%TD*%
%TO.P,R2,1*%
%TO.N,NRST*%
X204254000Y-94497000D03*
D18*
%TO.P,J4,1*%
%TO.N,GND*%
X201930000Y-111125000D03*
D19*
%TO.P,J4,2*%
%TO.N,16V_DRV*%
X204470000Y-111125000D03*
%TO.P,J4,3*%
%TO.N,TEMP_2*%
X207010000Y-111125000D03*
%TO.P,J4,4*%
%TO.N,POWER*%
X209550000Y-111125000D03*
%TO.P,J4,5*%
%TO.N,COOLER_CH0*%
X212090000Y-111125000D03*
%TO.P,J4,6*%
%TO.N,COOLER_CH1*%
X214630000Y-111125000D03*
%TO.P,J4,7*%
%TO.N,COOLER_CH2*%
X217170000Y-111125000D03*
%TO.P,J4,8*%
%TO.N,SHUTDOWN*%
X219710000Y-111125000D03*
%TD*%
D22*
%TO.P,H1,1*%
%TO.N,N/C*%
X193167000Y-86868000D03*
%TD*%
%TO.P,H2,1*%
%TO.N,N/C*%
X228473000Y-111633000D03*
%TD*%
D23*
%TO.P,D9,1*%
%TO.N,COOLER_CH2*%
X228435000Y-105484000D03*
%TO.P,D9,2*%
%TO.N,Net-(D9-Pad2)*%
X228435000Y-101984000D03*
%TD*%
%TO.P,D10,2*%
%TO.N,Net-(D10-Pad2)*%
X224854000Y-101986000D03*
%TO.P,D10,1*%
%TO.N,COOLER_CH1*%
X224854000Y-105486000D03*
%TD*%
D24*
%TO.P,Power1,3*%
%TO.N,GND*%
X223215000Y-89103200D03*
%TO.P,Power1,2*%
%TO.N,Sense1*%
X225755000Y-89103200D03*
%TO.P,Power1,1*%
%TO.N,+3V3*%
X228295000Y-89103200D03*
%TD*%
D25*
%TO.P,Q3,1*%
%TO.N,Net-(Q3-Pad1)*%
X222856000Y-95468400D03*
%TO.P,Q3,2*%
%TO.N,GND*%
X222856000Y-97368400D03*
%TO.P,Q3,3*%
%TO.N,Net-(D11-Pad2)*%
X220856000Y-96418400D03*
%TD*%
D10*
%TO.N,Net-(Q3-Pad1)*%
%TO.C,R16*%
G36*
X229392505Y-94921204D02*
G01*
X229416773Y-94924804D01*
X229440572Y-94930765D01*
X229463671Y-94939030D01*
X229485850Y-94949520D01*
X229506893Y-94962132D01*
X229526599Y-94976747D01*
X229544777Y-94993223D01*
X229561253Y-95011401D01*
X229575868Y-95031107D01*
X229588480Y-95052150D01*
X229598970Y-95074329D01*
X229607235Y-95097428D01*
X229613196Y-95121227D01*
X229616796Y-95145495D01*
X229618000Y-95169999D01*
X229618000Y-95820001D01*
X229616796Y-95844505D01*
X229613196Y-95868773D01*
X229607235Y-95892572D01*
X229598970Y-95915671D01*
X229588480Y-95937850D01*
X229575868Y-95958893D01*
X229561253Y-95978599D01*
X229544777Y-95996777D01*
X229526599Y-96013253D01*
X229506893Y-96027868D01*
X229485850Y-96040480D01*
X229463671Y-96050970D01*
X229440572Y-96059235D01*
X229416773Y-96065196D01*
X229392505Y-96068796D01*
X229368001Y-96070000D01*
X228467999Y-96070000D01*
X228443495Y-96068796D01*
X228419227Y-96065196D01*
X228395428Y-96059235D01*
X228372329Y-96050970D01*
X228350150Y-96040480D01*
X228329107Y-96027868D01*
X228309401Y-96013253D01*
X228291223Y-95996777D01*
X228274747Y-95978599D01*
X228260132Y-95958893D01*
X228247520Y-95937850D01*
X228237030Y-95915671D01*
X228228765Y-95892572D01*
X228222804Y-95868773D01*
X228219204Y-95844505D01*
X228218000Y-95820001D01*
X228218000Y-95169999D01*
X228219204Y-95145495D01*
X228222804Y-95121227D01*
X228228765Y-95097428D01*
X228237030Y-95074329D01*
X228247520Y-95052150D01*
X228260132Y-95031107D01*
X228274747Y-95011401D01*
X228291223Y-94993223D01*
X228309401Y-94976747D01*
X228329107Y-94962132D01*
X228350150Y-94949520D01*
X228372329Y-94939030D01*
X228395428Y-94930765D01*
X228419227Y-94924804D01*
X228443495Y-94921204D01*
X228467999Y-94920000D01*
X229368001Y-94920000D01*
X229392505Y-94921204D01*
X229392505Y-94921204D01*
G37*
D21*
%TD*%
%TO.P,R16,1*%
%TO.N,Net-(Q3-Pad1)*%
X228918000Y-95495000D03*
D10*
%TO.N,CMD_COOLER0*%
%TO.C,R16*%
G36*
X229392505Y-96971204D02*
G01*
X229416773Y-96974804D01*
X229440572Y-96980765D01*
X229463671Y-96989030D01*
X229485850Y-96999520D01*
X229506893Y-97012132D01*
X229526599Y-97026747D01*
X229544777Y-97043223D01*
X229561253Y-97061401D01*
X229575868Y-97081107D01*
X229588480Y-97102150D01*
X229598970Y-97124329D01*
X229607235Y-97147428D01*
X229613196Y-97171227D01*
X229616796Y-97195495D01*
X229618000Y-97219999D01*
X229618000Y-97870001D01*
X229616796Y-97894505D01*
X229613196Y-97918773D01*
X229607235Y-97942572D01*
X229598970Y-97965671D01*
X229588480Y-97987850D01*
X229575868Y-98008893D01*
X229561253Y-98028599D01*
X229544777Y-98046777D01*
X229526599Y-98063253D01*
X229506893Y-98077868D01*
X229485850Y-98090480D01*
X229463671Y-98100970D01*
X229440572Y-98109235D01*
X229416773Y-98115196D01*
X229392505Y-98118796D01*
X229368001Y-98120000D01*
X228467999Y-98120000D01*
X228443495Y-98118796D01*
X228419227Y-98115196D01*
X228395428Y-98109235D01*
X228372329Y-98100970D01*
X228350150Y-98090480D01*
X228329107Y-98077868D01*
X228309401Y-98063253D01*
X228291223Y-98046777D01*
X228274747Y-98028599D01*
X228260132Y-98008893D01*
X228247520Y-97987850D01*
X228237030Y-97965671D01*
X228228765Y-97942572D01*
X228222804Y-97918773D01*
X228219204Y-97894505D01*
X228218000Y-97870001D01*
X228218000Y-97219999D01*
X228219204Y-97195495D01*
X228222804Y-97171227D01*
X228228765Y-97147428D01*
X228237030Y-97124329D01*
X228247520Y-97102150D01*
X228260132Y-97081107D01*
X228274747Y-97061401D01*
X228291223Y-97043223D01*
X228309401Y-97026747D01*
X228329107Y-97012132D01*
X228350150Y-96999520D01*
X228372329Y-96989030D01*
X228395428Y-96980765D01*
X228419227Y-96974804D01*
X228443495Y-96971204D01*
X228467999Y-96970000D01*
X229368001Y-96970000D01*
X229392505Y-96971204D01*
X229392505Y-96971204D01*
G37*
D21*
%TD*%
%TO.P,R16,2*%
%TO.N,CMD_COOLER0*%
X228918000Y-97545000D03*
D10*
%TO.N,Net-(Q3-Pad1)*%
%TO.C,R17*%
G36*
X226242505Y-94921204D02*
G01*
X226266773Y-94924804D01*
X226290572Y-94930765D01*
X226313671Y-94939030D01*
X226335850Y-94949520D01*
X226356893Y-94962132D01*
X226376599Y-94976747D01*
X226394777Y-94993223D01*
X226411253Y-95011401D01*
X226425868Y-95031107D01*
X226438480Y-95052150D01*
X226448970Y-95074329D01*
X226457235Y-95097428D01*
X226463196Y-95121227D01*
X226466796Y-95145495D01*
X226468000Y-95169999D01*
X226468000Y-95820001D01*
X226466796Y-95844505D01*
X226463196Y-95868773D01*
X226457235Y-95892572D01*
X226448970Y-95915671D01*
X226438480Y-95937850D01*
X226425868Y-95958893D01*
X226411253Y-95978599D01*
X226394777Y-95996777D01*
X226376599Y-96013253D01*
X226356893Y-96027868D01*
X226335850Y-96040480D01*
X226313671Y-96050970D01*
X226290572Y-96059235D01*
X226266773Y-96065196D01*
X226242505Y-96068796D01*
X226218001Y-96070000D01*
X225317999Y-96070000D01*
X225293495Y-96068796D01*
X225269227Y-96065196D01*
X225245428Y-96059235D01*
X225222329Y-96050970D01*
X225200150Y-96040480D01*
X225179107Y-96027868D01*
X225159401Y-96013253D01*
X225141223Y-95996777D01*
X225124747Y-95978599D01*
X225110132Y-95958893D01*
X225097520Y-95937850D01*
X225087030Y-95915671D01*
X225078765Y-95892572D01*
X225072804Y-95868773D01*
X225069204Y-95844505D01*
X225068000Y-95820001D01*
X225068000Y-95169999D01*
X225069204Y-95145495D01*
X225072804Y-95121227D01*
X225078765Y-95097428D01*
X225087030Y-95074329D01*
X225097520Y-95052150D01*
X225110132Y-95031107D01*
X225124747Y-95011401D01*
X225141223Y-94993223D01*
X225159401Y-94976747D01*
X225179107Y-94962132D01*
X225200150Y-94949520D01*
X225222329Y-94939030D01*
X225245428Y-94930765D01*
X225269227Y-94924804D01*
X225293495Y-94921204D01*
X225317999Y-94920000D01*
X226218001Y-94920000D01*
X226242505Y-94921204D01*
X226242505Y-94921204D01*
G37*
D21*
%TD*%
%TO.P,R17,2*%
%TO.N,Net-(Q3-Pad1)*%
X225768000Y-95495000D03*
D10*
%TO.N,GND*%
%TO.C,R17*%
G36*
X226242505Y-96971204D02*
G01*
X226266773Y-96974804D01*
X226290572Y-96980765D01*
X226313671Y-96989030D01*
X226335850Y-96999520D01*
X226356893Y-97012132D01*
X226376599Y-97026747D01*
X226394777Y-97043223D01*
X226411253Y-97061401D01*
X226425868Y-97081107D01*
X226438480Y-97102150D01*
X226448970Y-97124329D01*
X226457235Y-97147428D01*
X226463196Y-97171227D01*
X226466796Y-97195495D01*
X226468000Y-97219999D01*
X226468000Y-97870001D01*
X226466796Y-97894505D01*
X226463196Y-97918773D01*
X226457235Y-97942572D01*
X226448970Y-97965671D01*
X226438480Y-97987850D01*
X226425868Y-98008893D01*
X226411253Y-98028599D01*
X226394777Y-98046777D01*
X226376599Y-98063253D01*
X226356893Y-98077868D01*
X226335850Y-98090480D01*
X226313671Y-98100970D01*
X226290572Y-98109235D01*
X226266773Y-98115196D01*
X226242505Y-98118796D01*
X226218001Y-98120000D01*
X225317999Y-98120000D01*
X225293495Y-98118796D01*
X225269227Y-98115196D01*
X225245428Y-98109235D01*
X225222329Y-98100970D01*
X225200150Y-98090480D01*
X225179107Y-98077868D01*
X225159401Y-98063253D01*
X225141223Y-98046777D01*
X225124747Y-98028599D01*
X225110132Y-98008893D01*
X225097520Y-97987850D01*
X225087030Y-97965671D01*
X225078765Y-97942572D01*
X225072804Y-97918773D01*
X225069204Y-97894505D01*
X225068000Y-97870001D01*
X225068000Y-97219999D01*
X225069204Y-97195495D01*
X225072804Y-97171227D01*
X225078765Y-97147428D01*
X225087030Y-97124329D01*
X225097520Y-97102150D01*
X225110132Y-97081107D01*
X225124747Y-97061401D01*
X225141223Y-97043223D01*
X225159401Y-97026747D01*
X225179107Y-97012132D01*
X225200150Y-96999520D01*
X225222329Y-96989030D01*
X225245428Y-96980765D01*
X225269227Y-96974804D01*
X225293495Y-96971204D01*
X225317999Y-96970000D01*
X226218001Y-96970000D01*
X226242505Y-96971204D01*
X226242505Y-96971204D01*
G37*
D21*
%TD*%
%TO.P,R17,1*%
%TO.N,GND*%
X225768000Y-97545000D03*
D10*
%TO.N,Net-(D11-Pad2)*%
%TO.C,R18*%
G36*
X218317505Y-96895004D02*
G01*
X218341773Y-96898604D01*
X218365572Y-96904565D01*
X218388671Y-96912830D01*
X218410850Y-96923320D01*
X218431893Y-96935932D01*
X218451599Y-96950547D01*
X218469777Y-96967023D01*
X218486253Y-96985201D01*
X218500868Y-97004907D01*
X218513480Y-97025950D01*
X218523970Y-97048129D01*
X218532235Y-97071228D01*
X218538196Y-97095027D01*
X218541796Y-97119295D01*
X218543000Y-97143799D01*
X218543000Y-97793801D01*
X218541796Y-97818305D01*
X218538196Y-97842573D01*
X218532235Y-97866372D01*
X218523970Y-97889471D01*
X218513480Y-97911650D01*
X218500868Y-97932693D01*
X218486253Y-97952399D01*
X218469777Y-97970577D01*
X218451599Y-97987053D01*
X218431893Y-98001668D01*
X218410850Y-98014280D01*
X218388671Y-98024770D01*
X218365572Y-98033035D01*
X218341773Y-98038996D01*
X218317505Y-98042596D01*
X218293001Y-98043800D01*
X217392999Y-98043800D01*
X217368495Y-98042596D01*
X217344227Y-98038996D01*
X217320428Y-98033035D01*
X217297329Y-98024770D01*
X217275150Y-98014280D01*
X217254107Y-98001668D01*
X217234401Y-97987053D01*
X217216223Y-97970577D01*
X217199747Y-97952399D01*
X217185132Y-97932693D01*
X217172520Y-97911650D01*
X217162030Y-97889471D01*
X217153765Y-97866372D01*
X217147804Y-97842573D01*
X217144204Y-97818305D01*
X217143000Y-97793801D01*
X217143000Y-97143799D01*
X217144204Y-97119295D01*
X217147804Y-97095027D01*
X217153765Y-97071228D01*
X217162030Y-97048129D01*
X217172520Y-97025950D01*
X217185132Y-97004907D01*
X217199747Y-96985201D01*
X217216223Y-96967023D01*
X217234401Y-96950547D01*
X217254107Y-96935932D01*
X217275150Y-96923320D01*
X217297329Y-96912830D01*
X217320428Y-96904565D01*
X217344227Y-96898604D01*
X217368495Y-96895004D01*
X217392999Y-96893800D01*
X218293001Y-96893800D01*
X218317505Y-96895004D01*
X218317505Y-96895004D01*
G37*
D21*
%TD*%
%TO.P,R18,1*%
%TO.N,Net-(D11-Pad2)*%
X217843000Y-97468800D03*
D10*
%TO.N,16V_DRV*%
%TO.C,R18*%
G36*
X218317505Y-94845004D02*
G01*
X218341773Y-94848604D01*
X218365572Y-94854565D01*
X218388671Y-94862830D01*
X218410850Y-94873320D01*
X218431893Y-94885932D01*
X218451599Y-94900547D01*
X218469777Y-94917023D01*
X218486253Y-94935201D01*
X218500868Y-94954907D01*
X218513480Y-94975950D01*
X218523970Y-94998129D01*
X218532235Y-95021228D01*
X218538196Y-95045027D01*
X218541796Y-95069295D01*
X218543000Y-95093799D01*
X218543000Y-95743801D01*
X218541796Y-95768305D01*
X218538196Y-95792573D01*
X218532235Y-95816372D01*
X218523970Y-95839471D01*
X218513480Y-95861650D01*
X218500868Y-95882693D01*
X218486253Y-95902399D01*
X218469777Y-95920577D01*
X218451599Y-95937053D01*
X218431893Y-95951668D01*
X218410850Y-95964280D01*
X218388671Y-95974770D01*
X218365572Y-95983035D01*
X218341773Y-95988996D01*
X218317505Y-95992596D01*
X218293001Y-95993800D01*
X217392999Y-95993800D01*
X217368495Y-95992596D01*
X217344227Y-95988996D01*
X217320428Y-95983035D01*
X217297329Y-95974770D01*
X217275150Y-95964280D01*
X217254107Y-95951668D01*
X217234401Y-95937053D01*
X217216223Y-95920577D01*
X217199747Y-95902399D01*
X217185132Y-95882693D01*
X217172520Y-95861650D01*
X217162030Y-95839471D01*
X217153765Y-95816372D01*
X217147804Y-95792573D01*
X217144204Y-95768305D01*
X217143000Y-95743801D01*
X217143000Y-95093799D01*
X217144204Y-95069295D01*
X217147804Y-95045027D01*
X217153765Y-95021228D01*
X217162030Y-94998129D01*
X217172520Y-94975950D01*
X217185132Y-94954907D01*
X217199747Y-94935201D01*
X217216223Y-94917023D01*
X217234401Y-94900547D01*
X217254107Y-94885932D01*
X217275150Y-94873320D01*
X217297329Y-94862830D01*
X217320428Y-94854565D01*
X217344227Y-94848604D01*
X217368495Y-94845004D01*
X217392999Y-94843800D01*
X218293001Y-94843800D01*
X218317505Y-94845004D01*
X218317505Y-94845004D01*
G37*
D21*
%TD*%
%TO.P,R18,2*%
%TO.N,16V_DRV*%
X217843000Y-95418800D03*
D24*
%TO.P,Temp1,1*%
%TO.N,+3V3*%
X217881000Y-89103200D03*
%TO.P,Temp1,2*%
%TO.N,Sense2*%
X215341000Y-89103200D03*
%TO.P,Temp1,3*%
%TO.N,GND*%
X212801000Y-89103200D03*
%TD*%
D23*
%TO.P,D11,1*%
%TO.N,COOLER_CH0*%
X221234000Y-105544000D03*
%TO.P,D11,2*%
%TO.N,Net-(D11-Pad2)*%
X221234000Y-102044000D03*
%TD*%
D26*
%TO.P,D12,1*%
%TO.N,CMD_COOLER0*%
X229080000Y-92329000D03*
%TO.P,D12,2*%
%TO.N,GND*%
X225580000Y-92329000D03*
%TD*%
D27*
%TO.N,SHUTDOWN*%
X205791000Y-98735600D03*
%TO.N,16V_DRV*%
X219252600Y-92827900D03*
%TO.N,GND*%
X209903500Y-97248200D03*
%TO.N,SWIM*%
X203321000Y-97248100D03*
%TO.N,Net-(C5-Pad2)*%
X208491000Y-103167200D03*
%TO.N,Net-(C7-Pad2)*%
X209465200Y-106076400D03*
%TO.N,Net-(C8-Pad2)*%
X209600800Y-101640800D03*
%TO.N,CMD_COOLER2*%
X211315900Y-108564600D03*
%TO.N,CMD_COOLER1*%
X210480000Y-107600600D03*
%TO.N,LED_TEMP*%
X210820000Y-110320600D03*
%TO.N,LED_POWER*%
X202329700Y-92294300D03*
X200729000Y-92692000D03*
X197069300Y-93189900D03*
%TO.N,Net-(D9-Pad2)*%
X224406500Y-100332700D03*
%TO.N,Net-(D10-Pad2)*%
X222421600Y-103903800D03*
%TD*%
D28*
%TO.N,COOLER_CH1*%
X224854000Y-105486000D02*
X224854000Y-106536300D01*
X214630000Y-111125000D02*
X215880300Y-111125000D01*
X215880300Y-111125000D02*
X215880300Y-110578000D01*
X215880300Y-110578000D02*
X218524000Y-107934300D01*
X218524000Y-107934300D02*
X223456000Y-107934300D01*
X223456000Y-107934300D02*
X224854000Y-106536300D01*
%TO.N,SHUTDOWN*%
X205791000Y-98735600D02*
X205791000Y-106744100D01*
X205791000Y-106744100D02*
X208280100Y-109233200D01*
X208280100Y-109233200D02*
X208280100Y-111675700D01*
X208280100Y-111675700D02*
X209001700Y-112397300D01*
X209001700Y-112397300D02*
X218437700Y-112397300D01*
X218437700Y-112397300D02*
X219710000Y-111125000D01*
%TO.N,16V_DRV*%
X219252600Y-92827900D02*
X217843000Y-94237500D01*
X217843000Y-94237500D02*
X217843000Y-95418800D01*
X204470000Y-113186200D02*
X221783100Y-113186200D01*
X221783100Y-113186200D02*
X226313700Y-108655600D01*
X226313700Y-108655600D02*
X227337500Y-108655600D01*
X227337500Y-108655600D02*
X230678000Y-105315100D01*
X230678000Y-105315100D02*
X230678000Y-91851800D01*
X230678000Y-91851800D02*
X229689600Y-90863400D01*
X229689600Y-90863400D02*
X225857800Y-90863400D01*
X225857800Y-90863400D02*
X224485000Y-89490600D01*
X224485000Y-89490600D02*
X224485000Y-88703200D01*
X224485000Y-88703200D02*
X223732600Y-87950800D01*
X223732600Y-87950800D02*
X222695000Y-87950800D01*
X222695000Y-87950800D02*
X219252600Y-91393200D01*
X219252600Y-91393200D02*
X219252600Y-92827900D01*
D29*
X204470000Y-113186200D02*
X204470000Y-113675000D01*
X204470000Y-113675000D02*
X197256000Y-113675000D01*
X197256000Y-113675000D02*
X197222000Y-113641000D01*
X197222000Y-113641000D02*
X197222000Y-110744000D01*
X204470000Y-111125000D02*
X204470000Y-113186200D01*
D28*
%TO.N,GND*%
X224529700Y-92329000D02*
X222005600Y-94853100D01*
X222005600Y-94853100D02*
X222005600Y-96117900D01*
X222005600Y-96117900D02*
X222455800Y-96568100D01*
X222455800Y-96568100D02*
X222856000Y-96568100D01*
X223215000Y-89103200D02*
X223215000Y-91014300D01*
X223215000Y-91014300D02*
X224529700Y-92329000D01*
X222856000Y-97368400D02*
X222856000Y-96568100D01*
X225580000Y-92329000D02*
X224529700Y-92329000D01*
X199593500Y-102703500D02*
X199593000Y-102703500D01*
X199593000Y-102703500D02*
X199568000Y-102728500D01*
D29*
X199593500Y-102703500D02*
X199568000Y-102729000D01*
X199619000Y-100661000D02*
X199619000Y-102678000D01*
X199619000Y-102678000D02*
X199593500Y-102703500D01*
D28*
X222856000Y-97368400D02*
X223706300Y-97368400D01*
X225768000Y-97545000D02*
X223882900Y-97545000D01*
X223882900Y-97545000D02*
X223706300Y-97368400D01*
X213491000Y-98603000D02*
X212841000Y-98603000D01*
X211541000Y-99165600D02*
X211541000Y-99490600D01*
X211541000Y-99490600D02*
X211778700Y-99728300D01*
X211778700Y-99728300D02*
X212841000Y-99728300D01*
X211541000Y-99165600D02*
X210891000Y-99165600D01*
X212841000Y-98603000D02*
X212841000Y-99728300D01*
X210241000Y-98603000D02*
X210241000Y-97477700D01*
X209903500Y-97248200D02*
X210133000Y-97477700D01*
X210133000Y-97477700D02*
X210241000Y-97477700D01*
X211541000Y-98603000D02*
X211541000Y-99165600D01*
X210891000Y-99165600D02*
X210803600Y-99165600D01*
X210803600Y-99165600D02*
X210241000Y-98603000D01*
X210891000Y-98603000D02*
X210891000Y-99165600D01*
X193138000Y-97019500D02*
X193138500Y-97019000D01*
X193138500Y-97019000D02*
X193138500Y-95580200D01*
D29*
X193138000Y-97019500D02*
X193138000Y-95580200D01*
X193260500Y-100630500D02*
X193332000Y-100559000D01*
X193332000Y-100559000D02*
X193138000Y-100365000D01*
X193138000Y-100365000D02*
X193138000Y-97019500D01*
D28*
X193189500Y-105689000D02*
X193189000Y-105689000D01*
X202438000Y-86233000D02*
X202438000Y-87483300D01*
X204254000Y-92447000D02*
X204254000Y-89299300D01*
X204254000Y-89299300D02*
X202438000Y-87483300D01*
D29*
X201930000Y-111125000D02*
X201930000Y-100686000D01*
X201930000Y-100686000D02*
X199644000Y-100686000D01*
X199644000Y-100686000D02*
X199619000Y-100661000D01*
D28*
X193260500Y-100630500D02*
X193261000Y-100630500D01*
X193261000Y-100630500D02*
X193332500Y-100559000D01*
D29*
X193189000Y-105689000D02*
X193189000Y-100702000D01*
X193189000Y-100702000D02*
X193260500Y-100630500D01*
X193332500Y-100559000D02*
X194742200Y-100559000D01*
X191999000Y-100559000D02*
X193332500Y-100559000D01*
X194742200Y-100559000D02*
X195999500Y-100559000D01*
X195999500Y-100559000D02*
X199517000Y-100559000D01*
X199619000Y-100661000D02*
X199517000Y-100559000D01*
X199619000Y-100660000D02*
X199619000Y-100661000D01*
X199619000Y-98540900D02*
X199619000Y-100660000D01*
X199517000Y-100559000D02*
X199619000Y-100660000D01*
%TO.N,+3V3*%
X196129500Y-99042500D02*
X196146000Y-99058600D01*
X196113000Y-95580200D02*
X196113000Y-99026400D01*
X196113000Y-99026400D02*
X196129500Y-99042500D01*
D28*
X196129500Y-99042500D02*
X196146000Y-99059000D01*
X212191000Y-98602800D02*
X212191000Y-98603000D01*
X212191000Y-98602800D02*
X212191000Y-97477800D01*
X212191000Y-97477800D02*
X212192000Y-97477200D01*
X212192000Y-97477200D02*
X212192000Y-96418400D01*
X212192000Y-96418400D02*
X200471000Y-96418400D01*
X200471000Y-96418400D02*
X199619000Y-95565900D01*
D29*
X196113000Y-95580200D02*
X196113500Y-95580200D01*
D28*
X217881000Y-84626000D02*
X218230000Y-84626000D01*
X209086000Y-84626000D02*
X217881000Y-84626000D01*
X207525000Y-84626000D02*
X209086000Y-84626000D01*
X207607000Y-91527300D02*
X207607000Y-86321900D01*
X207607000Y-86321900D02*
X207518000Y-86233000D01*
X207525000Y-84626000D02*
X209086000Y-84626000D01*
X196113000Y-95580200D02*
X196113000Y-94605200D01*
X196113000Y-94605200D02*
X196088000Y-94579800D01*
X196088000Y-94579800D02*
X196088000Y-84626000D01*
X196088000Y-84626000D02*
X207525000Y-84626000D01*
X217881000Y-84626000D02*
X218230000Y-84626000D01*
X207518000Y-86233000D02*
X207518000Y-84632800D01*
X207518000Y-84632800D02*
X207525000Y-84626000D01*
X218230000Y-84626000D02*
X228295000Y-84626000D01*
X228295000Y-84626000D02*
X228295000Y-89103200D01*
X217881000Y-89103200D02*
X217881000Y-84626000D01*
D29*
X196113500Y-95580200D02*
X199604000Y-95580200D01*
X199604000Y-95580200D02*
X199619000Y-95565900D01*
%TO.N,Net-(C2-Pad2)*%
X199561000Y-105696500D02*
X199568000Y-105704000D01*
X196164500Y-105689000D02*
X199554000Y-105689000D01*
X199554000Y-105689000D02*
X199561000Y-105696500D01*
D28*
X199561000Y-105696500D02*
X199568000Y-105703500D01*
D29*
X196164000Y-105689000D02*
X196164500Y-105689000D01*
X196164000Y-105689000D02*
X196164000Y-106664000D01*
X196164000Y-106664000D02*
X196139000Y-106690000D01*
X196139000Y-106690000D02*
X196139000Y-108153000D01*
X196139000Y-108153000D02*
X193243000Y-108153000D01*
X193243000Y-108153000D02*
X192922000Y-108474000D01*
X192922000Y-108474000D02*
X192922000Y-110744000D01*
X196146000Y-102059000D02*
X196146000Y-105671000D01*
X196146000Y-105671000D02*
X196164000Y-105689000D01*
D28*
%TO.N,SWIM*%
X208941000Y-97477700D02*
X203550600Y-97477700D01*
X203550600Y-97477700D02*
X203321000Y-97248100D01*
X208941000Y-98603000D02*
X208941000Y-97477700D01*
%TO.N,NRST*%
X199898000Y-86233000D02*
X199898000Y-87483300D01*
X207607000Y-94502300D02*
X211174700Y-94502300D01*
X211174700Y-94502300D02*
X214126300Y-97453900D01*
X214126300Y-97453900D02*
X214126300Y-99533600D01*
X214126300Y-99533600D02*
X213323700Y-100336200D01*
X213323700Y-100336200D02*
X210198900Y-100336200D01*
X210198900Y-100336200D02*
X209591000Y-99728300D01*
X199898000Y-87483300D02*
X201529400Y-89114700D01*
X201529400Y-89114700D02*
X201529400Y-92625700D01*
X201529400Y-92625700D02*
X203400700Y-94497000D01*
X203400700Y-94497000D02*
X204254000Y-94497000D01*
X204254000Y-94497000D02*
X207602000Y-94497000D01*
X207602000Y-94497000D02*
X207607000Y-94502300D01*
X209591000Y-98603000D02*
X209591000Y-99728300D01*
%TO.N,Net-(C5-Pad2)*%
X210241000Y-103377700D02*
X208701500Y-103377700D01*
X208701500Y-103377700D02*
X208491000Y-103167200D01*
X210241000Y-104503000D02*
X210241000Y-103377700D01*
%TO.N,Net-(C7-Pad2)*%
X209591000Y-104503000D02*
X209591000Y-105950600D01*
X209591000Y-105950600D02*
X209465200Y-106076400D01*
%TO.N,Net-(C8-Pad2)*%
X207641000Y-103377700D02*
X207641000Y-102885200D01*
X207641000Y-102885200D02*
X208885400Y-101640800D01*
X208885400Y-101640800D02*
X209600800Y-101640800D01*
X207641000Y-104503000D02*
X207641000Y-103377700D01*
%TO.N,CMD_COOLER2*%
X208291000Y-98603000D02*
X208291000Y-100982000D01*
X208291000Y-100982000D02*
X207015700Y-102257300D01*
X207015700Y-102257300D02*
X207015700Y-105456600D01*
X207015700Y-105456600D02*
X208435900Y-106876800D01*
X208435900Y-106876800D02*
X210071900Y-106876800D01*
X210071900Y-106876800D02*
X210153300Y-106795400D01*
X210153300Y-106795400D02*
X210829100Y-106795400D01*
X210829100Y-106795400D02*
X211315900Y-107282200D01*
X211315900Y-107282200D02*
X211315900Y-108564600D01*
%TO.N,CMD_COOLER1*%
X207641000Y-99728300D02*
X206415400Y-100953900D01*
X206415400Y-100953900D02*
X206415400Y-105705200D01*
X206415400Y-105705200D02*
X208310800Y-107600600D01*
X208310800Y-107600600D02*
X210480000Y-107600600D01*
X207641000Y-98603000D02*
X207641000Y-99728300D01*
%TO.N,COOLER_CH2*%
X228435000Y-106534300D02*
X227586100Y-106534300D01*
X227586100Y-106534300D02*
X224494300Y-109626100D01*
X224494300Y-109626100D02*
X219421900Y-109626100D01*
X219421900Y-109626100D02*
X218420300Y-110627700D01*
X218420300Y-110627700D02*
X218420300Y-111125000D01*
X228435000Y-105484000D02*
X228435000Y-106534300D01*
X217170000Y-111125000D02*
X218420300Y-111125000D01*
%TO.N,LED_TEMP*%
X210820000Y-110320600D02*
X212141300Y-108999300D01*
X212141300Y-108999300D02*
X212141300Y-106327700D01*
X212141300Y-106327700D02*
X211541000Y-105727400D01*
X211541000Y-105727400D02*
X211541000Y-104503000D01*
%TO.N,LED_POWER*%
X210891000Y-104503000D02*
X210891000Y-103377700D01*
X202329700Y-92294300D02*
X203507400Y-93472000D01*
X203507400Y-93472000D02*
X205271800Y-93472000D01*
X205271800Y-93472000D02*
X205386100Y-93357700D01*
X205386100Y-93357700D02*
X210919600Y-93357700D01*
X210919600Y-93357700D02*
X214726600Y-97164700D01*
X214726600Y-97164700D02*
X214726600Y-99786800D01*
X214726600Y-99786800D02*
X211135700Y-103377700D01*
X211135700Y-103377700D02*
X210891000Y-103377700D01*
X197069300Y-93189900D02*
X197567200Y-92692000D01*
X197567200Y-92692000D02*
X200729000Y-92692000D01*
%TO.N,Net-(D9-Pad2)*%
X227184700Y-101984000D02*
X225533400Y-100332700D01*
X225533400Y-100332700D02*
X224406500Y-100332700D01*
X228435000Y-101984000D02*
X227184700Y-101984000D01*
%TO.N,Net-(D10-Pad2)*%
X224854000Y-103036300D02*
X223986500Y-103903800D01*
X223986500Y-103903800D02*
X222421600Y-103903800D01*
X224854000Y-101986000D02*
X224854000Y-103036300D01*
%TO.N,Sense1*%
X225755000Y-89103200D02*
X224002300Y-87350500D01*
X224002300Y-87350500D02*
X221772800Y-87350500D01*
X221772800Y-87350500D02*
X218818900Y-90304400D01*
X218818900Y-90304400D02*
X217493500Y-90304400D01*
X217493500Y-90304400D02*
X216741600Y-89552500D01*
X216741600Y-89552500D02*
X216741600Y-88913600D01*
X216741600Y-88913600D02*
X215769500Y-87941500D01*
X215769500Y-87941500D02*
X214859200Y-87941500D01*
X214859200Y-87941500D02*
X214152800Y-88647900D01*
X214152800Y-88647900D02*
X214152800Y-94919300D01*
X214152800Y-94919300D02*
X215326900Y-96093400D01*
X215326900Y-96093400D02*
X215326900Y-100035400D01*
X215326900Y-100035400D02*
X212191000Y-103171300D01*
X212191000Y-103171300D02*
X212191000Y-104503000D01*
%TO.N,Net-(Q3-Pad1)*%
X222856000Y-95468400D02*
X223706300Y-95468400D01*
X225768000Y-95495000D02*
X223732900Y-95495000D01*
X223732900Y-95495000D02*
X223706300Y-95468400D01*
X228918000Y-95495000D02*
X225768000Y-95495000D01*
%TO.N,Sense2*%
X212841000Y-104503000D02*
X212841000Y-103370200D01*
X212841000Y-103370200D02*
X215927200Y-100284000D01*
X215927200Y-100284000D02*
X215927200Y-89689400D01*
X215927200Y-89689400D02*
X215341000Y-89103200D01*
%TO.N,COOLER_CH0*%
X213340300Y-111125000D02*
X213340300Y-110578000D01*
X213340300Y-110578000D02*
X218374300Y-105544000D01*
X218374300Y-105544000D02*
X219983700Y-105544000D01*
X221234000Y-105544000D02*
X219983700Y-105544000D01*
X212090000Y-111125000D02*
X213340300Y-111125000D01*
%TO.N,CMD_COOLER0*%
X228918000Y-97545000D02*
X226973100Y-99489900D01*
X226973100Y-99489900D02*
X224054600Y-99489900D01*
X224054600Y-99489900D02*
X222873700Y-100670800D01*
X222873700Y-100670800D02*
X222873700Y-102535200D01*
X222873700Y-102535200D02*
X222305400Y-103103500D01*
X222305400Y-103103500D02*
X214890500Y-103103500D01*
X214890500Y-103103500D02*
X213491000Y-104503000D01*
X229080000Y-92329000D02*
X229080000Y-93579300D01*
X229080000Y-93579300D02*
X230048500Y-94547800D01*
X230048500Y-94547800D02*
X230048500Y-96414500D01*
X230048500Y-96414500D02*
X228918000Y-97545000D01*
%TO.N,Net-(D11-Pad2)*%
X220754100Y-97468800D02*
X220754100Y-97320600D01*
X220754100Y-97320600D02*
X220856000Y-97218700D01*
X221234000Y-100993700D02*
X220754100Y-100513800D01*
X220754100Y-100513800D02*
X220754100Y-97468800D01*
X217843000Y-97468800D02*
X220754100Y-97468800D01*
X220856000Y-96418400D02*
X220856000Y-97218700D01*
X221234000Y-102044000D02*
X221234000Y-100993700D01*
%TD*%
D30*
%TO.N,GND*%
G36*
X195507000Y-94340747D02*
G01*
X195408821Y-94370529D01*
X195299411Y-94429010D01*
X195203512Y-94507712D01*
X195124810Y-94603611D01*
X195066329Y-94713021D01*
X195030317Y-94831738D01*
X195018157Y-94955200D01*
X195018157Y-96205200D01*
X195030317Y-96328662D01*
X195066329Y-96447379D01*
X195124810Y-96556789D01*
X195203512Y-96652688D01*
X195299411Y-96731390D01*
X195332000Y-96748809D01*
X195332001Y-98182460D01*
X195321311Y-98183513D01*
X195249492Y-98205299D01*
X195183304Y-98240678D01*
X195125289Y-98288289D01*
X195077678Y-98346304D01*
X195042299Y-98412492D01*
X195020513Y-98484311D01*
X195013157Y-98559000D01*
X195013157Y-99219804D01*
X194869200Y-99119034D01*
X194869200Y-99174000D01*
X194820183Y-99174000D01*
X194783037Y-99104506D01*
X194703685Y-99007815D01*
X194606994Y-98928463D01*
X194496680Y-98869498D01*
X194376982Y-98833188D01*
X194252500Y-98820928D01*
X194242683Y-98820976D01*
X194242200Y-98820928D01*
X194241667Y-98820980D01*
X193618250Y-98824000D01*
X193459500Y-98982750D01*
X193459500Y-100432000D01*
X195880272Y-100432000D01*
X195880272Y-100412000D01*
X196126500Y-100412000D01*
X196126500Y-100432000D01*
X197375750Y-100432000D01*
X197534500Y-100273250D01*
X197537572Y-100059000D01*
X197525312Y-99934518D01*
X197489002Y-99814820D01*
X197430037Y-99704506D01*
X197350685Y-99607815D01*
X197278843Y-99548856D01*
X197278843Y-99253400D01*
X198105928Y-99253400D01*
X198118188Y-99377882D01*
X198154498Y-99497580D01*
X198213463Y-99607894D01*
X198292815Y-99704585D01*
X198389506Y-99783937D01*
X198499820Y-99842902D01*
X198619518Y-99879212D01*
X198744000Y-99891472D01*
X199333250Y-99888400D01*
X199492000Y-99729650D01*
X199492000Y-98667900D01*
X199746000Y-98667900D01*
X199746000Y-99729650D01*
X199904750Y-99888400D01*
X200494000Y-99891472D01*
X200618482Y-99879212D01*
X200738180Y-99842902D01*
X200848494Y-99783937D01*
X200945185Y-99704585D01*
X201024537Y-99607894D01*
X201083502Y-99497580D01*
X201119812Y-99377882D01*
X201132072Y-99253400D01*
X201129000Y-98826650D01*
X200970250Y-98667900D01*
X199746000Y-98667900D01*
X199492000Y-98667900D01*
X198267750Y-98667900D01*
X198109000Y-98826650D01*
X198105928Y-99253400D01*
X197278843Y-99253400D01*
X197278843Y-98559000D01*
X197271487Y-98484311D01*
X197249701Y-98412492D01*
X197214322Y-98346304D01*
X197166711Y-98288289D01*
X197108696Y-98240678D01*
X197042508Y-98205299D01*
X196970689Y-98183513D01*
X196896000Y-98176157D01*
X196894000Y-98176157D01*
X196894000Y-97828400D01*
X198105928Y-97828400D01*
X198109000Y-98255150D01*
X198267750Y-98413900D01*
X199492000Y-98413900D01*
X199492000Y-97352150D01*
X199746000Y-97352150D01*
X199746000Y-98413900D01*
X200970250Y-98413900D01*
X201129000Y-98255150D01*
X201132072Y-97828400D01*
X201119812Y-97703918D01*
X201083502Y-97584220D01*
X201024537Y-97473906D01*
X200945185Y-97377215D01*
X200848494Y-97297863D01*
X200738180Y-97238898D01*
X200618482Y-97202588D01*
X200494000Y-97190328D01*
X199904750Y-97193400D01*
X199746000Y-97352150D01*
X199492000Y-97352150D01*
X199333250Y-97193400D01*
X198744000Y-97190328D01*
X198619518Y-97202588D01*
X198499820Y-97238898D01*
X198389506Y-97297863D01*
X198292815Y-97377215D01*
X198213463Y-97473906D01*
X198154498Y-97584220D01*
X198118188Y-97703918D01*
X198105928Y-97828400D01*
X196894000Y-97828400D01*
X196894000Y-96749344D01*
X196927589Y-96731390D01*
X197023488Y-96652688D01*
X197102190Y-96556789D01*
X197160671Y-96447379D01*
X197186813Y-96361200D01*
X198457767Y-96361200D01*
X198467810Y-96379989D01*
X198546512Y-96475888D01*
X198642411Y-96554590D01*
X198751821Y-96613071D01*
X198870538Y-96649083D01*
X198994000Y-96661243D01*
X199892284Y-96661243D01*
X200039934Y-96808980D01*
X200058183Y-96831217D01*
X200102963Y-96867966D01*
X200146510Y-96903726D01*
X200146585Y-96903766D01*
X200146652Y-96903821D01*
X200197837Y-96931180D01*
X200247427Y-96957705D01*
X200247507Y-96957729D01*
X200247585Y-96957771D01*
X200302348Y-96974383D01*
X200356936Y-96990960D01*
X200357024Y-96990969D01*
X200357104Y-96990993D01*
X200413218Y-96996520D01*
X200470829Y-97002211D01*
X200499454Y-96999400D01*
X202578666Y-96999400D01*
X202570013Y-97020291D01*
X202540000Y-97171178D01*
X202540000Y-97325022D01*
X202570013Y-97475909D01*
X202628887Y-97618042D01*
X202714358Y-97745959D01*
X202823141Y-97854742D01*
X202951058Y-97940213D01*
X203093191Y-97999087D01*
X203244078Y-98029100D01*
X203366840Y-98029100D01*
X203436704Y-98050293D01*
X203522060Y-98058700D01*
X203522062Y-98058700D01*
X203550599Y-98061511D01*
X203579136Y-98058700D01*
X205398290Y-98058700D01*
X205293141Y-98128958D01*
X205184358Y-98237741D01*
X205098887Y-98365658D01*
X205040013Y-98507791D01*
X205010000Y-98658678D01*
X205010000Y-98812522D01*
X205040013Y-98963409D01*
X205098887Y-99105542D01*
X205184358Y-99233459D01*
X205210000Y-99259101D01*
X205210001Y-106715550D01*
X205207189Y-106744100D01*
X205218407Y-106857995D01*
X205251629Y-106967514D01*
X205301721Y-107061229D01*
X205305580Y-107068448D01*
X205378184Y-107156917D01*
X205400356Y-107175113D01*
X207699100Y-109473858D01*
X207699100Y-110098055D01*
X207697216Y-110096509D01*
X207483363Y-109982202D01*
X207251318Y-109911812D01*
X207070472Y-109894000D01*
X206949528Y-109894000D01*
X206768682Y-109911812D01*
X206536637Y-109982202D01*
X206322784Y-110096509D01*
X206135340Y-110250340D01*
X205981509Y-110437784D01*
X205867202Y-110651637D01*
X205796812Y-110883682D01*
X205773044Y-111125000D01*
X205796812Y-111366318D01*
X205867202Y-111598363D01*
X205981509Y-111812216D01*
X206135340Y-111999660D01*
X206322784Y-112153491D01*
X206536637Y-112267798D01*
X206768682Y-112338188D01*
X206949528Y-112356000D01*
X207070472Y-112356000D01*
X207251318Y-112338188D01*
X207483363Y-112267798D01*
X207697216Y-112153491D01*
X207830702Y-112043942D01*
X207867284Y-112088517D01*
X207889455Y-112106712D01*
X208387942Y-112605200D01*
X205251000Y-112605200D01*
X205251000Y-112076525D01*
X205344660Y-111999660D01*
X205498491Y-111812216D01*
X205612798Y-111598363D01*
X205683188Y-111366318D01*
X205706956Y-111125000D01*
X205683188Y-110883682D01*
X205612798Y-110651637D01*
X205498491Y-110437784D01*
X205344660Y-110250340D01*
X205157216Y-110096509D01*
X204943363Y-109982202D01*
X204711318Y-109911812D01*
X204530472Y-109894000D01*
X204409528Y-109894000D01*
X204228682Y-109911812D01*
X203996637Y-109982202D01*
X203782784Y-110096509D01*
X203595340Y-110250340D01*
X203441509Y-110437784D01*
X203416935Y-110483758D01*
X203418072Y-110275000D01*
X203405812Y-110150518D01*
X203369502Y-110030820D01*
X203310537Y-109920506D01*
X203231185Y-109823815D01*
X203134494Y-109744463D01*
X203024180Y-109685498D01*
X202904482Y-109649188D01*
X202780000Y-109636928D01*
X202215750Y-109640000D01*
X202057000Y-109798750D01*
X202057000Y-110998000D01*
X202077000Y-110998000D01*
X202077000Y-111252000D01*
X202057000Y-111252000D01*
X202057000Y-112451250D01*
X202215750Y-112610000D01*
X202780000Y-112613072D01*
X202904482Y-112600812D01*
X203024180Y-112564502D01*
X203134494Y-112505537D01*
X203231185Y-112426185D01*
X203310537Y-112329494D01*
X203369502Y-112219180D01*
X203405812Y-112099482D01*
X203418072Y-111975000D01*
X203416935Y-111766242D01*
X203441509Y-111812216D01*
X203595340Y-111999660D01*
X203689000Y-112076525D01*
X203689001Y-112894000D01*
X198003000Y-112894000D01*
X198003000Y-112276843D01*
X198472000Y-112276843D01*
X198546689Y-112269487D01*
X198618508Y-112247701D01*
X198684696Y-112212322D01*
X198742711Y-112164711D01*
X198790322Y-112106696D01*
X198825701Y-112040508D01*
X198845572Y-111975000D01*
X200441928Y-111975000D01*
X200454188Y-112099482D01*
X200490498Y-112219180D01*
X200549463Y-112329494D01*
X200628815Y-112426185D01*
X200725506Y-112505537D01*
X200835820Y-112564502D01*
X200955518Y-112600812D01*
X201080000Y-112613072D01*
X201644250Y-112610000D01*
X201803000Y-112451250D01*
X201803000Y-111252000D01*
X200603750Y-111252000D01*
X200445000Y-111410750D01*
X200441928Y-111975000D01*
X198845572Y-111975000D01*
X198847487Y-111968689D01*
X198854843Y-111894000D01*
X198854843Y-110275000D01*
X200441928Y-110275000D01*
X200445000Y-110839250D01*
X200603750Y-110998000D01*
X201803000Y-110998000D01*
X201803000Y-109798750D01*
X201644250Y-109640000D01*
X201080000Y-109636928D01*
X200955518Y-109649188D01*
X200835820Y-109685498D01*
X200725506Y-109744463D01*
X200628815Y-109823815D01*
X200549463Y-109920506D01*
X200490498Y-110030820D01*
X200454188Y-110150518D01*
X200441928Y-110275000D01*
X198854843Y-110275000D01*
X198854843Y-109594000D01*
X198847487Y-109519311D01*
X198825701Y-109447492D01*
X198790322Y-109381304D01*
X198742711Y-109323289D01*
X198684696Y-109275678D01*
X198618508Y-109240299D01*
X198546689Y-109218513D01*
X198472000Y-109211157D01*
X195972000Y-109211157D01*
X195897311Y-109218513D01*
X195825492Y-109240299D01*
X195759304Y-109275678D01*
X195701289Y-109323289D01*
X195653678Y-109381304D01*
X195618299Y-109447492D01*
X195596513Y-109519311D01*
X195589157Y-109594000D01*
X195589157Y-111894000D01*
X195596513Y-111968689D01*
X195618299Y-112040508D01*
X195653678Y-112106696D01*
X195701289Y-112164711D01*
X195759304Y-112212322D01*
X195825492Y-112247701D01*
X195897311Y-112269487D01*
X195972000Y-112276843D01*
X196441000Y-112276843D01*
X196441000Y-113602643D01*
X196437222Y-113641000D01*
X196441000Y-113679357D01*
X196441000Y-113679359D01*
X196452301Y-113794102D01*
X196482605Y-113894000D01*
X191535854Y-113894000D01*
X191397895Y-113880473D01*
X191284291Y-113846174D01*
X191179508Y-113790461D01*
X191087547Y-113715459D01*
X191011902Y-113624020D01*
X190955457Y-113519628D01*
X190920367Y-113406269D01*
X190906000Y-113269576D01*
X190906000Y-109594000D01*
X191289157Y-109594000D01*
X191289157Y-111894000D01*
X191296513Y-111968689D01*
X191318299Y-112040508D01*
X191353678Y-112106696D01*
X191401289Y-112164711D01*
X191459304Y-112212322D01*
X191525492Y-112247701D01*
X191597311Y-112269487D01*
X191672000Y-112276843D01*
X194172000Y-112276843D01*
X194246689Y-112269487D01*
X194318508Y-112247701D01*
X194384696Y-112212322D01*
X194442711Y-112164711D01*
X194490322Y-112106696D01*
X194525701Y-112040508D01*
X194547487Y-111968689D01*
X194554843Y-111894000D01*
X194554843Y-109594000D01*
X194547487Y-109519311D01*
X194525701Y-109447492D01*
X194490322Y-109381304D01*
X194442711Y-109323289D01*
X194384696Y-109275678D01*
X194318508Y-109240299D01*
X194246689Y-109218513D01*
X194172000Y-109211157D01*
X193703000Y-109211157D01*
X193703000Y-108934000D01*
X196100641Y-108934000D01*
X196139000Y-108937778D01*
X196292103Y-108922699D01*
X196439322Y-108878040D01*
X196574999Y-108805519D01*
X196693922Y-108707922D01*
X196791519Y-108588999D01*
X196864040Y-108453322D01*
X196908699Y-108306103D01*
X196920000Y-108191360D01*
X196923778Y-108153000D01*
X196920000Y-108114640D01*
X196920000Y-106871507D01*
X196978589Y-106840190D01*
X197074488Y-106761488D01*
X197153190Y-106665589D01*
X197211671Y-106556179D01*
X197237813Y-106470000D01*
X198391373Y-106470000D01*
X198416810Y-106517589D01*
X198495512Y-106613488D01*
X198591411Y-106692190D01*
X198700821Y-106750671D01*
X198819538Y-106786683D01*
X198943000Y-106798843D01*
X200193000Y-106798843D01*
X200316462Y-106786683D01*
X200435179Y-106750671D01*
X200544589Y-106692190D01*
X200640488Y-106613488D01*
X200719190Y-106517589D01*
X200777671Y-106408179D01*
X200813683Y-106289462D01*
X200825843Y-106166000D01*
X200825843Y-105241000D01*
X200813683Y-105117538D01*
X200777671Y-104998821D01*
X200719190Y-104889411D01*
X200640488Y-104793512D01*
X200544589Y-104714810D01*
X200435179Y-104656329D01*
X200316462Y-104620317D01*
X200193000Y-104608157D01*
X198943000Y-104608157D01*
X198819538Y-104620317D01*
X198700821Y-104656329D01*
X198591411Y-104714810D01*
X198495512Y-104793512D01*
X198416810Y-104889411D01*
X198406874Y-104908000D01*
X197237813Y-104908000D01*
X197211671Y-104821821D01*
X197153190Y-104712411D01*
X197074488Y-104616512D01*
X196978589Y-104537810D01*
X196927000Y-104510235D01*
X196927000Y-103441000D01*
X198054928Y-103441000D01*
X198067188Y-103565482D01*
X198103498Y-103685180D01*
X198162463Y-103795494D01*
X198241815Y-103892185D01*
X198338506Y-103971537D01*
X198448820Y-104030502D01*
X198568518Y-104066812D01*
X198693000Y-104079072D01*
X199282250Y-104076000D01*
X199441000Y-103917250D01*
X199441000Y-102855500D01*
X199695000Y-102855500D01*
X199695000Y-103917250D01*
X199853750Y-104076000D01*
X200443000Y-104079072D01*
X200567482Y-104066812D01*
X200687180Y-104030502D01*
X200797494Y-103971537D01*
X200894185Y-103892185D01*
X200973537Y-103795494D01*
X201032502Y-103685180D01*
X201068812Y-103565482D01*
X201081072Y-103441000D01*
X201078000Y-103014250D01*
X200919250Y-102855500D01*
X199695000Y-102855500D01*
X199441000Y-102855500D01*
X198216750Y-102855500D01*
X198058000Y-103014250D01*
X198054928Y-103441000D01*
X196927000Y-103441000D01*
X196927000Y-102938790D01*
X196970689Y-102934487D01*
X197042508Y-102912701D01*
X197108696Y-102877322D01*
X197166711Y-102829711D01*
X197214322Y-102771696D01*
X197249701Y-102705508D01*
X197271487Y-102633689D01*
X197278843Y-102559000D01*
X197278843Y-102016000D01*
X198054928Y-102016000D01*
X198058000Y-102442750D01*
X198216750Y-102601500D01*
X199441000Y-102601500D01*
X199441000Y-101539750D01*
X199695000Y-101539750D01*
X199695000Y-102601500D01*
X200919250Y-102601500D01*
X201078000Y-102442750D01*
X201081072Y-102016000D01*
X201068812Y-101891518D01*
X201032502Y-101771820D01*
X200973537Y-101661506D01*
X200894185Y-101564815D01*
X200797494Y-101485463D01*
X200687180Y-101426498D01*
X200567482Y-101390188D01*
X200443000Y-101377928D01*
X199853750Y-101381000D01*
X199695000Y-101539750D01*
X199441000Y-101539750D01*
X199282250Y-101381000D01*
X198693000Y-101377928D01*
X198568518Y-101390188D01*
X198448820Y-101426498D01*
X198338506Y-101485463D01*
X198241815Y-101564815D01*
X198162463Y-101661506D01*
X198103498Y-101771820D01*
X198067188Y-101891518D01*
X198054928Y-102016000D01*
X197278843Y-102016000D01*
X197278843Y-101569144D01*
X197350685Y-101510185D01*
X197430037Y-101413494D01*
X197489002Y-101303180D01*
X197525312Y-101183482D01*
X197537572Y-101059000D01*
X197534500Y-100844750D01*
X197375750Y-100686000D01*
X196126500Y-100686000D01*
X196126500Y-100706000D01*
X195880272Y-100706000D01*
X195880272Y-100686000D01*
X193459500Y-100686000D01*
X193459500Y-102135250D01*
X193618250Y-102294000D01*
X194252500Y-102297072D01*
X194254902Y-102296835D01*
X194256031Y-102296922D01*
X194265043Y-102295837D01*
X194376982Y-102284812D01*
X194496680Y-102248502D01*
X194606994Y-102189537D01*
X194703685Y-102110185D01*
X194783037Y-102013494D01*
X194820183Y-101944000D01*
X194869200Y-101944000D01*
X194869200Y-101998966D01*
X195013157Y-101898196D01*
X195013157Y-102559000D01*
X195020513Y-102633689D01*
X195042299Y-102705508D01*
X195077678Y-102771696D01*
X195125289Y-102829711D01*
X195183304Y-102877322D01*
X195249492Y-102912701D01*
X195321311Y-102934487D01*
X195365000Y-102938790D01*
X195365001Y-104530012D01*
X195350411Y-104537810D01*
X195254512Y-104616512D01*
X195175810Y-104712411D01*
X195117329Y-104821821D01*
X195081317Y-104940538D01*
X195069157Y-105064000D01*
X195069157Y-106314000D01*
X195081317Y-106437462D01*
X195117329Y-106556179D01*
X195175810Y-106665589D01*
X195254512Y-106761488D01*
X195350411Y-106840190D01*
X195358000Y-106844246D01*
X195358000Y-107372000D01*
X193281357Y-107372000D01*
X193243000Y-107368222D01*
X193204643Y-107372000D01*
X193204640Y-107372000D01*
X193089897Y-107383301D01*
X192942678Y-107427960D01*
X192807001Y-107500481D01*
X192688078Y-107598078D01*
X192663622Y-107627878D01*
X192396878Y-107894622D01*
X192367078Y-107919078D01*
X192324843Y-107970542D01*
X192269481Y-108038001D01*
X192251421Y-108071789D01*
X192196960Y-108173679D01*
X192152301Y-108320898D01*
X192141000Y-108435640D01*
X192137222Y-108474000D01*
X192141000Y-108512357D01*
X192141000Y-109211157D01*
X191672000Y-109211157D01*
X191597311Y-109218513D01*
X191525492Y-109240299D01*
X191459304Y-109275678D01*
X191401289Y-109323289D01*
X191353678Y-109381304D01*
X191318299Y-109447492D01*
X191296513Y-109519311D01*
X191289157Y-109594000D01*
X190906000Y-109594000D01*
X190906000Y-106564000D01*
X191838928Y-106564000D01*
X191851188Y-106688482D01*
X191887498Y-106808180D01*
X191946463Y-106918494D01*
X192025815Y-107015185D01*
X192122506Y-107094537D01*
X192232820Y-107153502D01*
X192352518Y-107189812D01*
X192477000Y-107202072D01*
X192903750Y-107199000D01*
X193062500Y-107040250D01*
X193062500Y-105816000D01*
X193316500Y-105816000D01*
X193316500Y-107040250D01*
X193475250Y-107199000D01*
X193902000Y-107202072D01*
X194026482Y-107189812D01*
X194146180Y-107153502D01*
X194256494Y-107094537D01*
X194353185Y-107015185D01*
X194432537Y-106918494D01*
X194491502Y-106808180D01*
X194527812Y-106688482D01*
X194540072Y-106564000D01*
X194537000Y-105974750D01*
X194378250Y-105816000D01*
X193316500Y-105816000D01*
X193062500Y-105816000D01*
X192000750Y-105816000D01*
X191842000Y-105974750D01*
X191838928Y-106564000D01*
X190906000Y-106564000D01*
X190906000Y-104814000D01*
X191838928Y-104814000D01*
X191842000Y-105403250D01*
X192000750Y-105562000D01*
X193062500Y-105562000D01*
X193062500Y-104337750D01*
X193316500Y-104337750D01*
X193316500Y-105562000D01*
X194378250Y-105562000D01*
X194537000Y-105403250D01*
X194540072Y-104814000D01*
X194527812Y-104689518D01*
X194491502Y-104569820D01*
X194432537Y-104459506D01*
X194353185Y-104362815D01*
X194256494Y-104283463D01*
X194146180Y-104224498D01*
X194026482Y-104188188D01*
X193902000Y-104175928D01*
X193475250Y-104179000D01*
X193316500Y-104337750D01*
X193062500Y-104337750D01*
X192903750Y-104179000D01*
X192477000Y-104175928D01*
X192352518Y-104188188D01*
X192232820Y-104224498D01*
X192122506Y-104283463D01*
X192025815Y-104362815D01*
X191946463Y-104459506D01*
X191887498Y-104569820D01*
X191851188Y-104689518D01*
X191838928Y-104814000D01*
X190906000Y-104814000D01*
X190906000Y-100686000D01*
X190935928Y-100686000D01*
X190935928Y-101059000D01*
X190945205Y-101167413D01*
X190978438Y-101288001D01*
X191034557Y-101399790D01*
X191111407Y-101498481D01*
X191206035Y-101580284D01*
X191872000Y-102050377D01*
X191872000Y-101994855D01*
X191881963Y-102013494D01*
X191961315Y-102110185D01*
X192058006Y-102189537D01*
X192168320Y-102248502D01*
X192288018Y-102284812D01*
X192412500Y-102297072D01*
X192423461Y-102297019D01*
X192424000Y-102297072D01*
X192424595Y-102297013D01*
X193046750Y-102294000D01*
X193205500Y-102135250D01*
X193205500Y-100686000D01*
X191936250Y-100686000D01*
X191916250Y-100706000D01*
X191872000Y-100706000D01*
X191872000Y-100686000D01*
X190935928Y-100686000D01*
X190906000Y-100686000D01*
X190906000Y-100059000D01*
X190935928Y-100059000D01*
X190935928Y-100432000D01*
X191872000Y-100432000D01*
X191872000Y-100412000D01*
X191916250Y-100412000D01*
X191936250Y-100432000D01*
X193205500Y-100432000D01*
X193205500Y-98982750D01*
X193046750Y-98824000D01*
X192412500Y-98820928D01*
X192409223Y-98821251D01*
X192407658Y-98821137D01*
X192397331Y-98822422D01*
X192288018Y-98833188D01*
X192168320Y-98869498D01*
X192058006Y-98928463D01*
X191961315Y-99007815D01*
X191881963Y-99104506D01*
X191872000Y-99123145D01*
X191872000Y-99067623D01*
X191206035Y-99537716D01*
X191122815Y-99607815D01*
X191043463Y-99704506D01*
X190984498Y-99814820D01*
X190948188Y-99934518D01*
X190935928Y-100059000D01*
X190906000Y-100059000D01*
X190906000Y-96455200D01*
X191787928Y-96455200D01*
X191800188Y-96579682D01*
X191836498Y-96699380D01*
X191895463Y-96809694D01*
X191974815Y-96906385D01*
X192071506Y-96985737D01*
X192181820Y-97044702D01*
X192301518Y-97081012D01*
X192426000Y-97093272D01*
X192852750Y-97090200D01*
X193011500Y-96931450D01*
X193011500Y-95707200D01*
X193265500Y-95707200D01*
X193265500Y-96931450D01*
X193424250Y-97090200D01*
X193851000Y-97093272D01*
X193975482Y-97081012D01*
X194095180Y-97044702D01*
X194205494Y-96985737D01*
X194302185Y-96906385D01*
X194381537Y-96809694D01*
X194440502Y-96699380D01*
X194476812Y-96579682D01*
X194489072Y-96455200D01*
X194486000Y-95865950D01*
X194327250Y-95707200D01*
X193265500Y-95707200D01*
X193011500Y-95707200D01*
X191949750Y-95707200D01*
X191791000Y-95865950D01*
X191787928Y-96455200D01*
X190906000Y-96455200D01*
X190906000Y-94705200D01*
X191787928Y-94705200D01*
X191791000Y-95294450D01*
X191949750Y-95453200D01*
X193011500Y-95453200D01*
X193011500Y-94228950D01*
X193265500Y-94228950D01*
X193265500Y-95453200D01*
X194327250Y-95453200D01*
X194486000Y-95294450D01*
X194489072Y-94705200D01*
X194476812Y-94580718D01*
X194440502Y-94461020D01*
X194381537Y-94350706D01*
X194302185Y-94254015D01*
X194205494Y-94174663D01*
X194095180Y-94115698D01*
X193975482Y-94079388D01*
X193851000Y-94067128D01*
X193424250Y-94070200D01*
X193265500Y-94228950D01*
X193011500Y-94228950D01*
X192852750Y-94070200D01*
X192426000Y-94067128D01*
X192301518Y-94079388D01*
X192181820Y-94115698D01*
X192071506Y-94174663D01*
X191974815Y-94254015D01*
X191895463Y-94350706D01*
X191836498Y-94461020D01*
X191800188Y-94580718D01*
X191787928Y-94705200D01*
X190906000Y-94705200D01*
X190906000Y-88012831D01*
X190927602Y-88064983D01*
X191204151Y-88478869D01*
X191556131Y-88830849D01*
X191970017Y-89107398D01*
X192429901Y-89297889D01*
X192918112Y-89395000D01*
X193415888Y-89395000D01*
X193904099Y-89297889D01*
X194363983Y-89107398D01*
X194777869Y-88830849D01*
X195129849Y-88478869D01*
X195406398Y-88064983D01*
X195507001Y-87822108D01*
X195507000Y-94340747D01*
X195507000Y-94340747D01*
G37*
X195507000Y-94340747D02*
X195408821Y-94370529D01*
X195299411Y-94429010D01*
X195203512Y-94507712D01*
X195124810Y-94603611D01*
X195066329Y-94713021D01*
X195030317Y-94831738D01*
X195018157Y-94955200D01*
X195018157Y-96205200D01*
X195030317Y-96328662D01*
X195066329Y-96447379D01*
X195124810Y-96556789D01*
X195203512Y-96652688D01*
X195299411Y-96731390D01*
X195332000Y-96748809D01*
X195332001Y-98182460D01*
X195321311Y-98183513D01*
X195249492Y-98205299D01*
X195183304Y-98240678D01*
X195125289Y-98288289D01*
X195077678Y-98346304D01*
X195042299Y-98412492D01*
X195020513Y-98484311D01*
X195013157Y-98559000D01*
X195013157Y-99219804D01*
X194869200Y-99119034D01*
X194869200Y-99174000D01*
X194820183Y-99174000D01*
X194783037Y-99104506D01*
X194703685Y-99007815D01*
X194606994Y-98928463D01*
X194496680Y-98869498D01*
X194376982Y-98833188D01*
X194252500Y-98820928D01*
X194242683Y-98820976D01*
X194242200Y-98820928D01*
X194241667Y-98820980D01*
X193618250Y-98824000D01*
X193459500Y-98982750D01*
X193459500Y-100432000D01*
X195880272Y-100432000D01*
X195880272Y-100412000D01*
X196126500Y-100412000D01*
X196126500Y-100432000D01*
X197375750Y-100432000D01*
X197534500Y-100273250D01*
X197537572Y-100059000D01*
X197525312Y-99934518D01*
X197489002Y-99814820D01*
X197430037Y-99704506D01*
X197350685Y-99607815D01*
X197278843Y-99548856D01*
X197278843Y-99253400D01*
X198105928Y-99253400D01*
X198118188Y-99377882D01*
X198154498Y-99497580D01*
X198213463Y-99607894D01*
X198292815Y-99704585D01*
X198389506Y-99783937D01*
X198499820Y-99842902D01*
X198619518Y-99879212D01*
X198744000Y-99891472D01*
X199333250Y-99888400D01*
X199492000Y-99729650D01*
X199492000Y-98667900D01*
X199746000Y-98667900D01*
X199746000Y-99729650D01*
X199904750Y-99888400D01*
X200494000Y-99891472D01*
X200618482Y-99879212D01*
X200738180Y-99842902D01*
X200848494Y-99783937D01*
X200945185Y-99704585D01*
X201024537Y-99607894D01*
X201083502Y-99497580D01*
X201119812Y-99377882D01*
X201132072Y-99253400D01*
X201129000Y-98826650D01*
X200970250Y-98667900D01*
X199746000Y-98667900D01*
X199492000Y-98667900D01*
X198267750Y-98667900D01*
X198109000Y-98826650D01*
X198105928Y-99253400D01*
X197278843Y-99253400D01*
X197278843Y-98559000D01*
X197271487Y-98484311D01*
X197249701Y-98412492D01*
X197214322Y-98346304D01*
X197166711Y-98288289D01*
X197108696Y-98240678D01*
X197042508Y-98205299D01*
X196970689Y-98183513D01*
X196896000Y-98176157D01*
X196894000Y-98176157D01*
X196894000Y-97828400D01*
X198105928Y-97828400D01*
X198109000Y-98255150D01*
X198267750Y-98413900D01*
X199492000Y-98413900D01*
X199492000Y-97352150D01*
X199746000Y-97352150D01*
X199746000Y-98413900D01*
X200970250Y-98413900D01*
X201129000Y-98255150D01*
X201132072Y-97828400D01*
X201119812Y-97703918D01*
X201083502Y-97584220D01*
X201024537Y-97473906D01*
X200945185Y-97377215D01*
X200848494Y-97297863D01*
X200738180Y-97238898D01*
X200618482Y-97202588D01*
X200494000Y-97190328D01*
X199904750Y-97193400D01*
X199746000Y-97352150D01*
X199492000Y-97352150D01*
X199333250Y-97193400D01*
X198744000Y-97190328D01*
X198619518Y-97202588D01*
X198499820Y-97238898D01*
X198389506Y-97297863D01*
X198292815Y-97377215D01*
X198213463Y-97473906D01*
X198154498Y-97584220D01*
X198118188Y-97703918D01*
X198105928Y-97828400D01*
X196894000Y-97828400D01*
X196894000Y-96749344D01*
X196927589Y-96731390D01*
X197023488Y-96652688D01*
X197102190Y-96556789D01*
X197160671Y-96447379D01*
X197186813Y-96361200D01*
X198457767Y-96361200D01*
X198467810Y-96379989D01*
X198546512Y-96475888D01*
X198642411Y-96554590D01*
X198751821Y-96613071D01*
X198870538Y-96649083D01*
X198994000Y-96661243D01*
X199892284Y-96661243D01*
X200039934Y-96808980D01*
X200058183Y-96831217D01*
X200102963Y-96867966D01*
X200146510Y-96903726D01*
X200146585Y-96903766D01*
X200146652Y-96903821D01*
X200197837Y-96931180D01*
X200247427Y-96957705D01*
X200247507Y-96957729D01*
X200247585Y-96957771D01*
X200302348Y-96974383D01*
X200356936Y-96990960D01*
X200357024Y-96990969D01*
X200357104Y-96990993D01*
X200413218Y-96996520D01*
X200470829Y-97002211D01*
X200499454Y-96999400D01*
X202578666Y-96999400D01*
X202570013Y-97020291D01*
X202540000Y-97171178D01*
X202540000Y-97325022D01*
X202570013Y-97475909D01*
X202628887Y-97618042D01*
X202714358Y-97745959D01*
X202823141Y-97854742D01*
X202951058Y-97940213D01*
X203093191Y-97999087D01*
X203244078Y-98029100D01*
X203366840Y-98029100D01*
X203436704Y-98050293D01*
X203522060Y-98058700D01*
X203522062Y-98058700D01*
X203550599Y-98061511D01*
X203579136Y-98058700D01*
X205398290Y-98058700D01*
X205293141Y-98128958D01*
X205184358Y-98237741D01*
X205098887Y-98365658D01*
X205040013Y-98507791D01*
X205010000Y-98658678D01*
X205010000Y-98812522D01*
X205040013Y-98963409D01*
X205098887Y-99105542D01*
X205184358Y-99233459D01*
X205210000Y-99259101D01*
X205210001Y-106715550D01*
X205207189Y-106744100D01*
X205218407Y-106857995D01*
X205251629Y-106967514D01*
X205301721Y-107061229D01*
X205305580Y-107068448D01*
X205378184Y-107156917D01*
X205400356Y-107175113D01*
X207699100Y-109473858D01*
X207699100Y-110098055D01*
X207697216Y-110096509D01*
X207483363Y-109982202D01*
X207251318Y-109911812D01*
X207070472Y-109894000D01*
X206949528Y-109894000D01*
X206768682Y-109911812D01*
X206536637Y-109982202D01*
X206322784Y-110096509D01*
X206135340Y-110250340D01*
X205981509Y-110437784D01*
X205867202Y-110651637D01*
X205796812Y-110883682D01*
X205773044Y-111125000D01*
X205796812Y-111366318D01*
X205867202Y-111598363D01*
X205981509Y-111812216D01*
X206135340Y-111999660D01*
X206322784Y-112153491D01*
X206536637Y-112267798D01*
X206768682Y-112338188D01*
X206949528Y-112356000D01*
X207070472Y-112356000D01*
X207251318Y-112338188D01*
X207483363Y-112267798D01*
X207697216Y-112153491D01*
X207830702Y-112043942D01*
X207867284Y-112088517D01*
X207889455Y-112106712D01*
X208387942Y-112605200D01*
X205251000Y-112605200D01*
X205251000Y-112076525D01*
X205344660Y-111999660D01*
X205498491Y-111812216D01*
X205612798Y-111598363D01*
X205683188Y-111366318D01*
X205706956Y-111125000D01*
X205683188Y-110883682D01*
X205612798Y-110651637D01*
X205498491Y-110437784D01*
X205344660Y-110250340D01*
X205157216Y-110096509D01*
X204943363Y-109982202D01*
X204711318Y-109911812D01*
X204530472Y-109894000D01*
X204409528Y-109894000D01*
X204228682Y-109911812D01*
X203996637Y-109982202D01*
X203782784Y-110096509D01*
X203595340Y-110250340D01*
X203441509Y-110437784D01*
X203416935Y-110483758D01*
X203418072Y-110275000D01*
X203405812Y-110150518D01*
X203369502Y-110030820D01*
X203310537Y-109920506D01*
X203231185Y-109823815D01*
X203134494Y-109744463D01*
X203024180Y-109685498D01*
X202904482Y-109649188D01*
X202780000Y-109636928D01*
X202215750Y-109640000D01*
X202057000Y-109798750D01*
X202057000Y-110998000D01*
X202077000Y-110998000D01*
X202077000Y-111252000D01*
X202057000Y-111252000D01*
X202057000Y-112451250D01*
X202215750Y-112610000D01*
X202780000Y-112613072D01*
X202904482Y-112600812D01*
X203024180Y-112564502D01*
X203134494Y-112505537D01*
X203231185Y-112426185D01*
X203310537Y-112329494D01*
X203369502Y-112219180D01*
X203405812Y-112099482D01*
X203418072Y-111975000D01*
X203416935Y-111766242D01*
X203441509Y-111812216D01*
X203595340Y-111999660D01*
X203689000Y-112076525D01*
X203689001Y-112894000D01*
X198003000Y-112894000D01*
X198003000Y-112276843D01*
X198472000Y-112276843D01*
X198546689Y-112269487D01*
X198618508Y-112247701D01*
X198684696Y-112212322D01*
X198742711Y-112164711D01*
X198790322Y-112106696D01*
X198825701Y-112040508D01*
X198845572Y-111975000D01*
X200441928Y-111975000D01*
X200454188Y-112099482D01*
X200490498Y-112219180D01*
X200549463Y-112329494D01*
X200628815Y-112426185D01*
X200725506Y-112505537D01*
X200835820Y-112564502D01*
X200955518Y-112600812D01*
X201080000Y-112613072D01*
X201644250Y-112610000D01*
X201803000Y-112451250D01*
X201803000Y-111252000D01*
X200603750Y-111252000D01*
X200445000Y-111410750D01*
X200441928Y-111975000D01*
X198845572Y-111975000D01*
X198847487Y-111968689D01*
X198854843Y-111894000D01*
X198854843Y-110275000D01*
X200441928Y-110275000D01*
X200445000Y-110839250D01*
X200603750Y-110998000D01*
X201803000Y-110998000D01*
X201803000Y-109798750D01*
X201644250Y-109640000D01*
X201080000Y-109636928D01*
X200955518Y-109649188D01*
X200835820Y-109685498D01*
X200725506Y-109744463D01*
X200628815Y-109823815D01*
X200549463Y-109920506D01*
X200490498Y-110030820D01*
X200454188Y-110150518D01*
X200441928Y-110275000D01*
X198854843Y-110275000D01*
X198854843Y-109594000D01*
X198847487Y-109519311D01*
X198825701Y-109447492D01*
X198790322Y-109381304D01*
X198742711Y-109323289D01*
X198684696Y-109275678D01*
X198618508Y-109240299D01*
X198546689Y-109218513D01*
X198472000Y-109211157D01*
X195972000Y-109211157D01*
X195897311Y-109218513D01*
X195825492Y-109240299D01*
X195759304Y-109275678D01*
X195701289Y-109323289D01*
X195653678Y-109381304D01*
X195618299Y-109447492D01*
X195596513Y-109519311D01*
X195589157Y-109594000D01*
X195589157Y-111894000D01*
X195596513Y-111968689D01*
X195618299Y-112040508D01*
X195653678Y-112106696D01*
X195701289Y-112164711D01*
X195759304Y-112212322D01*
X195825492Y-112247701D01*
X195897311Y-112269487D01*
X195972000Y-112276843D01*
X196441000Y-112276843D01*
X196441000Y-113602643D01*
X196437222Y-113641000D01*
X196441000Y-113679357D01*
X196441000Y-113679359D01*
X196452301Y-113794102D01*
X196482605Y-113894000D01*
X191535854Y-113894000D01*
X191397895Y-113880473D01*
X191284291Y-113846174D01*
X191179508Y-113790461D01*
X191087547Y-113715459D01*
X191011902Y-113624020D01*
X190955457Y-113519628D01*
X190920367Y-113406269D01*
X190906000Y-113269576D01*
X190906000Y-109594000D01*
X191289157Y-109594000D01*
X191289157Y-111894000D01*
X191296513Y-111968689D01*
X191318299Y-112040508D01*
X191353678Y-112106696D01*
X191401289Y-112164711D01*
X191459304Y-112212322D01*
X191525492Y-112247701D01*
X191597311Y-112269487D01*
X191672000Y-112276843D01*
X194172000Y-112276843D01*
X194246689Y-112269487D01*
X194318508Y-112247701D01*
X194384696Y-112212322D01*
X194442711Y-112164711D01*
X194490322Y-112106696D01*
X194525701Y-112040508D01*
X194547487Y-111968689D01*
X194554843Y-111894000D01*
X194554843Y-109594000D01*
X194547487Y-109519311D01*
X194525701Y-109447492D01*
X194490322Y-109381304D01*
X194442711Y-109323289D01*
X194384696Y-109275678D01*
X194318508Y-109240299D01*
X194246689Y-109218513D01*
X194172000Y-109211157D01*
X193703000Y-109211157D01*
X193703000Y-108934000D01*
X196100641Y-108934000D01*
X196139000Y-108937778D01*
X196292103Y-108922699D01*
X196439322Y-108878040D01*
X196574999Y-108805519D01*
X196693922Y-108707922D01*
X196791519Y-108588999D01*
X196864040Y-108453322D01*
X196908699Y-108306103D01*
X196920000Y-108191360D01*
X196923778Y-108153000D01*
X196920000Y-108114640D01*
X196920000Y-106871507D01*
X196978589Y-106840190D01*
X197074488Y-106761488D01*
X197153190Y-106665589D01*
X197211671Y-106556179D01*
X197237813Y-106470000D01*
X198391373Y-106470000D01*
X198416810Y-106517589D01*
X198495512Y-106613488D01*
X198591411Y-106692190D01*
X198700821Y-106750671D01*
X198819538Y-106786683D01*
X198943000Y-106798843D01*
X200193000Y-106798843D01*
X200316462Y-106786683D01*
X200435179Y-106750671D01*
X200544589Y-106692190D01*
X200640488Y-106613488D01*
X200719190Y-106517589D01*
X200777671Y-106408179D01*
X200813683Y-106289462D01*
X200825843Y-106166000D01*
X200825843Y-105241000D01*
X200813683Y-105117538D01*
X200777671Y-104998821D01*
X200719190Y-104889411D01*
X200640488Y-104793512D01*
X200544589Y-104714810D01*
X200435179Y-104656329D01*
X200316462Y-104620317D01*
X200193000Y-104608157D01*
X198943000Y-104608157D01*
X198819538Y-104620317D01*
X198700821Y-104656329D01*
X198591411Y-104714810D01*
X198495512Y-104793512D01*
X198416810Y-104889411D01*
X198406874Y-104908000D01*
X197237813Y-104908000D01*
X197211671Y-104821821D01*
X197153190Y-104712411D01*
X197074488Y-104616512D01*
X196978589Y-104537810D01*
X196927000Y-104510235D01*
X196927000Y-103441000D01*
X198054928Y-103441000D01*
X198067188Y-103565482D01*
X198103498Y-103685180D01*
X198162463Y-103795494D01*
X198241815Y-103892185D01*
X198338506Y-103971537D01*
X198448820Y-104030502D01*
X198568518Y-104066812D01*
X198693000Y-104079072D01*
X199282250Y-104076000D01*
X199441000Y-103917250D01*
X199441000Y-102855500D01*
X199695000Y-102855500D01*
X199695000Y-103917250D01*
X199853750Y-104076000D01*
X200443000Y-104079072D01*
X200567482Y-104066812D01*
X200687180Y-104030502D01*
X200797494Y-103971537D01*
X200894185Y-103892185D01*
X200973537Y-103795494D01*
X201032502Y-103685180D01*
X201068812Y-103565482D01*
X201081072Y-103441000D01*
X201078000Y-103014250D01*
X200919250Y-102855500D01*
X199695000Y-102855500D01*
X199441000Y-102855500D01*
X198216750Y-102855500D01*
X198058000Y-103014250D01*
X198054928Y-103441000D01*
X196927000Y-103441000D01*
X196927000Y-102938790D01*
X196970689Y-102934487D01*
X197042508Y-102912701D01*
X197108696Y-102877322D01*
X197166711Y-102829711D01*
X197214322Y-102771696D01*
X197249701Y-102705508D01*
X197271487Y-102633689D01*
X197278843Y-102559000D01*
X197278843Y-102016000D01*
X198054928Y-102016000D01*
X198058000Y-102442750D01*
X198216750Y-102601500D01*
X199441000Y-102601500D01*
X199441000Y-101539750D01*
X199695000Y-101539750D01*
X199695000Y-102601500D01*
X200919250Y-102601500D01*
X201078000Y-102442750D01*
X201081072Y-102016000D01*
X201068812Y-101891518D01*
X201032502Y-101771820D01*
X200973537Y-101661506D01*
X200894185Y-101564815D01*
X200797494Y-101485463D01*
X200687180Y-101426498D01*
X200567482Y-101390188D01*
X200443000Y-101377928D01*
X199853750Y-101381000D01*
X199695000Y-101539750D01*
X199441000Y-101539750D01*
X199282250Y-101381000D01*
X198693000Y-101377928D01*
X198568518Y-101390188D01*
X198448820Y-101426498D01*
X198338506Y-101485463D01*
X198241815Y-101564815D01*
X198162463Y-101661506D01*
X198103498Y-101771820D01*
X198067188Y-101891518D01*
X198054928Y-102016000D01*
X197278843Y-102016000D01*
X197278843Y-101569144D01*
X197350685Y-101510185D01*
X197430037Y-101413494D01*
X197489002Y-101303180D01*
X197525312Y-101183482D01*
X197537572Y-101059000D01*
X197534500Y-100844750D01*
X197375750Y-100686000D01*
X196126500Y-100686000D01*
X196126500Y-100706000D01*
X195880272Y-100706000D01*
X195880272Y-100686000D01*
X193459500Y-100686000D01*
X193459500Y-102135250D01*
X193618250Y-102294000D01*
X194252500Y-102297072D01*
X194254902Y-102296835D01*
X194256031Y-102296922D01*
X194265043Y-102295837D01*
X194376982Y-102284812D01*
X194496680Y-102248502D01*
X194606994Y-102189537D01*
X194703685Y-102110185D01*
X194783037Y-102013494D01*
X194820183Y-101944000D01*
X194869200Y-101944000D01*
X194869200Y-101998966D01*
X195013157Y-101898196D01*
X195013157Y-102559000D01*
X195020513Y-102633689D01*
X195042299Y-102705508D01*
X195077678Y-102771696D01*
X195125289Y-102829711D01*
X195183304Y-102877322D01*
X195249492Y-102912701D01*
X195321311Y-102934487D01*
X195365000Y-102938790D01*
X195365001Y-104530012D01*
X195350411Y-104537810D01*
X195254512Y-104616512D01*
X195175810Y-104712411D01*
X195117329Y-104821821D01*
X195081317Y-104940538D01*
X195069157Y-105064000D01*
X195069157Y-106314000D01*
X195081317Y-106437462D01*
X195117329Y-106556179D01*
X195175810Y-106665589D01*
X195254512Y-106761488D01*
X195350411Y-106840190D01*
X195358000Y-106844246D01*
X195358000Y-107372000D01*
X193281357Y-107372000D01*
X193243000Y-107368222D01*
X193204643Y-107372000D01*
X193204640Y-107372000D01*
X193089897Y-107383301D01*
X192942678Y-107427960D01*
X192807001Y-107500481D01*
X192688078Y-107598078D01*
X192663622Y-107627878D01*
X192396878Y-107894622D01*
X192367078Y-107919078D01*
X192324843Y-107970542D01*
X192269481Y-108038001D01*
X192251421Y-108071789D01*
X192196960Y-108173679D01*
X192152301Y-108320898D01*
X192141000Y-108435640D01*
X192137222Y-108474000D01*
X192141000Y-108512357D01*
X192141000Y-109211157D01*
X191672000Y-109211157D01*
X191597311Y-109218513D01*
X191525492Y-109240299D01*
X191459304Y-109275678D01*
X191401289Y-109323289D01*
X191353678Y-109381304D01*
X191318299Y-109447492D01*
X191296513Y-109519311D01*
X191289157Y-109594000D01*
X190906000Y-109594000D01*
X190906000Y-106564000D01*
X191838928Y-106564000D01*
X191851188Y-106688482D01*
X191887498Y-106808180D01*
X191946463Y-106918494D01*
X192025815Y-107015185D01*
X192122506Y-107094537D01*
X192232820Y-107153502D01*
X192352518Y-107189812D01*
X192477000Y-107202072D01*
X192903750Y-107199000D01*
X193062500Y-107040250D01*
X193062500Y-105816000D01*
X193316500Y-105816000D01*
X193316500Y-107040250D01*
X193475250Y-107199000D01*
X193902000Y-107202072D01*
X194026482Y-107189812D01*
X194146180Y-107153502D01*
X194256494Y-107094537D01*
X194353185Y-107015185D01*
X194432537Y-106918494D01*
X194491502Y-106808180D01*
X194527812Y-106688482D01*
X194540072Y-106564000D01*
X194537000Y-105974750D01*
X194378250Y-105816000D01*
X193316500Y-105816000D01*
X193062500Y-105816000D01*
X192000750Y-105816000D01*
X191842000Y-105974750D01*
X191838928Y-106564000D01*
X190906000Y-106564000D01*
X190906000Y-104814000D01*
X191838928Y-104814000D01*
X191842000Y-105403250D01*
X192000750Y-105562000D01*
X193062500Y-105562000D01*
X193062500Y-104337750D01*
X193316500Y-104337750D01*
X193316500Y-105562000D01*
X194378250Y-105562000D01*
X194537000Y-105403250D01*
X194540072Y-104814000D01*
X194527812Y-104689518D01*
X194491502Y-104569820D01*
X194432537Y-104459506D01*
X194353185Y-104362815D01*
X194256494Y-104283463D01*
X194146180Y-104224498D01*
X194026482Y-104188188D01*
X193902000Y-104175928D01*
X193475250Y-104179000D01*
X193316500Y-104337750D01*
X193062500Y-104337750D01*
X192903750Y-104179000D01*
X192477000Y-104175928D01*
X192352518Y-104188188D01*
X192232820Y-104224498D01*
X192122506Y-104283463D01*
X192025815Y-104362815D01*
X191946463Y-104459506D01*
X191887498Y-104569820D01*
X191851188Y-104689518D01*
X191838928Y-104814000D01*
X190906000Y-104814000D01*
X190906000Y-100686000D01*
X190935928Y-100686000D01*
X190935928Y-101059000D01*
X190945205Y-101167413D01*
X190978438Y-101288001D01*
X191034557Y-101399790D01*
X191111407Y-101498481D01*
X191206035Y-101580284D01*
X191872000Y-102050377D01*
X191872000Y-101994855D01*
X191881963Y-102013494D01*
X191961315Y-102110185D01*
X192058006Y-102189537D01*
X192168320Y-102248502D01*
X192288018Y-102284812D01*
X192412500Y-102297072D01*
X192423461Y-102297019D01*
X192424000Y-102297072D01*
X192424595Y-102297013D01*
X193046750Y-102294000D01*
X193205500Y-102135250D01*
X193205500Y-100686000D01*
X191936250Y-100686000D01*
X191916250Y-100706000D01*
X191872000Y-100706000D01*
X191872000Y-100686000D01*
X190935928Y-100686000D01*
X190906000Y-100686000D01*
X190906000Y-100059000D01*
X190935928Y-100059000D01*
X190935928Y-100432000D01*
X191872000Y-100432000D01*
X191872000Y-100412000D01*
X191916250Y-100412000D01*
X191936250Y-100432000D01*
X193205500Y-100432000D01*
X193205500Y-98982750D01*
X193046750Y-98824000D01*
X192412500Y-98820928D01*
X192409223Y-98821251D01*
X192407658Y-98821137D01*
X192397331Y-98822422D01*
X192288018Y-98833188D01*
X192168320Y-98869498D01*
X192058006Y-98928463D01*
X191961315Y-99007815D01*
X191881963Y-99104506D01*
X191872000Y-99123145D01*
X191872000Y-99067623D01*
X191206035Y-99537716D01*
X191122815Y-99607815D01*
X191043463Y-99704506D01*
X190984498Y-99814820D01*
X190948188Y-99934518D01*
X190935928Y-100059000D01*
X190906000Y-100059000D01*
X190906000Y-96455200D01*
X191787928Y-96455200D01*
X191800188Y-96579682D01*
X191836498Y-96699380D01*
X191895463Y-96809694D01*
X191974815Y-96906385D01*
X192071506Y-96985737D01*
X192181820Y-97044702D01*
X192301518Y-97081012D01*
X192426000Y-97093272D01*
X192852750Y-97090200D01*
X193011500Y-96931450D01*
X193011500Y-95707200D01*
X193265500Y-95707200D01*
X193265500Y-96931450D01*
X193424250Y-97090200D01*
X193851000Y-97093272D01*
X193975482Y-97081012D01*
X194095180Y-97044702D01*
X194205494Y-96985737D01*
X194302185Y-96906385D01*
X194381537Y-96809694D01*
X194440502Y-96699380D01*
X194476812Y-96579682D01*
X194489072Y-96455200D01*
X194486000Y-95865950D01*
X194327250Y-95707200D01*
X193265500Y-95707200D01*
X193011500Y-95707200D01*
X191949750Y-95707200D01*
X191791000Y-95865950D01*
X191787928Y-96455200D01*
X190906000Y-96455200D01*
X190906000Y-94705200D01*
X191787928Y-94705200D01*
X191791000Y-95294450D01*
X191949750Y-95453200D01*
X193011500Y-95453200D01*
X193011500Y-94228950D01*
X193265500Y-94228950D01*
X193265500Y-95453200D01*
X194327250Y-95453200D01*
X194486000Y-95294450D01*
X194489072Y-94705200D01*
X194476812Y-94580718D01*
X194440502Y-94461020D01*
X194381537Y-94350706D01*
X194302185Y-94254015D01*
X194205494Y-94174663D01*
X194095180Y-94115698D01*
X193975482Y-94079388D01*
X193851000Y-94067128D01*
X193424250Y-94070200D01*
X193265500Y-94228950D01*
X193011500Y-94228950D01*
X192852750Y-94070200D01*
X192426000Y-94067128D01*
X192301518Y-94079388D01*
X192181820Y-94115698D01*
X192071506Y-94174663D01*
X191974815Y-94254015D01*
X191895463Y-94350706D01*
X191836498Y-94461020D01*
X191800188Y-94580718D01*
X191787928Y-94705200D01*
X190906000Y-94705200D01*
X190906000Y-88012831D01*
X190927602Y-88064983D01*
X191204151Y-88478869D01*
X191556131Y-88830849D01*
X191970017Y-89107398D01*
X192429901Y-89297889D01*
X192918112Y-89395000D01*
X193415888Y-89395000D01*
X193904099Y-89297889D01*
X194363983Y-89107398D01*
X194777869Y-88830849D01*
X195129849Y-88478869D01*
X195406398Y-88064983D01*
X195507001Y-87822108D01*
X195507000Y-94340747D01*
G36*
X223408748Y-89089058D02*
G01*
X223394605Y-89103200D01*
X223919595Y-89628190D01*
X223945629Y-89714014D01*
X223999579Y-89814947D01*
X224072183Y-89903417D01*
X224094360Y-89921617D01*
X225014382Y-90841640D01*
X224930000Y-90840928D01*
X224805518Y-90853188D01*
X224685820Y-90889498D01*
X224575506Y-90948463D01*
X224478815Y-91027815D01*
X224399463Y-91124506D01*
X224340498Y-91234820D01*
X224304188Y-91354518D01*
X224291928Y-91479000D01*
X224295000Y-92043250D01*
X224453750Y-92202000D01*
X225453000Y-92202000D01*
X225453000Y-92182000D01*
X225707000Y-92182000D01*
X225707000Y-92202000D01*
X226706250Y-92202000D01*
X226865000Y-92043250D01*
X226868072Y-91479000D01*
X226864664Y-91444400D01*
X228050565Y-91444400D01*
X228047157Y-91479000D01*
X228047157Y-93179000D01*
X228054513Y-93253689D01*
X228076299Y-93325508D01*
X228111678Y-93391696D01*
X228159289Y-93449711D01*
X228217304Y-93497322D01*
X228283492Y-93532701D01*
X228355311Y-93554487D01*
X228430000Y-93561843D01*
X228497908Y-93561843D01*
X228496189Y-93579300D01*
X228507407Y-93693195D01*
X228540629Y-93802714D01*
X228594579Y-93903647D01*
X228604717Y-93916000D01*
X228667184Y-93992117D01*
X228689355Y-94010312D01*
X229216199Y-94537157D01*
X228467999Y-94537157D01*
X228344538Y-94549317D01*
X228225821Y-94585329D01*
X228116411Y-94643810D01*
X228020512Y-94722512D01*
X227941810Y-94818411D01*
X227890716Y-94914000D01*
X226795284Y-94914000D01*
X226744190Y-94818411D01*
X226665488Y-94722512D01*
X226569589Y-94643810D01*
X226460179Y-94585329D01*
X226341462Y-94549317D01*
X226218001Y-94537157D01*
X225317999Y-94537157D01*
X225194538Y-94549317D01*
X225075821Y-94585329D01*
X224966411Y-94643810D01*
X224870512Y-94722512D01*
X224791810Y-94818411D01*
X224740716Y-94914000D01*
X223880171Y-94914000D01*
X223820196Y-94895807D01*
X223734840Y-94887400D01*
X223706300Y-94884589D01*
X223677760Y-94887400D01*
X223641264Y-94887400D01*
X223624322Y-94855704D01*
X223576711Y-94797689D01*
X223518696Y-94750078D01*
X223452508Y-94714699D01*
X223380689Y-94692913D01*
X223306000Y-94685557D01*
X222406000Y-94685557D01*
X222331311Y-94692913D01*
X222259492Y-94714699D01*
X222193304Y-94750078D01*
X222135289Y-94797689D01*
X222087678Y-94855704D01*
X222052299Y-94921892D01*
X222030513Y-94993711D01*
X222023157Y-95068400D01*
X222023157Y-95868400D01*
X222030513Y-95943089D01*
X222052299Y-96014908D01*
X222087678Y-96081096D01*
X222135289Y-96139111D01*
X222193304Y-96186722D01*
X222259492Y-96222101D01*
X222331311Y-96243887D01*
X222406000Y-96251243D01*
X223306000Y-96251243D01*
X223380689Y-96243887D01*
X223452508Y-96222101D01*
X223518696Y-96186722D01*
X223576711Y-96139111D01*
X223624322Y-96081096D01*
X223630913Y-96068766D01*
X223704360Y-96076000D01*
X223732899Y-96078811D01*
X223761439Y-96076000D01*
X224740716Y-96076000D01*
X224791810Y-96171589D01*
X224870512Y-96267488D01*
X224961780Y-96342389D01*
X224943518Y-96344188D01*
X224823820Y-96380498D01*
X224713506Y-96439463D01*
X224616815Y-96518815D01*
X224537463Y-96615506D01*
X224478498Y-96725820D01*
X224442188Y-96845518D01*
X224429928Y-96970000D01*
X224433000Y-97259250D01*
X224591750Y-97418000D01*
X225641000Y-97418000D01*
X225641000Y-97398000D01*
X225895000Y-97398000D01*
X225895000Y-97418000D01*
X226944250Y-97418000D01*
X227103000Y-97259250D01*
X227106072Y-96970000D01*
X227093812Y-96845518D01*
X227057502Y-96725820D01*
X226998537Y-96615506D01*
X226919185Y-96518815D01*
X226822494Y-96439463D01*
X226712180Y-96380498D01*
X226592482Y-96344188D01*
X226574220Y-96342389D01*
X226665488Y-96267488D01*
X226744190Y-96171589D01*
X226795284Y-96076000D01*
X227890716Y-96076000D01*
X227941810Y-96171589D01*
X228020512Y-96267488D01*
X228116411Y-96346190D01*
X228225821Y-96404671D01*
X228344538Y-96440683D01*
X228467999Y-96452843D01*
X229188499Y-96452843D01*
X229054186Y-96587157D01*
X228467999Y-96587157D01*
X228344538Y-96599317D01*
X228225821Y-96635329D01*
X228116411Y-96693810D01*
X228020512Y-96772512D01*
X227941810Y-96868411D01*
X227883329Y-96977821D01*
X227847317Y-97096538D01*
X227835157Y-97219999D01*
X227835157Y-97806185D01*
X226732443Y-98908900D01*
X224083140Y-98908900D01*
X224054600Y-98906089D01*
X224026060Y-98908900D01*
X223940704Y-98917307D01*
X223831185Y-98950529D01*
X223730252Y-99004479D01*
X223641783Y-99077083D01*
X223623592Y-99099249D01*
X222483060Y-100239783D01*
X222460883Y-100257983D01*
X222404924Y-100326171D01*
X222388279Y-100346453D01*
X222334329Y-100447386D01*
X222301107Y-100556905D01*
X222289889Y-100670800D01*
X222292700Y-100699340D01*
X222292700Y-101073542D01*
X222230508Y-101040299D01*
X222158689Y-101018513D01*
X222084000Y-101011157D01*
X221816092Y-101011157D01*
X221817811Y-100993699D01*
X221806593Y-100879804D01*
X221773371Y-100770285D01*
X221760132Y-100745517D01*
X221719421Y-100669352D01*
X221646817Y-100580883D01*
X221624645Y-100562687D01*
X221335100Y-100273143D01*
X221335100Y-97768400D01*
X221767928Y-97768400D01*
X221780188Y-97892882D01*
X221816498Y-98012580D01*
X221875463Y-98122894D01*
X221954815Y-98219585D01*
X222051506Y-98298937D01*
X222161820Y-98357902D01*
X222281518Y-98394212D01*
X222406000Y-98406472D01*
X222570250Y-98403400D01*
X222729000Y-98244650D01*
X222729000Y-97495400D01*
X222983000Y-97495400D01*
X222983000Y-98244650D01*
X223141750Y-98403400D01*
X223306000Y-98406472D01*
X223430482Y-98394212D01*
X223550180Y-98357902D01*
X223660494Y-98298937D01*
X223757185Y-98219585D01*
X223836537Y-98122894D01*
X223838083Y-98120000D01*
X224429928Y-98120000D01*
X224442188Y-98244482D01*
X224478498Y-98364180D01*
X224537463Y-98474494D01*
X224616815Y-98571185D01*
X224713506Y-98650537D01*
X224823820Y-98709502D01*
X224943518Y-98745812D01*
X225068000Y-98758072D01*
X225482250Y-98755000D01*
X225641000Y-98596250D01*
X225641000Y-97672000D01*
X225895000Y-97672000D01*
X225895000Y-98596250D01*
X226053750Y-98755000D01*
X226468000Y-98758072D01*
X226592482Y-98745812D01*
X226712180Y-98709502D01*
X226822494Y-98650537D01*
X226919185Y-98571185D01*
X226998537Y-98474494D01*
X227057502Y-98364180D01*
X227093812Y-98244482D01*
X227106072Y-98120000D01*
X227103000Y-97830750D01*
X226944250Y-97672000D01*
X225895000Y-97672000D01*
X225641000Y-97672000D01*
X224591750Y-97672000D01*
X224433000Y-97830750D01*
X224429928Y-98120000D01*
X223838083Y-98120000D01*
X223895502Y-98012580D01*
X223931812Y-97892882D01*
X223944072Y-97768400D01*
X223941000Y-97654150D01*
X223782250Y-97495400D01*
X222983000Y-97495400D01*
X222729000Y-97495400D01*
X221929750Y-97495400D01*
X221771000Y-97654150D01*
X221767928Y-97768400D01*
X221335100Y-97768400D01*
X221335100Y-97550750D01*
X221341421Y-97543048D01*
X221395371Y-97442115D01*
X221428593Y-97332596D01*
X221437000Y-97247240D01*
X221437000Y-97247238D01*
X221439811Y-97218701D01*
X221437000Y-97190164D01*
X221437000Y-97176805D01*
X221452508Y-97172101D01*
X221518696Y-97136722D01*
X221576711Y-97089111D01*
X221624322Y-97031096D01*
X221657834Y-96968400D01*
X221767928Y-96968400D01*
X221771000Y-97082650D01*
X221929750Y-97241400D01*
X222729000Y-97241400D01*
X222729000Y-96492150D01*
X222983000Y-96492150D01*
X222983000Y-97241400D01*
X223782250Y-97241400D01*
X223941000Y-97082650D01*
X223944072Y-96968400D01*
X223931812Y-96843918D01*
X223895502Y-96724220D01*
X223836537Y-96613906D01*
X223757185Y-96517215D01*
X223660494Y-96437863D01*
X223550180Y-96378898D01*
X223430482Y-96342588D01*
X223306000Y-96330328D01*
X223141750Y-96333400D01*
X222983000Y-96492150D01*
X222729000Y-96492150D01*
X222570250Y-96333400D01*
X222406000Y-96330328D01*
X222281518Y-96342588D01*
X222161820Y-96378898D01*
X222051506Y-96437863D01*
X221954815Y-96517215D01*
X221875463Y-96613906D01*
X221816498Y-96724220D01*
X221780188Y-96843918D01*
X221767928Y-96968400D01*
X221657834Y-96968400D01*
X221659701Y-96964908D01*
X221681487Y-96893089D01*
X221688843Y-96818400D01*
X221688843Y-96018400D01*
X221681487Y-95943711D01*
X221659701Y-95871892D01*
X221624322Y-95805704D01*
X221576711Y-95747689D01*
X221518696Y-95700078D01*
X221452508Y-95664699D01*
X221380689Y-95642913D01*
X221306000Y-95635557D01*
X220406000Y-95635557D01*
X220331311Y-95642913D01*
X220259492Y-95664699D01*
X220193304Y-95700078D01*
X220135289Y-95747689D01*
X220087678Y-95805704D01*
X220052299Y-95871892D01*
X220030513Y-95943711D01*
X220023157Y-96018400D01*
X220023157Y-96818400D01*
X220029992Y-96887800D01*
X218870284Y-96887800D01*
X218819190Y-96792211D01*
X218740488Y-96696312D01*
X218644589Y-96617610D01*
X218535179Y-96559129D01*
X218416462Y-96523117D01*
X218293001Y-96510957D01*
X217392999Y-96510957D01*
X217269538Y-96523117D01*
X217150821Y-96559129D01*
X217041411Y-96617610D01*
X216945512Y-96696312D01*
X216866810Y-96792211D01*
X216808329Y-96901621D01*
X216772317Y-97020338D01*
X216760157Y-97143799D01*
X216760157Y-97793801D01*
X216772317Y-97917262D01*
X216808329Y-98035979D01*
X216866810Y-98145389D01*
X216945512Y-98241288D01*
X217041411Y-98319990D01*
X217150821Y-98378471D01*
X217269538Y-98414483D01*
X217392999Y-98426643D01*
X218293001Y-98426643D01*
X218416462Y-98414483D01*
X218535179Y-98378471D01*
X218644589Y-98319990D01*
X218740488Y-98241288D01*
X218819190Y-98145389D01*
X218870284Y-98049800D01*
X220173101Y-98049800D01*
X220173100Y-100485260D01*
X220170289Y-100513800D01*
X220174535Y-100556905D01*
X220181507Y-100627695D01*
X220214729Y-100737214D01*
X220268679Y-100838147D01*
X220341283Y-100926617D01*
X220363460Y-100944817D01*
X220429800Y-101011157D01*
X220384000Y-101011157D01*
X220309311Y-101018513D01*
X220237492Y-101040299D01*
X220171304Y-101075678D01*
X220113289Y-101123289D01*
X220065678Y-101181304D01*
X220030299Y-101247492D01*
X220008513Y-101319311D01*
X220001157Y-101394000D01*
X220001157Y-102522500D01*
X214919040Y-102522500D01*
X214890500Y-102519689D01*
X214861960Y-102522500D01*
X214776604Y-102530907D01*
X214667085Y-102564129D01*
X214566152Y-102618079D01*
X214477683Y-102690683D01*
X214459490Y-102712852D01*
X213771700Y-103400643D01*
X213716000Y-103395157D01*
X213637700Y-103395157D01*
X216317846Y-100715012D01*
X216340017Y-100696817D01*
X216412621Y-100608348D01*
X216466571Y-100507415D01*
X216499793Y-100397896D01*
X216508200Y-100312540D01*
X216508200Y-100312539D01*
X216511011Y-100284000D01*
X216508200Y-100255460D01*
X216508200Y-90140757D01*
X217062487Y-90695045D01*
X217080683Y-90717217D01*
X217169152Y-90789821D01*
X217264766Y-90840928D01*
X217270085Y-90843771D01*
X217379604Y-90876993D01*
X217493499Y-90888211D01*
X217522039Y-90885400D01*
X218790360Y-90885400D01*
X218818900Y-90888211D01*
X218847440Y-90885400D01*
X218932796Y-90876993D01*
X218953400Y-90870743D01*
X218861960Y-90962183D01*
X218839783Y-90980383D01*
X218770505Y-91064800D01*
X218767179Y-91068853D01*
X218713229Y-91169786D01*
X218680007Y-91279305D01*
X218668789Y-91393200D01*
X218671600Y-91421740D01*
X218671601Y-92304398D01*
X218645958Y-92330041D01*
X218560487Y-92457958D01*
X218501613Y-92600091D01*
X218471600Y-92750978D01*
X218471600Y-92787242D01*
X217452360Y-93806483D01*
X217430183Y-93824683D01*
X217357580Y-93913152D01*
X217357579Y-93913153D01*
X217303629Y-94014086D01*
X217270407Y-94123605D01*
X217259189Y-94237500D01*
X217262000Y-94266040D01*
X217262000Y-94475404D01*
X217150821Y-94509129D01*
X217041411Y-94567610D01*
X216945512Y-94646312D01*
X216866810Y-94742211D01*
X216808329Y-94851621D01*
X216772317Y-94970338D01*
X216760157Y-95093799D01*
X216760157Y-95743801D01*
X216772317Y-95867262D01*
X216808329Y-95985979D01*
X216866810Y-96095389D01*
X216945512Y-96191288D01*
X217041411Y-96269990D01*
X217150821Y-96328471D01*
X217269538Y-96364483D01*
X217392999Y-96376643D01*
X218293001Y-96376643D01*
X218416462Y-96364483D01*
X218535179Y-96328471D01*
X218644589Y-96269990D01*
X218740488Y-96191288D01*
X218819190Y-96095389D01*
X218877671Y-95985979D01*
X218913683Y-95867262D01*
X218925843Y-95743801D01*
X218925843Y-95093799D01*
X218913683Y-94970338D01*
X218877671Y-94851621D01*
X218819190Y-94742211D01*
X218740488Y-94646312D01*
X218644589Y-94567610D01*
X218535179Y-94509129D01*
X218426113Y-94476044D01*
X219293258Y-93608900D01*
X219329522Y-93608900D01*
X219480409Y-93578887D01*
X219622542Y-93520013D01*
X219750459Y-93434542D01*
X219859242Y-93325759D01*
X219944713Y-93197842D01*
X219952517Y-93179000D01*
X224291928Y-93179000D01*
X224304188Y-93303482D01*
X224340498Y-93423180D01*
X224399463Y-93533494D01*
X224478815Y-93630185D01*
X224575506Y-93709537D01*
X224685820Y-93768502D01*
X224805518Y-93804812D01*
X224930000Y-93817072D01*
X225294250Y-93814000D01*
X225453000Y-93655250D01*
X225453000Y-92456000D01*
X225707000Y-92456000D01*
X225707000Y-93655250D01*
X225865750Y-93814000D01*
X226230000Y-93817072D01*
X226354482Y-93804812D01*
X226474180Y-93768502D01*
X226584494Y-93709537D01*
X226681185Y-93630185D01*
X226760537Y-93533494D01*
X226819502Y-93423180D01*
X226855812Y-93303482D01*
X226868072Y-93179000D01*
X226865000Y-92614750D01*
X226706250Y-92456000D01*
X225707000Y-92456000D01*
X225453000Y-92456000D01*
X224453750Y-92456000D01*
X224295000Y-92614750D01*
X224291928Y-93179000D01*
X219952517Y-93179000D01*
X220003587Y-93055709D01*
X220033600Y-92904822D01*
X220033600Y-92750978D01*
X220003587Y-92600091D01*
X219944713Y-92457958D01*
X219859242Y-92330041D01*
X219833600Y-92304399D01*
X219833600Y-91633857D01*
X221428698Y-90038760D01*
X222459045Y-90038760D01*
X222520932Y-90274568D01*
X222762790Y-90387466D01*
X223022027Y-90451011D01*
X223288680Y-90462761D01*
X223552501Y-90422263D01*
X223803353Y-90331075D01*
X223909068Y-90274568D01*
X223970955Y-90038760D01*
X223215000Y-89282805D01*
X222459045Y-90038760D01*
X221428698Y-90038760D01*
X221930814Y-89536645D01*
X221987125Y-89691553D01*
X222043632Y-89797268D01*
X222279440Y-89859155D01*
X223035395Y-89103200D01*
X223021253Y-89089058D01*
X223200858Y-88909453D01*
X223215000Y-88923595D01*
X223229143Y-88909453D01*
X223408748Y-89089058D01*
X223408748Y-89089058D01*
G37*
X223408748Y-89089058D02*
X223394605Y-89103200D01*
X223919595Y-89628190D01*
X223945629Y-89714014D01*
X223999579Y-89814947D01*
X224072183Y-89903417D01*
X224094360Y-89921617D01*
X225014382Y-90841640D01*
X224930000Y-90840928D01*
X224805518Y-90853188D01*
X224685820Y-90889498D01*
X224575506Y-90948463D01*
X224478815Y-91027815D01*
X224399463Y-91124506D01*
X224340498Y-91234820D01*
X224304188Y-91354518D01*
X224291928Y-91479000D01*
X224295000Y-92043250D01*
X224453750Y-92202000D01*
X225453000Y-92202000D01*
X225453000Y-92182000D01*
X225707000Y-92182000D01*
X225707000Y-92202000D01*
X226706250Y-92202000D01*
X226865000Y-92043250D01*
X226868072Y-91479000D01*
X226864664Y-91444400D01*
X228050565Y-91444400D01*
X228047157Y-91479000D01*
X228047157Y-93179000D01*
X228054513Y-93253689D01*
X228076299Y-93325508D01*
X228111678Y-93391696D01*
X228159289Y-93449711D01*
X228217304Y-93497322D01*
X228283492Y-93532701D01*
X228355311Y-93554487D01*
X228430000Y-93561843D01*
X228497908Y-93561843D01*
X228496189Y-93579300D01*
X228507407Y-93693195D01*
X228540629Y-93802714D01*
X228594579Y-93903647D01*
X228604717Y-93916000D01*
X228667184Y-93992117D01*
X228689355Y-94010312D01*
X229216199Y-94537157D01*
X228467999Y-94537157D01*
X228344538Y-94549317D01*
X228225821Y-94585329D01*
X228116411Y-94643810D01*
X228020512Y-94722512D01*
X227941810Y-94818411D01*
X227890716Y-94914000D01*
X226795284Y-94914000D01*
X226744190Y-94818411D01*
X226665488Y-94722512D01*
X226569589Y-94643810D01*
X226460179Y-94585329D01*
X226341462Y-94549317D01*
X226218001Y-94537157D01*
X225317999Y-94537157D01*
X225194538Y-94549317D01*
X225075821Y-94585329D01*
X224966411Y-94643810D01*
X224870512Y-94722512D01*
X224791810Y-94818411D01*
X224740716Y-94914000D01*
X223880171Y-94914000D01*
X223820196Y-94895807D01*
X223734840Y-94887400D01*
X223706300Y-94884589D01*
X223677760Y-94887400D01*
X223641264Y-94887400D01*
X223624322Y-94855704D01*
X223576711Y-94797689D01*
X223518696Y-94750078D01*
X223452508Y-94714699D01*
X223380689Y-94692913D01*
X223306000Y-94685557D01*
X222406000Y-94685557D01*
X222331311Y-94692913D01*
X222259492Y-94714699D01*
X222193304Y-94750078D01*
X222135289Y-94797689D01*
X222087678Y-94855704D01*
X222052299Y-94921892D01*
X222030513Y-94993711D01*
X222023157Y-95068400D01*
X222023157Y-95868400D01*
X222030513Y-95943089D01*
X222052299Y-96014908D01*
X222087678Y-96081096D01*
X222135289Y-96139111D01*
X222193304Y-96186722D01*
X222259492Y-96222101D01*
X222331311Y-96243887D01*
X222406000Y-96251243D01*
X223306000Y-96251243D01*
X223380689Y-96243887D01*
X223452508Y-96222101D01*
X223518696Y-96186722D01*
X223576711Y-96139111D01*
X223624322Y-96081096D01*
X223630913Y-96068766D01*
X223704360Y-96076000D01*
X223732899Y-96078811D01*
X223761439Y-96076000D01*
X224740716Y-96076000D01*
X224791810Y-96171589D01*
X224870512Y-96267488D01*
X224961780Y-96342389D01*
X224943518Y-96344188D01*
X224823820Y-96380498D01*
X224713506Y-96439463D01*
X224616815Y-96518815D01*
X224537463Y-96615506D01*
X224478498Y-96725820D01*
X224442188Y-96845518D01*
X224429928Y-96970000D01*
X224433000Y-97259250D01*
X224591750Y-97418000D01*
X225641000Y-97418000D01*
X225641000Y-97398000D01*
X225895000Y-97398000D01*
X225895000Y-97418000D01*
X226944250Y-97418000D01*
X227103000Y-97259250D01*
X227106072Y-96970000D01*
X227093812Y-96845518D01*
X227057502Y-96725820D01*
X226998537Y-96615506D01*
X226919185Y-96518815D01*
X226822494Y-96439463D01*
X226712180Y-96380498D01*
X226592482Y-96344188D01*
X226574220Y-96342389D01*
X226665488Y-96267488D01*
X226744190Y-96171589D01*
X226795284Y-96076000D01*
X227890716Y-96076000D01*
X227941810Y-96171589D01*
X228020512Y-96267488D01*
X228116411Y-96346190D01*
X228225821Y-96404671D01*
X228344538Y-96440683D01*
X228467999Y-96452843D01*
X229188499Y-96452843D01*
X229054186Y-96587157D01*
X228467999Y-96587157D01*
X228344538Y-96599317D01*
X228225821Y-96635329D01*
X228116411Y-96693810D01*
X228020512Y-96772512D01*
X227941810Y-96868411D01*
X227883329Y-96977821D01*
X227847317Y-97096538D01*
X227835157Y-97219999D01*
X227835157Y-97806185D01*
X226732443Y-98908900D01*
X224083140Y-98908900D01*
X224054600Y-98906089D01*
X224026060Y-98908900D01*
X223940704Y-98917307D01*
X223831185Y-98950529D01*
X223730252Y-99004479D01*
X223641783Y-99077083D01*
X223623592Y-99099249D01*
X222483060Y-100239783D01*
X222460883Y-100257983D01*
X222404924Y-100326171D01*
X222388279Y-100346453D01*
X222334329Y-100447386D01*
X222301107Y-100556905D01*
X222289889Y-100670800D01*
X222292700Y-100699340D01*
X222292700Y-101073542D01*
X222230508Y-101040299D01*
X222158689Y-101018513D01*
X222084000Y-101011157D01*
X221816092Y-101011157D01*
X221817811Y-100993699D01*
X221806593Y-100879804D01*
X221773371Y-100770285D01*
X221760132Y-100745517D01*
X221719421Y-100669352D01*
X221646817Y-100580883D01*
X221624645Y-100562687D01*
X221335100Y-100273143D01*
X221335100Y-97768400D01*
X221767928Y-97768400D01*
X221780188Y-97892882D01*
X221816498Y-98012580D01*
X221875463Y-98122894D01*
X221954815Y-98219585D01*
X222051506Y-98298937D01*
X222161820Y-98357902D01*
X222281518Y-98394212D01*
X222406000Y-98406472D01*
X222570250Y-98403400D01*
X222729000Y-98244650D01*
X222729000Y-97495400D01*
X222983000Y-97495400D01*
X222983000Y-98244650D01*
X223141750Y-98403400D01*
X223306000Y-98406472D01*
X223430482Y-98394212D01*
X223550180Y-98357902D01*
X223660494Y-98298937D01*
X223757185Y-98219585D01*
X223836537Y-98122894D01*
X223838083Y-98120000D01*
X224429928Y-98120000D01*
X224442188Y-98244482D01*
X224478498Y-98364180D01*
X224537463Y-98474494D01*
X224616815Y-98571185D01*
X224713506Y-98650537D01*
X224823820Y-98709502D01*
X224943518Y-98745812D01*
X225068000Y-98758072D01*
X225482250Y-98755000D01*
X225641000Y-98596250D01*
X225641000Y-97672000D01*
X225895000Y-97672000D01*
X225895000Y-98596250D01*
X226053750Y-98755000D01*
X226468000Y-98758072D01*
X226592482Y-98745812D01*
X226712180Y-98709502D01*
X226822494Y-98650537D01*
X226919185Y-98571185D01*
X226998537Y-98474494D01*
X227057502Y-98364180D01*
X227093812Y-98244482D01*
X227106072Y-98120000D01*
X227103000Y-97830750D01*
X226944250Y-97672000D01*
X225895000Y-97672000D01*
X225641000Y-97672000D01*
X224591750Y-97672000D01*
X224433000Y-97830750D01*
X224429928Y-98120000D01*
X223838083Y-98120000D01*
X223895502Y-98012580D01*
X223931812Y-97892882D01*
X223944072Y-97768400D01*
X223941000Y-97654150D01*
X223782250Y-97495400D01*
X222983000Y-97495400D01*
X222729000Y-97495400D01*
X221929750Y-97495400D01*
X221771000Y-97654150D01*
X221767928Y-97768400D01*
X221335100Y-97768400D01*
X221335100Y-97550750D01*
X221341421Y-97543048D01*
X221395371Y-97442115D01*
X221428593Y-97332596D01*
X221437000Y-97247240D01*
X221437000Y-97247238D01*
X221439811Y-97218701D01*
X221437000Y-97190164D01*
X221437000Y-97176805D01*
X221452508Y-97172101D01*
X221518696Y-97136722D01*
X221576711Y-97089111D01*
X221624322Y-97031096D01*
X221657834Y-96968400D01*
X221767928Y-96968400D01*
X221771000Y-97082650D01*
X221929750Y-97241400D01*
X222729000Y-97241400D01*
X222729000Y-96492150D01*
X222983000Y-96492150D01*
X222983000Y-97241400D01*
X223782250Y-97241400D01*
X223941000Y-97082650D01*
X223944072Y-96968400D01*
X223931812Y-96843918D01*
X223895502Y-96724220D01*
X223836537Y-96613906D01*
X223757185Y-96517215D01*
X223660494Y-96437863D01*
X223550180Y-96378898D01*
X223430482Y-96342588D01*
X223306000Y-96330328D01*
X223141750Y-96333400D01*
X222983000Y-96492150D01*
X222729000Y-96492150D01*
X222570250Y-96333400D01*
X222406000Y-96330328D01*
X222281518Y-96342588D01*
X222161820Y-96378898D01*
X222051506Y-96437863D01*
X221954815Y-96517215D01*
X221875463Y-96613906D01*
X221816498Y-96724220D01*
X221780188Y-96843918D01*
X221767928Y-96968400D01*
X221657834Y-96968400D01*
X221659701Y-96964908D01*
X221681487Y-96893089D01*
X221688843Y-96818400D01*
X221688843Y-96018400D01*
X221681487Y-95943711D01*
X221659701Y-95871892D01*
X221624322Y-95805704D01*
X221576711Y-95747689D01*
X221518696Y-95700078D01*
X221452508Y-95664699D01*
X221380689Y-95642913D01*
X221306000Y-95635557D01*
X220406000Y-95635557D01*
X220331311Y-95642913D01*
X220259492Y-95664699D01*
X220193304Y-95700078D01*
X220135289Y-95747689D01*
X220087678Y-95805704D01*
X220052299Y-95871892D01*
X220030513Y-95943711D01*
X220023157Y-96018400D01*
X220023157Y-96818400D01*
X220029992Y-96887800D01*
X218870284Y-96887800D01*
X218819190Y-96792211D01*
X218740488Y-96696312D01*
X218644589Y-96617610D01*
X218535179Y-96559129D01*
X218416462Y-96523117D01*
X218293001Y-96510957D01*
X217392999Y-96510957D01*
X217269538Y-96523117D01*
X217150821Y-96559129D01*
X217041411Y-96617610D01*
X216945512Y-96696312D01*
X216866810Y-96792211D01*
X216808329Y-96901621D01*
X216772317Y-97020338D01*
X216760157Y-97143799D01*
X216760157Y-97793801D01*
X216772317Y-97917262D01*
X216808329Y-98035979D01*
X216866810Y-98145389D01*
X216945512Y-98241288D01*
X217041411Y-98319990D01*
X217150821Y-98378471D01*
X217269538Y-98414483D01*
X217392999Y-98426643D01*
X218293001Y-98426643D01*
X218416462Y-98414483D01*
X218535179Y-98378471D01*
X218644589Y-98319990D01*
X218740488Y-98241288D01*
X218819190Y-98145389D01*
X218870284Y-98049800D01*
X220173101Y-98049800D01*
X220173100Y-100485260D01*
X220170289Y-100513800D01*
X220174535Y-100556905D01*
X220181507Y-100627695D01*
X220214729Y-100737214D01*
X220268679Y-100838147D01*
X220341283Y-100926617D01*
X220363460Y-100944817D01*
X220429800Y-101011157D01*
X220384000Y-101011157D01*
X220309311Y-101018513D01*
X220237492Y-101040299D01*
X220171304Y-101075678D01*
X220113289Y-101123289D01*
X220065678Y-101181304D01*
X220030299Y-101247492D01*
X220008513Y-101319311D01*
X220001157Y-101394000D01*
X220001157Y-102522500D01*
X214919040Y-102522500D01*
X214890500Y-102519689D01*
X214861960Y-102522500D01*
X214776604Y-102530907D01*
X214667085Y-102564129D01*
X214566152Y-102618079D01*
X214477683Y-102690683D01*
X214459490Y-102712852D01*
X213771700Y-103400643D01*
X213716000Y-103395157D01*
X213637700Y-103395157D01*
X216317846Y-100715012D01*
X216340017Y-100696817D01*
X216412621Y-100608348D01*
X216466571Y-100507415D01*
X216499793Y-100397896D01*
X216508200Y-100312540D01*
X216508200Y-100312539D01*
X216511011Y-100284000D01*
X216508200Y-100255460D01*
X216508200Y-90140757D01*
X217062487Y-90695045D01*
X217080683Y-90717217D01*
X217169152Y-90789821D01*
X217264766Y-90840928D01*
X217270085Y-90843771D01*
X217379604Y-90876993D01*
X217493499Y-90888211D01*
X217522039Y-90885400D01*
X218790360Y-90885400D01*
X218818900Y-90888211D01*
X218847440Y-90885400D01*
X218932796Y-90876993D01*
X218953400Y-90870743D01*
X218861960Y-90962183D01*
X218839783Y-90980383D01*
X218770505Y-91064800D01*
X218767179Y-91068853D01*
X218713229Y-91169786D01*
X218680007Y-91279305D01*
X218668789Y-91393200D01*
X218671600Y-91421740D01*
X218671601Y-92304398D01*
X218645958Y-92330041D01*
X218560487Y-92457958D01*
X218501613Y-92600091D01*
X218471600Y-92750978D01*
X218471600Y-92787242D01*
X217452360Y-93806483D01*
X217430183Y-93824683D01*
X217357580Y-93913152D01*
X217357579Y-93913153D01*
X217303629Y-94014086D01*
X217270407Y-94123605D01*
X217259189Y-94237500D01*
X217262000Y-94266040D01*
X217262000Y-94475404D01*
X217150821Y-94509129D01*
X217041411Y-94567610D01*
X216945512Y-94646312D01*
X216866810Y-94742211D01*
X216808329Y-94851621D01*
X216772317Y-94970338D01*
X216760157Y-95093799D01*
X216760157Y-95743801D01*
X216772317Y-95867262D01*
X216808329Y-95985979D01*
X216866810Y-96095389D01*
X216945512Y-96191288D01*
X217041411Y-96269990D01*
X217150821Y-96328471D01*
X217269538Y-96364483D01*
X217392999Y-96376643D01*
X218293001Y-96376643D01*
X218416462Y-96364483D01*
X218535179Y-96328471D01*
X218644589Y-96269990D01*
X218740488Y-96191288D01*
X218819190Y-96095389D01*
X218877671Y-95985979D01*
X218913683Y-95867262D01*
X218925843Y-95743801D01*
X218925843Y-95093799D01*
X218913683Y-94970338D01*
X218877671Y-94851621D01*
X218819190Y-94742211D01*
X218740488Y-94646312D01*
X218644589Y-94567610D01*
X218535179Y-94509129D01*
X218426113Y-94476044D01*
X219293258Y-93608900D01*
X219329522Y-93608900D01*
X219480409Y-93578887D01*
X219622542Y-93520013D01*
X219750459Y-93434542D01*
X219859242Y-93325759D01*
X219944713Y-93197842D01*
X219952517Y-93179000D01*
X224291928Y-93179000D01*
X224304188Y-93303482D01*
X224340498Y-93423180D01*
X224399463Y-93533494D01*
X224478815Y-93630185D01*
X224575506Y-93709537D01*
X224685820Y-93768502D01*
X224805518Y-93804812D01*
X224930000Y-93817072D01*
X225294250Y-93814000D01*
X225453000Y-93655250D01*
X225453000Y-92456000D01*
X225707000Y-92456000D01*
X225707000Y-93655250D01*
X225865750Y-93814000D01*
X226230000Y-93817072D01*
X226354482Y-93804812D01*
X226474180Y-93768502D01*
X226584494Y-93709537D01*
X226681185Y-93630185D01*
X226760537Y-93533494D01*
X226819502Y-93423180D01*
X226855812Y-93303482D01*
X226868072Y-93179000D01*
X226865000Y-92614750D01*
X226706250Y-92456000D01*
X225707000Y-92456000D01*
X225453000Y-92456000D01*
X224453750Y-92456000D01*
X224295000Y-92614750D01*
X224291928Y-93179000D01*
X219952517Y-93179000D01*
X220003587Y-93055709D01*
X220033600Y-92904822D01*
X220033600Y-92750978D01*
X220003587Y-92600091D01*
X219944713Y-92457958D01*
X219859242Y-92330041D01*
X219833600Y-92304399D01*
X219833600Y-91633857D01*
X221428698Y-90038760D01*
X222459045Y-90038760D01*
X222520932Y-90274568D01*
X222762790Y-90387466D01*
X223022027Y-90451011D01*
X223288680Y-90462761D01*
X223552501Y-90422263D01*
X223803353Y-90331075D01*
X223909068Y-90274568D01*
X223970955Y-90038760D01*
X223215000Y-89282805D01*
X222459045Y-90038760D01*
X221428698Y-90038760D01*
X221930814Y-89536645D01*
X221987125Y-89691553D01*
X222043632Y-89797268D01*
X222279440Y-89859155D01*
X223035395Y-89103200D01*
X223021253Y-89089058D01*
X223200858Y-88909453D01*
X223215000Y-88923595D01*
X223229143Y-88909453D01*
X223408748Y-89089058D01*
G36*
X213545301Y-98733051D02*
G01*
X213542252Y-98730002D01*
X213545301Y-98730002D01*
X213545301Y-98733051D01*
X213545301Y-98733051D01*
G37*
X213545301Y-98733051D02*
X213542252Y-98730002D01*
X213545301Y-98730002D01*
X213545301Y-98733051D01*
G36*
X211038000Y-98730000D02*
G01*
X210744000Y-98730000D01*
X210744000Y-98476000D01*
X211038000Y-98476000D01*
X211038000Y-98730000D01*
X211038000Y-98730000D01*
G37*
X211038000Y-98730000D02*
X210744000Y-98730000D01*
X210744000Y-98476000D01*
X211038000Y-98476000D01*
X211038000Y-98730000D01*
G36*
X213545300Y-98475998D02*
G01*
X213542252Y-98475998D01*
X213545300Y-98472950D01*
X213545300Y-98475998D01*
X213545300Y-98475998D01*
G37*
X213545300Y-98475998D02*
X213542252Y-98475998D01*
X213545300Y-98472950D01*
X213545300Y-98475998D01*
G36*
X211611000Y-97428319D02*
G01*
X211607880Y-97449421D01*
X211609303Y-97478110D01*
X211574003Y-97433737D01*
X211478531Y-97352922D01*
X211369127Y-97292285D01*
X211316781Y-97275531D01*
X211284250Y-97243000D01*
X211216000Y-97250447D01*
X211147750Y-97243000D01*
X211115219Y-97275531D01*
X211062873Y-97292285D01*
X210953469Y-97352922D01*
X210891000Y-97405801D01*
X210828531Y-97352922D01*
X210719127Y-97292285D01*
X210666781Y-97275531D01*
X210634250Y-97243000D01*
X210566000Y-97250447D01*
X210497750Y-97243000D01*
X210465219Y-97275531D01*
X210412873Y-97292285D01*
X210303469Y-97352922D01*
X210207997Y-97433737D01*
X210143000Y-97515442D01*
X210143000Y-97401750D01*
X209984250Y-97243000D01*
X209882004Y-97254156D01*
X209762873Y-97292285D01*
X209653469Y-97352922D01*
X209557997Y-97433737D01*
X209524614Y-97475701D01*
X209513593Y-97363804D01*
X209480371Y-97254285D01*
X209426421Y-97153352D01*
X209353817Y-97064883D01*
X209274025Y-96999400D01*
X211611000Y-96999400D01*
X211611000Y-97428319D01*
X211611000Y-97428319D01*
G37*
X211611000Y-97428319D02*
X211607880Y-97449421D01*
X211609303Y-97478110D01*
X211574003Y-97433737D01*
X211478531Y-97352922D01*
X211369127Y-97292285D01*
X211316781Y-97275531D01*
X211284250Y-97243000D01*
X211216000Y-97250447D01*
X211147750Y-97243000D01*
X211115219Y-97275531D01*
X211062873Y-97292285D01*
X210953469Y-97352922D01*
X210891000Y-97405801D01*
X210828531Y-97352922D01*
X210719127Y-97292285D01*
X210666781Y-97275531D01*
X210634250Y-97243000D01*
X210566000Y-97250447D01*
X210497750Y-97243000D01*
X210465219Y-97275531D01*
X210412873Y-97292285D01*
X210303469Y-97352922D01*
X210207997Y-97433737D01*
X210143000Y-97515442D01*
X210143000Y-97401750D01*
X209984250Y-97243000D01*
X209882004Y-97254156D01*
X209762873Y-97292285D01*
X209653469Y-97352922D01*
X209557997Y-97433737D01*
X209524614Y-97475701D01*
X209513593Y-97363804D01*
X209480371Y-97254285D01*
X209426421Y-97153352D01*
X209353817Y-97064883D01*
X209274025Y-96999400D01*
X211611000Y-96999400D01*
X211611000Y-97428319D01*
G36*
X206314299Y-85236492D02*
G01*
X206292513Y-85308311D01*
X206285157Y-85383000D01*
X206285157Y-87083000D01*
X206292513Y-87157689D01*
X206314299Y-87229508D01*
X206349678Y-87295696D01*
X206397289Y-87353711D01*
X206455304Y-87401322D01*
X206521492Y-87436701D01*
X206593311Y-87458487D01*
X206668000Y-87465843D01*
X207026001Y-87465843D01*
X207026000Y-90431957D01*
X206982000Y-90431957D01*
X206858538Y-90444117D01*
X206739821Y-90480129D01*
X206630411Y-90538610D01*
X206534512Y-90617312D01*
X206455810Y-90713211D01*
X206397329Y-90822621D01*
X206361317Y-90941338D01*
X206349157Y-91064800D01*
X206349157Y-91989800D01*
X206361317Y-92113262D01*
X206397329Y-92231979D01*
X206455810Y-92341389D01*
X206534512Y-92437288D01*
X206630411Y-92515990D01*
X206739821Y-92574471D01*
X206858538Y-92610483D01*
X206982000Y-92622643D01*
X208232000Y-92622643D01*
X208355462Y-92610483D01*
X208474179Y-92574471D01*
X208583589Y-92515990D01*
X208679488Y-92437288D01*
X208758190Y-92341389D01*
X208816671Y-92231979D01*
X208852683Y-92113262D01*
X208864843Y-91989800D01*
X208864843Y-91064800D01*
X208852683Y-90941338D01*
X208816671Y-90822621D01*
X208758190Y-90713211D01*
X208679488Y-90617312D01*
X208583589Y-90538610D01*
X208474179Y-90480129D01*
X208355462Y-90444117D01*
X208232000Y-90431957D01*
X208188000Y-90431957D01*
X208188000Y-89176880D01*
X211441439Y-89176880D01*
X211481937Y-89440701D01*
X211573125Y-89691553D01*
X211629632Y-89797268D01*
X211865440Y-89859155D01*
X212621395Y-89103200D01*
X211865440Y-88347245D01*
X211629632Y-88409132D01*
X211516734Y-88650990D01*
X211453189Y-88910227D01*
X211441439Y-89176880D01*
X208188000Y-89176880D01*
X208188000Y-88167640D01*
X212045045Y-88167640D01*
X212801000Y-88923595D01*
X213556955Y-88167640D01*
X213495068Y-87931832D01*
X213253210Y-87818934D01*
X212993973Y-87755389D01*
X212727320Y-87743639D01*
X212463499Y-87784137D01*
X212212647Y-87875325D01*
X212106932Y-87931832D01*
X212045045Y-88167640D01*
X208188000Y-88167640D01*
X208188000Y-87465843D01*
X208368000Y-87465843D01*
X208442689Y-87458487D01*
X208514508Y-87436701D01*
X208580696Y-87401322D01*
X208638711Y-87353711D01*
X208686322Y-87295696D01*
X208721701Y-87229508D01*
X208743487Y-87157689D01*
X208750843Y-87083000D01*
X208750843Y-85383000D01*
X208743487Y-85308311D01*
X208721701Y-85236492D01*
X208705937Y-85207000D01*
X217300001Y-85207000D01*
X217300000Y-88167251D01*
X217179154Y-88247998D01*
X217038405Y-88388747D01*
X216200517Y-87550860D01*
X216182317Y-87528683D01*
X216093848Y-87456079D01*
X215992915Y-87402129D01*
X215883396Y-87368907D01*
X215798040Y-87360500D01*
X215769500Y-87357689D01*
X215740960Y-87360500D01*
X214887736Y-87360500D01*
X214859199Y-87357689D01*
X214830662Y-87360500D01*
X214830660Y-87360500D01*
X214745304Y-87368907D01*
X214635785Y-87402129D01*
X214534852Y-87456079D01*
X214446383Y-87528683D01*
X214428187Y-87550855D01*
X213762160Y-88216883D01*
X213739983Y-88235083D01*
X213676408Y-88312551D01*
X213667379Y-88323553D01*
X213613429Y-88424486D01*
X213593447Y-88490358D01*
X212980605Y-89103200D01*
X212994748Y-89117343D01*
X212815143Y-89296948D01*
X212801000Y-89282805D01*
X212045045Y-90038760D01*
X212106932Y-90274568D01*
X212348790Y-90387466D01*
X212608027Y-90451011D01*
X212874680Y-90462761D01*
X213138501Y-90422263D01*
X213389353Y-90331075D01*
X213495068Y-90274568D01*
X213556954Y-90038762D01*
X213571800Y-90053608D01*
X213571801Y-94890750D01*
X213568989Y-94919300D01*
X213580207Y-95033195D01*
X213613429Y-95142714D01*
X213667379Y-95243647D01*
X213667380Y-95243648D01*
X213739984Y-95332117D01*
X213762155Y-95350312D01*
X214745900Y-96334058D01*
X214745900Y-96362342D01*
X211350617Y-92967060D01*
X211332417Y-92944883D01*
X211243948Y-92872279D01*
X211143015Y-92818329D01*
X211033496Y-92785107D01*
X210948140Y-92776700D01*
X210919600Y-92773889D01*
X210891060Y-92776700D01*
X205589467Y-92776700D01*
X205589000Y-92732750D01*
X205430250Y-92574000D01*
X204381000Y-92574000D01*
X204381000Y-92594000D01*
X204127000Y-92594000D01*
X204127000Y-92574000D01*
X204107000Y-92574000D01*
X204107000Y-92320000D01*
X204127000Y-92320000D01*
X204127000Y-91395750D01*
X204381000Y-91395750D01*
X204381000Y-92320000D01*
X205430250Y-92320000D01*
X205589000Y-92161250D01*
X205592072Y-91872000D01*
X205579812Y-91747518D01*
X205543502Y-91627820D01*
X205484537Y-91517506D01*
X205405185Y-91420815D01*
X205308494Y-91341463D01*
X205198180Y-91282498D01*
X205078482Y-91246188D01*
X204954000Y-91233928D01*
X204539750Y-91237000D01*
X204381000Y-91395750D01*
X204127000Y-91395750D01*
X203968250Y-91237000D01*
X203554000Y-91233928D01*
X203429518Y-91246188D01*
X203309820Y-91282498D01*
X203199506Y-91341463D01*
X203102815Y-91420815D01*
X203023463Y-91517506D01*
X202964498Y-91627820D01*
X202928188Y-91747518D01*
X202924533Y-91784632D01*
X202827559Y-91687658D01*
X202699642Y-91602187D01*
X202557509Y-91543313D01*
X202406622Y-91513300D01*
X202252778Y-91513300D01*
X202110400Y-91541620D01*
X202110400Y-89143239D01*
X202113211Y-89114699D01*
X202101993Y-89000804D01*
X202068771Y-88891285D01*
X202014821Y-88790352D01*
X201991385Y-88761795D01*
X201942217Y-88701883D01*
X201920046Y-88683688D01*
X200528281Y-87291924D01*
X200585216Y-87261491D01*
X200772660Y-87107660D01*
X200926491Y-86920216D01*
X201039017Y-86709695D01*
X201093843Y-86864252D01*
X201242822Y-87114355D01*
X201437731Y-87330588D01*
X201671080Y-87504641D01*
X201933901Y-87629825D01*
X202081110Y-87674476D01*
X202311000Y-87553155D01*
X202311000Y-86360000D01*
X202291000Y-86360000D01*
X202291000Y-86106000D01*
X202311000Y-86106000D01*
X202311000Y-86086000D01*
X202565000Y-86086000D01*
X202565000Y-86106000D01*
X202585000Y-86106000D01*
X202585000Y-86360000D01*
X202565000Y-86360000D01*
X202565000Y-87553155D01*
X202794890Y-87674476D01*
X202942099Y-87629825D01*
X203204920Y-87504641D01*
X203438269Y-87330588D01*
X203633178Y-87114355D01*
X203782157Y-86864252D01*
X203836983Y-86709695D01*
X203949509Y-86920216D01*
X204103340Y-87107660D01*
X204290784Y-87261491D01*
X204504637Y-87375798D01*
X204736682Y-87446188D01*
X204917528Y-87464000D01*
X205038472Y-87464000D01*
X205219318Y-87446188D01*
X205451363Y-87375798D01*
X205665216Y-87261491D01*
X205852660Y-87107660D01*
X206006491Y-86920216D01*
X206120798Y-86706363D01*
X206191188Y-86474318D01*
X206214956Y-86233000D01*
X206191188Y-85991682D01*
X206120798Y-85759637D01*
X206006491Y-85545784D01*
X205852660Y-85358340D01*
X205668251Y-85207000D01*
X206330063Y-85207000D01*
X206314299Y-85236492D01*
X206314299Y-85236492D01*
G37*
X206314299Y-85236492D02*
X206292513Y-85308311D01*
X206285157Y-85383000D01*
X206285157Y-87083000D01*
X206292513Y-87157689D01*
X206314299Y-87229508D01*
X206349678Y-87295696D01*
X206397289Y-87353711D01*
X206455304Y-87401322D01*
X206521492Y-87436701D01*
X206593311Y-87458487D01*
X206668000Y-87465843D01*
X207026001Y-87465843D01*
X207026000Y-90431957D01*
X206982000Y-90431957D01*
X206858538Y-90444117D01*
X206739821Y-90480129D01*
X206630411Y-90538610D01*
X206534512Y-90617312D01*
X206455810Y-90713211D01*
X206397329Y-90822621D01*
X206361317Y-90941338D01*
X206349157Y-91064800D01*
X206349157Y-91989800D01*
X206361317Y-92113262D01*
X206397329Y-92231979D01*
X206455810Y-92341389D01*
X206534512Y-92437288D01*
X206630411Y-92515990D01*
X206739821Y-92574471D01*
X206858538Y-92610483D01*
X206982000Y-92622643D01*
X208232000Y-92622643D01*
X208355462Y-92610483D01*
X208474179Y-92574471D01*
X208583589Y-92515990D01*
X208679488Y-92437288D01*
X208758190Y-92341389D01*
X208816671Y-92231979D01*
X208852683Y-92113262D01*
X208864843Y-91989800D01*
X208864843Y-91064800D01*
X208852683Y-90941338D01*
X208816671Y-90822621D01*
X208758190Y-90713211D01*
X208679488Y-90617312D01*
X208583589Y-90538610D01*
X208474179Y-90480129D01*
X208355462Y-90444117D01*
X208232000Y-90431957D01*
X208188000Y-90431957D01*
X208188000Y-89176880D01*
X211441439Y-89176880D01*
X211481937Y-89440701D01*
X211573125Y-89691553D01*
X211629632Y-89797268D01*
X211865440Y-89859155D01*
X212621395Y-89103200D01*
X211865440Y-88347245D01*
X211629632Y-88409132D01*
X211516734Y-88650990D01*
X211453189Y-88910227D01*
X211441439Y-89176880D01*
X208188000Y-89176880D01*
X208188000Y-88167640D01*
X212045045Y-88167640D01*
X212801000Y-88923595D01*
X213556955Y-88167640D01*
X213495068Y-87931832D01*
X213253210Y-87818934D01*
X212993973Y-87755389D01*
X212727320Y-87743639D01*
X212463499Y-87784137D01*
X212212647Y-87875325D01*
X212106932Y-87931832D01*
X212045045Y-88167640D01*
X208188000Y-88167640D01*
X208188000Y-87465843D01*
X208368000Y-87465843D01*
X208442689Y-87458487D01*
X208514508Y-87436701D01*
X208580696Y-87401322D01*
X208638711Y-87353711D01*
X208686322Y-87295696D01*
X208721701Y-87229508D01*
X208743487Y-87157689D01*
X208750843Y-87083000D01*
X208750843Y-85383000D01*
X208743487Y-85308311D01*
X208721701Y-85236492D01*
X208705937Y-85207000D01*
X217300001Y-85207000D01*
X217300000Y-88167251D01*
X217179154Y-88247998D01*
X217038405Y-88388747D01*
X216200517Y-87550860D01*
X216182317Y-87528683D01*
X216093848Y-87456079D01*
X215992915Y-87402129D01*
X215883396Y-87368907D01*
X215798040Y-87360500D01*
X215769500Y-87357689D01*
X215740960Y-87360500D01*
X214887736Y-87360500D01*
X214859199Y-87357689D01*
X214830662Y-87360500D01*
X214830660Y-87360500D01*
X214745304Y-87368907D01*
X214635785Y-87402129D01*
X214534852Y-87456079D01*
X214446383Y-87528683D01*
X214428187Y-87550855D01*
X213762160Y-88216883D01*
X213739983Y-88235083D01*
X213676408Y-88312551D01*
X213667379Y-88323553D01*
X213613429Y-88424486D01*
X213593447Y-88490358D01*
X212980605Y-89103200D01*
X212994748Y-89117343D01*
X212815143Y-89296948D01*
X212801000Y-89282805D01*
X212045045Y-90038760D01*
X212106932Y-90274568D01*
X212348790Y-90387466D01*
X212608027Y-90451011D01*
X212874680Y-90462761D01*
X213138501Y-90422263D01*
X213389353Y-90331075D01*
X213495068Y-90274568D01*
X213556954Y-90038762D01*
X213571800Y-90053608D01*
X213571801Y-94890750D01*
X213568989Y-94919300D01*
X213580207Y-95033195D01*
X213613429Y-95142714D01*
X213667379Y-95243647D01*
X213667380Y-95243648D01*
X213739984Y-95332117D01*
X213762155Y-95350312D01*
X214745900Y-96334058D01*
X214745900Y-96362342D01*
X211350617Y-92967060D01*
X211332417Y-92944883D01*
X211243948Y-92872279D01*
X211143015Y-92818329D01*
X211033496Y-92785107D01*
X210948140Y-92776700D01*
X210919600Y-92773889D01*
X210891060Y-92776700D01*
X205589467Y-92776700D01*
X205589000Y-92732750D01*
X205430250Y-92574000D01*
X204381000Y-92574000D01*
X204381000Y-92594000D01*
X204127000Y-92594000D01*
X204127000Y-92574000D01*
X204107000Y-92574000D01*
X204107000Y-92320000D01*
X204127000Y-92320000D01*
X204127000Y-91395750D01*
X204381000Y-91395750D01*
X204381000Y-92320000D01*
X205430250Y-92320000D01*
X205589000Y-92161250D01*
X205592072Y-91872000D01*
X205579812Y-91747518D01*
X205543502Y-91627820D01*
X205484537Y-91517506D01*
X205405185Y-91420815D01*
X205308494Y-91341463D01*
X205198180Y-91282498D01*
X205078482Y-91246188D01*
X204954000Y-91233928D01*
X204539750Y-91237000D01*
X204381000Y-91395750D01*
X204127000Y-91395750D01*
X203968250Y-91237000D01*
X203554000Y-91233928D01*
X203429518Y-91246188D01*
X203309820Y-91282498D01*
X203199506Y-91341463D01*
X203102815Y-91420815D01*
X203023463Y-91517506D01*
X202964498Y-91627820D01*
X202928188Y-91747518D01*
X202924533Y-91784632D01*
X202827559Y-91687658D01*
X202699642Y-91602187D01*
X202557509Y-91543313D01*
X202406622Y-91513300D01*
X202252778Y-91513300D01*
X202110400Y-91541620D01*
X202110400Y-89143239D01*
X202113211Y-89114699D01*
X202101993Y-89000804D01*
X202068771Y-88891285D01*
X202014821Y-88790352D01*
X201991385Y-88761795D01*
X201942217Y-88701883D01*
X201920046Y-88683688D01*
X200528281Y-87291924D01*
X200585216Y-87261491D01*
X200772660Y-87107660D01*
X200926491Y-86920216D01*
X201039017Y-86709695D01*
X201093843Y-86864252D01*
X201242822Y-87114355D01*
X201437731Y-87330588D01*
X201671080Y-87504641D01*
X201933901Y-87629825D01*
X202081110Y-87674476D01*
X202311000Y-87553155D01*
X202311000Y-86360000D01*
X202291000Y-86360000D01*
X202291000Y-86106000D01*
X202311000Y-86106000D01*
X202311000Y-86086000D01*
X202565000Y-86086000D01*
X202565000Y-86106000D01*
X202585000Y-86106000D01*
X202585000Y-86360000D01*
X202565000Y-86360000D01*
X202565000Y-87553155D01*
X202794890Y-87674476D01*
X202942099Y-87629825D01*
X203204920Y-87504641D01*
X203438269Y-87330588D01*
X203633178Y-87114355D01*
X203782157Y-86864252D01*
X203836983Y-86709695D01*
X203949509Y-86920216D01*
X204103340Y-87107660D01*
X204290784Y-87261491D01*
X204504637Y-87375798D01*
X204736682Y-87446188D01*
X204917528Y-87464000D01*
X205038472Y-87464000D01*
X205219318Y-87446188D01*
X205451363Y-87375798D01*
X205665216Y-87261491D01*
X205852660Y-87107660D01*
X206006491Y-86920216D01*
X206120798Y-86706363D01*
X206191188Y-86474318D01*
X206214956Y-86233000D01*
X206191188Y-85991682D01*
X206120798Y-85759637D01*
X206006491Y-85545784D01*
X205852660Y-85358340D01*
X205668251Y-85207000D01*
X206330063Y-85207000D01*
X206314299Y-85236492D01*
%TD*%
M02*
