%FSLAX45Y45*%
G04 Gerber Fmt 4.5, Leading zero omitted, Abs format (unit mm)*
G04 Created by KiCad (PCBNEW (5.1.4-0-10_14)) date 2019-08-17 10:20:59*
%MOMM*%
%LPD*%
G04 APERTURE LIST*
%ADD10C,0.050000*%
%ADD11C,0.200000*%
%ADD12C,0.300000*%
G04 APERTURE END LIST*
D10*
X23114000Y-11328400D02*
G75*
G02X23012400Y-11430000I-101600J0D01*
G01*
X19050000Y-8521700D02*
G75*
G02X19151600Y-8420100I101600J0D01*
G01*
X19151600Y-11430000D02*
G75*
G02X19050000Y-11328400I0J101600D01*
G01*
X23012400Y-8420100D02*
G75*
G02X23114000Y-8521700I0J-101600D01*
G01*
X19151600Y-8420100D02*
X23012400Y-8420100D01*
X19050000Y-11328400D02*
X19050000Y-8521700D01*
X23012400Y-11430000D02*
X19151600Y-11430000D01*
X23114000Y-8521700D02*
X23114000Y-11328400D01*
D11*
D12*
X19333928Y-11898214D02*
X19333928Y-11598214D01*
X19405357Y-11598214D01*
X19448214Y-11612500D01*
X19476786Y-11641071D01*
X19491071Y-11669643D01*
X19505357Y-11726786D01*
X19505357Y-11769643D01*
X19491071Y-11826786D01*
X19476786Y-11855357D01*
X19448214Y-11883929D01*
X19405357Y-11898214D01*
X19333928Y-11898214D01*
X19633928Y-11898214D02*
X19633928Y-11698214D01*
X19633928Y-11755357D02*
X19648214Y-11726786D01*
X19662500Y-11712500D01*
X19691071Y-11698214D01*
X19719643Y-11698214D01*
X19819643Y-11898214D02*
X19819643Y-11698214D01*
X19819643Y-11598214D02*
X19805357Y-11612500D01*
X19819643Y-11626786D01*
X19833928Y-11612500D01*
X19819643Y-11598214D01*
X19819643Y-11626786D01*
X20005357Y-11898214D02*
X19976786Y-11883929D01*
X19962500Y-11855357D01*
X19962500Y-11598214D01*
X20162500Y-11898214D02*
X20133928Y-11883929D01*
X20119643Y-11855357D01*
X20119643Y-11598214D01*
X20505357Y-11898214D02*
X20505357Y-11598214D01*
X20605357Y-11812500D01*
X20705357Y-11598214D01*
X20705357Y-11898214D01*
X20976786Y-11898214D02*
X20976786Y-11741071D01*
X20962500Y-11712500D01*
X20933928Y-11698214D01*
X20876786Y-11698214D01*
X20848214Y-11712500D01*
X20976786Y-11883929D02*
X20948214Y-11898214D01*
X20876786Y-11898214D01*
X20848214Y-11883929D01*
X20833928Y-11855357D01*
X20833928Y-11826786D01*
X20848214Y-11798214D01*
X20876786Y-11783929D01*
X20948214Y-11783929D01*
X20976786Y-11769643D01*
X21119643Y-11698214D02*
X21119643Y-11998214D01*
X21119643Y-11712500D02*
X21148214Y-11698214D01*
X21205357Y-11698214D01*
X21233928Y-11712500D01*
X21248214Y-11726786D01*
X21262500Y-11755357D01*
X21262500Y-11841071D01*
X21248214Y-11869643D01*
X21233928Y-11883929D01*
X21205357Y-11898214D01*
X21148214Y-11898214D01*
X21119643Y-11883929D01*
X21391071Y-11869643D02*
X21405357Y-11883929D01*
X21391071Y-11898214D01*
X21376786Y-11883929D01*
X21391071Y-11869643D01*
X21391071Y-11898214D01*
X21391071Y-11712500D02*
X21405357Y-11726786D01*
X21391071Y-11741071D01*
X21376786Y-11726786D01*
X21391071Y-11712500D01*
X21391071Y-11741071D01*
M02*
